<svg width="100" height="100" viewBox="0 0 100 100" fill="none" xmlns="http://www.w3.org/2000/svg">
<path d="M77.7778 36.111C77.7778 66.6666 91.6667 63.8888 91.6667 77.7777C91.6667 77.7777 91.6667 83.3332 86.1111 83.3332H13.8889C8.33331 83.3332 8.33331 77.7777 8.33331 77.7777C8.33331 63.8888 22.2222 66.6666 22.2222 36.111C22.2222 20.7721 34.6583 8.33325 50 8.33325C65.3416 8.33325 77.7778 20.7721 77.7778 36.111Z" fill="#B5BDDB"/>
<path d="M50 16.6667C54.6024 16.6667 58.3334 12.9357 58.3334 8.33333C58.3334 3.73096 54.6024 0 50 0C45.3976 0 41.6667 3.73096 41.6667 8.33333C41.6667 12.9357 45.3976 16.6667 50 16.6667Z" fill="#B5BDDB"/>
<path d="M50 100C56.1361 100 61.1111 95.025 61.1111 88.8889H38.8889C38.8889 95.025 43.8639 100 50 100Z" fill="#B5BDDB"/>
</svg>
