<svg width="100" height="100" viewBox="0 0 100 100" fill="none" xmlns="http://www.w3.org/2000/svg">
<g clip-path="url(#clip0_2994_3033)">
<path d="M82.1382 91.6663C75.4243 91.6663 68.2493 88.0191 68.2493 77.7774C68.2493 72.0246 71.3549 68.1163 74.3577 64.3385C75.5327 62.8608 76.7216 61.3663 77.7993 59.7108C73.4799 55.7691 68.7271 52.7774 65.4716 52.7774V47.2219C69.9743 47.2219 75.4799 50.3691 80.4216 54.6385C81.4716 51.8746 82.1382 48.5913 82.1382 44.4441H87.6938C87.6938 50.4691 86.4493 55.0441 84.7021 58.7469C88.716 63.0302 91.8993 67.7191 93.1049 71.3413C95.016 77.0802 94.4466 83.0858 91.6188 87.0135C89.4577 90.0135 86.0882 91.6663 82.1382 91.6663ZM81.7771 63.7441C80.7549 65.2163 79.7021 66.5441 78.7077 67.7941C75.9688 71.2385 73.8049 73.9635 73.8049 77.7774C73.8049 84.6635 78.3382 86.1108 82.1382 86.1108C84.316 86.1108 85.991 85.3219 87.1132 83.7635C88.891 81.2969 89.1716 77.1108 87.8382 73.0996C86.9299 70.383 84.6438 66.983 81.7771 63.7441V63.7441Z" fill="#B5BDDB"/>
<path d="M57.8388 27.7761H23.8054C17.6693 27.7761 13.0193 32.7511 13.4166 38.8872L16.6666 88.8872C17.0666 95.0233 21.5971 99.9983 26.7916 99.9983H54.8527C60.0443 99.9983 64.5777 95.0233 64.9777 88.8872L68.2304 38.8872C68.6249 32.7511 63.9749 27.7761 57.8388 27.7761Z" fill="#B5BDDB"/>
<path d="M71.0318 91.6677H9.92066C8.38733 91.6677 7.14288 92.9094 7.14288 94.4455V100.001H73.8095V94.4455C73.8095 92.9094 72.5679 91.6677 71.0318 91.6677Z" fill="#B5BDDB"/>
<path d="M84.9207 27.7769C83.3846 27.7769 82.1429 26.5325 82.1429 24.9991V16.0102L87.9901 4.31302C88.679 2.9408 90.3457 2.38246 91.7179 3.07135C93.0901 3.75746 93.6457 5.42691 92.9596 6.79913L87.6984 17.3214V24.9991C87.6984 26.5325 86.4568 27.7769 84.9207 27.7769Z" fill="#B5BDDB"/>
<path d="M91.8682 44.4461H89.7098C90.1876 43.6267 90.4793 42.685 90.4793 41.6683V30.5572C90.4793 28.5072 89.3571 26.735 87.7015 25.7711V25.0017C87.7015 23.4683 86.4598 22.2239 84.9237 22.2239C83.3876 22.2239 82.1459 23.4683 82.1459 25.0017V25.7711C80.4904 26.735 79.3682 28.5044 79.3682 30.5572V41.6683C79.3682 42.685 79.6598 43.6267 80.1376 44.4461H77.9793C77.2126 44.4461 76.5904 45.0683 76.5904 45.835C76.5904 46.6017 77.2126 47.2239 77.9793 47.2239H91.8682C92.6348 47.2239 93.2571 46.6017 93.2571 45.835C93.2571 45.0683 92.6348 44.4461 91.8682 44.4461Z" fill="#B5BDDB"/>
<path d="M68.2477 38.8896C68.2477 40.4229 69.4894 41.6674 71.0255 41.6674H84.9144C86.4505 41.6674 87.6922 40.4229 87.6922 38.8896C87.6922 37.3563 86.4505 36.1118 84.9144 36.1118H71.0255C69.4894 36.1118 68.2477 37.3563 68.2477 38.8896Z" fill="#B5BDDB"/>
<path d="M73.8095 38.8889C73.8095 45.025 68.8345 50 62.6984 50H18.254C12.1179 50 7.14288 45.025 7.14288 38.8889V11.1111C7.14288 4.975 12.1179 0 18.254 0H62.6984C68.8345 0 73.8095 4.975 73.8095 11.1111V38.8889Z" fill="#B5BDDB"/>
<path d="M68.2509 38.8892C68.2509 41.9559 65.762 44.4448 62.6953 44.4448H18.2509C15.1842 44.4448 12.6953 41.9559 12.6953 38.8892V11.1115C12.6953 8.0448 15.1842 5.55591 18.2509 5.55591H62.6953C65.762 5.55591 68.2509 8.0448 68.2509 11.1115V38.8892Z" fill="#1B2236"/>
<path d="M34.9191 13.8882H59.9191V22.2215H34.9191V13.8882Z" fill="#B5BDDB"/>
</g>
<defs>
<clipPath id="clip0_2994_3033">
<rect width="100" height="100" fill="white"/>
</clipPath>
</defs>
</svg>
