<svg width="27" height="27" viewBox="0 0 27 27" fill="none" xmlns="http://www.w3.org/2000/svg">
<g clip-path="url(#clip0_2816_1644)">
<path d="M26.25 14.2502C26.25 12.7037 25.9747 11.221 25.47 9.84924C25.125 13.891 22.9703 15.967 20.7188 15.0002C18.6097 14.0942 20.031 10.5625 20.136 8.87724C20.313 6.02049 20.127 2.75049 14.9377 0.0317383C17.094 4.15674 15.1875 6.71949 13.188 6.87549C10.9695 7.04874 8.93775 4.96899 9.68775 1.59399C7.25925 3.38349 7.18875 6.39549 7.938 8.34399C8.7195 10.375 7.9065 12.0625 6.00075 12.25C3.87075 12.46 2.68725 9.96924 3.7785 6.00024C1.89 8.22399 0.75 11.104 0.75 14.2502C0.75 21.292 6.45825 27.0002 13.5 27.0002C20.5417 27.0002 26.25 21.292 26.25 14.2502Z" fill="#F4900C"/>
<path d="M21.2955 17.9995C21.4065 20.3125 19.3747 21.2192 18.2812 20.7812C16.7018 20.149 17.1255 19.063 16.719 16.813C16.3125 14.563 14.7502 13.0007 12.438 12.313C14.1255 17.0627 11.5027 18.8132 10.128 19.126C8.724 19.4455 7.31325 19.1252 7.152 16.1207C5.514 17.7512 4.5 20.0072 4.5 22.5002C4.5 22.7762 4.51725 23.0477 4.54125 23.3177C6.84375 25.5932 10.0065 27.0002 13.5 27.0002C16.9935 27.0002 20.1562 25.5932 22.4587 23.3177C22.4827 23.0477 22.5 22.7762 22.5 22.5002C22.5 20.86 22.062 19.3232 21.2955 17.9995Z" fill="#FFCC4D"/>
</g>
<defs>
<clipPath id="clip0_2816_1644">
<rect width="27" height="27" fill="white"/>
</clipPath>
</defs>
</svg>
