<svg width="100" height="100" viewBox="0 0 100 100" fill="none" xmlns="http://www.w3.org/2000/svg">
<path d="M84.7222 51.5889L72.2222 69.4444H79.375C76.2361 80.5222 67.0278 89.0278 55.5556 91.1389V47.2222H63.8889C66.9556 47.2222 69.4444 44.7333 69.4444 41.6667C69.4444 38.6 66.9556 36.1111 63.8889 36.1111H55.5556V32.3639H44.4444V36.1111H36.1111C33.0444 36.1111 30.5556 38.6 30.5556 41.6667C30.5556 44.7333 33.0444 47.2222 36.1111 47.2222H44.4444V91.1389C32.9722 89.0278 23.7639 80.525 20.625 69.4444H27.7778L15.2778 51.5889L2.77777 69.4444H12.0278C15.8472 86.9139 31.3861 100 50 100C68.6139 100 84.1528 86.9139 87.9722 69.4444H97.2222L84.7222 51.5889Z" fill="white"/>
<path d="M50 0C40.7944 0 33.3333 7.46111 33.3333 16.6667C33.3333 25.8722 40.7944 33.3333 50 33.3333C59.2055 33.3333 66.6666 25.8722 66.6666 16.6667C66.6666 7.46111 59.2055 0 50 0ZM50 25C45.3972 25 41.6666 21.2694 41.6666 16.6667C41.6666 12.0639 45.3972 8.33333 50 8.33333C54.6028 8.33333 58.3333 12.0639 58.3333 16.6667C58.3333 21.2694 54.6028 25 50 25Z" fill="white"/>
</svg>
