<svg width="100" height="100" viewBox="0 0 100 100" fill="none" xmlns="http://www.w3.org/2000/svg">
<path d="M41.6667 25L58.3333 8.33331C58.3333 8.33331 75 -8.33336 91.6666 8.33331C108.333 25 91.6666 41.6666 91.6666 41.6666L69.4444 63.8889C69.4444 63.8889 52.7778 80.5555 36.1111 63.8889C32.9861 60.7639 31.05 56.6111 31.05 56.6111L40.3639 47.3111C40.3639 47.3111 39.9889 51.1 44.4444 55.5555C44.4444 55.5555 52.7778 63.8889 61.1111 55.5555L83.3333 33.3333C83.3333 33.3333 91.6666 25 83.3333 16.6666C75 8.33331 66.6667 16.6666 66.6667 16.6666L56.3083 27.025C56.3083 27.025 51.1583 22.8 40.625 26.0416L41.6667 25Z" fill="white"/>
<path d="M57.9028 75L41.2361 91.6667C41.2361 91.6667 24.5694 108.333 7.90277 91.6667C-8.7639 75 7.90277 58.3334 7.90277 58.3334L30.125 36.1111C30.125 36.1111 46.7917 19.4445 63.4583 36.1111C66.5833 39.2361 68.5194 43.3889 68.5194 43.3889L59.2028 52.6917C59.2028 52.6917 59.5778 48.9 55.1222 44.4445C55.1222 44.4445 46.7889 36.1111 38.4555 44.4445L16.2333 66.6667C16.2333 66.6667 7.89999 75 16.2333 83.3334C24.5667 91.6667 32.9 83.3334 32.9 83.3334L43.2583 72.975C43.2583 72.975 48.4083 77.2 58.9417 73.9584L57.9028 75Z" fill="white"/>
</svg>
