<svg width="12" height="14" viewBox="0 0 12 14" fill="none" xmlns="http://www.w3.org/2000/svg">
<path d="M9.72235 5.05545C9.72235 9.33328 11.6668 8.94439 11.6668 10.8889C11.6668 10.8889 11.6668 11.6666 10.889 11.6666H0.777788C0 11.6666 0 10.8889 0 10.8889C0 8.94439 1.94447 9.33328 1.94447 5.05545C1.94447 2.90797 3.68555 1.1665 5.83341 1.1665C7.98128 1.1665 9.72235 2.90797 9.72235 5.05545Z" fill="#B5BDDB"/>
<path d="M5.83367 2.33337C6.47802 2.33337 7.00036 1.81102 7.00036 1.16668C7.00036 0.522342 6.47802 0 5.83367 0C5.18933 0 4.66699 0.522342 4.66699 1.16668C4.66699 1.81102 5.18933 2.33337 5.83367 2.33337Z" fill="#B5BDDB"/>
<path d="M5.8339 14.0004C6.69296 14.0004 7.38947 13.3039 7.38947 12.4448H4.27832C4.27832 13.3039 4.97483 14.0004 5.8339 14.0004Z" fill="#B5BDDB"/>
</svg>
