<svg width="22" height="22" viewBox="0 0 22 22" fill="none" xmlns="http://www.w3.org/2000/svg">
<path d="M18.7254 18.1104C9.64503 22.4319 4.00966 18.8163 0.40228 16.6202C0.179057 16.4818 -0.200345 16.6526 0.128838 17.0307C1.33064 18.4879 5.26918 22.0001 10.4101 22.0001C15.5546 22.0001 18.6151 19.1931 18.998 18.7034C19.3782 18.2179 19.1096 17.95 18.7253 18.1104H18.7254ZM21.2756 16.7021C21.0317 16.3845 19.7928 16.3254 19.0131 16.4211C18.2323 16.5141 17.0601 16.9914 17.162 17.278C17.2143 17.3853 17.3211 17.3371 17.8575 17.2889C18.3954 17.2352 19.9023 17.0451 20.2163 17.4555C20.5318 17.8688 19.7357 19.8377 19.5903 20.1552C19.4498 20.4728 19.644 20.5547 19.9078 20.3432C20.1681 20.1318 20.6392 19.5843 20.9554 18.8095C21.2694 18.0305 21.4608 16.9439 21.2755 16.7021H21.2756Z" fill="#B5BDDB"/>
<path fill-rule="evenodd" clip-rule="evenodd" d="M12.6199 9.29235C12.6199 10.4262 12.6486 11.3718 12.0755 12.3788C11.6129 13.1976 10.8801 13.7011 10.0615 13.7011C8.94388 13.7011 8.29302 12.8496 8.29302 11.5929C8.29302 9.11218 10.5158 8.66194 12.6199 8.66194V9.29235ZM15.555 16.3865C15.3625 16.5583 15.0842 16.5707 14.8673 16.456C13.9012 15.6537 13.7292 15.2812 13.1971 14.5157C11.6006 16.1449 10.4708 16.632 8.3995 16.632C5.95156 16.632 4.04395 15.1215 4.04395 12.0964C4.04395 9.73448 5.3253 8.12567 7.1468 7.33977C8.72696 6.64379 10.9334 6.521 12.6199 6.32867V5.95203C12.6199 5.26019 12.6731 4.4415 12.2679 3.84388C11.9117 3.30761 11.2322 3.08655 10.6345 3.08655C9.52519 3.08655 8.53454 3.65552 8.29302 4.83445C8.24384 5.0965 8.05151 5.35441 7.78954 5.36666L4.96496 5.0638C4.72759 5.01048 4.46563 4.81814 4.53112 4.45376C5.18197 1.03164 8.27249 0 11.0397 0C12.4561 0 14.3063 0.37664 15.4239 1.44918C16.8403 2.77134 16.7051 4.53564 16.7051 6.45551V10.9912C16.7051 12.3543 17.2701 12.9519 17.8022 13.6888C17.9905 13.9508 18.0315 14.2661 17.794 14.4625C17.2004 14.9577 16.1443 15.8788 15.5631 16.3947L15.5549 16.3865" fill="#B5BDDB"/>
<path d="M18.7254 18.1104C9.64503 22.4319 4.00966 18.8163 0.40228 16.6202C0.179057 16.4818 -0.200345 16.6526 0.128838 17.0307C1.33064 18.4879 5.26918 22.0001 10.4101 22.0001C15.5546 22.0001 18.6151 19.1931 18.998 18.7034C19.3782 18.2179 19.1096 17.95 18.7253 18.1104H18.7254ZM21.2756 16.7021C21.0317 16.3845 19.7928 16.3254 19.0131 16.4211C18.2323 16.5141 17.0601 16.9914 17.162 17.278C17.2143 17.3853 17.3211 17.3371 17.8575 17.2889C18.3954 17.2352 19.9023 17.0451 20.2163 17.4555C20.5318 17.8688 19.7357 19.8377 19.5903 20.1552C19.4498 20.4728 19.644 20.5547 19.9078 20.3432C20.1681 20.1318 20.6392 19.5843 20.9554 18.8095C21.2694 18.0305 21.4608 16.9439 21.2755 16.7021H21.2756Z" fill="#B5BDDB"/>
<path fill-rule="evenodd" clip-rule="evenodd" d="M12.6199 9.29235C12.6199 10.4262 12.6486 11.3718 12.0755 12.3788C11.6129 13.1976 10.8801 13.7011 10.0615 13.7011C8.94388 13.7011 8.29302 12.8496 8.29302 11.5929C8.29302 9.11218 10.5158 8.66194 12.6199 8.66194V9.29235ZM15.555 16.3865C15.3625 16.5583 15.0842 16.5707 14.8673 16.456C13.9012 15.6537 13.7292 15.2812 13.1971 14.5157C11.6006 16.1449 10.4708 16.632 8.3995 16.632C5.95156 16.632 4.04395 15.1215 4.04395 12.0964C4.04395 9.73448 5.3253 8.12567 7.1468 7.33977C8.72696 6.64379 10.9334 6.521 12.6199 6.32867V5.95203C12.6199 5.26019 12.6731 4.4415 12.2679 3.84388C11.9117 3.30761 11.2322 3.08655 10.6345 3.08655C9.52519 3.08655 8.53454 3.65552 8.29302 4.83445C8.24384 5.0965 8.05151 5.35441 7.78954 5.36666L4.96496 5.0638C4.72759 5.01048 4.46563 4.81814 4.53112 4.45376C5.18197 1.03164 8.27249 0 11.0397 0C12.4561 0 14.3063 0.37664 15.4239 1.44918C16.8403 2.77134 16.7051 4.53564 16.7051 6.45551V10.9912C16.7051 12.3543 17.2701 12.9519 17.8022 13.6888C17.9905 13.9508 18.0315 14.2661 17.794 14.4625C17.2004 14.9577 16.1443 15.8788 15.5631 16.3947L15.5549 16.3865" fill="#B5BDDB"/>
</svg>
