<svg width="22" height="22" viewBox="0 0 22 22" fill="none" xmlns="http://www.w3.org/2000/svg">
<path d="M18.7254 18.1102C9.64506 22.4315 4.00967 18.816 0.402281 16.6199C0.179057 16.4815 -0.200346 16.6523 0.128838 17.0304C1.33064 18.4876 5.2692 21.9998 10.4102 21.9998C15.5547 21.9998 18.6152 19.1928 18.998 18.7031C19.3783 18.2176 19.1097 17.9498 18.7254 18.1102H18.7254ZM21.2757 16.7018C21.0318 16.3843 19.7929 16.3251 19.0132 16.4209C18.2323 16.5139 17.0602 16.9911 17.1621 17.2777C17.2144 17.385 17.3211 17.3369 17.8576 17.2886C18.3955 17.235 19.9024 17.0448 20.2164 17.4553C20.5319 17.8686 19.7358 19.8374 19.5904 20.1549C19.4499 20.4725 19.6441 20.5543 19.9079 20.3429C20.1682 20.1315 20.6393 19.584 20.9554 18.8092C21.2694 18.0303 21.4609 16.9436 21.2756 16.7018H21.2757Z" fill="#FF9900"/>
<path fill-rule="evenodd" clip-rule="evenodd" d="M12.6199 9.29235C12.6199 10.4262 12.6485 11.3718 12.0754 12.3788C11.6128 13.1976 10.8801 13.7011 10.0614 13.7011C8.94385 13.7011 8.293 12.8496 8.293 11.5929C8.293 9.11218 10.5157 8.66194 12.6199 8.66194V9.29235ZM15.5549 16.3865C15.3625 16.5583 15.0841 16.5707 14.8672 16.456C13.9011 15.6537 13.7292 15.2812 13.197 14.5157C11.6006 16.1449 10.4708 16.632 8.39947 16.632C5.95155 16.632 4.04395 15.1215 4.04395 12.0964C4.04395 9.73448 5.32529 8.12567 7.14678 7.33977C8.72693 6.64379 10.9333 6.521 12.6199 6.32867V5.95203C12.6199 5.26019 12.673 4.4415 12.2678 3.84388C11.9116 3.30761 11.2321 3.08655 10.6344 3.08655C9.52516 3.08655 8.53451 3.65552 8.293 4.83445C8.24381 5.0965 8.05148 5.35441 7.78952 5.36666L4.96496 5.0638C4.72759 5.01047 4.46562 4.81814 4.53111 4.45376C5.18197 1.03164 8.27246 0 11.0396 0C12.456 0 14.3062 0.37664 15.4238 1.44918C16.8402 2.77134 16.7051 4.53564 16.7051 6.45551V10.9912C16.7051 12.3543 17.27 12.9519 17.8021 13.6888C17.9904 13.9508 18.0314 14.2661 17.7939 14.4625C17.2004 14.9577 16.1442 15.8788 15.563 16.3947L15.5548 16.3865" fill="black"/>
<path d="M18.7254 18.1102C9.64506 22.4315 4.00967 18.816 0.402281 16.6199C0.179057 16.4815 -0.200346 16.6523 0.128838 17.0304C1.33064 18.4876 5.2692 21.9998 10.4102 21.9998C15.5547 21.9998 18.6152 19.1928 18.998 18.7031C19.3783 18.2176 19.1097 17.9498 18.7254 18.1102H18.7254ZM21.2757 16.7018C21.0318 16.3843 19.7929 16.3251 19.0132 16.4209C18.2323 16.5139 17.0602 16.9911 17.1621 17.2777C17.2144 17.385 17.3211 17.3369 17.8576 17.2886C18.3955 17.235 19.9024 17.0448 20.2164 17.4553C20.5319 17.8686 19.7358 19.8374 19.5904 20.1549C19.4499 20.4725 19.6441 20.5543 19.9079 20.3429C20.1682 20.1315 20.6393 19.584 20.9554 18.8092C21.2694 18.0303 21.4609 16.9436 21.2756 16.7018H21.2757Z" fill="#FF9900"/>
<path fill-rule="evenodd" clip-rule="evenodd" d="M12.6199 9.29235C12.6199 10.4262 12.6485 11.3718 12.0754 12.3788C11.6128 13.1976 10.8801 13.7011 10.0614 13.7011C8.94385 13.7011 8.293 12.8496 8.293 11.5929C8.293 9.11218 10.5157 8.66194 12.6199 8.66194V9.29235ZM15.5549 16.3865C15.3625 16.5583 15.0841 16.5707 14.8672 16.456C13.9011 15.6537 13.7292 15.2812 13.197 14.5157C11.6006 16.1449 10.4708 16.632 8.39947 16.632C5.95155 16.632 4.04395 15.1215 4.04395 12.0964C4.04395 9.73448 5.32529 8.12567 7.14678 7.33977C8.72693 6.64379 10.9333 6.521 12.6199 6.32867V5.95203C12.6199 5.26019 12.673 4.4415 12.2678 3.84388C11.9116 3.30761 11.2321 3.08655 10.6344 3.08655C9.52516 3.08655 8.53451 3.65552 8.293 4.83445C8.24381 5.0965 8.05148 5.35441 7.78952 5.36666L4.96496 5.0638C4.72759 5.01047 4.46562 4.81814 4.53111 4.45376C5.18197 1.03164 8.27246 0 11.0396 0C12.456 0 14.3062 0.37664 15.4238 1.44918C16.8402 2.77134 16.7051 4.53564 16.7051 6.45551V10.9912C16.7051 12.3543 17.27 12.9519 17.8021 13.6888C17.9904 13.9508 18.0314 14.2661 17.7939 14.4625C17.2004 14.9577 16.1442 15.8788 15.563 16.3947L15.5548 16.3865" fill="black"/>
</svg>
