<svg width="20" height="22" viewBox="0 0 20 22" fill="none" xmlns="http://www.w3.org/2000/svg">
<path d="M15.9541 21.1141C14.7606 22.2721 13.4439 22.0916 12.1887 21.5456C10.8544 20.9886 9.63448 20.9533 8.22523 21.5456C6.47028 22.303 5.53885 22.0828 4.48192 21.1141C-1.48537 14.9714 -0.604587 5.61427 6.17742 5.262C7.82228 5.35007 8.9739 6.1713 9.94275 6.23955C11.3828 5.94672 12.7613 5.10789 14.3026 5.21797C16.1545 5.36768 17.5395 6.09864 18.4643 7.41304C14.6549 9.70278 15.5577 14.7226 19.0566 16.1317C18.3564 17.9701 17.458 19.7865 15.9519 21.1295L15.9541 21.1141ZM9.81064 5.19595C9.63228 2.46588 11.8452 0.220168 14.3907 0C14.7408 3.1484 11.5282 5.50419 9.81064 5.19595Z" fill="#B5BDDB"/>
</svg>
