<svg width="100" height="100" viewBox="0 0 100 100" fill="none" xmlns="http://www.w3.org/2000/svg">
<path d="M100 41.6666C100 47.8027 95.025 52.7777 88.8889 52.7777H11.1111C4.975 52.7777 0 47.8027 0 41.6666V19.4444C0 13.3083 4.975 8.33325 11.1111 8.33325H88.8889C95.025 8.33325 100 13.3083 100 19.4444V41.6666Z" fill="#FFCC4D"/>
<path d="M16.6667 8.33325H11.1111C4.975 8.33325 0 13.3083 0 19.4444V24.9999L16.6667 8.33325ZM33.3333 8.33325L0 41.6666C0 45.4444 1.89444 48.7721 4.77778 50.7777L47.2222 8.33325H33.3333ZM19.4444 52.7777H33.3333L77.7778 8.33325H63.8889L19.4444 52.7777ZM63.8889 52.7777L99.7 16.9666C98.9194 13.5499 96.5722 10.7444 93.4444 9.33325L50 52.7777H63.8889ZM100 41.6666V33.3333L80.5556 52.7777H88.8889C95.025 52.7777 100 47.8027 100 41.6666Z" fill="#292F33"/>
<path d="M11.1111 52.7778H25V91.6667H11.1111V52.7778ZM75 52.7778H88.8889V91.6667H75V52.7778Z" fill="#99AAB5"/>
</svg>
