<svg width="100" height="100" viewBox="0 0 100 100" fill="none" xmlns="http://www.w3.org/2000/svg">
<path d="M63.8889 58.3334C63.8889 75.9778 55.5555 86.1111 50 86.1111C44.4444 86.1111 36.1111 75.9778 36.1111 58.3334C36.1111 40.6889 42.3305 38.8889 50 38.8889C57.6722 38.8889 63.8889 40.6889 63.8889 58.3334Z" fill="#66757F"/>
<path d="M50 41.6666C56.1365 41.6666 61.1111 36.6919 61.1111 30.5554C61.1111 24.4189 56.1365 19.4443 50 19.4443C43.8635 19.4443 38.8889 24.4189 38.8889 30.5554C38.8889 36.6919 43.8635 41.6666 50 41.6666Z" fill="#66757F"/>
<path d="M38.8889 30.5555C33.3334 16.6666 41.6667 11.1111 41.6667 11.1111C41.6667 11.1111 47.2222 13.8889 47.2222 22.2222C47.2222 30.5555 38.8889 30.5555 38.8889 30.5555Z" fill="#66757F"/>
<path d="M40.7445 27.511C38.5889 20.686 40.4139 16.6888 41.8639 14.7888C43.0167 16.036 44.4445 18.3555 44.4445 22.2222C44.4445 25.7444 42.3917 27.0388 40.7445 27.511Z" fill="#546066"/>
<path d="M61.1111 30.5555C66.6667 16.6666 58.3333 11.1111 58.3333 11.1111C58.3333 11.1111 52.7778 13.8889 52.7778 22.2222C52.7778 30.5555 61.1111 30.5555 61.1111 30.5555ZM44.4889 38.8889C39.9889 42.1027 16.7111 44.4444 19.4889 25C19.8833 22.25 16.7111 22.2222 13.9333 25C5.59999 33.3333 -2.73335 46.7611 2.82221 80.5555C11.1555 66.6666 19.4889 69.4444 22.2667 83.3333C30.6 72.2222 38.9333 77.7777 44.4889 83.3333C52.8222 75 44.4889 38.8889 44.4889 38.8889ZM55.425 38.8889C59.925 42.1027 83.2028 44.4444 80.425 25C80.0305 22.25 83.2028 22.2222 85.9805 25C94.3139 33.3333 102.647 46.7611 97.0917 80.5555C88.7583 66.6666 80.425 69.4444 77.6472 83.3333C69.3139 72.2222 60.9805 77.7777 55.425 83.3333C47.0917 75 55.425 38.8889 55.425 38.8889Z" fill="#66757F"/>
<path d="M44.4445 33.3334C45.9786 33.3334 47.2222 32.0897 47.2222 30.5556C47.2222 29.0215 45.9786 27.7778 44.4445 27.7778C42.9103 27.7778 41.6667 29.0215 41.6667 30.5556C41.6667 32.0897 42.9103 33.3334 44.4445 33.3334Z" fill="#292F33"/>
<path d="M55.5555 33.3334C57.0897 33.3334 58.3333 32.0897 58.3333 30.5556C58.3333 29.0215 57.0897 27.7778 55.5555 27.7778C54.0214 27.7778 52.7778 29.0215 52.7778 30.5556C52.7778 32.0897 54.0214 33.3334 55.5555 33.3334Z" fill="#292F33"/>
<path d="M59.2555 27.511C61.4083 20.686 59.5833 16.6888 58.1361 14.7888C56.9833 16.036 55.5555 18.3555 55.5555 22.2222C55.5555 25.7444 57.6083 27.0388 59.2555 27.511Z" fill="#546066"/>
<path d="M22.2111 74.75C24.6889 67.275 23.8028 58.1167 19.4445 47.2222C15.3139 36.8917 15.7917 29.6417 16.3083 26.6028C16.1722 26.7167 16.0417 26.8195 15.8972 26.9639C8.38057 34.4833 1.32501 45.9195 4.61112 73.4333C8.15557 69.6028 11.3111 68.6472 13.5778 68.6472C17.0917 68.6472 20.0583 70.8222 22.2111 74.75Z" fill="#99AAB5"/>
<path d="M18.9778 36.8056C18.925 36.7222 18.8639 36.6445 18.8111 36.5639C19.4444 44.4445 23.3333 47.225 25 55.5556C26.6333 63.7222 26.3222 70.8861 25.2444 76.5667C27.575 74.9806 30.0389 74.1389 32.6222 74.1389C36.1333 74.1389 39.7 75.6333 43.4417 78.6583C38.8889 52.7778 25 47.2222 18.9778 36.8056ZM77.7889 74.75C75.3083 67.275 76.2 58.1167 80.5555 47.2222C84.6861 36.8917 84.2083 29.6417 83.6917 26.6028C83.8278 26.7167 83.9611 26.8195 84.1028 26.9639C91.6194 34.4833 98.675 45.9195 95.3889 73.4333C91.8472 69.6028 88.6889 68.6472 86.425 68.6472C82.9083 68.6472 79.9417 70.8222 77.7889 74.75Z" fill="#99AAB5"/>
<path d="M81.0222 36.8057L81.1917 36.564C80.5555 44.4446 76.6667 47.2251 75 55.5557C73.3666 63.7223 73.675 70.8862 74.7555 76.5668C72.4222 74.9807 69.9611 74.139 67.3778 74.139C63.8667 74.139 60.3 75.6334 56.5583 78.6584C61.1111 52.7779 75 47.2223 81.0222 36.8057ZM51.9111 36.4057C50.8611 37.4557 49.1389 37.4557 48.0916 36.4057L46.5083 34.8196C45.4583 33.7696 45.8139 32.9084 47.3 32.9084H52.7028C54.1889 32.9084 54.5472 33.7668 53.4944 34.8196L51.9111 36.4057Z" fill="#99AAB5"/>
</svg>
