<svg width="32" height="32" viewBox="0 0 32 32" fill="none" xmlns="http://www.w3.org/2000/svg">
<path d="M31.5197 19.8706C29.3827 28.4421 20.7012 33.6586 12.1287 31.521C3.55968 29.3841 -1.65682 20.7021 0.481183 12.1311C2.61718 3.55855 11.2987 -1.65845 19.8687 0.478554C28.4407 2.61555 33.6567 11.2986 31.5197 19.8706Z" fill="#464B6F"/>
<path d="M23.0551 13.7205C23.3736 11.5915 21.7526 10.447 19.5361 9.68345L20.2551 6.79945L18.4996 6.36195L17.7996 9.16995C17.3381 9.05495 16.8641 8.94645 16.3931 8.83895L17.0981 6.01245L15.3436 5.57495L14.6241 8.45795C14.2421 8.37095 13.8671 8.28495 13.5031 8.19445L13.5051 8.18545L11.0841 7.58095L10.6171 9.45595C10.6171 9.45595 11.9196 9.75445 11.8921 9.77295C12.6031 9.95045 12.7316 10.421 12.7101 10.794L11.8911 14.0795C11.9401 14.092 12.0036 14.11 12.0736 14.1379C12.0151 14.1235 11.9526 14.1075 11.8881 14.092L10.7401 18.6944C10.6531 18.9104 10.4326 19.2345 9.93559 19.1115C9.95309 19.137 8.65959 18.7929 8.65959 18.7929L7.78809 20.8025L10.0726 21.372C10.4976 21.4784 10.9141 21.59 11.3241 21.695L10.5976 24.6119L12.3511 25.0494L13.0706 22.1635C13.5496 22.2934 14.0146 22.4134 14.4696 22.5264L13.7526 25.3989L15.5081 25.8364L16.2346 22.9249C19.2281 23.4914 21.4791 23.2629 22.4266 20.5554C23.1901 18.3754 22.3886 17.1179 20.8136 16.2979C21.9606 16.0334 22.8246 15.279 23.0551 13.7205ZM19.0441 19.3449C18.5016 21.525 14.8311 20.3464 13.6411 20.0509L14.6051 16.1865C15.7951 16.4834 19.6111 17.0715 19.0441 19.3449ZM19.5871 13.689C19.0921 15.672 16.0371 14.6644 15.0461 14.4174L15.9201 10.9125C16.9111 11.1595 20.1026 11.6205 19.5871 13.689Z" fill="#B5BDDB"/>
</svg>
