<svg width="16" height="21" viewBox="0 0 16 21" fill="none" xmlns="http://www.w3.org/2000/svg">
<path d="M15.8235 8.44239C16.1536 6.23579 14.4735 5.04958 12.1762 4.25825L12.9214 1.26913L11.1019 0.815685L10.3764 3.72603C9.89808 3.60684 9.40681 3.49439 8.91864 3.38297L9.64934 0.453446L7.83089 0L7.08516 2.98808C6.68924 2.89791 6.30057 2.80878 5.9233 2.71498L5.92538 2.70565L3.41613 2.07912L2.93211 4.02246C2.93211 4.02246 4.28209 4.33184 4.25359 4.35101C4.9905 4.53498 5.12368 5.02263 5.1014 5.40922L4.25255 8.81448C4.30333 8.82743 4.36915 8.84609 4.4417 8.87511C4.38107 8.86008 4.31629 8.8435 4.24944 8.82743L3.0596 13.5977C2.96943 13.8216 2.74089 14.1574 2.22577 14.0299C2.24391 14.0563 0.903265 13.6998 0.903265 13.6998L0 15.7825L2.36777 16.3728C2.80826 16.4832 3.23994 16.5987 3.66488 16.7076L2.9119 19.7309L4.72932 20.1843L5.47504 17.1931C5.9715 17.3279 6.45345 17.4522 6.92503 17.5694L6.1819 20.5466L8.00138 21L8.75436 17.9824C11.857 18.5695 14.19 18.3327 15.1721 15.5265C15.9634 13.2671 15.1327 11.9637 13.5003 11.1138C14.6891 10.8397 15.5846 10.0577 15.8235 8.44239ZM11.6663 14.2719C11.104 16.5314 7.29971 15.3099 6.06633 15.0036L7.06547 10.9983C8.29884 11.3061 12.2539 11.9155 11.6663 14.2719ZM12.2291 8.40974C11.716 10.465 8.54966 9.4208 7.52254 9.16479L8.4284 5.53204C9.45552 5.78805 12.7633 6.26585 12.2291 8.40974Z" fill="#B5BDDB"/>
</svg>
