<svg width="32" height="32" viewBox="0 0 32 32" fill="none" xmlns="http://www.w3.org/2000/svg">
<path d="M31.5177 19.8708C29.3807 28.4423 20.6992 33.6588 12.1267 31.5213C3.55773 29.3843 -1.65877 20.7023 0.47923 12.1313C2.61523 3.5588 11.2967 -1.6582 19.8667 0.478798C28.4387 2.6158 33.6547 11.2988 31.5177 19.8708Z" fill="#464B6F"/>
<path d="M23.0531 13.7202C23.3716 11.5912 21.7506 10.4467 19.5341 9.68321L20.2531 6.79921L18.4976 6.36171L17.7976 9.16971C17.3361 9.05471 16.8621 8.94621 16.3911 8.83871L17.0961 6.01221L15.3416 5.57471L14.6221 8.45771C14.2401 8.37071 13.8651 8.28471 13.5011 8.19421L13.5031 8.18521L11.0821 7.58071L10.6151 9.45571C10.6151 9.45571 11.9176 9.75421 11.8901 9.77271C12.6011 9.95021 12.7296 10.4207 12.7081 10.7937L11.8891 14.0792C11.9381 14.0917 12.0016 14.1097 12.0716 14.1377C12.0131 14.1232 11.9506 14.1072 11.8861 14.0917L10.7381 18.6942C10.6511 18.9102 10.4306 19.2342 9.93363 19.1112C9.95113 19.1367 8.65763 18.7927 8.65763 18.7927L7.78613 20.8022L10.0706 21.3717C10.4956 21.4782 10.9121 21.5897 11.3221 21.6947L10.5956 24.6117L12.3491 25.0492L13.0686 22.1632C13.5476 22.2932 14.0126 22.4132 14.4676 22.5262L13.7506 25.3987L15.5061 25.8362L16.2326 22.9247C19.2261 23.4912 21.4771 23.2627 22.4246 20.5552C23.1881 18.3752 22.3866 17.1177 20.8116 16.2977C21.9586 16.0332 22.8226 15.2787 23.0531 13.7202ZM19.0421 19.3447C18.4996 21.5247 14.8291 20.3462 13.6391 20.0507L14.6031 16.1862C15.7931 16.4832 19.6091 17.0712 19.0421 19.3447ZM19.5851 13.6887C19.0901 15.6717 16.0351 14.6642 15.0441 14.4172L15.9181 10.9122C16.9091 11.1592 20.1006 11.6202 19.5851 13.6887Z" fill="#B5BDDB"/>
</svg>
