<svg width="21" height="21" viewBox="0 0 21 21" fill="none" xmlns="http://www.w3.org/2000/svg">
<path d="M10.3008 21.0001C15.8436 21.0001 20.3369 16.5602 20.3369 11.0834C20.3369 5.60659 15.8436 1.16675 10.3008 1.16675C4.75798 1.16675 0.264648 5.60659 0.264648 11.0834C0.264648 16.5602 4.75798 21.0001 10.3008 21.0001Z" fill="#FFAC33"/>
<path d="M10.3008 19.8333C15.8436 19.8333 20.3369 15.3935 20.3369 9.91667C20.3369 4.43984 15.8436 0 10.3008 0C4.75798 0 0.264648 4.43984 0.264648 9.91667C0.264648 15.3935 4.75798 19.8333 10.3008 19.8333Z" fill="#FFCC4D"/>
<path d="M10.3012 18.6666C14.8659 18.6666 18.5663 15.0102 18.5663 10.4999C18.5663 5.98959 14.8659 2.33325 10.3012 2.33325C5.73653 2.33325 2.03613 5.98959 2.03613 10.4999C2.03613 15.0102 5.73653 18.6666 10.3012 18.6666Z" fill="#FFD983"/>
<path d="M10.3012 18.0833C14.8659 18.0833 18.5663 14.427 18.5663 9.91667C18.5663 5.40634 14.8659 1.75 10.3012 1.75C5.73653 1.75 2.03613 5.40634 2.03613 9.91667C2.03613 14.427 5.73653 18.0833 10.3012 18.0833Z" fill="#FFAC33"/>
<path d="M10.4945 4L10.4131 4.2735V12.2063L10.4948 12.2865L14.2301 10.11L10.4948 4H10.4945Z" fill="#FFD983"/>
<path d="M10.4943 4L6.75879 10.11L10.4943 12.2865V4Z" fill="#FFD983"/>
<path d="M10.4941 12.9839L10.4482 13.0391V15.8651L10.4941 15.9976L14.2321 10.8081L10.4941 12.9836V12.9839Z" fill="#FFD983"/>
<path d="M10.4943 15.9976V12.9836L6.75879 10.8083L10.4943 15.9973V15.9976Z" fill="#FFD983"/>
<path d="M10.4951 12.2865L14.2307 10.11L10.4951 8.43628V12.2865Z" fill="#FFD983"/>
<path d="M6.75879 10.11L10.4943 12.2865V8.43652L6.75879 10.11Z" fill="#FFD983"/>
</svg>
