<svg width="23" height="21" viewBox="0 0 23 21" fill="none" xmlns="http://www.w3.org/2000/svg">
<path d="M22.2953 10.0438C20.6762 7.6855 17.3291 11.1562 11.2205 11.8616C8.95879 12.1224 6.92092 14.0111 4.29363 13.8311C3.21638 13.7571 1.71211 10.6577 0.585954 11.1518C0.00657139 11.4063 -0.259293 12.256 0.336393 12.8943L6.95039 20.7862C6.95039 20.7862 7.28648 21.1737 8.41891 20.9053C8.69794 20.9875 12.8928 19.3064 15.3182 15.9411C15.8988 15.1353 16.5911 14.4644 17.3078 13.9038C19.6347 12.1832 22.1642 11.5838 22.1642 11.5838C22.4878 11.3167 22.5636 11.0326 22.5461 10.7862C22.5674 10.3749 22.2953 10.0438 22.2953 10.0438V10.0438Z" fill="#5C913B"/>
<path d="M7.1676 6.27785C4.79552 9.5698 0.641392 11.1292 0.641392 11.1292C-0.133627 11.7858 0.521001 12.5595 0.521001 12.5595L7.06602 20.3091C7.06602 20.3091 7.39334 20.696 8.49567 20.4276C8.49567 20.4276 12.6498 18.8713 15.0213 15.5793C17.4661 12.1871 21.8748 11.1161 21.8748 11.1161C22.6492 10.4596 21.9952 9.68455 21.9952 9.68455L15.4501 1.93624C15.4501 1.93624 15.1228 1.54873 14.0205 1.81585C14.0205 1.81585 9.61242 2.88432 7.1676 6.27785V6.27785Z" fill="#A7D28B"/>
<path d="M13.7661 12.0629C15.6708 12.0629 17.2148 10.5189 17.2148 8.61424C17.2148 6.70957 15.6708 5.16553 13.7661 5.16553C11.8614 5.16553 10.3174 6.70957 10.3174 8.61424C10.3174 10.5189 11.8614 12.0629 13.7661 12.0629Z" fill="#77B255"/>
<path d="M8.04341 19.8564C7.49099 19.8564 7.28845 19.6507 7.26086 19.6193L1.36106 12.7326C1.34978 12.7194 1.05068 12.3771 1.08705 11.9419C1.109 11.6779 1.24569 11.4428 1.49274 11.2427L1.53225 11.2189C1.5705 11.2039 5.39668 9.63126 7.54115 6.78889L7.66656 6.88295L7.54115 6.78889C9.80977 3.78162 13.7231 2.49118 13.762 2.47864C14.8562 2.22406 15.2142 2.58774 15.2525 2.63038L21.0745 9.55539C21.0852 9.56667 21.3836 9.91029 21.3473 10.3461C21.3253 10.6094 21.1886 10.8446 20.9416 11.0446L20.8795 11.0753C20.8413 11.0847 17.0364 12.0303 14.8323 14.951C12.6383 17.8605 8.80839 19.7429 8.77014 19.7611C8.4792 19.83 8.23967 19.8564 8.04341 19.8564V19.8564ZM7.49726 19.413C7.49788 19.413 7.78068 19.6739 8.66668 19.4682C8.6717 19.4613 12.4346 17.6109 14.5834 14.7629C16.7385 11.9068 20.3678 10.8866 20.7704 10.7806C20.9315 10.642 21.0206 10.4884 21.035 10.3235C21.0613 10.0225 20.8394 9.76356 20.8375 9.76105L15.0154 2.83542C15.0142 2.83542 14.7333 2.5752 13.8466 2.78087C13.8209 2.78965 9.99977 4.05125 7.79197 6.97763C5.68136 9.77485 1.99876 11.3638 1.67333 11.5005C1.50528 11.6415 1.41374 11.7989 1.39931 11.9676C1.37423 12.2661 1.59495 12.5238 1.59683 12.5263L7.49726 19.413V19.413Z" fill="#5C913B"/>
<path d="M13.3124 13.7345L13.3086 17.4591L13.6202 17.829C14.2278 17.2747 14.8116 16.6514 15.3164 15.9504C15.8399 15.2243 16.4482 14.6029 17.0896 14.0781L16.7868 13.7175L13.3124 13.7345V13.7345Z" fill="#FFAC33"/>
<path d="M16.7744 13.7043L8.93269 4.41602C8.29562 4.94022 7.68363 5.55158 7.16319 6.27456C6.65466 6.9806 6.06274 7.602 5.44824 8.15003L6.36497 9.23543L6.36434 9.23606L13.3088 17.459C13.9233 16.9104 14.5083 16.2827 15.0175 15.576C15.5379 14.8537 16.1493 14.243 16.7857 13.7187L16.7738 13.7043H16.7744V13.7043Z" fill="#FFE8B6"/>
<path d="M9.05042 13.9785C8.07412 12.8222 6.00741 14.6983 5.41799 14.0004C5.13269 13.6624 5.31641 13.2241 5.69138 12.9081C6.32155 12.3751 6.77616 12.6855 7.06146 12.4441C7.26399 12.2735 7.25333 12.0647 7.13294 11.9212C6.85328 11.5907 6.13846 11.7631 5.5829 12.0842L5.31265 11.7644C5.14398 11.565 4.84551 11.5393 4.64611 11.708C4.44671 11.8773 4.42163 12.1745 4.5903 12.3739L4.86996 12.7056C4.44546 13.2687 4.30124 14.0161 4.8035 14.6099C5.74154 15.7197 7.83397 13.875 8.49236 14.655C8.7206 14.9259 8.65664 15.4426 8.17633 15.8477C7.45649 16.4565 6.80437 16.1712 6.51155 16.4183C6.36858 16.538 6.34287 16.7663 6.49524 16.9475C6.73791 17.234 7.51104 17.1726 8.25408 16.7098C8.25534 16.7111 8.25534 16.7123 8.25534 16.7136L8.56071 17.0748C8.72938 17.2742 9.02848 17.2986 9.22787 17.1312C9.4279 16.9619 9.45235 16.6634 9.28368 16.464L8.97831 16.1029C8.97518 16.0991 8.97016 16.0966 8.9664 16.0928C9.4674 15.4796 9.6367 14.6713 9.05042 13.9785V13.9785Z" fill="#5C913B"/>
<path d="M20.3225 20.2695C20.3282 20.2645 20.3344 20.2608 20.3401 20.2564C20.3827 20.2137 20.416 20.1648 20.4536 20.1178C20.4799 20.0852 20.5094 20.0538 20.5338 20.0206C20.5558 19.9893 20.574 19.9573 20.594 19.9253C21.4844 18.554 20.9013 16.2289 19.1387 14.4657C17.3754 12.7024 15.0498 12.1193 13.6791 13.0103C13.6465 13.0298 13.6145 13.0479 13.5831 13.0705C13.5499 13.095 13.5179 13.1244 13.4866 13.1502C13.4402 13.1884 13.3912 13.221 13.348 13.2643C13.3423 13.2699 13.3386 13.2762 13.3342 13.2818C13.3273 13.2887 13.3191 13.2931 13.3116 13.3006L13.3154 13.3038C12.6883 13.9697 12.6808 14.9999 13.3116 15.6313C13.9437 16.2634 14.9733 16.2546 15.6398 15.6276L15.6467 15.6351C15.6335 15.6476 15.6191 15.6558 15.6066 15.6683C14.9425 16.3324 14.9269 17.3914 15.5696 18.0354C16.2129 18.6781 17.2732 18.6624 17.9366 17.9984C17.9492 17.9859 17.9573 17.9714 17.9699 17.9583L17.9768 17.9658C17.3497 18.6317 17.3416 19.6619 17.9736 20.294C18.6051 20.9248 19.6347 20.9173 20.3006 20.2902L20.3043 20.294C20.3106 20.2852 20.3156 20.2771 20.3225 20.2695V20.2695Z" fill="#E1E8ED"/>
<path d="M13.3127 15.6563C13.8808 16.2238 14.7681 16.2702 15.4259 15.82C15.7011 15.3497 15.7801 14.9026 15.7801 14.7628C14.3963 15.7949 13.161 14.7684 12.8845 14.1545C12.7697 14.685 12.9089 15.2519 13.3127 15.6563ZM17.8895 18.0641C18.0763 17.8014 18.2212 17.5474 18.2889 17.3756C17.4079 18.1833 15.7237 17.592 15.2133 16.3109C14.9888 16.9066 15.1036 17.5926 15.5713 18.0604C16.1996 18.6887 17.2229 18.6836 17.8895 18.0641ZM20.3061 20.3183L20.3243 20.2958C20.3305 20.2907 20.3368 20.287 20.3418 20.282C20.3851 20.2393 20.4183 20.1904 20.4553 20.144C20.4823 20.1108 20.5111 20.08 20.5356 20.0462C20.5582 20.0155 20.5763 19.9829 20.5964 19.9509C20.6372 19.8882 20.6591 19.8142 20.6936 19.7477C19.1084 20.4569 17.9252 19.2536 17.5935 18.6535C17.4085 19.2285 17.5289 19.8725 17.9754 20.3196C18.6062 20.951 19.6358 20.9435 20.3023 20.3158L20.3061 20.3183Z" fill="#CCD6DD"/>
<path d="M8.72214 7.67233L8.73969 7.65853C8.78296 7.61589 8.81619 7.56699 8.85319 7.52058C8.87952 7.48798 8.90837 7.45725 8.93282 7.42339C8.95539 7.39204 8.97358 7.36006 8.99364 7.32808C9.88404 5.95675 9.30027 3.63107 7.53766 1.86846C5.77443 0.105234 3.44938 -0.478538 2.07804 0.411856C2.04606 0.431921 2.01346 0.450105 1.98211 0.472679C1.94825 0.497133 1.91752 0.525977 1.88492 0.552312C1.83852 0.589935 1.78961 0.622541 1.74697 0.665806C1.74132 0.67145 1.73756 0.678347 1.73317 0.683363C1.72628 0.689634 1.7175 0.695277 1.7106 0.702174L1.71373 0.70531C1.0867 1.37122 1.07917 2.40145 1.7106 3.03287C2.34203 3.6643 3.37225 3.65678 4.03816 3.02974L4.04506 3.03664C4.03189 3.04855 4.01747 3.05733 4.00493 3.06987C3.3409 3.7339 3.32522 4.79297 3.96856 5.43694C4.6119 6.08091 5.6716 6.0646 6.33563 5.40057C6.34817 5.38803 6.35632 5.37361 6.36886 5.36044L6.37576 5.36734C5.74872 6.03325 5.74057 7.06347 6.37263 7.6949C7.00405 8.32633 8.03365 8.3188 8.69956 7.69114L8.7027 7.6949C8.7096 7.688 8.71524 7.67985 8.72214 7.67233V7.67233Z" fill="#E1E8ED"/>
<path d="M1.7102 3.03353C2.27829 3.60162 3.16555 3.64802 3.82331 3.19656C4.09858 2.72628 4.17696 2.27983 4.17696 2.14C2.79372 3.17148 1.55783 2.14439 1.28193 1.53052C1.16718 2.06162 1.30638 2.62909 1.7102 3.03353V3.03353ZM6.2882 5.4401C6.47443 5.17737 6.61927 4.92467 6.68637 4.75287C5.80475 5.56049 4.12053 4.96857 3.61075 3.68753C3.38627 4.28321 3.50102 4.96919 3.96816 5.43696C4.59771 6.06588 5.62166 6.06024 6.2882 5.4401V5.4401ZM8.70292 7.69555C8.70982 7.68866 8.71546 7.6805 8.72173 7.67298L8.73929 7.65919C8.78256 7.61655 8.81579 7.56764 8.85278 7.52124C8.87912 7.48863 8.90796 7.45791 8.93242 7.42405C8.95499 7.39269 8.97318 7.36072 8.99324 7.32874C9.034 7.26603 9.05594 7.19142 9.09043 7.12495C7.50528 7.83413 6.32206 6.63147 5.99036 6.0314C5.80538 6.60639 5.92577 7.25036 6.37222 7.69681C7.00365 8.32824 8.03325 8.32071 8.69916 7.69305L8.70292 7.69555V7.69555Z" fill="#CCD6DD"/>
</svg>
