<svg width="52" height="22" viewBox="0 0 52 22" fill="none" xmlns="http://www.w3.org/2000/svg">
<path d="M44.6984 9.30591C43.8242 9.50766 41.5152 9.61974 41.5152 9.61974L41.2313 10.5314C41.2313 10.5314 42.3745 10.4342 43.2114 10.5164C43.2114 10.5164 43.4804 10.494 43.5103 10.8153C43.5253 11.1441 43.4879 11.4878 43.4879 11.4878C43.4879 11.4878 43.4655 11.6896 43.189 11.7419C42.8677 11.7942 40.7008 11.8913 40.7008 11.8913L40.3496 13.0719C40.3496 13.0719 40.2225 13.3409 40.514 13.2662C40.783 13.1915 43.0545 12.7581 43.3534 12.8179C43.6672 12.8926 44.0259 13.326 43.9213 13.7145C43.8017 14.1853 41.5302 15.6349 40.1553 15.5378C40.1553 15.5378 39.4305 15.5826 38.8252 14.6037C38.2424 13.6697 39.027 11.9137 39.027 11.9137C39.027 11.9137 38.6758 11.0918 38.9373 10.7929C38.9373 10.7929 39.0868 10.6659 39.5351 10.6285L40.0955 9.47777C40.0955 9.47777 39.4604 9.51513 39.0868 9.05185C38.743 8.60351 38.7131 8.40923 38.9821 8.28968C39.2661 8.14023 41.8963 7.66948 43.7046 7.72926C43.7046 7.72926 44.3397 7.65454 44.9002 8.75296C44.9002 8.75296 45.1542 9.20129 44.7059 9.30591H44.6984ZM37.8837 13.7295C37.6596 14.275 37.0394 14.8503 36.2921 14.4991C35.53 14.1405 34.3269 11.6896 34.3269 11.6896C34.3269 11.6896 33.8786 10.7779 33.7889 10.8078C33.7889 10.8078 33.6918 10.6285 33.6395 11.6298C33.5648 12.6236 33.6544 14.5589 33.2435 14.8653C32.8698 15.1642 32.4215 15.0371 32.1674 14.6859C31.9582 14.3347 31.8686 13.4904 31.9881 12.0183C32.1226 10.5463 32.4589 8.97713 32.8848 8.49143C33.3331 7.99826 33.6918 8.35693 33.8263 8.49143C33.8263 8.49143 34.4017 9.01449 35.373 10.5612L35.5374 10.8452C35.5374 10.8452 36.4192 12.3172 36.5088 12.3098C36.5088 12.3098 36.5835 12.3845 36.6433 12.3247C36.733 12.3023 36.7031 11.8241 36.7031 11.8241C36.7031 11.8241 36.5387 10.2325 35.7168 7.54245C35.7168 7.54245 35.5972 7.19873 35.6794 6.86995C35.7541 6.57106 36.0754 6.7205 36.0754 6.7205C36.0754 6.7205 37.3158 7.31829 37.9211 9.33579C38.5189 11.3533 38.1154 13.184 37.8912 13.7295H37.8837ZM31.8013 8.55121C31.6818 8.76043 31.6294 9.05185 31.1139 9.13404C31.1139 9.13404 26.1075 9.48524 25.8609 9.83644C25.8609 9.83644 25.6965 10.0457 25.9655 10.098C26.2494 10.1577 27.3852 10.3072 27.9232 10.3371C28.506 10.3371 30.4638 10.352 31.1811 11.2337C31.1811 11.2337 31.5921 11.6522 31.5771 12.6012C31.5622 13.5726 31.3903 13.9163 31.0093 14.2675C30.6132 14.5963 27.2208 16.1206 25.0314 13.7893C25.0314 13.7893 24.0302 12.6684 25.3826 11.8166C25.3826 11.8166 26.354 11.2188 28.8423 11.9137C28.8423 11.9137 29.5895 12.1827 29.5596 12.4592C29.5148 12.7581 28.9394 13.057 28.1025 13.042C27.2955 13.0196 26.6978 12.6311 26.8173 12.6983C26.9294 12.7357 25.9431 12.2201 25.6367 12.5713C25.3378 12.9001 25.4125 13.0943 25.7114 13.2961C26.4586 13.7295 29.3952 13.5726 30.2695 12.5937C30.2695 12.5937 30.6207 12.1977 30.0902 11.8764C29.5671 11.5775 28.0428 11.3907 27.4525 11.3682C26.892 11.3384 24.7923 11.3682 24.4785 10.8228C24.4785 10.8228 24.1796 10.4342 24.5084 9.37316C24.8521 8.25232 27.2955 7.81893 28.3566 7.72926C28.3566 7.72926 31.2708 7.6097 31.8163 8.20748C31.8163 8.20748 31.891 8.34198 31.8013 8.54374V8.55121ZM23.537 15.1193C23.1858 15.3808 22.4386 15.2688 22.2219 14.9699C22.0127 14.7083 21.9379 13.6772 21.9753 12.0557C22.0276 10.3969 22.05 8.3644 22.4236 8.03562C22.7972 7.71431 23.0214 7.99826 23.1709 8.21496C23.3203 8.43912 23.5146 8.68571 23.5445 9.20129C23.5893 9.72435 23.7163 12.4144 23.7163 12.4144C23.7163 12.4144 23.8807 14.8653 23.5445 15.1193H23.537ZM24.2842 6.37678C23.2531 6.72798 22.5507 6.61589 21.9529 6.35436C21.6914 6.82512 21.5344 6.96709 21.3402 6.99698C21.0413 7.02687 20.7797 6.54864 20.7424 6.3992C20.6826 6.28711 20.5406 6.08536 20.7125 5.62956C20.1297 5.1065 20.0848 4.40411 20.1894 3.93335C20.3239 3.38041 21.3103 1.30312 24.2992 1.05654C24.2992 1.05654 25.7637 0.951924 26.0178 1.72904H26.0626C26.0626 1.72904 27.4823 1.72904 27.4525 2.99932C27.4525 4.26961 25.8833 5.85372 24.2842 6.3992V6.37678ZM25.6143 2.76021C24.6728 2.90965 23.2232 4.16499 22.5282 5.20364C23.5968 5.39792 25.4648 5.32319 26.3017 3.63446C26.3017 3.63446 26.6978 2.5734 25.6143 2.76021ZM21.4821 3.58216C21.1832 4.06785 21.1683 4.35927 21.3103 4.55355C21.6615 4.03049 22.2817 3.20855 23.2157 2.56593C22.4984 2.64065 21.8931 2.93954 21.4821 3.58216ZM46.9401 15.067C46.2526 16.7557 45.6698 18.4669 45.3336 21.0299C45.3336 21.0299 45.2588 21.5305 44.8479 21.3661C44.4369 21.2167 43.7644 20.5442 43.6149 19.5952C43.4655 18.3548 44.0184 16.2626 45.1468 13.8565C44.818 13.3335 44.5863 12.5563 44.7731 11.4654C44.7731 11.4654 45.072 9.44788 47.0895 7.62465C47.0895 7.62465 47.3286 7.4229 47.4631 7.49015C47.6275 7.56487 47.5603 8.20748 47.4258 8.53626C47.3062 8.8501 46.4096 10.4043 46.4096 10.4043C46.4096 10.4043 45.8491 11.4654 46.0061 12.2948C47.0671 10.6659 49.4807 7.36312 50.9751 8.40923C51.9241 9.08174 51.9241 11.2487 51.2142 12.504C50.6538 13.4978 49.0697 15.5527 46.955 15.0745L46.9401 15.067ZM50.0635 9.99335C49.5105 10.5911 48.5242 11.7269 47.7471 13.2662C48.569 13.1765 49.3686 12.7207 49.6152 12.4891C50.0112 12.1379 50.9228 11.1889 50.7808 9.93357C50.7808 9.93357 50.6912 9.27602 50.0635 9.99335V9.99335ZM16.5878 15.9487C13.9426 16.7557 11.4469 16.3821 10.0869 16.0235C10.0496 16.5764 9.98981 16.8081 9.90014 16.8977C9.79553 17.0173 8.92875 17.5104 8.45052 16.8081C8.2413 16.4718 8.13669 15.8665 8.07691 15.3136C5.01329 13.9238 3.59356 11.8764 3.54873 11.8016C3.474 11.7269 2.77908 11.0021 3.474 10.1054C4.12409 9.29843 6.2761 8.48396 8.20394 8.16265C8.27866 6.51875 8.458 5.24847 8.68964 4.68805C8.96611 4.01555 9.3173 4.61333 9.63114 5.06166C9.8852 5.39792 10.0421 6.84006 10.0571 7.99079C11.3124 7.93101 12.0746 8.02068 13.4719 8.28968C15.3101 8.60351 16.5355 9.54502 16.4384 10.6061C16.3487 11.6522 15.3922 12.0856 15.0186 12.1155C14.645 12.1454 14.0472 11.8689 14.0472 11.8689C13.6288 11.6746 14.0099 11.4953 14.4956 11.2861C15.0336 11.0245 14.914 10.763 14.914 10.763C14.7197 10.1652 12.3361 9.76919 9.96739 9.76919C9.96739 11.0768 10.0197 13.2438 10.0571 14.5066C11.7159 14.8204 12.9563 14.7532 12.9563 14.7532C12.9563 14.7532 19.0088 14.5813 19.1807 10.7182C19.3675 6.84753 13.1282 3.14129 8.53272 1.97562C3.94476 0.77259 1.34441 1.62443 1.12024 1.73651C0.873661 1.85607 1.09783 1.9009 1.09783 1.9009C1.09783 1.9009 1.34441 1.93826 1.79275 2.08771C2.24108 2.23715 1.88241 2.46132 1.88241 2.46132C1.09783 2.73032 0.223575 2.5734 0.0517129 2.21473C-0.120149 1.86354 0.163797 1.54223 0.500048 1.07148C0.813882 0.585783 1.17255 0.600728 1.17255 0.600728C6.85146 -1.37942 13.7857 2.1699 13.7857 2.1699C20.2716 5.44275 21.3775 9.29096 21.258 10.7854C21.1534 12.2574 20.5855 14.7457 16.5878 15.9562V15.9487ZM4.10915 10.6061C3.46653 10.905 3.91487 11.3832 3.91487 11.3832C5.12537 12.6759 6.60488 13.4904 8.02461 13.9985C8.18899 11.7568 8.17405 10.9573 8.17405 9.82896C5.97721 9.97841 4.70693 10.3371 4.10915 10.6061Z" fill="#B5BDDB"/>
</svg>
