<svg width="54" height="22" viewBox="0 0 54 22" fill="none" xmlns="http://www.w3.org/2000/svg">
<path d="M45.9532 9.56715C45.0545 9.77456 42.6807 9.88979 42.6807 9.88979L42.3888 10.827C42.3888 10.827 43.5641 10.7271 44.4245 10.8116C44.4245 10.8116 44.7011 10.7886 44.7318 11.1189C44.7472 11.4569 44.7088 11.8103 44.7088 11.8103C44.7088 11.8103 44.6857 12.0177 44.4015 12.0715C44.0712 12.1253 41.8434 12.2251 41.8434 12.2251L41.4823 13.4389C41.4823 13.4389 41.3517 13.7154 41.6513 13.6386C41.9279 13.5618 44.2632 13.1162 44.5705 13.1777C44.8931 13.2545 45.2619 13.7001 45.1543 14.0995C45.0314 14.5835 42.6961 16.0738 41.2826 15.974C41.2826 15.974 40.5374 16.02 39.9152 15.0137C39.316 14.0534 40.1226 12.2482 40.1226 12.2482C40.1226 12.2482 39.7615 11.4031 40.0304 11.0959C40.0304 11.0959 40.184 10.9653 40.645 10.9269L41.2211 9.74383C41.2211 9.74383 40.5681 9.78224 40.184 9.30596C39.8307 8.84504 39.7999 8.6453 40.0765 8.52239C40.3684 8.36875 43.0725 7.88478 44.9315 7.94624C44.9315 7.94624 45.5845 7.86942 46.1607 8.99868C46.1607 8.99868 46.4219 9.4596 45.9609 9.56715H45.9532ZM38.9472 14.1149C38.7168 14.6757 38.0792 15.2672 37.311 14.9062C36.5274 14.5374 35.2906 12.0177 35.2906 12.0177C35.2906 12.0177 34.8297 11.0805 34.7375 11.1112C34.7375 11.1112 34.6376 10.9269 34.5839 11.9563C34.507 12.978 34.5992 14.9676 34.1767 15.2826C33.7926 15.5899 33.3317 15.4593 33.0705 15.0982C32.8554 14.7371 32.7632 13.8691 32.8861 12.3557C33.0244 10.8424 33.3701 9.22914 33.808 8.72981C34.2689 8.22279 34.6376 8.59153 34.7759 8.72981C34.7759 8.72981 35.3674 9.26755 36.3661 10.8577L36.5351 11.1496C36.5351 11.1496 37.4416 12.663 37.5338 12.6553C37.5338 12.6553 37.6106 12.7321 37.672 12.6707C37.7642 12.6476 37.7335 12.156 37.7335 12.156C37.7335 12.156 37.5645 10.5197 36.7195 7.75419C36.7195 7.75419 36.5965 7.40082 36.681 7.06281C36.7579 6.75553 37.0882 6.90917 37.0882 6.90917C37.0882 6.90917 38.3634 7.52373 38.9857 9.59787C39.6002 11.672 39.1854 13.5541 38.9549 14.1149H38.9472ZM32.6941 8.79126C32.5712 9.00636 32.5174 9.30596 31.9873 9.39046C31.9873 9.39046 26.8404 9.75151 26.5869 10.1126C26.5869 10.1126 26.4179 10.3277 26.6944 10.3814C26.9863 10.4429 28.154 10.5965 28.7071 10.6273C29.3063 10.6273 31.319 10.6426 32.0565 11.5491C32.0565 11.5491 32.479 11.9793 32.4636 12.9549C32.4483 13.9536 32.2716 14.307 31.8798 14.668C31.4726 15.006 27.985 16.5732 25.7342 14.1764C25.7342 14.1764 24.7048 13.0241 26.0952 12.1483C26.0952 12.1483 27.0939 11.5337 29.652 12.2482C29.652 12.2482 30.4202 12.5247 30.3895 12.809C30.3434 13.1162 29.7519 13.4235 28.8915 13.4082C28.0618 13.3851 27.4473 12.9856 27.5702 13.0548C27.6854 13.0932 26.6714 12.5631 26.3564 12.9242C26.0491 13.2622 26.1259 13.4619 26.4332 13.6693C27.2014 14.1149 30.2205 13.9536 31.1193 12.9472C31.1193 12.9472 31.4803 12.5401 30.9349 12.2098C30.3972 11.9025 28.83 11.7104 28.2231 11.6874C27.647 11.6567 25.4883 11.6874 25.1657 11.1266C25.1657 11.1266 24.8584 10.7271 25.1964 9.63628C25.5498 8.48398 28.0618 8.03842 29.1527 7.94624C29.1527 7.94624 32.1487 7.82333 32.7094 8.43789C32.7094 8.43789 32.7863 8.57617 32.6941 8.78358V8.79126ZM24.1978 15.5438C23.8367 15.8126 23.0685 15.6974 22.8457 15.3901C22.6306 15.1212 22.5538 14.0611 22.5922 12.3941C22.646 10.6887 22.669 8.59921 23.0531 8.2612C23.4372 7.93088 23.6677 8.22279 23.8213 8.44557C23.975 8.67603 24.1747 8.92954 24.2054 9.4596C24.2515 9.99734 24.3821 12.7629 24.3821 12.7629C24.3821 12.7629 24.5511 15.2826 24.2054 15.5438H24.1978ZM24.966 6.55579C23.9058 6.91685 23.1837 6.80162 22.5692 6.53275C22.3003 7.01672 22.139 7.16267 21.9392 7.1934C21.632 7.22413 21.3631 6.73248 21.3247 6.57884C21.2632 6.46361 21.1173 6.2562 21.294 5.78759C20.6948 5.24985 20.6487 4.52774 20.7562 4.04377C20.8945 3.4753 21.9085 1.3397 24.9813 1.0862C24.9813 1.0862 26.487 0.978647 26.7482 1.77758H26.7943C26.7943 1.77758 28.2539 1.77758 28.2231 3.08352C28.2231 4.38946 26.6099 6.01805 24.966 6.57884V6.55579ZM26.3334 2.8377C25.3654 2.99134 23.8751 4.28192 23.1607 5.34972C24.2592 5.54945 26.1797 5.47263 27.0401 3.73649C27.0401 3.73649 27.4473 2.64565 26.3334 2.8377ZM22.0852 3.68272C21.7779 4.18205 21.7626 4.48165 21.9085 4.68138C22.2696 4.14364 22.9072 3.29862 23.8674 2.63796C23.13 2.71478 22.5077 3.02206 22.0852 3.68272ZM48.2579 15.49C47.5511 17.2261 46.9519 18.9853 46.6062 21.6202C46.6062 21.6202 46.5294 22.1349 46.1069 21.9659C45.6844 21.8123 44.993 21.1209 44.8394 20.1453C44.6857 18.8701 45.2542 16.7191 46.4142 14.2455C46.0762 13.7078 45.838 12.9088 46.0301 11.7873C46.0301 11.7873 46.3374 9.7131 48.4115 7.83869C48.4115 7.83869 48.6573 7.63128 48.7956 7.70042C48.9646 7.77724 48.8955 8.43789 48.7572 8.7759C48.6343 9.09854 47.7124 10.6964 47.7124 10.6964C47.7124 10.6964 47.1363 11.7873 47.2976 12.64C48.3885 10.9653 50.8697 7.56982 52.4061 8.6453C53.3818 9.33669 53.3818 11.5645 52.652 12.8551C52.0758 13.8768 50.4472 15.9893 48.2732 15.4977L48.2579 15.49ZM51.4689 10.2739C50.9005 10.8885 49.8864 12.0561 49.0875 13.6386C49.9325 13.5464 50.7545 13.0778 51.008 12.8397C51.4152 12.4786 52.3524 11.503 52.2064 10.2124C52.2064 10.2124 52.1142 9.53642 51.4689 10.2739V10.2739ZM17.0535 16.3965C14.334 17.2261 11.7682 16.842 10.3701 16.4733C10.3317 17.0418 10.2703 17.2799 10.1781 17.3721C10.0705 17.495 9.17941 18.002 8.68776 17.2799C8.47266 16.9342 8.36511 16.312 8.30366 15.7435C5.15403 14.3146 3.69444 12.2098 3.64835 12.1329C3.57153 12.0561 2.8571 11.311 3.57153 10.3891C4.23987 9.55946 6.45229 8.72212 8.43425 8.3918C8.51107 6.70175 8.69544 5.39581 8.93358 4.81966C9.21782 4.12828 9.57887 4.74284 9.90152 5.20376C10.1627 5.54945 10.324 7.03208 10.3394 8.21511C11.63 8.15365 12.4135 8.24584 13.8501 8.52239C15.7399 8.84504 16.9997 9.81297 16.8998 10.9038C16.8077 11.9793 15.8244 12.4249 15.4403 12.4556C15.0562 12.4863 14.4416 12.2021 14.4416 12.2021C14.0114 12.0023 14.4032 11.818 14.9025 11.6029C15.4556 11.334 15.3327 11.0651 15.3327 11.0651C15.133 10.4506 12.6824 10.0434 10.2472 10.0434C10.2472 11.3878 10.301 13.6156 10.3394 14.9138C12.0448 15.2365 13.32 15.1673 13.32 15.1673C13.32 15.1673 19.5425 14.9907 19.7191 11.019C19.9112 7.03976 13.4967 3.22948 8.77226 2.03108C4.0555 0.794278 1.38215 1.67003 1.15169 1.78526C0.898187 1.90817 1.12865 1.95426 1.12865 1.95426C1.12865 1.95426 1.38215 1.99267 1.84308 2.14631C2.304 2.29995 1.93526 2.53042 1.93526 2.53042C1.12865 2.80697 0.229851 2.64565 0.0531646 2.27691C-0.123522 1.91585 0.168395 1.58553 0.514086 1.10156C0.836731 0.602228 1.20547 0.617592 1.20547 0.617592C7.04381 -1.41814 14.1727 2.23082 14.1727 2.23082C20.8407 5.59554 21.9777 9.55178 21.8547 11.0882C21.7472 12.6015 21.1634 15.1597 17.0535 16.4041V16.3965ZM4.2245 10.9038C3.56385 11.2111 4.02477 11.7027 4.02477 11.7027C5.26926 13.0317 6.7903 13.8691 8.24988 14.3915C8.41889 12.0868 8.40352 11.2649 8.40352 10.1049C6.14501 10.2585 4.83906 10.6273 4.2245 10.9038Z" fill="#B5BDDB"/>
</svg>
