<svg xmlns="http://www.w3.org/2000/svg" viewBox="0 0 47.5 47.5" id="dolphin"><defs><clipPath id="a"><path d="M0 38h38V0H0v38Z"></path></clipPath></defs><g clip-path="url(#a)" transform="matrix(1.25 0 0 -1.25 0 47.5)"><path fill="#3b88c3" d="M35.559 19c0 3.918-1.515 7.474-3.975 10.146A10.453 10.453 0 0 0 34.559 35c.704.704.25 2-1 2 0 0-6.061-.007-9.893-3.327a15.003 15.003 0 0 1-3.107.327c-8 0-12-4-14-12-.444-1.778-.865-1.399-3-3-1.195-.896-2.117-3 1-3 3 0 5-1 9-1 1.827 0 3.424.352 4.849.717.058-1.588.491-3.611 2.151-4.717 2.354-1.569 2.367-1.897 3 0 .814 2.443.288 3.574-1.01 5.525.71-.004 1.377-.145 2.01-.525 2.697-1.618 2.191-4.108.685-6.374-2.905-3.396-5.939-.541-8.685.374-3 1-1-1 0-2s1.313-4 0-6c-1.312-2 3 0 5 3l.032.045C29.392 5.5 35.559 11.064 35.559 19"></path><path fill="#292f33" d="M16.117 23a2 2 0 1 0-4.001.001A2 2 0 0 0 16.117 23"></path></g></svg>