<svg width="24" height="24" viewBox="0 0 24 24" fill="none" xmlns="http://www.w3.org/2000/svg">
<path d="M24 18.0002C24 19.4728 22.806 20.6668 21.3333 20.6668H2.66667C1.194 20.6668 0 19.4728 0 18.0002V6.00016C0 4.5275 1.194 3.3335 2.66667 3.3335H21.3333C22.806 3.3335 24 4.5275 24 6.00016V18.0002Z" fill="#B5BDDB"/>
<path d="M7.96677 11.7575L0.424766 19.2995C0.406766 19.3182 0.400099 19.3415 0.384766 19.3602C0.611432 19.7402 0.927432 20.0555 1.30743 20.2828C1.32677 20.2675 1.34943 20.2608 1.36743 20.2428L8.9101 12.7002C9.1701 12.4395 9.1701 12.0182 8.9101 11.7575C8.64877 11.4968 8.22743 11.4968 7.96677 11.7575ZM23.6154 19.3602C23.6014 19.3415 23.5934 19.3182 23.5754 19.3002L16.0341 11.7575C15.7728 11.4968 15.3514 11.4968 15.0908 11.7575C14.8301 12.0182 14.8301 12.4395 15.0908 12.7002L22.6328 20.2428C22.6501 20.2602 22.6741 20.2675 22.6928 20.2828C23.0734 20.0562 23.3888 19.7402 23.6154 19.3602Z" fill="#464B6F"/>
<path d="M21.3333 3.3335H2.66667C1.194 3.3335 0 4.5275 0 6.00016V6.68683L9.68533 16.3508C10.948 17.6128 13.0107 17.6128 14.2747 16.3508L24 6.67283V6.00016C24 4.5275 22.806 3.3335 21.3333 3.3335Z" fill="#464B6F"/>
<path d="M21.3329 3.3335H2.6662C1.60753 3.3335 0.700198 3.95616 0.269531 4.85016L10.1135 14.6948C11.1549 15.7362 12.8442 15.7362 13.8849 14.6948L23.7295 4.85016C23.2989 3.95616 22.3922 3.3335 21.3329 3.3335Z" fill="#B5BDDB"/>
</svg>
