<svg width="16" height="16" viewBox="0 0 16 16" fill="none" xmlns="http://www.w3.org/2000/svg">
<path d="M6.66644 4.00005L9.33311 1.33338C9.33311 1.33338 11.9998 -1.33329 14.6664 1.33338C17.3331 4.00005 14.6664 6.66671 14.6664 6.66671L11.1109 10.2223C11.1109 10.2223 8.44422 12.8889 5.77755 10.2223C5.27755 9.72227 4.96777 9.05782 4.96777 9.05782L6.458 7.56982C6.458 7.56982 6.398 8.17604 7.11088 8.88893C7.11088 8.88893 8.44422 10.2223 9.77755 8.88893L13.3331 5.33338C13.3331 5.33338 14.6664 4.00004 13.3331 2.66671C11.9998 1.33338 10.6664 2.66671 10.6664 2.66671L9.00911 4.32405C9.00911 4.32405 8.18511 3.64805 6.49977 4.16671L6.66644 4.00005Z" fill="white"/>
<path d="M9.26429 11.9999L6.59762 14.6666C6.59762 14.6666 3.93095 17.3333 1.26429 14.6666C-1.40238 11.9999 1.26429 9.33327 1.26429 9.33327L4.81984 5.77771C4.81984 5.77771 7.48651 3.11105 10.1532 5.77771C10.6532 6.27771 10.963 6.94216 10.963 6.94216L9.47229 8.4306C9.47229 8.4306 9.53229 7.82394 8.8194 7.11105C8.8194 7.11105 7.48606 5.77771 6.15273 7.11105L2.59718 10.6666C2.59718 10.6666 1.26384 11.9999 2.59718 13.3333C3.93051 14.6666 5.26384 13.3333 5.26384 13.3333L6.92118 11.6759C6.92118 11.6759 7.74518 12.3519 9.43051 11.8333L9.26429 11.9999Z" fill="white"/>
</svg>
