<svg
  width="24"
  height="25"
  viewBox="0 0 24 25"
  fill="none"
  xmlns="http://www.w3.org/2000/svg"
>
  <path
    d="M21.1334 13.0496C21.1334 11.8478 20.9269 10.6955 20.5482 9.62946C20.2893 12.7704 18.6725 14.3837 16.9832 13.6325C15.4007 12.9284 16.4671 10.1838 16.5459 8.87409C16.6787 6.65403 16.5392 4.11282 12.6455 2C14.2634 5.20566 12.8329 7.19724 11.3326 7.31848C9.66801 7.45311 8.14353 5.83688 8.70627 3.21407C6.88409 4.60474 6.8312 6.94545 7.39338 8.45969C7.97977 10.038 7.36975 11.3494 5.9398 11.4952C4.3416 11.6584 3.45358 9.72272 4.27238 6.63829C2.85538 8.36643 2 10.6046 2 13.0496C2 18.522 6.28308 22.958 11.5667 22.958C16.8504 22.958 21.1334 18.522 21.1334 13.0496Z"
    fill="#F4900C"
  />
  <path
    d="M17.4166 15.9631C17.4999 17.7606 15.9754 18.4653 15.155 18.1249C13.9698 17.6335 14.2878 16.7896 13.9828 15.041C13.6777 13.2925 12.5055 12.0784 10.7706 11.5439C12.0368 15.2351 10.0688 16.5955 9.03732 16.8385C7.98385 17.0868 6.92532 16.8379 6.80433 14.5031C5.57529 15.7702 4.81445 17.5234 4.81445 19.4608C4.81445 19.6752 4.8274 19.8862 4.8454 20.0961C6.57304 21.8644 8.94615 22.9578 11.5674 22.9578C14.1887 22.9578 16.5618 21.8644 18.2895 20.0961C18.3075 19.8862 18.3204 19.6752 18.3204 19.4608C18.3204 18.1861 17.9918 16.9918 17.4166 15.9631Z"
    fill="#FFCC4D"
  />
</svg>
