<svg width="20" height="21" viewBox="0 0 20 21" fill="none" xmlns="http://www.w3.org/2000/svg">
<path d="M19.8168 11.0496C19.8168 9.84778 19.6029 8.69549 19.2106 7.62946C18.9425 10.7704 17.268 12.3837 15.5183 11.6325C13.8793 10.9284 14.9838 8.18375 15.0654 6.87409C15.203 4.65403 15.0584 2.11282 11.0257 0C12.7014 3.20566 11.2198 5.19724 9.66593 5.31848C7.94187 5.45311 6.36294 3.83688 6.94578 1.21407C5.05853 2.60474 5.00374 4.94545 5.586 6.45969C6.19333 8.03804 5.56152 9.34944 4.08051 9.49515C2.42523 9.65835 1.50549 7.72272 2.35354 4.63829C0.885927 6.36643 0 8.60456 0 11.0496C0 16.522 4.43605 20.958 9.90839 20.958C15.3807 20.958 19.8168 16.522 19.8168 11.0496Z" fill="#F4900C"/>
<path d="M15.9673 13.9633C16.0536 15.7608 14.4746 16.4655 13.6248 16.1251C12.3974 15.6338 12.7267 14.7898 12.4108 13.0413C12.0949 11.2927 10.8808 10.0787 9.08389 9.54419C10.3953 13.2354 8.35708 14.5957 7.28872 14.8388C6.19763 15.0871 5.1013 14.8382 4.97599 12.5033C3.70305 13.7704 2.91504 15.5236 2.91504 17.461C2.91504 17.6755 2.92844 17.8865 2.9471 18.0963C4.73643 19.8647 7.1943 20.9581 9.9092 20.9581C12.6241 20.9581 15.082 19.8647 16.8713 18.0963C16.89 17.8865 16.9034 17.6755 16.9034 17.461C16.9034 16.1863 16.563 14.9921 15.9673 13.9633Z" fill="#FFCC4D"/>
</svg>
