<svg width="19" height="17" viewBox="0 0 19 17" fill="none" xmlns="http://www.w3.org/2000/svg">
<path d="M18.9542 5.29289L16.9632 2.01237C16.9623 2.01078 16.9603 2.00983 16.9593 2.00824C16.9373 1.97334 16.9081 1.94383 16.8737 1.9194C16.8682 1.91527 16.863 1.91147 16.8572 1.90766C16.8514 1.90385 16.8465 1.89909 16.84 1.8956L13.3677 0.0387836C13.2497 -0.0243584 13.1038 -0.00944545 13.001 0.0765419L1.89057 9.40981C1.8883 9.41172 1.88668 9.41457 1.88441 9.41648C1.88019 9.42028 1.87695 9.42473 1.87306 9.42885C1.84874 9.45297 1.82928 9.48025 1.81404 9.50976C1.81177 9.51389 1.80788 9.51642 1.80594 9.52055L0.0286195 13.3992C-0.0417469 13.5521 0.0218098 13.732 0.173568 13.8098L6.3123 16.9637C6.31717 16.9662 6.32268 16.9672 6.32787 16.9694C6.33208 16.9713 6.33532 16.9745 6.33986 16.9764C6.3444 16.9783 6.34927 16.9773 6.35381 16.9789C6.38948 16.9913 6.4258 16.9999 6.46309 16.9999C6.46536 17.0002 6.46795 16.9999 6.46957 16.9999C6.50232 16.9999 6.53248 16.9903 6.56231 16.9815C6.5688 16.9796 6.57593 16.9799 6.58242 16.9773C6.63235 16.9589 6.67483 16.9294 6.70953 16.8913L18.8978 5.68539C19.0084 5.58417 19.0324 5.42076 18.9542 5.29289ZM0.744929 13.3868L2.26705 10.0653L5.94328 11.6112L6.11774 16.1473L0.744929 13.3868ZM6.76044 15.9744L6.58955 11.5347L11.9549 6.78736L16.6088 2.66949L18.2642 5.3976L6.76044 15.9744Z" fill="#B5BDDB"/>
</svg>
