<svg width="32" height="32" viewBox="0 0 32 32" fill="none" xmlns="http://www.w3.org/2000/svg">
<circle cx="16" cy="16" r="16" fill="#464B6F"/>
<path d="M24.9542 13.2929L22.9632 10.0124C22.9623 10.0108 22.9603 10.0098 22.9593 10.0082C22.9373 9.97334 22.9081 9.94383 22.8737 9.9194C22.8682 9.91527 22.863 9.91147 22.8572 9.90766C22.8514 9.90385 22.8465 9.89909 22.84 9.8956L19.3677 8.03878C19.2497 7.97564 19.1038 7.99055 19.001 8.07654L7.89057 17.4098C7.8883 17.4117 7.88668 17.4146 7.88441 17.4165C7.88019 17.4203 7.87695 17.4247 7.87306 17.4289C7.84874 17.453 7.82928 17.4803 7.81404 17.5098C7.81177 17.5139 7.80788 17.5164 7.80594 17.5205L6.02862 21.3992C5.95825 21.5521 6.02181 21.732 6.17357 21.8098L12.3123 24.9637C12.3172 24.9662 12.3227 24.9672 12.3279 24.9694C12.3321 24.9713 12.3353 24.9745 12.3399 24.9764C12.3444 24.9783 12.3493 24.9773 12.3538 24.9789C12.3895 24.9913 12.4258 24.9999 12.4631 24.9999C12.4654 25.0002 12.468 24.9999 12.4696 24.9999C12.5023 24.9999 12.5325 24.9903 12.5623 24.9815C12.5688 24.9796 12.5759 24.9799 12.5824 24.9773C12.6324 24.9589 12.6748 24.9294 12.7095 24.8913L24.8978 13.6854C25.0084 13.5842 25.0324 13.4208 24.9542 13.2929ZM6.74493 21.3868L8.26705 18.0653L11.9433 19.6112L12.1177 24.1473L6.74493 21.3868ZM12.7604 23.9744L12.5896 19.5347L17.9549 14.7874L22.6088 10.6695L24.2642 13.3976L12.7604 23.9744Z" fill="#FCD34D"/>
</svg>
