<svg width="23" height="22" viewBox="0 0 23 22" fill="none" xmlns="http://www.w3.org/2000/svg">
<path d="M22.2659 11.2476C22.2659 10.5234 22.2017 9.83591 22.0917 9.16675H11.7334V13.3009H17.6642C17.3984 14.6576 16.6192 15.8034 15.4642 16.5826V19.3326H19.0026C21.0742 17.4167 22.2659 14.5934 22.2659 11.2476Z" fill="#B5BDDB"/>
<path d="M11.7335 22C14.7035 22 17.1877 21.01 19.0027 19.3325L15.4643 16.5825C14.4743 17.2425 13.2185 17.6458 11.7335 17.6458C8.86435 17.6458 6.43518 15.7116 5.56435 13.0991H1.91602V15.9316C3.72185 19.525 7.43435 22 11.7335 22Z" fill="#B5BDDB"/>
<path d="M5.56423 13.0992C5.33507 12.4392 5.2159 11.7334 5.2159 11C5.2159 10.2667 5.34423 9.56086 5.56423 8.90086V6.06836H1.9159C1.16423 7.55336 0.733398 9.22169 0.733398 11C0.733398 12.7784 1.16423 14.4467 1.9159 15.9317L5.56423 13.0992Z" fill="#B5BDDB"/>
<path d="M11.7335 4.35417C13.356 4.35417 14.8043 4.91334 15.9502 6.00417L19.0852 2.86917C17.1877 1.09083 14.7035 0 11.7335 0C7.43435 0 3.72185 2.475 1.91602 6.06834L5.56435 8.90084C6.43518 6.28834 8.86435 4.35417 11.7335 4.35417Z" fill="#B5BDDB"/>
</svg>
