<svg width="22" height="22" viewBox="0 0 22 22" fill="none" xmlns="http://www.w3.org/2000/svg">
<path d="M21.5325 11.2476C21.5325 10.5234 21.4683 9.83591 21.3583 9.16675H11V13.3009H16.9308C16.665 14.6576 15.8858 15.8034 14.7308 16.5826V19.3326H18.2692C20.3408 17.4167 21.5325 14.5934 21.5325 11.2476Z" fill="#4285F4"/>
<path d="M11.0001 22C13.9701 22 16.4543 21.01 18.2693 19.3325L14.731 16.5825C13.741 17.2425 12.4851 17.6458 11.0001 17.6458C8.13095 17.6458 5.70179 15.7116 4.83095 13.0991H1.18262V15.9316C2.98845 19.525 6.70095 22 11.0001 22Z" fill="#34A853"/>
<path d="M4.83083 13.0992C4.60167 12.4392 4.4825 11.7334 4.4825 11C4.4825 10.2667 4.61083 9.56086 4.83083 8.90086V6.06836H1.1825C0.430832 7.55336 0 9.22169 0 11C0 12.7784 0.430832 14.4467 1.1825 15.9317L4.83083 13.0992Z" fill="#FBBC05"/>
<path d="M11.0001 4.35417C12.6226 4.35417 14.071 4.91334 15.2168 6.00417L18.3518 2.86917C16.4543 1.09083 13.9701 0 11.0001 0C6.70095 0 2.98845 2.475 1.18262 6.06834L4.83095 8.90084C5.70179 6.28834 8.13095 4.35417 11.0001 4.35417Z" fill="#EA4335"/>
</svg>
