<svg width="21" height="21" viewBox="0 0 21 21" fill="none" xmlns="http://www.w3.org/2000/svg">
<path d="M4.08337 7C6.01637 7 7.58337 5.433 7.58337 3.5C7.58337 1.567 6.01637 0 4.08337 0C2.15038 0 0.583374 1.567 0.583374 3.5C0.583374 5.433 2.15038 7 4.08337 7Z" fill="#272B2B"/>
<path d="M16.9166 7C18.8496 7 20.4166 5.433 20.4166 3.5C20.4166 1.567 18.8496 0 16.9166 0C14.9836 0 13.4166 1.567 13.4166 3.5C13.4166 5.433 14.9836 7 16.9166 7Z" fill="#272B2B"/>
<path d="M4.08333 5.83341C5.372 5.83341 6.41667 4.78875 6.41667 3.50008C6.41667 2.21142 5.372 1.16675 4.08333 1.16675C2.79467 1.16675 1.75 2.21142 1.75 3.50008C1.75 4.78875 2.79467 5.83341 4.08333 5.83341Z" fill="#66757F"/>
<path d="M16.9167 5.83341C18.2054 5.83341 19.25 4.78875 19.25 3.50008C19.25 2.21142 18.2054 1.16675 16.9167 1.16675C15.628 1.16675 14.5834 2.21142 14.5834 3.50008C14.5834 4.78875 15.628 5.83341 16.9167 5.83341Z" fill="#66757F"/>
<path d="M20.4167 12.8333C20.4167 16.9167 16.698 19.8333 10.5 19.8333C4.30212 19.8333 0.583374 16.9167 0.583374 12.8333C0.583374 12.8333 1.34637 0 10.5 0C19.6537 0 20.4167 12.8333 20.4167 12.8333Z" fill="#EEEEEE"/>
<path d="M10.5 21C12.433 21 14 19.433 14 17.5C14 15.567 12.433 14 10.5 14C8.567 14 7 15.567 7 17.5C7 19.433 8.567 21 10.5 21Z" fill="#CCD6DD"/>
<path d="M10.5 19.8334C11.7886 19.8334 12.8333 18.7887 12.8333 17.5001C12.8333 16.2114 11.7886 15.1667 10.5 15.1667C9.21129 15.1667 8.16663 16.2114 8.16663 17.5001C8.16663 18.7887 9.21129 19.8334 10.5 19.8334Z" fill="#DD2E44"/>
<path d="M12.0802 7.38154C14.6784 5.7622 18.6666 9.9167 15.722 13.2242C13.6867 15.5115 11.6666 14.5834 11.6666 14.5834C11.6666 14.5834 10.129 8.59837 12.0802 7.38154ZM8.90572 7.38795C6.30755 5.76804 2.3193 9.92254 5.26339 13.2306C7.29922 15.5173 9.3193 14.5892 9.3193 14.5892C9.3193 14.5892 10.857 8.6042 8.90572 7.38795V7.38795Z" fill="#272B2B"/>
<path d="M6.41663 9.91667C6.41663 9.91667 6.41663 8.75 7.58329 8.75C8.74996 8.75 8.74996 9.91667 8.74996 9.91667V11.0833C8.74996 11.0833 8.74996 12.25 7.58329 12.25C6.41663 12.25 6.41663 11.0833 6.41663 11.0833V9.91667Z" fill="#66757F"/>
<path d="M10.5 11.6667C10.5 11.6667 4.08337 13.8175 4.08337 15.7501C4.08337 17.6827 5.65079 19.2501 7.58337 19.2501C8.80137 19.2501 9.87296 18.6277 10.5 17.6838C11.1265 18.6277 12.1987 19.2501 13.4167 19.2501C15.3493 19.2501 16.9167 17.6827 16.9167 15.7501C16.9167 13.8175 10.5 11.6667 10.5 11.6667Z" fill="white"/>
<path d="M12.25 9.91667C12.25 9.91667 12.25 8.75 13.4167 8.75C14.5833 8.75 14.5833 9.91667 14.5833 9.91667V11.0833C14.5833 11.0833 14.5833 12.25 13.4167 12.25C12.25 12.25 12.25 11.0833 12.25 11.0833V9.91667Z" fill="#66757F"/>
<path d="M7.6563 14.5833C6.70897 15.1666 9.55213 16.9166 10.5 16.9166C11.448 16.9166 14.2911 15.1666 13.3432 14.5833C12.3953 13.9999 8.60422 13.9999 7.6563 14.5833V14.5833Z" fill="#272B2B"/>
</svg>
