<svg width="22" height="20" viewBox="0 0 22 20" fill="none" xmlns="http://www.w3.org/2000/svg">
<path d="M2.32424 3.32838C3.54734 3.82701 5.61861 4.4024 7.55793 4.94987C9.30884 5.44469 10.5567 6.09177 10.5567 7.66441C10.5567 8.37873 10.4704 10.5312 10.4393 13.0776C10.6994 13.0117 10.9411 12.9806 11.198 13.0034L11.1974 12.9184C11.1733 10.1772 11.0839 7.8154 11.0845 7.05731C11.0864 5.45294 12.2372 5.65658 14.0452 5.15668C14.868 4.92894 18.6331 4.08711 19.8872 3.82257C20.9391 3.60053 20.5292 3.15075 20.2006 2.79677C20.1791 2.86464 20.1074 2.92491 19.9577 2.96995C18.9997 3.25733 13.1596 4.38844 11.7481 4.78366C10.7527 5.06216 9.46997 4.55084 7.9373 3.92788C6.40462 3.30554 2.52598 2.3952 1.75964 2.10782C1.60104 2.04819 1.48558 1.96699 1.39804 1.87817C1.33841 1.91116 1.27751 1.94352 1.22168 1.98031C1.26355 1.97841 1.29781 1.97333 1.34221 1.9727C1.64482 1.96762 1.21851 2.87797 2.32424 3.32838Z" fill="#1B2236"/>
<path d="M0.00789695 5.48049C0.0687981 7.10008 0.233739 11.209 0.083389 13.0557C-0.0162097 14.2756 0.235642 15.1879 0.715238 15.8489C0.844653 15.6377 1.12125 15.4632 1.578 15.382C3.95822 14.9576 7.84447 13.869 9.40887 13.3926C9.82376 13.2663 10.1448 13.1528 10.4397 13.0779C10.4708 10.5315 10.5571 8.379 10.5571 7.66468C10.5571 6.09204 9.30927 5.44496 7.55837 4.95014C5.61841 4.40203 3.54714 3.82664 2.32404 3.32801C1.21831 2.8776 1.64461 1.96726 1.34201 1.9717C1.29824 1.97233 1.26398 1.97804 1.22148 1.97931C0.188063 2.66381 -0.0491978 3.9808 0.00789695 5.48049Z" fill="#B5BDDB"/>
<path d="M20.4339 16.2198C20.7035 16.2813 20.9833 16.4158 21.2383 16.5896C21.5162 16.0142 21.4546 15.2688 21.4128 14.4131C21.3373 12.8677 21.4502 8.00638 21.5638 5.78286C21.6577 3.93743 21.0423 3.07593 20.189 2.66992C20.2125 2.71496 20.2132 2.75683 20.2011 2.7968C20.5291 3.15079 20.9389 3.60057 19.8877 3.8226C18.6329 4.08714 14.8684 4.92961 14.0456 5.15672C12.2376 5.65661 11.0869 5.45298 11.085 7.05734C11.0843 7.81543 11.1738 10.1779 11.1979 12.9184L11.1985 13.0034C11.4967 13.0301 11.8202 13.1265 12.2376 13.3371C13.1049 13.7755 19.1417 15.9248 20.4339 16.2198Z" fill="#B5BDDB"/>
<path d="M7.93735 3.92765C9.47003 4.54998 10.7521 5.06193 11.7481 4.78343C13.1596 4.38885 18.9998 3.2571 19.9577 2.96972C20.1081 2.92468 20.1797 2.86441 20.2007 2.79654C20.1315 2.72231 20.0668 2.6519 20.0192 2.58909C19.8968 2.54088 19.7712 2.49901 19.6418 2.46602C18.0216 2.05113 14.2901 0.883225 12.7073 0.317987C11.4531 -0.12989 9.86081 -0.0569354 8.52416 0.242495C7.0397 0.574914 4.03207 1.32476 2.53174 1.52396C2.08133 1.58359 1.70958 1.70729 1.39746 1.87858C1.48501 1.96676 1.60046 2.04859 1.75906 2.10823C2.52603 2.39497 6.40467 3.30468 7.93735 3.92765V3.92765Z" fill="#B5BDDB"/>
<path opacity="0.5" d="M11.1983 13.003C10.9414 12.9801 10.6997 13.0119 10.4396 13.0772L10.4358 13.39C10.4054 16.3817 10.5589 18.8736 10.5164 19.2777C10.4872 19.5556 10.3165 19.7941 10.0615 19.9578C10.5824 20.0212 11.1026 20.0136 11.5993 19.9311C11.3132 19.6869 11.1489 19.298 11.1102 18.911C11.0696 18.4955 11.2218 16.0208 11.1983 13.003Z" fill="#1B2236"/>
<path d="M10.5151 19.2781C10.5576 18.874 10.4035 16.3828 10.4346 13.3904L10.4384 13.0776C10.1434 13.1519 9.82239 13.2661 9.4075 13.3923C7.8431 13.8687 3.95685 14.9573 1.57663 15.3817C1.12051 15.4629 0.843282 15.638 0.713867 15.8486C1.06151 16.327 1.52525 16.6784 2.07907 16.8998C3.39796 17.4276 6.37513 18.4826 8.2599 19.4247C8.83084 19.7102 9.44493 19.8821 10.0603 19.9576C10.3159 19.7945 10.486 19.556 10.5151 19.2781V19.2781ZM19.7169 17.616C20.5714 17.4061 21.0149 17.0527 21.2382 16.5896C20.9832 16.4158 20.7034 16.2813 20.4338 16.2198C19.1415 15.9248 13.1041 13.7755 12.2362 13.3371C11.8188 13.1265 11.4953 13.0294 11.1971 13.0034C11.2206 16.0218 11.0683 18.4959 11.1096 18.9115C11.1483 19.2991 11.3126 19.6873 11.5987 19.9316C11.9178 19.8789 12.2274 19.8002 12.5192 19.6892C13.8 19.1988 17.7192 18.1058 19.7169 17.616V17.616Z" fill="#B5BDDB"/>
<path d="M4.17019 10.4402C1.6891 12.5477 0.793983 16.6065 0.867572 14.7693C0.928473 13.2525 0.856788 8.75085 0.863766 6.87814C0.869475 5.29789 1.12767 3.93839 3.22686 4.91472C4.83693 5.66329 7.79444 6.25581 9.17994 7.19216C10.0751 7.79737 7.61681 7.51253 4.17019 10.4402Z" fill="#B5BDDB"/>
<path d="M18.5064 8.37796C20.1875 9.51542 20.7705 11.9223 20.7248 10.7766C20.6868 9.83071 20.7287 7.64334 20.7248 6.47607C20.721 5.49087 20.8454 4.65284 19.458 5.05187C18.2653 5.39444 16.2074 5.5892 15.3433 6.17283C14.7851 6.54966 16.2366 6.84275 18.5064 8.37796V8.37796Z" fill="#B5BDDB"/>
</svg>
