<svg width="53" height="22" viewBox="0 0 53 22" fill="none" xmlns="http://www.w3.org/2000/svg">
<path d="M4.10491 0.306885H0V4.4118H4.10491V0.306885Z" fill="#0068B5"/>
<path d="M4.00298 21.6932V6.9097H0.117188V21.6932H4.00298ZM29.8303 21.8393V18.2165C29.2606 18.2165 28.7785 18.1873 28.428 18.1288C28.0189 18.0704 27.7121 17.9243 27.5076 17.7198C27.3031 17.5153 27.1716 17.2231 27.0986 16.8433C27.0402 16.4781 27.011 15.996 27.011 15.4117V10.2404H29.8303V6.9097H27.011V1.13944H23.1106V15.4409C23.1106 16.6534 23.2128 17.676 23.4173 18.494C23.6218 19.2975 23.9724 19.9548 24.4545 20.4515C24.9366 20.9482 25.5793 21.2988 26.3536 21.5179C27.1424 21.7371 28.1358 21.8393 29.3191 21.8393H29.8303ZM52.1517 21.6932V0H48.2513V21.6932H52.1517ZM19.3562 8.35591C18.2752 7.18725 16.756 6.60292 14.8277 6.60292C13.8928 6.60292 13.0455 6.79283 12.2712 7.17264C11.5116 7.55246 10.8542 8.07835 10.343 8.75033L10.1238 9.02789V8.77955V6.9097H6.28186V21.6932H10.153V13.8194V14.3599C10.153 14.2722 10.153 14.1846 10.153 14.0969C10.1969 12.7092 10.5329 11.6866 11.1756 11.0292C11.8622 10.328 12.6949 9.97742 13.6444 9.97742C14.7692 9.97742 15.6311 10.328 16.2009 11C16.756 11.672 17.0481 12.6215 17.0481 13.834V13.8632V21.6786H20.9778V13.2935C20.9924 11.1899 20.4372 9.52457 19.3562 8.35591ZM46.2354 14.2722C46.2354 13.2058 46.0455 12.2125 45.6803 11.2776C45.3005 10.3572 44.7746 9.53918 44.1172 8.83798C43.4452 8.13679 42.6418 7.59628 41.7068 7.20186C40.7719 6.80744 39.7347 6.61753 38.6099 6.61753C37.5435 6.61753 36.5355 6.82205 35.6006 7.21647C34.6657 7.6255 33.8476 8.166 33.161 8.85259C32.4744 9.53918 31.9193 10.3572 31.5249 11.2922C31.1159 12.2271 30.926 13.2351 30.926 14.3015C30.926 15.3679 31.1159 16.3758 31.4957 17.3108C31.8755 18.2457 32.416 19.0637 33.088 19.7503C33.76 20.4369 34.5926 20.992 35.5568 21.3865C36.5209 21.7955 37.5873 22 38.7268 22C42.0282 22 44.0734 20.4954 45.3005 19.093L42.4957 16.9602C41.9114 17.6614 40.509 18.6109 38.756 18.6109C37.6604 18.6109 36.7546 18.3626 36.0681 17.8513C35.3815 17.3546 34.914 16.6534 34.6657 15.7915L34.6218 15.66H46.2354V14.2722ZM34.6511 12.9137C34.6511 11.8327 35.8928 9.94821 38.5661 9.9336C41.2394 9.9336 42.4957 11.8181 42.4957 12.8991L34.6511 12.9137Z" fill="black"/>
</svg>
