<svg width="18" height="21" viewBox="0 0 18 21" fill="none" xmlns="http://www.w3.org/2000/svg">
<path d="M17.5001 19.8333V20.9999H15.7378V19.8333C15.7378 18.8667 14.9486 18.0833 13.9756 18.0833V16.3333C15.9222 16.3333 17.5001 17.9007 17.5001 19.8333Z" fill="#C6D5DB"/>
<path d="M14.3179 17.4999C14.2176 17.4999 14.1213 17.5151 14.0245 17.5297V18.0879C14.9742 18.1142 15.7377 18.883 15.7377 19.8333V20.9999H16.3742V19.5416C16.3742 18.414 15.4537 17.4999 14.3179 17.4999V17.4999ZM10.5 19.8333V20.9999H12.2622V19.8333C12.2622 18.8667 13.0515 18.0833 14.0245 18.0833V16.3333C12.0779 16.3333 10.5 17.9007 10.5 19.8333Z" fill="#E1E8ED"/>
<path d="M13.7301 17.5C13.8304 17.5 13.9267 17.5152 14.0235 17.5297V18.088C13.0738 18.1142 12.3102 18.8831 12.3102 19.8333V21H11.6738V19.5417C11.6744 18.4141 12.5949 17.5 13.7301 17.5V17.5ZM17.4996 1.16667V0H15.7373V1.16667C15.7373 2.13325 14.9481 2.91667 13.9751 2.91667V4.66667C15.9211 4.66667 17.4996 3.09925 17.4996 1.16667Z" fill="#C6D5DB"/>
<path d="M14.3179 3.5C14.2176 3.5 14.1213 3.48483 14.0245 3.47025V2.912C14.9742 2.88517 15.7377 2.11692 15.7377 1.16667V0H16.3742V1.45833C16.3742 2.58592 15.4531 3.5 14.3179 3.5ZM10.5 1.16667V0H12.2622V1.16667C12.2622 2.13325 13.0515 2.91667 14.0245 2.91667V4.66667C12.0779 4.66667 10.5 3.09925 10.5 1.16667Z" fill="#E1E8ED"/>
<path d="M13.7305 3.5C13.8308 3.5 13.9271 3.48483 14.0239 3.47025V2.912C13.0748 2.88517 12.3112 2.11692 12.3112 1.16667V0H11.6748V1.45833C11.6748 2.58592 12.5953 3.5 13.7305 3.5ZM13.9755 5.83333V7.58333C14.9485 7.58333 15.7377 8.36675 15.7377 9.33333V11.6667C15.7377 12.6333 14.9485 13.4167 13.9755 13.4167V15.1667C15.9221 15.1667 17.5 13.5993 17.5 11.6667V9.33333C17.5 7.40075 15.9221 5.83333 13.9755 5.83333V5.83333Z" fill="#C6D5DB"/>
<path d="M14.3174 7C14.2171 7 14.1209 7.01517 14.0234 7.02975V7.588C14.9731 7.61425 15.7367 8.38308 15.7367 9.33333V11.6667C15.7367 12.6169 14.9731 13.3852 14.0234 13.412V13.9702C14.1209 13.9848 14.2171 14 14.3174 14C15.4526 14 16.3731 13.0859 16.3731 11.9583V9.04167C16.3737 7.91408 15.4532 7 14.3174 7Z" fill="#E1E8ED"/>
<path d="M12.2622 9.33325C12.2622 8.36667 13.0515 7.58325 14.0245 7.58325V5.83325C12.0779 5.83325 10.5 7.40067 10.5 9.33325V11.6666C10.5 13.5992 12.0779 15.1666 14.0245 15.1666V13.4166C13.0515 13.4166 12.2622 12.6332 12.2622 11.6666V9.33325Z" fill="#E1E8ED"/>
<path d="M13.7306 7C12.5954 7 11.6749 7.91408 11.6749 9.04167V11.9583C11.6749 13.0859 12.5954 14 13.7306 14C13.8309 14 13.9272 13.9848 14.024 13.9703V13.412C13.0743 13.3858 12.3108 12.6169 12.3108 11.6667V9.33333C12.3108 8.38308 13.0743 7.61483 14.024 7.588V7.02975C13.9278 7.01517 13.8315 7 13.7306 7V7ZM3.47559 11.0833V12.8333C4.44859 12.8333 5.23784 13.6168 5.23784 14.5833V16.9167C5.23784 17.8833 4.44859 18.6667 3.47559 18.6667V20.4167C5.42217 20.4167 7.00009 18.8493 7.00009 16.9167V14.5833C7.00009 12.6508 5.42217 11.0833 3.47559 11.0833V11.0833Z" fill="#C6D5DB"/>
<path d="M3.81744 12.25C3.7171 12.25 3.62085 12.2652 3.52344 12.2798V12.838C4.4731 12.8642 5.23669 13.6331 5.23669 14.5833V16.9167C5.23669 17.8669 4.4731 18.6352 3.52344 18.662V19.2203C3.62085 19.2348 3.7171 19.25 3.81744 19.25C4.9526 19.25 5.8731 18.3359 5.8731 17.2083V14.2917C5.87369 13.1641 4.95319 12.25 3.81744 12.25V12.25Z" fill="#E1E8ED"/>
<path d="M1.76225 14.5833C1.76225 13.6167 2.5515 12.8333 3.5245 12.8333V11.0833C1.57792 11.0833 0 12.6507 0 14.5833V16.9166C0 18.8492 1.57792 20.4166 3.5245 20.4166V18.6666C2.5515 18.6666 1.76225 17.8832 1.76225 16.9166V14.5833Z" fill="#E1E8ED"/>
<path d="M3.23047 12.2499C2.0953 12.2499 1.1748 13.164 1.1748 14.2916V17.2083C1.1748 18.3358 2.0953 19.2499 3.23047 19.2499C3.3308 19.2499 3.42705 19.2348 3.52389 19.2202V18.6619C2.5748 18.6351 1.81122 17.8668 1.81122 16.9166V14.5833C1.81122 13.633 2.5748 12.8648 3.52447 12.8379V12.2797C3.42764 12.2651 3.33139 12.2499 3.23047 12.2499ZM3.47547 0.583252V2.33325C4.44847 2.33325 5.23772 3.11667 5.23772 4.08325V6.41659C5.23772 7.38317 4.44847 8.16659 3.47547 8.16659V9.91658C5.42205 9.91658 6.99997 8.34917 6.99997 6.41659V4.08325C6.99997 2.15067 5.42205 0.583252 3.47547 0.583252Z" fill="#C6D5DB"/>
<path d="M3.81792 1.74992C3.71758 1.74992 3.62133 1.76509 3.5245 1.77967V2.33792C4.47417 2.36475 5.23775 3.133 5.23775 4.08325V6.41659C5.23775 7.36684 4.47417 8.13508 3.5245 8.16192V8.72017C3.62133 8.73475 3.71758 8.74992 3.81792 8.74992C4.95308 8.74992 5.87358 7.83584 5.87358 6.70825V3.79159C5.87417 2.664 4.95367 1.74992 3.81792 1.74992ZM1.76225 4.08325C1.76225 3.11667 2.5515 2.33325 3.5245 2.33325V0.583252C1.57792 0.583252 0 2.15067 0 4.08325V6.41659C0 8.34917 1.57792 9.91658 3.5245 9.91658V8.16659C2.5515 8.16659 1.76225 7.38317 1.76225 6.41659V4.08325Z" fill="#E1E8ED"/>
<path d="M3.23047 1.75C2.0953 1.75 1.1748 2.66408 1.1748 3.79167V6.70833C1.1748 7.83592 2.0953 8.75 3.23047 8.75C3.3308 8.75 3.42706 8.73483 3.52389 8.72025V8.162C2.57481 8.13517 1.81122 7.36692 1.81122 6.41667V4.08333C1.81122 3.13308 2.5748 2.36483 3.52447 2.338V1.77975C3.42764 1.76517 3.33139 1.75 3.23047 1.75ZM15.1666 19.25C15.1666 19.894 14.644 20.4167 14 20.4167C13.356 20.4167 12.8333 19.894 12.8333 19.25V12.25C12.8333 11.606 13.356 11.0833 14 11.0833C14.644 11.0833 15.1666 11.606 15.1666 12.25V19.25Z" fill="#C6D5DB"/>
<path d="M12.833 12.2499V19.2499C12.833 19.8939 13.3557 20.4166 13.9997 20.4166V11.0833C13.3557 11.0833 12.833 11.6059 12.833 12.2499Z" fill="#EDF1F4"/>
<path d="M15.1663 8.74992C15.1663 9.39392 14.6437 9.91658 13.9997 9.91658C13.3557 9.91658 12.833 9.39392 12.833 8.74992V1.74992C12.833 1.10534 13.3557 0.583252 13.9997 0.583252C14.6437 0.583252 15.1663 1.10534 15.1663 1.74992V8.74992Z" fill="#C6D5DB"/>
<path d="M12.833 1.74992V8.74992C12.833 9.39392 13.3557 9.91658 13.9997 9.91658V0.583252C13.3557 0.583252 12.833 1.10592 12.833 1.74992Z" fill="#EDF1F4"/>
<path d="M4.66634 20.9999H2.33301V17.4999C2.33301 16.8559 2.85567 16.3333 3.49967 16.3333C4.14367 16.3333 4.66634 16.8559 4.66634 17.4999V20.9999Z" fill="#C6D5DB"/>
<path d="M3.49967 16.3333C2.85567 16.3333 2.33301 16.8559 2.33301 17.4999V20.9999H3.49967V16.3333Z" fill="#EDF1F4"/>
<path d="M4.66634 13.9999C4.66634 14.6439 4.14367 15.1666 3.49967 15.1666C2.85567 15.1666 2.33301 14.6439 2.33301 13.9999V6.99992C2.33301 6.35592 2.85567 5.83325 3.49967 5.83325C4.14367 5.83325 4.66634 6.35592 4.66634 6.99992V13.9999Z" fill="#C6D5DB"/>
<path d="M2.33301 6.99992V13.9999C2.33301 14.6439 2.85567 15.1666 3.49967 15.1666V5.83325C2.85567 5.83325 2.33301 6.35592 2.33301 6.99992Z" fill="#EDF1F4"/>
<path d="M4.66634 0H2.33301V3.5C2.33301 4.144 2.85567 4.66667 3.49967 4.66667C4.14367 4.66667 4.66634 4.144 4.66634 3.5V0Z" fill="#C6D5DB"/>
<path d="M3.49967 4.66667C2.85567 4.66667 2.33301 4.144 2.33301 3.5V0H3.49967V4.66667Z" fill="#EDF1F4"/>
</svg>
