<svg width="16" height="20" viewBox="0 0 16 20" fill="none" xmlns="http://www.w3.org/2000/svg">
<path d="M7.87799 0C4.53072 0 1.81738 2.71333 1.81738 6.06061V12.1212H4.24163V6.06061C4.24163 4.05273 5.8695 2.42424 7.87799 2.42424C9.88647 2.42424 11.5144 4.05273 11.5144 6.06061V12.1212H13.9386V6.06061C13.9386 2.71333 11.2253 0 7.87799 0Z" fill="#B5BDDB"/>
<path d="M15.7576 17.5756C15.7576 18.9144 14.6721 19.9999 13.3333 19.9999H2.42424C1.08545 19.9999 0 18.9144 0 17.5756V10.3029C0 8.96412 1.08545 7.87866 2.42424 7.87866H13.3333C14.6721 7.87866 15.7576 8.96412 15.7576 10.3029V17.5756Z" fill="#B5BDDB"/>
</svg>
