<svg width="16" height="21" viewBox="0 0 16 21" fill="none" xmlns="http://www.w3.org/2000/svg">
<path d="M7.99955 0C4.60078 0 1.8457 2.75508 1.8457 6.15385V12.3077H4.30724V6.15385C4.30724 4.11508 5.96017 2.46154 7.99955 2.46154C10.0389 2.46154 11.6919 4.11508 11.6919 6.15385V12.3077H14.1534V6.15385C14.1534 2.75508 11.3983 0 7.99955 0Z" fill="#AAB8C2"/>
<path d="M16 17.8462C16 19.2055 14.8978 20.3077 13.5385 20.3077H2.46154C1.10215 20.3077 0 19.2055 0 17.8462V10.4615C0 9.10215 1.10215 8 2.46154 8H13.5385C14.8978 8 16 9.10215 16 10.4615V17.8462Z" fill="#FFAC33"/>
</svg>
