<svg width="22" height="21" viewBox="0 0 22 21" fill="none" xmlns="http://www.w3.org/2000/svg">
<path d="M20.0996 10.8001C20.928 10.8001 21.5996 9.8599 21.5996 8.7001C21.5996 7.5403 20.928 6.6001 20.0996 6.6001C19.2712 6.6001 18.5996 7.5403 18.5996 8.7001C18.5996 9.8599 19.2712 10.8001 20.0996 10.8001Z" fill="#F4900C"/>
<path d="M1.5 10.8001C2.32843 10.8001 3 9.8599 3 8.7001C3 7.5403 2.32843 6.6001 1.5 6.6001C0.671573 6.6001 0 7.5403 0 8.7001C0 9.8599 0.671573 10.8001 1.5 10.8001Z" fill="#F4900C"/>
<path d="M20.4002 11.3999C20.4002 11.7317 20.132 11.9999 19.8002 11.9999H18.0002C17.6684 11.9999 17.4002 11.7317 17.4002 11.3999V5.9999C17.4002 5.6687 17.6684 5.3999 18.0002 5.3999H19.8002C20.132 5.3999 20.4002 5.6687 20.4002 5.9999V11.3999ZM4.2002 11.3999C4.2002 11.7317 3.9314 11.9999 3.6002 11.9999H1.8002C1.469 11.9999 1.2002 11.7317 1.2002 11.3999V5.9999C1.2002 5.6687 1.469 5.3999 1.8002 5.3999H3.6002C3.9314 5.3999 4.2002 5.6687 4.2002 5.9999V11.3999Z" fill="#FFAC33"/>
<path d="M16.7998 3C16.7998 4.6566 14.113 5.4 10.7998 5.4C7.486 5.4 4.7998 4.6566 4.7998 3C4.7998 1.3434 7.486 0 10.7998 0C14.113 0 16.7998 1.3434 16.7998 3Z" fill="#FFCC4D"/>
<path d="M14.9996 2.44991C14.9996 3.41651 13.1186 4.20011 10.7996 4.20011C8.48001 4.20011 6.59961 3.41651 6.59961 2.44991C6.59961 1.48331 8.48001 0.699707 10.7996 0.699707C13.1186 0.699707 14.9996 1.48331 14.9996 2.44991Z" fill="#F4900C"/>
<path d="M17.9996 3.30005C17.9996 4.12865 17.3282 4.20005 16.4996 4.20005H5.09961C4.27101 4.20005 3.59961 4.12865 3.59961 3.30005C3.59961 2.47145 4.27101 1.80005 5.09961 1.80005H16.4996C17.3282 1.80005 17.9996 2.47145 17.9996 3.30005Z" fill="#226699"/>
<path d="M18.0004 3.6001H3.60039C2.93799 3.6001 2.40039 4.1377 2.40039 4.8001V20.4001H19.2004V4.8001C19.2004 4.1377 18.6628 3.6001 18.0004 3.6001Z" fill="#55ACEE"/>
<path d="M21.0002 19.8V19.2C21.0002 18.5376 20.4626 18 19.8002 18H13.2428L11.2244 20.0184C10.9898 20.253 10.6106 20.253 10.376 20.0184L8.3576 18H1.8002C1.1378 18 0.600201 18.5376 0.600201 19.2V19.8C0.600201 20.4624 0.537801 21 1.2002 21H20.4002C21.0626 21 21.0002 20.4624 21.0002 19.8Z" fill="#3B88C3"/>
<path d="M14.7 11.4C16.1912 11.4 17.4 10.1912 17.4 8.7C17.4 7.20883 16.1912 6 14.7 6C13.2088 6 12 7.20883 12 8.7C12 10.1912 13.2088 11.4 14.7 11.4Z" fill="white"/>
<path d="M14.7 10.3326C15.6016 10.3326 16.3326 9.60164 16.3326 8.69998C16.3326 7.79832 15.6016 7.06738 14.7 7.06738C13.7983 7.06738 13.0674 7.79832 13.0674 8.69998C13.0674 9.60164 13.7983 10.3326 14.7 10.3326Z" fill="#DD2E44"/>
<path d="M6.9002 11.4C8.39136 11.4 9.6002 10.1912 9.6002 8.7C9.6002 7.20883 8.39136 6 6.9002 6C5.40903 6 4.2002 7.20883 4.2002 8.7C4.2002 10.1912 5.40903 11.4 6.9002 11.4Z" fill="white"/>
<path d="M17.4002 15.3C17.4002 16.1286 16.7288 16.8 15.9002 16.8H5.7002C4.8716 16.8 4.2002 16.1286 4.2002 15.3C4.2002 14.4714 4.8716 13.8 5.7002 13.8H15.9002C16.7288 13.8 17.4002 14.4714 17.4002 15.3Z" fill="#F5F8FA"/>
<path d="M10.2002 13.8H11.4002V16.8H10.2002V13.8ZM7.2002 13.8H8.4002V16.8H7.2002V13.8ZM13.2002 13.8H14.4002V16.8H13.2002V13.8ZM4.2002 15.3C4.2002 16.026 4.7156 16.6308 5.4002 16.77V13.83C4.7156 13.9692 4.2002 14.574 4.2002 15.3V15.3ZM16.2002 13.83V16.7694C16.8848 16.6302 17.4002 16.0254 17.4002 15.2994C17.4002 14.5734 16.8848 13.9692 16.2002 13.83V13.83Z" fill="#CCD6DD"/>
<path d="M6.90018 10.3326C7.80184 10.3326 8.53278 9.60164 8.53278 8.69998C8.53278 7.79832 7.80184 7.06738 6.90018 7.06738C5.99852 7.06738 5.26758 7.79832 5.26758 8.69998C5.26758 9.60164 5.99852 10.3326 6.90018 10.3326Z" fill="#DD2E44"/>
</svg>
