<svg width="20" height="5" viewBox="0 0 20 5" fill="none" xmlns="http://www.w3.org/2000/svg">
<path d="M0 2.22951C0 2.82696 0.196721 3.33698 0.590164 3.75956C0.983606 4.16758 1.52277 4.37158 2.20765 4.37158C2.89253 4.37158 3.43898 4.16758 3.84699 3.75956C4.26958 3.33698 4.48087 2.82696 4.48087 2.22951C4.48087 1.60291 4.27687 1.07832 3.86885 0.655738C3.46084 0.218579 2.9071 0 2.20765 0C1.52277 0 0.983606 0.218579 0.590164 0.655738C0.196721 1.0929 0 1.61749 0 2.22951ZM7.86885 2.22951C7.86885 2.82696 8.06557 3.33698 8.45902 3.75956C8.85246 4.16758 9.39162 4.37158 10.0765 4.37158C10.7614 4.37158 11.3078 4.16758 11.7158 3.75956C12.1384 3.33698 12.3497 2.82696 12.3497 2.22951C12.3497 1.60291 12.1457 1.07832 11.7377 0.655738C11.3297 0.218579 10.776 0 10.0765 0C9.39162 0 8.85246 0.218579 8.45902 0.655738C8.06557 1.0929 7.86885 1.61749 7.86885 2.22951ZM15.5191 2.22951C15.5191 2.82696 15.7158 3.33698 16.1093 3.75956C16.5027 4.16758 17.0419 4.37158 17.7268 4.37158C18.4117 4.37158 18.9581 4.16758 19.3661 3.75956C19.7887 3.33698 20 2.82696 20 2.22951C20 1.60291 19.796 1.07832 19.388 0.655738C18.98 0.218579 18.4262 0 17.7268 0C17.0419 0 16.5027 0.218579 16.1093 0.655738C15.7158 1.0929 15.5191 1.61749 15.5191 2.22951Z" fill="#B5BDDB"/>
</svg>
