<svg width="25" height="21" viewBox="0 0 25 21" fill="none" xmlns="http://www.w3.org/2000/svg">
<path d="M12.2501 0C5.48462 0 0 4.7013 0 10.4997C0 11.2251 0.0857504 11.9336 0.249765 12.6176C1.46048 14.7007 2.29825 13.3859 6.12503 11.4722C10.0226 9.52306 6.12503 14.1944 4.76391 16.9166C4.34537 17.7537 4.57199 18.4622 5.14502 19.0427C7.14995 20.2704 9.5986 21 12.2501 21C19.0155 21 24.5001 16.2994 24.5001 10.4997C24.5001 4.7013 19.0155 0 12.2501 0V0ZM14.189 16.6376C13.9201 17.5537 12.5148 17.947 11.0496 17.5162C9.58431 17.0861 8.61451 15.9959 8.88333 15.0791C9.15215 14.1631 10.5575 13.7697 12.0227 14.2012C13.488 14.6307 14.4578 15.7209 14.189 16.6376V16.6376Z" fill="#D99E82"/>
<path d="M6.80535 7.38877C7.93293 7.38877 8.84702 6.47468 8.84702 5.3471C8.84702 4.21951 7.93293 3.30542 6.80535 3.30542C5.67776 3.30542 4.76367 4.21951 4.76367 5.3471C4.76367 6.47468 5.67776 7.38877 6.80535 7.38877Z" fill="#5C913B"/>
<path d="M13.611 6.02769C14.7386 6.02769 15.6527 5.1136 15.6527 3.98601C15.6527 2.85843 14.7386 1.94434 13.611 1.94434C12.4834 1.94434 11.5693 2.85843 11.5693 3.98601C11.5693 5.1136 12.4834 6.02769 13.611 6.02769Z" fill="#226699"/>
<path d="M19.736 10.1109C20.8636 10.1109 21.7777 9.19685 21.7777 8.06926C21.7777 6.94168 20.8636 6.02759 19.736 6.02759C18.6084 6.02759 17.6943 6.94168 17.6943 8.06926C17.6943 9.19685 18.6084 10.1109 19.736 10.1109Z" fill="#DD2E44"/>
<path d="M19.0553 16.2359C20.1829 16.2359 21.097 15.3219 21.097 14.1943C21.097 13.0667 20.1829 12.1526 19.0553 12.1526C17.9278 12.1526 17.0137 13.0667 17.0137 14.1943C17.0137 15.3219 17.9278 16.2359 19.0553 16.2359Z" fill="#FFCC4D"/>
</svg>
