<svg width="100" height="100" viewBox="0 0 100 100" fill="none" xmlns="http://www.w3.org/2000/svg">
<g clip-path="url(#clip0_3307_2862)">
<path d="M53.0083 98.6112L34.0278 34.1445C34.0278 34.1445 30.0833 36.2584 26.7944 38.6918C25.925 39.3334 21.3028 46.4418 20.3722 47.1362C15.4778 50.789 10.5056 55.0279 9.83889 55.9334C8.56389 57.6668 0 100 0 100L53.0083 98.6112Z" fill="#292F33"/>
<path d="M88.8889 97.2223L73.6111 42.3611L50 12.6167L35.075 24.2639L32.3778 27.5195C31.25 29.6889 27.7778 42.3611 27.7778 42.3611L24.3056 55.5556L9.03335 83.4834L2.54724 96.6417L88.8889 97.2223Z" fill="#4B545D"/>
<path d="M9.03333 83.4836C9.03333 83.4836 30.9028 53.5308 30.9611 51.8502C31.0194 50.1724 27.7778 42.3613 27.7778 42.3613L24.3055 55.5558L9.03333 83.4836Z" fill="white"/>
<path d="M33.3333 94.4446H38.8889L44.4445 50.6946L47.8722 45.7029L57.8111 31.1641L58.0722 27.0835L48.9417 39.4557L41.6667 49.3113L35.0333 69.7613L33.3333 75.0002L28.3583 83.7057L22.2222 94.4446H33.3333ZM66.8306 45.5113L61.3722 61.8918L58.3333 72.2224L66.0889 93.4029L75.9556 93.2307C75.9556 93.2307 63.8889 73.9585 63.8889 72.2224C63.8889 71.8891 65.625 64.7585 65.625 64.7585L68.6639 52.1724L69.4445 47.9168L66.8306 45.5113Z" fill="#292F33"/>
<path d="M66.8305 45.5113L61.8916 43.6641L57.6389 46.0946L53.95 43.1418L47.8722 45.7029L57.8111 31.1641L66.8305 45.5113ZM74.8055 66.0085L70.0527 62.153L65.625 64.7585L68.6639 52.1696L72.6555 58.5085L74.8055 66.0085Z" fill="#F1F1F1"/>
<path d="M61.3722 61.8917L58.3333 72.2222L57.6389 65.5083L61.3722 61.8917ZM33.3333 75L28.3583 83.7056L29.3389 76.9528C29.3389 76.9528 31.2333 75.3472 31.9444 74.4222C32.6528 73.4972 35.0333 69.7611 35.0333 69.7611L33.3333 75ZM42.2444 44.4445L48.9417 39.4556L41.6667 49.3111L42.2444 44.4445Z" fill="white"/>
<path d="M100 100C100 100 98.9333 89.3195 97.6278 80.325C96.6028 73.2611 89.9694 62.8167 86.2417 60.5611L82.8139 50.7389L77.1944 36.5667L70.9222 30.2084L65.8 25.6917L64.3972 23.9667L50 12.6167L56.3583 26.525L57.8139 31.1639L66.8306 45.5111L68.6639 52.1695L72.6583 58.5056L74.8083 66.0084L77.7778 76.3889L72.2222 94.4445L100 100Z" fill="#292F33"/>
<path d="M93.6333 90.1057C89.8972 90.1057 79.8611 91.6668 78.4722 91.6668C72.9167 91.6668 66.6667 86.8057 63.8889 86.8057C61.1111 86.8057 53.9056 91.6668 48.35 91.6668C43.6611 91.6668 41.6667 89.4112 35.2417 89.4112C33.1639 89.4112 23.8639 91.8307 21.875 91.5807C16.8111 90.9473 14.2083 88.889 12.9333 88.889C5.55556 88.889 0 100 0 100H100C100 100 97.5694 90.1057 93.6333 90.1057Z" fill="#5C903F"/>
<path d="M35.075 24.2639L40.9722 22.9167L42.7945 28.0389L48.6972 25.6083L56.3583 26.525L50 6.25L35.075 24.2639Z" fill="#F1F1F1"/>
<path d="M64.3972 23.9667L60.3889 23.2917L56.3583 26.525L50 6.25L64.3972 23.9667ZM77.6472 36.1111L82.8111 50.7389L78.0083 42.8833L73.525 38.3694L70.9194 30.2083L77.6472 36.1111ZM97.6278 80.325C97.6278 80.325 97.2222 69.5333 94.0972 65.9722C90.9722 62.4111 86.1111 60.475 86.1111 60.475L90.1056 69.5611L94.1556 73.4972L97.6278 80.325Z" fill="#A8B6C0"/>
</g>
<defs>
<clipPath id="clip0_3307_2862">
<rect width="100" height="100" fill="white"/>
</clipPath>
</defs>
</svg>
