<svg width="22" height="21" viewBox="0 0 22 21" fill="none" xmlns="http://www.w3.org/2000/svg">
<path d="M18.7853 20.439C19.5027 21.1564 20.6446 21.1902 21.3207 20.5134C21.9975 19.8367 21.9636 18.6954 21.2463 17.9781L6.93335 3.66454C6.21537 2.94656 5.07411 2.91272 4.39796 3.5901C3.72058 4.26686 3.75442 5.40813 4.4724 6.12549L18.7853 20.439Z" fill="#B5BDDB"/>
<path d="M2.93069 4.67545C2.45019 4.19495 2.45019 3.41544 2.93069 2.93494L3.80063 2.06499C4.28052 1.58511 5.06003 1.58511 5.54053 2.06499C6.02103 2.54549 6.02103 3.325 5.54053 3.8055L4.67058 4.67545C4.19008 5.15595 3.41057 5.15595 2.93069 4.67545Z" fill="#B5BDDB"/>
<path d="M14.9804 0.579922C13.8379 0.1228 8.21277 -1.26579 3.90611 3.04087C-0.400558 7.34754 0.988034 12.9727 1.44516 14.1152C2.67563 17.1913 2.47322 13.4612 2.67563 12.2694C3.3001 8.59586 5.02707 6.62279 6.25755 5.39231C7.48802 4.16184 9.47463 2.44348 13.1347 1.8104C14.3166 1.60614 18.0566 1.8104 14.9804 0.579922Z" fill="#464B6F"/>
</svg>
