<svg width="21" height="21" viewBox="0 0 21 21" fill="none" xmlns="http://www.w3.org/2000/svg">
<path d="M17.9201 20.439C18.6374 21.1564 19.7793 21.1902 20.4555 20.5134C21.1322 19.8367 21.0984 18.6954 20.381 17.9781L6.06812 3.66454C5.35014 2.94656 4.20887 2.91272 3.53272 3.5901C2.85535 4.26686 2.88918 5.40813 3.60717 6.12549L17.9201 20.439Z" fill="#F4900C"/>
<path d="M2.06545 4.67545C1.58495 4.19495 1.58495 3.41544 2.06545 2.93494L2.9354 2.06499C3.41529 1.58511 4.19479 1.58511 4.67529 2.06499C5.15579 2.54549 5.15579 3.325 4.67529 3.8055L3.80535 4.67545C3.32485 5.15595 2.54534 5.15595 2.06545 4.67545Z" fill="#F4900C"/>
<path d="M14.1152 0.579922C12.9727 0.1228 7.34754 -1.26579 3.04087 3.04087C-1.26579 7.34754 0.1228 12.9727 0.579922 14.1152C1.8104 17.1913 1.60798 13.4612 1.8104 12.2694C2.43486 8.59586 4.16184 6.62279 5.39231 5.39231C6.62279 4.16184 8.60939 2.44348 12.2694 1.8104C13.4513 1.60614 17.1913 1.8104 14.1152 0.579922Z" fill="#66757F"/>
</svg>
