<svg width="80" height="80" viewBox="0 0 80 80" fill="none" xmlns="http://www.w3.org/2000/svg">
<circle cx="40" cy="40" r="40" fill="#2D344A"/>
<path d="M40 64C53.2548 64 64 53.2548 64 40C64 26.7452 53.2548 16 40 16C26.7452 16 16 26.7452 16 40C16 53.2548 26.7452 64 40 64Z" fill="#B5BDDB"/>
<path d="M52.4455 47.505C52.2081 47.2903 51.8535 47.277 51.5988 47.4663C51.5468 47.505 46.3695 51.333 39.9988 51.333C33.6441 51.333 28.4495 47.505 28.3988 47.4663C28.1441 47.277 27.7895 47.293 27.5521 47.505C27.3161 47.7183 27.2628 48.0703 27.4268 48.3423C27.5988 48.629 31.7161 55.333 39.9988 55.333C48.2815 55.333 52.4001 48.629 52.5708 48.3423C52.7348 48.069 52.6828 47.7183 52.4455 47.505Z" fill="#664500"/>
<path d="M40 51.4548C39.8027 51.4548 39.612 51.4401 39.416 51.4335V57.4548H40.5827V51.4321C40.3893 51.4388 40.1973 51.4548 40 51.4548Z" fill="#464B6F"/>
<path d="M45.3348 50.667C45.3561 50.6617 43.4015 51.171 42.0735 51.315C41.5855 51.371 41.0908 51.4164 40.5841 51.4337V57.4564H42.6681C44.1348 57.4564 45.3348 56.2564 45.3348 54.7897V50.667ZM34.6681 50.667C34.6468 50.6617 36.6015 51.171 37.9295 51.315C38.4175 51.371 38.9121 51.4164 39.4188 51.4337V57.4564H37.3348C35.8681 57.4564 34.6681 56.2564 34.6681 54.7897V50.667Z" fill="white"/>
<path d="M52.4458 47.5054C52.2085 47.2907 51.8538 47.2774 51.5992 47.4667C51.5592 47.4961 48.5872 49.6907 44.3845 50.7601C43.7938 50.9107 41.8992 51.3334 40.0032 51.3347C38.1045 51.3347 36.2045 50.9107 35.6138 50.7601C31.4112 49.6907 28.4392 47.4961 28.3992 47.4667C28.1458 47.2774 27.7898 47.2907 27.5525 47.5054C27.3152 47.7187 27.2632 48.0694 27.4272 48.3427C27.5565 48.5587 29.9405 52.4321 34.6658 54.3174V51.8787C34.6445 51.8734 36.5992 52.3827 37.9272 52.5267C38.4152 52.5827 38.9098 52.6281 39.4165 52.6454C39.6112 52.6521 39.8018 52.6667 39.9992 52.6667C40.1965 52.6667 40.3872 52.6521 40.5832 52.6454C41.0898 52.6281 41.5845 52.5841 42.0725 52.5267C43.4005 52.3827 45.3552 51.8734 45.3338 51.8787V54.3174C50.0592 52.4321 52.4432 48.5587 52.5725 48.3427C52.7352 48.0694 52.6832 47.7187 52.4458 47.5054ZM51.4978 34.6987C51.4978 36.9841 50.2472 38.8374 48.7032 38.8374C47.1605 38.8374 45.9085 36.9841 45.9085 34.6987C45.9085 32.4134 47.1592 30.5601 48.7032 30.5601C50.2472 30.5601 51.4978 32.4134 51.4978 34.6987ZM28.6085 34.6987C28.6085 36.9841 29.8592 38.8374 31.4032 38.8374C32.9458 38.8374 34.1978 36.9841 34.1978 34.6987C34.1978 32.4134 32.9472 30.5601 31.4032 30.5601C29.8592 30.5601 28.6085 32.4134 28.6085 34.6987Z" fill="#464B6F"/>
<path d="M62.4113 28.8362C62.1833 28.6149 60.722 29.2016 59.2433 28.4482C56.1927 26.8936 48.4833 25.3936 43.4647 28.9496C42.9273 29.3296 40.682 29.3936 40.054 29.3669C39.426 29.3949 37.1807 29.3309 36.6433 28.9496C31.626 25.3936 23.9167 26.8936 20.866 28.4482C19.3873 29.2016 17.926 28.6149 17.698 28.8362C17.3687 29.1549 17.3687 30.4309 17.6993 30.7509C18.0273 31.0696 19.6687 31.4376 19.9953 32.3936C20.3247 33.3509 20.3273 39.0042 22.946 40.9589C25.398 42.7882 31.118 43.3389 34.7433 41.2762C37.906 39.4776 37.7953 35.6909 38.3753 33.4349C38.582 32.6309 39.1647 32.2256 40.0553 32.2256C40.946 32.2256 41.5287 32.6309 41.7353 33.4349C42.3153 35.6896 42.2033 39.4776 45.3673 41.2762C48.9927 43.3376 54.7127 42.7869 57.1633 40.9589C59.7833 39.0056 59.786 33.3509 60.114 32.3936C60.4407 31.4376 62.082 31.0682 62.41 30.7509C62.7407 30.4309 62.742 29.1549 62.4113 28.8362ZM35.486 33.7029C35.3833 35.1762 35.1207 38.0056 33.3567 39.0096C32.2753 39.6256 30.866 40.0002 29.3913 40.0002C27.758 40.0002 25.4927 39.5376 24.6073 38.8776C23.5007 38.0522 23.0793 34.6549 22.9207 33.3842C22.8193 32.5749 22.5473 30.5976 23.438 30.2936C24.8513 29.8122 26.8233 29.4362 28.8407 29.4362C29.7647 29.4362 32.8687 29.4936 34.3807 30.4242C35.7207 31.2469 35.5433 32.8922 35.486 33.7029ZM57.19 33.3656C57.0313 34.6376 56.61 38.0522 55.5033 38.8776C54.618 39.5376 52.354 40.0002 50.7207 40.0002C49.2447 40.0002 47.8353 39.6256 46.7527 39.0096C44.9887 38.0069 44.726 35.1949 44.6233 33.7216C44.5673 32.9109 44.3887 31.2536 45.7287 30.4309C47.242 29.5002 50.3447 29.4362 51.2687 29.4362C53.286 29.4362 55.2567 29.8056 56.6713 30.2869C57.562 30.5909 57.2913 32.5562 57.19 33.3656Z" fill="#464B6F"/>
</svg>
