<svg width="32" height="32" viewBox="0 0 32 32" fill="none" xmlns="http://www.w3.org/2000/svg">
<path d="M16 32C24.8366 32 32 24.8366 32 16C32 7.16344 24.8366 0 16 0C7.16344 0 0 7.16344 0 16C0 24.8366 7.16344 32 16 32Z" fill="#2D344A"/>
<path d="M15.9454 5L15.7939 5.50142V20.0448L15.9459 20.1919L22.8904 16.2017L15.9459 5H15.9454Z" fill="#B5BDDB"/>
<path d="M15.9451 5L9 16.2017L15.9451 20.1919V5Z" fill="#B5BDDB"/>
<path d="M15.9456 21.4703L15.8604 21.5716V26.7526L15.9456 26.9955L22.8953 17.4814L15.9456 21.4699V21.4703Z" fill="#B5BDDB"/>
<path d="M15.9451 26.9956V21.4699L9 17.4819L15.9451 26.9951V26.9956Z" fill="#B5BDDB"/>
<path d="M15.9453 20.1918L22.8904 16.2016L15.9453 13.1331V20.1918Z" fill="#B5BDDB"/>
<path d="M9 16.2016L15.9451 20.1919V13.1335L9 16.2016Z" fill="#B5BDDB"/>
</svg>
