<svg width="32" height="32" viewBox="0 0 32 32" fill="none" xmlns="http://www.w3.org/2000/svg">
<circle cx="16" cy="16" r="16" fill="#2D344A"/>
<path d="M10.7422 15.5701C10.7422 15.4696 10.7621 15.3701 10.8006 15.2773C10.8392 15.1844 10.8957 15.1001 10.967 15.0292C11.0382 14.9583 11.1227 14.9021 11.2157 14.864C11.3087 14.8259 11.4084 14.8065 11.5089 14.8069L12.7799 14.8111C12.9826 14.8111 13.1769 14.8916 13.3203 15.0349C13.4636 15.1782 13.5441 15.3726 13.5441 15.5752V20.3815C13.6872 20.3391 13.8709 20.2938 14.072 20.2466C14.2117 20.2138 14.3362 20.1347 14.4253 20.0222C14.5144 19.9097 14.5629 19.7704 14.5629 19.627V13.6652C14.5629 13.4625 14.6434 13.2681 14.7867 13.1248C14.93 12.9815 15.1244 12.9009 15.3271 12.9009H16.6007C16.8034 12.9009 16.9977 12.9815 17.141 13.1248C17.2843 13.2682 17.3648 13.4625 17.3648 13.6652V19.1985C17.3648 19.1985 17.6836 19.0694 17.9942 18.9383C18.1096 18.8895 18.2081 18.8078 18.2773 18.7034C18.3466 18.5991 18.3835 18.4766 18.3836 18.3513V11.7545C18.3836 11.6542 18.4034 11.5548 18.4418 11.4621C18.4802 11.3694 18.5365 11.2852 18.6074 11.2142C18.6783 11.1433 18.7626 11.087 18.8553 11.0486C18.948 11.0102 19.0473 10.9904 19.1477 10.9904H20.4213C20.6239 10.9904 20.8183 11.0709 20.9616 11.2142C21.1049 11.3575 21.1855 11.5519 21.1855 11.7545V17.1866C22.2896 16.3864 23.4086 15.424 24.2967 14.2667C24.4255 14.0987 24.5107 13.9014 24.5448 13.6925C24.5789 13.4835 24.5607 13.2694 24.4919 13.0692C23.891 11.3181 22.764 9.79539 21.2648 8.70918C19.7657 7.62297 17.9676 7.02632 16.1165 7.00082C11.1249 6.93376 6.99955 11.0085 7.00004 16.0007C6.99514 17.5804 7.40744 19.1334 8.19526 20.5027C8.3039 20.69 8.46374 20.8424 8.65599 20.942C8.84824 21.0416 9.06492 21.0842 9.28058 21.0649C9.52152 21.0437 9.82149 21.0138 10.1781 20.9719C10.3333 20.9542 10.4766 20.8801 10.5807 20.7636C10.6848 20.6471 10.7424 20.4964 10.7425 20.3402V15.5701" fill="white"/>
<path d="M10.7149 23.2782C12.0573 24.2548 13.6438 24.841 15.2987 24.9719C16.9536 25.1029 18.6125 24.7735 20.0918 24.0201C21.5711 23.2668 22.8132 22.1189 23.6806 20.7035C24.548 19.2881 25.007 17.6603 25.0067 16.0002C25.0067 15.793 24.9971 15.5881 24.9833 15.3843C21.6954 20.2877 15.6247 22.5804 10.7148 23.2784" fill="#BFCFDA"/>
</svg>
