<svg width="32" height="32" viewBox="0 0 32 32" fill="none" xmlns="http://www.w3.org/2000/svg">
<circle cx="16" cy="16" r="16" fill="#2D344A"/>
<path d="M25 12.2208C24.3746 12.4968 23.7023 12.6833 22.9969 12.7671C23.7169 12.3377 24.27 11.6577 24.5304 10.8474C23.8564 11.2452 23.11 11.5339 22.3155 11.6895C21.6794 11.015 20.7729 10.5938 19.7698 10.5938C17.8437 10.5938 16.282 12.1473 16.282 14.0635C16.282 14.3355 16.3128 14.6003 16.3723 14.8543C13.4736 14.7096 10.9037 13.3281 9.18351 11.2288C8.88329 11.7413 8.71125 12.3373 8.71125 12.9732C8.71125 14.1771 9.32699 15.2391 10.2628 15.8614C9.69113 15.8433 9.15334 15.6872 8.68312 15.4274C8.68272 15.4418 8.68272 15.4564 8.68272 15.471C8.68272 17.1521 9.88496 18.5545 11.4805 18.8735C11.1878 18.9528 10.8797 18.9951 10.5616 18.9951C10.3369 18.9951 10.1185 18.9733 9.90545 18.9329C10.3493 20.3114 11.6373 21.3146 13.1636 21.3425C11.9699 22.2732 10.4661 22.8279 8.83198 22.8279C8.55046 22.8279 8.27285 22.8115 8 22.7794C9.54352 23.764 11.3768 24.3384 13.3464 24.3384C19.7616 24.3384 23.2699 19.0512 23.2699 14.4658C23.2699 14.3153 23.2664 14.1658 23.2597 14.0168C23.9411 13.5277 24.5324 12.9166 25 12.2208Z" fill="#1D9BF0"/>
</svg>
