<svg width="32" height="32" viewBox="0 0 32 32" fill="none" xmlns="http://www.w3.org/2000/svg">
<circle cx="16" cy="16" r="16" fill="#2D344A"/>
<path d="M24.9999 15.9603C25.0078 17.7403 24.4876 19.4827 23.5052 20.9671C22.5228 22.4514 21.1223 23.6112 19.4808 24.2996C17.8393 24.9881 16.0305 25.1743 14.2832 24.8347C12.5359 24.4952 10.9285 23.6451 9.66423 22.392C8.40002 21.1389 7.53577 19.5391 7.18079 17.7948C6.8258 16.0506 6.99603 14.2402 7.66993 12.5927C8.34383 10.9452 9.49114 9.53446 10.9668 8.53898C12.4424 7.54351 14.1801 7.00797 15.9601 7.00009C17.142 6.99485 18.3134 7.22246 19.4073 7.66992C20.5013 8.11739 21.4963 8.77594 22.3358 9.60797C23.1752 10.44 23.8425 11.4292 24.2996 12.5192C24.7567 13.6091 24.9947 14.7784 24.9999 15.9603Z" fill="#464B6F"/>
<path d="M24.325 15.9636C24.3331 17.61 23.8528 19.2218 22.9448 20.5952C22.0368 21.9685 20.7419 23.0418 19.2239 23.6792C17.7059 24.3166 16.0329 24.4895 14.4167 24.176C12.8004 23.8626 11.3134 23.0768 10.1437 21.9182C8.97397 20.7595 8.17416 19.28 7.84539 17.6668C7.51661 16.0535 7.67364 14.379 8.29662 12.855C8.91959 11.3311 9.98052 10.026 11.3452 9.10506C12.7099 8.18407 14.3171 7.68849 15.9635 7.68099C18.1704 7.67128 20.2909 8.53827 21.8588 10.0914C23.4267 11.6445 24.3138 13.7567 24.325 15.9636Z" fill="#B5BDDB"/>
<path d="M16.153 8.21692C16.6821 8.123 17.2237 8.123 17.7528 8.21692C18.287 8.30162 18.8034 8.47464 19.2808 8.72888C19.7556 8.98975 20.1658 9.34388 20.5741 9.67584C20.9823 10.0078 21.3886 10.3476 21.7754 10.7193C22.1702 11.0852 22.5147 11.5019 22.8 11.9584C23.0936 12.4114 23.3343 12.8965 23.5173 13.4043C23.865 14.4256 23.9856 15.5258 23.8121 16.5752H23.7606C23.5865 15.535 23.3504 14.5437 22.978 13.6006C22.8032 13.1266 22.5975 12.6645 22.3623 12.2174C22.1171 11.7677 21.8466 11.3322 21.5523 10.913C21.2532 10.4907 20.8865 10.1206 20.4671 9.81736C20.0445 9.51605 19.5586 9.32105 19.0884 9.13584C18.6182 8.95062 18.1519 8.76084 17.6615 8.61997C17.171 8.4791 16.6728 8.37344 16.1523 8.27105L16.153 8.21692Z" fill="white"/>
<path d="M20.2219 13.0255C19.6179 12.8507 18.9919 12.6029 18.3579 12.3525C18.3214 12.1933 18.1805 11.9951 17.8955 11.7531C17.4814 11.3938 16.7034 11.4029 16.031 11.562C15.2888 11.3872 14.5558 11.3253 13.8521 11.4968C8.09664 13.0822 11.3601 16.9503 9.24707 20.8385C9.54772 21.4764 12.7884 25.1977 17.4775 24.1992C17.4775 24.1992 15.8738 20.3455 19.4927 18.4959C22.4282 16.9901 24.549 14.204 20.2219 13.0255Z" fill="#464B6F"/>
<path d="M20.9332 15.5567C20.9336 15.6257 20.9135 15.6933 20.8755 15.7508C20.8374 15.8084 20.7832 15.8535 20.7196 15.8802C20.656 15.907 20.5859 15.9143 20.5181 15.9012C20.4504 15.8881 20.388 15.8552 20.3389 15.8067C20.2899 15.7582 20.2563 15.6962 20.2424 15.6286C20.2286 15.561 20.2351 15.4908 20.2612 15.4269C20.2872 15.363 20.3316 15.3083 20.3888 15.2696C20.446 15.2309 20.5133 15.2101 20.5823 15.2097C20.6748 15.2094 20.7636 15.2457 20.8294 15.3107C20.8952 15.3758 20.9325 15.4642 20.9332 15.5567Z" fill="white"/>
<path d="M16.0312 11.5594C16.4506 11.5894 17.9669 12.0812 18.3582 12.3499C18.0321 11.4042 16.9345 11.2784 16.0312 11.5594Z" fill="white"/>
<path d="M16.4301 13.951C16.4302 14.2693 16.3359 14.5805 16.1592 14.8453C15.9824 15.1101 15.7311 15.3165 15.4371 15.4384C15.143 15.5603 14.8194 15.5923 14.5071 15.5304C14.1949 15.4684 13.908 15.3152 13.6828 15.0902C13.4576 14.8652 13.3042 14.5785 13.242 14.2663C13.1798 13.9541 13.2115 13.6304 13.3332 13.3363C13.4549 13.0421 13.6611 12.7906 13.9257 12.6137C14.1904 12.4367 14.5015 12.3422 14.8199 12.342C15.2465 12.342 15.6557 12.5114 15.9575 12.813C16.2593 13.1146 16.4291 13.5236 16.4294 13.9503L16.4301 13.951Z" fill="white"/>
<path d="M15.9538 13.9654C15.9538 14.1893 15.8874 14.4082 15.763 14.5944C15.6386 14.7806 15.4618 14.9257 15.2549 15.0114C15.048 15.0971 14.8204 15.1195 14.6008 15.0758C14.3811 15.0322 14.1794 14.9243 14.0211 14.766C13.8627 14.6077 13.7549 14.4059 13.7112 14.1863C13.6675 13.9667 13.6899 13.739 13.7756 13.5322C13.8613 13.3253 14.0064 13.1485 14.1926 13.0241C14.3788 12.8997 14.5977 12.8333 14.8216 12.8333C15.1219 12.8333 15.4099 12.9525 15.6222 13.1649C15.8345 13.3772 15.9538 13.6652 15.9538 13.9654Z" fill="#464B6F"/>
<path d="M22.2359 16.266C20.9316 17.1849 19.4485 17.882 17.3446 17.882C16.3598 17.882 16.1603 16.8386 15.5094 17.3486C15.1735 17.6133 13.9892 18.2055 13.0494 18.1605C12.1096 18.1155 10.5861 17.5651 10.1616 15.5583C9.99332 17.5651 9.90724 19.0423 9.15137 20.736C10.6514 23.1379 14.2279 24.9907 17.4744 24.1925C17.1281 21.7566 19.2601 19.371 20.4561 18.152C20.9127 17.6897 21.7801 16.9351 22.2359 16.2666V16.266Z" fill="#464B6F"/>
<path d="M22.186 16.3261C21.781 16.6953 21.2991 16.9685 20.8086 17.2098C20.3121 17.4453 19.7946 17.6337 19.263 17.7726C18.7308 17.9103 18.1758 18.014 17.6136 17.9631C17.0514 17.9122 16.4769 17.7211 16.1045 17.2998L16.1221 17.2796C16.5786 17.5757 17.1056 17.68 17.6299 17.695C18.1614 17.7114 18.693 17.6676 19.2147 17.5646C19.7417 17.4541 20.2572 17.2948 20.7545 17.0885C21.2521 16.8831 21.7445 16.645 22.1684 16.3059L22.186 16.3261Z" fill="white"/>
</svg>
