<svg width="32" height="32" viewBox="0 0 32 32" fill="none" xmlns="http://www.w3.org/2000/svg">
<circle cx="16" cy="16" r="16" fill="#2D344A"/>
<path d="M20.785 24H11.215C9.44574 24 8 22.5524 8 20.785V11.215C8 9.44574 9.44574 8 11.215 8H20.785C22.5524 8 24 9.44574 24 11.215V20.785C24 22.5524 22.5524 24 20.785 24Z" fill="#B5BDDB"/>
<path d="M17.8825 13.2756C17.771 13.314 17.8131 13.4456 17.93 13.4438L18.535 13.431L17.3251 16.6752L16.1827 14.5751C15.8099 13.8897 15.1373 13.462 14.3787 13.4072H14.0406H14.0388C13.145 13.4748 12.3975 14.0396 12.0922 14.8822L10.2279 20.0017C10.2152 20.0364 10.2407 20.073 10.2773 20.073H13.0682C13.0902 20.073 13.1103 20.0583 13.1176 20.0383L14.2892 16.8141L15.426 18.9051C15.8519 19.6891 16.6707 20.1388 17.559 20.0748C18.4491 20.0127 19.1967 19.4552 19.511 18.6181L21.4539 13.4072L21.9638 11.9852C21.9785 11.9432 21.9383 11.903 21.8962 11.9176L17.8825 13.2756Z" fill="#464B6F"/>
<path d="M12.0904 14.8809L10.2279 20.0022C10.2152 20.0369 10.2407 20.0735 10.2773 20.0735H13.0682C13.0902 20.0735 13.1103 20.0588 13.1176 20.0388L14.2892 16.8146L15.426 18.9056C15.7989 19.591 16.4697 20.0205 17.2282 20.0753H17.5608L14.0388 13.4077C13.1432 13.4735 12.3975 14.0383 12.0904 14.8809Z" fill="#1B2236"/>
<path d="M12.9711 16.5399L11.6752 20.0035C11.6624 20.0382 11.688 20.0747 11.7246 20.0747H13.0698C13.0917 20.0747 13.1118 20.0601 13.1191 20.04L14.2907 16.8159L14.0549 16.4485C13.8118 16.0665 13.1392 16.1195 12.9711 16.5399Z" fill="#464B6F"/>
<path d="M18.6467 16.9564L19.9389 13.5751C19.9663 13.5056 19.9133 13.4307 19.8401 13.4307H18.5351L17.3252 16.6822L17.561 17.0496C17.8059 17.4298 18.4785 17.3768 18.6467 16.9564Z" fill="#1B2236"/>
</svg>
