<svg width="32" height="32" viewBox="0 0 32 32" fill="none" xmlns="http://www.w3.org/2000/svg">
<path d="M16 32C24.8366 32 32 24.8366 32 16C32 7.16344 24.8366 0 16 0C7.16344 0 0 7.16344 0 16C0 24.8366 7.16344 32 16 32Z" fill="#2D344A"/>
<path d="M15.7516 5L9 16.2039L15.7516 13.1352V5Z" fill="#8A92B2"/>
<path d="M15.7516 13.1353L9 16.2039L15.7516 20.1959V13.1353Z" fill="#62688F"/>
<path d="M22.5048 16.2039L15.752 5V13.1352L22.5048 16.2039Z" fill="#62688F"/>
<path d="M15.752 20.1959L22.5048 16.2039L15.752 13.1353V20.1959Z" fill="#454A75"/>
<path d="M9 17.4849L15.7516 26.9999V21.4743L9 17.4849Z" fill="#8A92B2"/>
<path d="M15.752 21.4743V26.9999L22.5086 17.4849L15.752 21.4743Z" fill="#62688F"/>
</svg>
