<svg width="32" height="32" viewBox="0 0 32 32" fill="none" xmlns="http://www.w3.org/2000/svg">
<path d="M16 32C24.8366 32 32 24.8366 32 16C32 7.16344 24.8366 0 16 0C7.16344 0 0 7.16344 0 16C0 24.8366 7.16344 32 16 32Z" fill="#2D344A"/>
<path d="M16.0361 27.0001C21.579 27.0001 26.0723 22.5602 26.0723 17.0834C26.0723 11.6066 21.579 7.16675 16.0361 7.16675C10.4933 7.16675 6 11.6066 6 17.0834C6 22.5602 10.4933 27.0001 16.0361 27.0001Z" fill="#F4900C"/>
<path d="M16.0361 25.8333C21.579 25.8333 26.0723 21.3935 26.0723 15.9167C26.0723 10.4398 21.579 6 16.0361 6C10.4933 6 6 10.4398 6 15.9167C6 21.3935 10.4933 25.8333 16.0361 25.8333Z" fill="#FFCC4D"/>
<path d="M16.0365 24.6666C20.6012 24.6666 24.3016 21.0102 24.3016 16.4999C24.3016 11.9896 20.6012 8.33325 16.0365 8.33325C11.4719 8.33325 7.77148 11.9896 7.77148 16.4999C7.77148 21.0102 11.4719 24.6666 16.0365 24.6666Z" fill="#FFE8B6"/>
<path d="M16.0365 24.0833C20.6012 24.0833 24.3016 20.427 24.3016 15.9167C24.3016 11.4063 20.6012 7.75 16.0365 7.75C11.4719 7.75 7.77148 11.4063 7.77148 15.9167C7.77148 20.427 11.4719 24.0833 16.0365 24.0833Z" fill="#FFAC33"/>
<path d="M15.5327 22.0909V11.1818H16.2315V22.0909H15.5327ZM17.7188 14.5653C17.6733 14.1619 17.4858 13.8494 17.1562 13.6278C16.8267 13.4034 16.4119 13.2912 15.9119 13.2912C15.554 13.2912 15.2443 13.348 14.983 13.4616C14.7216 13.5724 14.5185 13.7259 14.3736 13.9219C14.2315 14.1151 14.1605 14.3352 14.1605 14.5824C14.1605 14.7898 14.2088 14.9687 14.3054 15.1193C14.4048 15.2699 14.5341 15.3963 14.6932 15.4986C14.8551 15.598 15.0284 15.6818 15.2131 15.75C15.3977 15.8153 15.5753 15.8693 15.7457 15.9119L16.598 16.1335C16.8764 16.2017 17.1619 16.294 17.4545 16.4105C17.7472 16.527 18.0185 16.6804 18.2685 16.8707C18.5185 17.0611 18.7202 17.2969 18.8736 17.5781C19.0298 17.8594 19.108 18.196 19.108 18.5881C19.108 19.0824 18.9801 19.5213 18.7244 19.9048C18.4716 20.2884 18.1037 20.5909 17.6207 20.8125C17.1406 21.0341 16.5597 21.1449 15.8778 21.1449C15.2244 21.1449 14.6591 21.0412 14.1818 20.8338C13.7045 20.6264 13.331 20.3324 13.0611 19.9517C12.7912 19.5682 12.642 19.1136 12.6136 18.5881H13.9347C13.9602 18.9034 14.0625 19.1662 14.2415 19.3764C14.4233 19.5838 14.6548 19.7386 14.9361 19.8409C15.2202 19.9403 15.5312 19.9901 15.8693 19.9901C16.2415 19.9901 16.5724 19.9318 16.8622 19.8153C17.1548 19.696 17.3849 19.5312 17.5526 19.321C17.7202 19.108 17.804 18.8594 17.804 18.5753C17.804 18.3168 17.7301 18.1051 17.5824 17.9403C17.4375 17.7756 17.2401 17.6392 16.9901 17.5312C16.7429 17.4233 16.4631 17.3281 16.1506 17.2457L15.1193 16.9645C14.4205 16.7741 13.8665 16.4943 13.4574 16.125C13.0511 15.7557 12.848 15.267 12.848 14.6591C12.848 14.1562 12.9844 13.7173 13.2571 13.3423C13.5298 12.9673 13.8991 12.6761 14.3651 12.4688C14.831 12.2585 15.3565 12.1534 15.9418 12.1534C16.5327 12.1534 17.054 12.2571 17.5057 12.4645C17.9602 12.6719 18.3182 12.9574 18.5795 13.321C18.8409 13.6818 18.9773 14.0966 18.9886 14.5653H17.7188Z" fill="#FFD983"/>
</svg>
