<svg width="32" height="32" viewBox="0 0 32 32" fill="none" xmlns="http://www.w3.org/2000/svg">
<path d="M16 32C24.8366 32 32 24.8366 32 16C32 7.16344 24.8366 0 16 0C7.16344 0 0 7.16344 0 16C0 24.8366 7.16344 32 16 32Z" fill="#2D344A"/>
<path d="M16.0361 27.0001C21.579 27.0001 26.0723 22.5602 26.0723 17.0834C26.0723 11.6066 21.579 7.16675 16.0361 7.16675C10.4933 7.16675 6 11.6066 6 17.0834C6 22.5602 10.4933 27.0001 16.0361 27.0001Z" fill="#1B2236"/>
<path d="M16.0361 25.8333C21.579 25.8333 26.0723 21.3935 26.0723 15.9167C26.0723 10.4398 21.579 6 16.0361 6C10.4933 6 6 10.4398 6 15.9167C6 21.3935 10.4933 25.8333 16.0361 25.8333Z" fill="#B5BDDB"/>
<path d="M16.0365 24.6666C20.6012 24.6666 24.3016 21.0102 24.3016 16.4999C24.3016 11.9896 20.6012 8.33325 16.0365 8.33325C11.4719 8.33325 7.77148 11.9896 7.77148 16.4999C7.77148 21.0102 11.4719 24.6666 16.0365 24.6666Z" fill="#B5BDDB"/>
<path d="M16.0365 24.0833C20.6012 24.0833 24.3016 20.427 24.3016 15.9167C24.3016 11.4063 20.6012 7.75 16.0365 7.75C11.4719 7.75 7.77148 11.4063 7.77148 15.9167C7.77148 20.427 11.4719 24.0833 16.0365 24.0833Z" fill="#464B6F"/>
<path d="M15.5327 21.0909V10.1818H16.2315V21.0909H15.5327ZM17.7188 13.5653C17.6733 13.1619 17.4858 12.8494 17.1562 12.6278C16.8267 12.4034 16.4119 12.2912 15.9119 12.2912C15.554 12.2912 15.2443 12.348 14.983 12.4616C14.7216 12.5724 14.5185 12.7259 14.3736 12.9219C14.2315 13.1151 14.1605 13.3352 14.1605 13.5824C14.1605 13.7898 14.2088 13.9687 14.3054 14.1193C14.4048 14.2699 14.5341 14.3963 14.6932 14.4986C14.8551 14.598 15.0284 14.6818 15.2131 14.75C15.3977 14.8153 15.5753 14.8693 15.7457 14.9119L16.598 15.1335C16.8764 15.2017 17.1619 15.294 17.4545 15.4105C17.7472 15.527 18.0185 15.6804 18.2685 15.8707C18.5185 16.0611 18.7202 16.2969 18.8736 16.5781C19.0298 16.8594 19.108 17.196 19.108 17.5881C19.108 18.0824 18.9801 18.5213 18.7244 18.9048C18.4716 19.2884 18.1037 19.5909 17.6207 19.8125C17.1406 20.0341 16.5597 20.1449 15.8778 20.1449C15.2244 20.1449 14.6591 20.0412 14.1818 19.8338C13.7045 19.6264 13.331 19.3324 13.0611 18.9517C12.7912 18.5682 12.642 18.1136 12.6136 17.5881H13.9347C13.9602 17.9034 14.0625 18.1662 14.2415 18.3764C14.4233 18.5838 14.6548 18.7386 14.9361 18.8409C15.2202 18.9403 15.5312 18.9901 15.8693 18.9901C16.2415 18.9901 16.5724 18.9318 16.8622 18.8153C17.1548 18.696 17.3849 18.5312 17.5526 18.321C17.7202 18.108 17.804 17.8594 17.804 17.5753C17.804 17.3168 17.7301 17.1051 17.5824 16.9403C17.4375 16.7756 17.2401 16.6392 16.9901 16.5312C16.7429 16.4233 16.4631 16.3281 16.1506 16.2457L15.1193 15.9645C14.4205 15.7741 13.8665 15.4943 13.4574 15.125C13.0511 14.7557 12.848 14.267 12.848 13.6591C12.848 13.1562 12.9844 12.7173 13.2571 12.3423C13.5298 11.9673 13.8991 11.6761 14.3651 11.4688C14.831 11.2585 15.3565 11.1534 15.9418 11.1534C16.5327 11.1534 17.054 11.2571 17.5057 11.4645C17.9602 11.6719 18.3182 11.9574 18.5795 12.321C18.8409 12.6818 18.9773 13.0966 18.9886 13.5653H17.7188Z" fill="#B5BDDB"/>
</svg>
