<svg width="32" height="32" viewBox="0 0 32 32" fill="none" xmlns="http://www.w3.org/2000/svg">
<path d="M16 32C24.8366 32 32 24.8366 32 16C32 7.16344 24.8366 0 16 0C7.16344 0 0 7.16344 0 16C0 24.8366 7.16344 32 16 32Z" fill="#2D344A"/>
<path d="M16.5 7C10.7011 7 6 11.0297 6 15.9997C6 16.6215 6.0735 17.2288 6.21408 17.8151C7.25184 19.6006 7.96993 18.4736 11.25 16.8333C14.5908 15.1626 11.25 19.1666 10.0834 21.5C9.7246 22.2175 9.91885 22.8247 10.41 23.3223C12.1285 24.3747 14.2274 25 16.5 25C22.299 25 27.0001 20.9709 27.0001 15.9997C27.0001 11.0297 22.299 7 16.5 7V7ZM18.162 21.2608C17.9316 22.046 16.727 22.3832 15.471 22.0139C14.2151 21.6452 13.3839 20.7107 13.6143 19.925C13.8447 19.1398 15.0493 18.8026 16.3052 19.1725C17.5611 19.5406 18.3924 20.4751 18.162 21.2608V21.2608Z" fill="#D99E82"/>
<path d="M11.833 13.3333C12.7995 13.3333 13.583 12.5498 13.583 11.5833C13.583 10.6168 12.7995 9.83325 11.833 9.83325C10.8665 9.83325 10.083 10.6168 10.083 11.5833C10.083 12.5498 10.8665 13.3333 11.833 13.3333Z" fill="#5C913B"/>
<path d="M17.667 12.1665C18.6335 12.1665 19.417 11.383 19.417 10.4165C19.417 9.45001 18.6335 8.6665 17.667 8.6665C16.7005 8.6665 15.917 9.45001 15.917 10.4165C15.917 11.383 16.7005 12.1665 17.667 12.1665Z" fill="#226699"/>
<path d="M22.917 15.6665C23.8835 15.6665 24.667 14.883 24.667 13.9165C24.667 12.95 23.8835 12.1665 22.917 12.1665C21.9505 12.1665 21.167 12.95 21.167 13.9165C21.167 14.883 21.9505 15.6665 22.917 15.6665Z" fill="#DD2E44"/>
<path d="M22.333 20.9165C23.2995 20.9165 24.083 20.133 24.083 19.1665C24.083 18.2 23.2995 17.4165 22.333 17.4165C21.3665 17.4165 20.583 18.2 20.583 19.1665C20.583 20.133 21.3665 20.9165 22.333 20.9165Z" fill="#FFCC4D"/>
</svg>
