<svg width="32" height="32" viewBox="0 0 32 32" fill="none" xmlns="http://www.w3.org/2000/svg">
<path d="M16 32C24.8366 32 32 24.8366 32 16C32 7.16344 24.8366 0 16 0C7.16344 0 0 7.16344 0 16C0 24.8366 7.16344 32 16 32Z" fill="#2D344A"/>
<path d="M15.5 7C9.70111 7 5 11.0297 5 15.9997C5 16.6215 5.0735 17.2288 5.21408 17.8151C6.25184 19.6006 6.96993 18.4736 10.25 16.8333C13.5908 15.1626 10.25 19.1666 9.08335 21.5C8.7246 22.2175 8.91885 22.8247 9.41002 23.3223C11.1285 24.3747 13.2274 25 15.5 25C21.299 25 26.0001 20.9709 26.0001 15.9997C26.0001 11.0297 21.299 7 15.5 7V7ZM17.162 21.2608C16.9316 22.046 15.727 22.3832 14.471 22.0139C13.2151 21.6452 12.3839 20.7107 12.6143 19.925C12.8447 19.1398 14.0493 18.8026 15.3052 19.1725C16.5611 19.5406 17.3924 20.4751 17.162 21.2608V21.2608Z" fill="#B5BDDB"/>
<path d="M10.833 13.3333C11.7995 13.3333 12.583 12.5498 12.583 11.5833C12.583 10.6168 11.7995 9.83325 10.833 9.83325C9.86651 9.83325 9.08301 10.6168 9.08301 11.5833C9.08301 12.5498 9.86651 13.3333 10.833 13.3333Z" fill="#464B6F"/>
<path d="M16.667 12.1665C17.6335 12.1665 18.417 11.383 18.417 10.4165C18.417 9.45001 17.6335 8.6665 16.667 8.6665C15.7005 8.6665 14.917 9.45001 14.917 10.4165C14.917 11.383 15.7005 12.1665 16.667 12.1665Z" fill="#464B6F"/>
<path d="M21.917 15.6665C22.8835 15.6665 23.667 14.883 23.667 13.9165C23.667 12.95 22.8835 12.1665 21.917 12.1665C20.9505 12.1665 20.167 12.95 20.167 13.9165C20.167 14.883 20.9505 15.6665 21.917 15.6665Z" fill="#464B6F"/>
<path d="M21.333 20.9165C22.2995 20.9165 23.083 20.133 23.083 19.1665C23.083 18.2 22.2995 17.4165 21.333 17.4165C20.3665 17.4165 19.583 18.2 19.583 19.1665C19.583 20.133 20.3665 20.9165 21.333 20.9165Z" fill="#464B6F"/>
</svg>
