<svg width="21" height="21" viewBox="0 0 21 21" fill="none" xmlns="http://www.w3.org/2000/svg">
<path d="M13.3647 8.39885C12.7335 8.81826 12.1706 9.30826 11.6847 9.81168C11.6106 7.33543 11.0156 4.13293 7.73434 2.56493C7.08509 -0.967154 -0.485993 0.82718 0.191257 1.17018C1.54109 1.85268 2.25917 3.58985 3.12776 4.50393C4.67534 6.1326 6.39617 6.23293 7.25251 4.95776C9.27551 6.2726 9.40851 8.76635 9.34667 11.4322C9.33967 11.7268 9.33326 12.0009 9.33326 12.25V20.4167C9.33326 21.0607 11.6666 21.0607 11.6666 20.4167V13.7142C11.9828 13.1577 12.9044 11.6696 14.2508 10.626C15.1759 11.4386 16.6669 11.179 18.0208 9.75393C18.8894 8.83985 19.3584 7.10326 20.7083 6.42018C21.4205 6.05968 13.241 4.09035 13.3647 8.39885Z" fill="#77B255"/>
</svg>
