<svg width="20" height="21" viewBox="0 0 20 21" fill="none" xmlns="http://www.w3.org/2000/svg">
<path d="M10.305 16.0918V4.90875L13.1213 2.09183C13.1213 2.09183 13.5337 1.67942 13.1213 1.26642C12.7089 0.854 12.2965 1.26642 12.2965 1.26642L10.305 3.2585V0.583333C10.305 0.583333 10.305 0 9.72164 0C9.1383 0 9.1383 0.583333 9.1383 0.583333V3.2585L7.1468 1.26642C7.1468 1.26642 6.73438 0.854 6.32197 1.26642C5.90955 1.67942 6.32197 2.09183 6.32197 2.09183L9.1383 4.90875V16.0918L6.32197 18.9082C6.32197 18.9082 5.90955 19.3206 6.32197 19.733C6.73438 20.1454 7.1468 19.733 7.1468 19.733L9.1383 17.7415V20.4167C9.1383 20.4167 9.1383 21 9.72164 21C10.305 21 10.305 20.4167 10.305 20.4167V17.7415L12.2965 19.733C12.2965 19.733 12.7089 20.1454 13.1213 19.733C13.5337 19.3206 13.1213 18.9082 13.1213 18.9082L10.305 16.0918Z" fill="#B5BDDB"/>
<path d="M19.4182 12.1718C19.2671 11.6083 18.7036 11.7594 18.7036 11.7594L14.8566 12.7902L5.17148 7.19832L4.14073 3.35124C4.14073 3.35124 3.98964 2.78774 3.42614 2.93882C2.86206 3.0899 3.01373 3.6534 3.01373 3.6534L3.74289 6.37407L1.42589 5.0359C1.42589 5.0359 0.920728 4.74424 0.629062 5.2494C0.337395 5.75457 0.842562 6.04624 0.842562 6.04624L3.15898 7.38382L0.438312 8.1124C0.438312 8.1124 -0.125772 8.26349 0.0258949 8.82699C0.176978 9.39107 0.740478 9.23999 0.740478 9.23999L4.58815 8.20924L14.2732 13.8011L15.304 17.6487C15.304 17.6487 15.4551 18.2122 16.0186 18.0612C16.5821 17.9095 16.431 17.3466 16.431 17.3466L15.7018 14.6259L18.0188 15.9635C18.0188 15.9635 18.5246 16.2552 18.8162 15.7506C19.1079 15.2448 18.6021 14.9532 18.6021 14.9532L16.2857 13.6156L19.0058 12.887C19.0058 12.8864 19.5693 12.7353 19.4182 12.1718Z" fill="#B5BDDB"/>
<path d="M19.0062 8.11244L16.2855 7.38328L18.6025 6.04569C18.6025 6.04569 19.1083 5.75344 18.8166 5.24828C18.5244 4.74253 18.0192 5.03478 18.0192 5.03478L15.7028 6.37178L16.4314 3.65169C16.4314 3.65169 16.5825 3.08819 16.019 2.93711C15.4555 2.78603 15.3044 3.34953 15.3044 3.34953L14.2736 7.19661L4.58795 12.7902L0.741455 11.7589C0.741455 11.7589 0.177955 11.6078 0.0268715 12.1713C-0.124795 12.7354 0.439288 12.8859 0.439288 12.8859L3.15937 13.6144L0.842955 14.952C0.842955 14.952 0.338372 15.2443 0.630038 15.7494C0.921705 16.254 1.42629 15.9624 1.42629 15.9624L3.74329 14.6248L3.01412 17.3449C3.01412 17.3449 2.86304 17.9089 3.42654 18.0594C3.99062 18.2111 4.1417 17.6476 4.1417 17.6476L5.17304 13.7994L14.8587 8.20811L18.7058 9.23944C18.7058 9.23944 19.2693 9.39053 19.4204 8.82703C19.5691 8.26294 19.0062 8.11244 19.0062 8.11244Z" fill="#B5BDDB"/>
</svg>
