<svg width="21" height="21" viewBox="0 0 21 21" fill="none" xmlns="http://www.w3.org/2000/svg">
<g clip-path="url(#clip0_2217_1313)">
<path d="M10.5173 6.33325C5.26725 6.33325 0.600586 8.35217 0.600586 11.5833C0.600586 14.0064 2.93392 16.0253 6.43392 16.0253C8.44875 16.0253 10.582 14.8091 12.108 14.8091C12.1623 14.8091 12.2153 14.8108 12.2673 14.8138C14.5475 14.9508 14.6006 16.8333 17.5173 16.8333C18.8828 16.8333 20.4339 15.6217 20.4339 12.7948C20.4339 9.16009 16.3506 6.33325 10.5173 6.33325Z" fill="#464B6F"/>
<path d="M19.2673 10.4167H20.4339V12.75H19.2673V10.4167ZM0.600586 9.25H1.76725V11.5833H0.600586V9.25Z" fill="#464B6F"/>
<path d="M17.5173 14.0962C16.1926 14.0962 15.6028 13.6558 14.9186 13.1466C14.295 12.6816 13.588 12.1555 12.3181 12.0785C12.2487 12.0744 12.1792 12.0721 12.1081 12.0721C11.2722 12.0721 10.3709 12.3538 9.41715 12.6531C8.41849 12.9651 7.38599 13.2883 6.43457 13.2883C3.39249 13.2883 1.18457 11.5896 1.18457 9.2499C1.18457 6.10223 5.99357 4.40356 10.5179 4.40356C15.926 4.40356 19.8512 6.95098 19.8512 10.4615C19.8507 13.1279 18.4547 14.0962 17.5173 14.0962Z" fill="#464B6F"/>
<path d="M10.5173 4.80792C15.587 4.80792 19.2673 7.18558 19.2673 10.4616C19.2673 12.8789 18.0656 13.6921 17.5173 13.6921C16.4474 13.6921 16.0093 13.366 15.3455 12.8713C14.6846 12.379 13.8621 11.7659 12.3682 11.6761C12.283 11.6708 12.1961 11.6679 12.108 11.6679C11.1467 11.6679 10.1894 11.9677 9.17675 12.2845C8.23409 12.5797 7.25992 12.8842 6.43392 12.8842C4.11459 12.8842 1.76725 11.6352 1.76725 9.25C1.76725 6.36483 6.27584 4.80792 10.5173 4.80792V4.80792ZM10.5173 4C5.26725 4 0.600586 6.01892 0.600586 9.25C0.600586 11.6732 2.93392 13.6921 6.43392 13.6921C8.44875 13.6921 10.582 12.4758 12.108 12.4758C12.1623 12.4758 12.2153 12.4776 12.2673 12.4805C14.5475 12.6176 14.6006 14.5 17.5173 14.5C18.8828 14.5 20.4339 13.2884 20.4339 10.4616C20.4339 6.82683 16.3506 4 10.5173 4Z" fill="#B5BDDB"/>
<path d="M9.44434 4.84185C9.44434 4.84185 11.1004 4.80801 12.2671 5.61535C12.8504 6.01901 12.4625 6.92785 12.4625 6.92785L13.4338 7.23118C13.4338 7.23118 13.3976 6.7441 15.1838 6.42326C16.4968 6.1876 17.8333 7.23118 17.8333 7.23118C17.8333 7.23118 16.3504 5.21168 13.4338 4.80801C10.5171 4.40376 9.44434 4.84185 9.44434 4.84185Z" fill="#464B6F"/>
<path d="M14.6003 8.03835C14.6003 8.93026 13.5555 9.6536 12.2669 9.6536C10.9783 9.6536 9.93359 8.93026 9.93359 8.03835C9.93359 7.14643 10.9783 6.4231 12.2669 6.4231C13.5555 6.4231 14.6003 7.14643 14.6003 8.03835Z" fill="#B5BDDB"/>
<path d="M13.4339 8.03853C13.4339 8.48478 12.9113 8.84645 12.2673 8.84645C11.6233 8.84645 11.1006 8.48478 11.1006 8.03853C11.1006 7.59228 11.6233 7.2312 12.2673 7.2312C12.9113 7.2312 13.4339 7.59228 13.4339 8.03853Z" fill="#464B6F"/>
</g>
<defs>
<clipPath id="clip0_2217_1313">
<rect width="19.8333" height="12.8333" fill="white" transform="translate(0.600586 4)"/>
</clipPath>
</defs>
</svg>
