<svg width="23" height="22" viewBox="0 0 23 22" fill="none" xmlns="http://www.w3.org/2000/svg">
<path d="M11.0483 21.9999L14.1393 4.61623C17.0855 4.61623 18.0148 4.9393 18.149 6.25798C18.149 6.25798 20.1254 5.52105 21.1223 4.02437C17.2323 2.22186 13.3239 2.14057 13.3239 2.14057L11.0432 4.91839L11.0483 4.91804L8.76768 2.14014C8.76768 2.14014 4.85912 2.22151 0.969727 4.02402C1.96569 5.5207 3.94288 6.25763 3.94288 6.25763C4.07784 4.93886 5.00602 4.61579 7.93247 4.6137L11.0483 21.9999" fill="#E82127"/>
<path d="M11.0471 1.33829C14.1916 1.31424 17.7908 1.82472 21.4752 3.43058C21.9677 2.54423 22.0943 2.1525 22.0943 2.1525C18.0666 0.559014 14.2947 0.0136791 11.0467 0C7.79883 0.0136791 4.02714 0.559101 0 2.1525C0 2.1525 0.179658 2.63501 0.618609 3.43058C4.30238 1.82472 7.90216 1.31424 11.0467 1.33829H11.0471Z" fill="#E82127"/>
</svg>
