<svg width="23" height="22" viewBox="0 0 23 22" fill="none" xmlns="http://www.w3.org/2000/svg">
<path d="M11.5007 21.6667L14.498 4.80975C17.355 4.80975 18.2561 5.12303 18.3862 6.40175C18.3862 6.40175 20.3028 5.68716 21.2694 4.23582C17.4973 2.48794 13.7073 2.40911 13.7073 2.40911L11.4958 5.10275L11.5007 5.10242L9.28919 2.40869C9.28919 2.40869 5.49907 2.4876 1.72754 4.23549C2.69332 5.68682 4.6106 6.40141 4.6106 6.40141C4.74147 5.12261 5.64152 4.80933 8.47929 4.8073L11.5007 21.6667Z" fill="#B5BDDB"/>
<path d="M11.5005 1.63098C14.5496 1.60766 18.0397 2.10268 21.6125 3.65987C22.0901 2.80038 22.2128 2.42052 22.2128 2.42052C18.3072 0.875325 14.6497 0.346517 11.5 0.333252C8.35059 0.346517 4.69319 0.875409 0.788086 2.42052C0.788086 2.42052 0.9623 2.88841 1.38795 3.65987C4.96009 2.10268 8.45079 1.60766 11.5 1.63098H11.5005Z" fill="#B5BDDB"/>
</svg>
