<svg width="15" height="13" viewBox="0 0 15 13" fill="none" xmlns="http://www.w3.org/2000/svg">
<path d="M14.9212 1.92049C14.3752 2.16148 13.7882 2.32427 13.1724 2.39751C13.801 2.0226 14.2839 1.42893 14.5112 0.721492C13.9228 1.06872 13.2711 1.32077 12.5775 1.45662C12.0221 0.867822 11.2307 0.5 10.3549 0.5C8.67326 0.5 7.30979 1.85633 7.30979 3.52933C7.30979 3.76677 7.33673 3.998 7.38868 4.21972C4.85795 4.09339 2.61426 2.8873 1.11239 1.05446C0.850274 1.50188 0.700071 2.02223 0.700071 2.57744C0.700071 3.62848 1.23765 4.55572 2.05471 5.09896C1.55557 5.08323 1.08604 4.94694 0.675507 4.72006C0.675161 4.73269 0.675161 4.74539 0.675161 4.75816C0.675161 6.22591 1.7248 7.45023 3.11781 7.72872C2.8623 7.79797 2.59328 7.83496 2.31559 7.83496C2.11937 7.83496 1.92866 7.81591 1.74268 7.78062C2.13021 8.98413 3.25472 9.85998 4.58725 9.88434C3.54511 10.6969 2.23218 11.1812 0.805476 11.1812C0.55969 11.1812 0.317318 11.1668 0.0791016 11.1389C1.42669 11.9985 3.02727 12.5 4.74688 12.5C10.3478 12.5 13.4107 7.88391 13.4107 3.88054C13.4107 3.74919 13.4077 3.61859 13.4018 3.48857C13.9967 3.06154 14.513 2.52804 14.9212 1.92049Z" fill="#B5BDDB"/>
</svg>
