<svg width="21" height="21" viewBox="0 0 21 21" fill="none" xmlns="http://www.w3.org/2000/svg">
<g clip-path="url(#clip0_2217_1289)">
<path d="M20.9996 11.5814C19.5517 5.78832 14.5864 1.11349 9.35098 3.98524C9.35098 3.98524 6.71315 3.11257 6.33281 2.8489C5.96239 2.59224 5.37906 2.32157 5.80081 3.10324C6.04756 3.5594 6.31123 4.07857 7.20256 5.03815C4.66623 7.55874 5.41231 10.6527 4.51631 12.6874C3.75564 14.4152 3.01306 15.4483 3.75214 16.7567C4.52039 18.1159 6.51073 18.7762 7.84598 17.3751C8.57165 16.6127 8.12073 16.2452 9.67298 14.9239C11.2614 14.6072 12.2361 13.8792 12.2361 12.3718C12.2361 12.3718 12.6999 12.149 13.3013 15.8771C13.5673 17.5209 13.2097 19.1624 13.2786 21.0005H20.9996V11.5814Z" fill="#B5BDDB"/>
<path d="M18.6114 3.53605C18.9211 4.30139 19.1061 5.70022 18.9585 6.63822C18.871 4.3498 17.0988 2.7993 16.4058 2.4423C15.1213 1.77905 13.8555 1.87122 12.4397 1.99197C12.5045 2.08997 12.6748 2.4668 12.6264 2.89439C12.347 2.38397 11.6907 2.06605 11.2655 2.15297C10.4721 2.31455 9.77155 2.54789 9.23839 2.8273C8.94439 2.8868 8.5098 3.06822 7.85472 3.46955C6.73997 4.15264 5.4193 6.00005 3.9248 5.51764C4.53264 6.97597 6.04289 6.59389 6.04289 6.59389C6.74697 5.45639 8.4153 4.38947 9.64089 3.99689C14.0853 2.97897 16.9991 6.00297 18.6423 9.47905C19.0903 10.427 20.1654 13.6394 20.9996 15.4827V6.39089C20.5626 5.78539 20.2523 4.63039 18.6114 3.53605V3.53605Z" fill="#464B6F"/>
<path d="M8.04319 2.13621C8.37744 2.59588 9.93086 2.59938 10.7242 4.36454C11.5169 6.12971 9.59077 5.89871 8.89252 5.08204C8.11436 4.17146 7.76611 3.41196 7.62961 2.75338C7.55727 2.40571 7.36652 1.20813 8.04319 2.13621V2.13621Z" fill="#B5BDDB"/>
<path d="M8.28864 2.89453C8.84631 3.22878 9.55098 3.77828 9.75689 4.40886C9.96164 5.03945 9.34448 4.92861 8.96998 4.38436C8.59606 3.83953 8.42164 3.23228 8.22039 3.06428C8.01856 2.8957 8.28864 2.89453 8.28864 2.89453Z" fill="#464B6F"/>
<path d="M8.89851 9.048C9.20328 9.048 9.45035 8.80094 9.45035 8.49617C9.45035 8.1914 9.20328 7.94434 8.89851 7.94434C8.59374 7.94434 8.34668 8.1914 8.34668 8.49617C8.34668 8.80094 8.59374 9.048 8.89851 9.048Z" fill="#292F33"/>
<path d="M5.03437 15.6782C5.10379 16.062 4.92879 16.415 4.64354 16.4663C4.3577 16.5182 4.06954 16.2493 3.99954 15.8654C3.93012 15.481 4.1057 15.1275 4.39095 15.0756C4.67679 15.0243 4.96495 15.2932 5.03437 15.6782Z" fill="#464B6F"/>
<path d="M8.07565 4.739L8.0774 4.73783L8.07448 4.73375L8.06515 4.72558C8.06048 4.7215 8.05873 4.7145 8.05406 4.711C8.04881 4.70692 8.04181 4.70458 8.03598 4.7005C7.36223 4.12883 0.544231 -0.288751 0.127731 0.127749C-0.297518 0.552999 6.09173 5.68283 6.50356 5.99667L6.50998 6.00017L6.82556 6.25625C6.83023 6.26033 6.8314 6.26675 6.83606 6.27025C6.84365 6.27608 6.8524 6.279 6.86056 6.28425L6.88798 6.30642L6.88273 6.29708C7.21231 6.50767 7.71515 6.36358 8.03715 5.95175C8.36323 5.53467 8.37373 5.00383 8.07565 4.739V4.739Z" fill="#B5BDDB"/>
<path d="M2.72797 1.3126L2.73322 1.29801C2.55763 1.19651 2.38672 1.0991 2.22105 1.00635C2.21172 1.02851 2.20822 1.0466 2.19713 1.07051C2.1318 1.21226 2.0478 1.35285 1.94688 1.48818C1.85005 1.61885 1.7433 1.73551 1.6313 1.83526C1.61963 1.84576 1.6103 1.85043 1.59863 1.86035C1.73747 1.98868 1.88388 2.12051 2.03322 2.25468C2.16972 2.13218 2.29922 1.99276 2.41472 1.83643C2.53955 1.66901 2.64513 1.49285 2.72797 1.3126V1.3126ZM4.05505 3.03051C4.23355 2.79135 4.35897 2.55101 4.44005 2.32351C4.26972 2.21793 4.09938 2.11351 3.92905 2.00968C3.88472 2.18351 3.78497 2.41743 3.58722 2.68168C3.40638 2.92493 3.22963 3.07893 3.08322 3.1746C3.2343 3.30468 3.38655 3.43418 3.53763 3.56251C3.7208 3.42018 3.89872 3.24051 4.05505 3.03051ZM5.75722 4.2701C5.97013 3.98426 6.11247 3.69668 6.18538 3.43185L5.65688 3.09001C5.64347 3.26268 5.55655 3.56251 5.2888 3.92126C5.04847 4.24443 4.80988 4.41535 4.64713 4.49176L5.12197 4.88318C5.34422 4.73385 5.56588 4.52676 5.75722 4.2701V4.2701Z" fill="#464B6F"/>
</g>
<defs>
<clipPath id="clip0_2217_1289">
<rect width="21" height="21" fill="white"/>
</clipPath>
</defs>
</svg>
