<svg width="32" height="32" viewBox="0 0 32 32" fill="none" xmlns="http://www.w3.org/2000/svg">
<circle cx="16" cy="16" r="16" fill="#464B6F"/>
<path d="M21.8886 19.6625C21.8886 14.9264 13.1572 15.2357 13.1572 12.3763C13.1572 10.9922 14.4813 10.3163 16.0172 10.3163C18.6001 10.3163 19.06 11.9756 20.2298 11.9756C21.0583 11.9756 21.4571 11.454 21.4571 10.8694C21.4571 9.51067 19.3971 8.48221 17.4216 8.12601V6.81482C17.4216 5.99687 16.7599 5.33325 15.9413 5.33325C15.1221 5.33325 14.4597 5.99687 14.4597 6.81482V8.17231C12.3059 8.66247 10.4533 10.1564 10.4533 12.5917C10.4533 17.1408 19.1835 16.9568 19.1835 20.1521C19.1835 21.2589 17.9853 22.3658 16.0172 22.3658C13.0658 22.3658 12.0824 20.3681 10.8836 20.3681C10.2996 20.3681 9.77734 20.8595 9.77734 21.6003C9.77734 22.7769 11.7497 24.193 14.4616 24.5887L14.4597 24.598V26.0777C14.4597 26.8963 15.1233 27.5599 15.9419 27.5599C16.7599 27.5599 17.4229 26.8963 17.4229 26.0777V24.598C17.4229 24.5807 17.4142 24.5671 17.413 24.5517C19.8533 24.0961 21.8886 22.5053 21.8886 19.6625Z" fill="#B5BDDB"/>
</svg>
