<svg width="32" height="32" viewBox="0 0 32 32" fill="none" xmlns="http://www.w3.org/2000/svg">
<circle cx="16" cy="16" r="16" fill="#464B6F"/>
<path d="M21.8886 19.6628C21.8886 14.9267 13.1572 15.236 13.1572 12.3765C13.1572 10.9925 14.4813 10.3165 16.0172 10.3165C18.6001 10.3165 19.06 11.9759 20.2298 11.9759C21.0583 11.9759 21.4571 11.4542 21.4571 10.8696C21.4571 9.51091 19.3971 8.48245 17.4216 8.12626V6.81507C17.4216 5.99712 16.7599 5.3335 15.9413 5.3335C15.1221 5.3335 14.4597 5.99712 14.4597 6.81507V8.17256C12.3059 8.66271 10.4533 10.1566 10.4533 12.592C10.4533 17.141 19.1835 16.957 19.1835 20.1523C19.1835 21.2592 17.9853 22.366 16.0172 22.366C13.0658 22.366 12.0824 20.3684 10.8836 20.3684C10.2996 20.3684 9.77734 20.8598 9.77734 21.6005C9.77734 22.7772 11.7497 24.1933 14.4616 24.589L14.4597 24.5983V26.078C14.4597 26.8965 15.1233 27.5602 15.9419 27.5602C16.7599 27.5602 17.4229 26.8965 17.4229 26.078V24.5983C17.4229 24.581 17.4142 24.5674 17.413 24.552C19.8533 24.0964 21.8886 22.5055 21.8886 19.6628Z" fill="#A3D972"/>
</svg>
