<svg width="16" height="16" viewBox="0 0 16 16" fill="none" xmlns="http://www.w3.org/2000/svg">
<g clip-path="url(#clip0_3308_2896)">
<path d="M8.48133 15.7776L5.44444 5.46289C5.44444 5.46289 4.81333 5.80111 4.28711 6.19045C4.148 6.29311 3.40844 7.43045 3.25956 7.54156C2.47644 8.126 1.68089 8.80422 1.57422 8.94911C1.37022 9.22645 0 15.9998 0 15.9998L8.48133 15.7776Z" fill="#292F33"/>
<path d="M14.2219 15.5554L11.7774 6.77767L7.99967 2.01855L5.61167 3.88211L5.18012 4.403C4.99967 4.75011 4.44412 6.77767 4.44412 6.77767L3.88856 8.88878L1.445 13.3572L0.407227 15.4626L14.2219 15.5554Z" fill="#4B545D"/>
<path d="M1.44531 13.3574C1.44531 13.3574 4.94442 8.56494 4.95376 8.29605C4.96309 8.02761 4.44442 6.77783 4.44442 6.77783L3.88887 8.88894L1.44531 13.3574Z" fill="white"/>
<path d="M5.33344 15.1113H6.22233L7.11122 8.11127L7.65966 7.31261L9.24989 4.98638L9.29166 4.3335L7.83078 6.31305L6.66678 7.88994L5.60544 11.1619L5.33344 12.0002L4.53744 13.3931L3.55566 15.1113H5.33344ZM10.693 7.28194L9.81966 9.90283L9.33344 11.5557L10.5743 14.9446L12.153 14.9171C12.153 14.9171 10.2223 11.8335 10.2223 11.5557C10.2223 11.5024 10.5001 10.3615 10.5001 10.3615L10.9863 8.34772L11.1112 7.66683L10.693 7.28194V7.28194Z" fill="#292F33"/>
<path d="M10.6925 7.28188L9.90229 6.98633L9.22185 7.37522L8.63162 6.90277L7.65918 7.31255L9.2494 4.98633L10.6925 7.28188ZM11.9685 10.5614L11.2081 9.94455L10.4996 10.3614L10.9858 8.34722L11.6245 9.36144L11.9685 10.5614Z" fill="#F1F1F1"/>
<path d="M9.81933 9.90277L9.33311 11.5557L9.222 10.4814L9.81933 9.90277ZM5.33311 12.0001L4.53711 13.393L4.694 12.3125C4.694 12.3125 4.99711 12.0557 5.11089 11.9077C5.22422 11.7597 5.60511 11.1619 5.60511 11.1619L5.33311 12.0001ZM6.75889 7.11121L7.83044 6.31299L6.66644 7.88988L6.75889 7.11121Z" fill="white"/>
<path d="M16 15.9999C16 15.9999 15.8293 14.291 15.6204 12.8519C15.4564 11.7217 14.3951 10.0506 13.7987 9.68967L13.2502 8.11811L12.3511 5.85055L11.3476 4.83322L10.528 4.11055L10.3036 3.83455L8 2.01855L9.01733 4.24389L9.25022 4.98611L10.6929 7.28167L10.9862 8.347L11.6253 9.36078L11.9693 10.5612L12.4444 12.2221L11.5556 15.111L16 15.9999Z" fill="#292F33"/>
<path d="M14.9813 14.4167C14.3836 14.4167 12.7778 14.6664 12.5556 14.6664C11.6667 14.6664 10.6667 13.8887 10.2222 13.8887C9.77778 13.8887 8.62489 14.6664 7.736 14.6664C6.98578 14.6664 6.66667 14.3056 5.63867 14.3056C5.30622 14.3056 3.81822 14.6927 3.5 14.6527C2.68978 14.5513 2.27333 14.222 2.06933 14.222C0.888889 14.222 0 15.9998 0 15.9998H16C16 15.9998 15.6111 14.4167 14.9813 14.4167Z" fill="#5C903F"/>
<path d="M5.6123 3.88222L6.55586 3.66667L6.84742 4.48622L7.79186 4.09733L9.01764 4.244L8.0003 1L5.6123 3.88222Z" fill="#F1F1F1"/>
<path d="M10.3036 3.83467L9.66222 3.72667L9.01733 4.244L8 1L10.3036 3.83467ZM12.4236 5.77778L13.2498 8.11822L12.4813 6.86133L11.764 6.13911L11.3471 4.83333L12.4236 5.77778ZM15.6204 12.852C15.6204 12.852 15.5556 11.1253 15.0556 10.5556C14.5556 9.98578 13.7778 9.676 13.7778 9.676L14.4169 11.1298L15.0649 11.7596L15.6204 12.852Z" fill="#A8B6C0"/>
</g>
<defs>
<clipPath id="clip0_3308_2896">
<rect width="16" height="16" fill="white"/>
</clipPath>
</defs>
</svg>
