<svg width="22" height="22" viewBox="0 0 22 22" fill="none" xmlns="http://www.w3.org/2000/svg">
<path d="M18.7254 18.1103C9.64506 22.4317 4.00967 18.8161 0.402281 16.6201C0.179057 16.4817 -0.200346 16.6524 0.128838 17.0305C1.33064 18.4877 5.2692 21.9999 10.4102 21.9999C15.5547 21.9999 18.6152 19.1929 18.998 18.7032C19.3783 18.2177 19.1097 17.9499 18.7254 18.1103H18.7254ZM21.2757 16.702C21.0318 16.3844 19.7929 16.3252 19.0132 16.421C18.2323 16.514 17.0602 16.9913 17.1621 17.2778C17.2144 17.3852 17.3211 17.337 17.8576 17.2888C18.3955 17.2351 19.9024 17.0449 20.2164 17.4554C20.5319 17.8687 19.7358 19.8375 19.5904 20.1551C19.4499 20.4726 19.6441 20.5545 19.9079 20.343C20.1682 20.1316 20.6393 19.5841 20.9554 18.8094C21.2694 18.0304 21.4609 16.9437 21.2756 16.702H21.2757Z" fill="#FF9900"/>
<path fill-rule="evenodd" clip-rule="evenodd" d="M12.6196 9.29235C12.6196 10.4262 12.6482 11.3718 12.0751 12.3788C11.6125 13.1976 10.8798 13.7011 10.0611 13.7011C8.94356 13.7011 8.29271 12.8496 8.29271 11.5929C8.29271 9.11218 10.5154 8.66194 12.6196 8.66194V9.29235ZM15.5546 16.3865C15.3622 16.5583 15.0838 16.5707 14.8669 16.456C13.9008 15.6537 13.7289 15.2812 13.1968 14.5157C11.6003 16.1449 10.4705 16.632 8.39918 16.632C5.95126 16.632 4.04366 15.1215 4.04366 12.0964C4.04366 9.73448 5.325 8.12567 7.14649 7.33977C8.72664 6.64379 10.933 6.521 12.6196 6.32867V5.95203C12.6196 5.26019 12.6727 4.4415 12.2675 3.84388C11.9114 3.30761 11.2319 3.08655 10.6342 3.08655C9.52487 3.08655 8.53422 3.65552 8.29271 4.83445C8.24352 5.0965 8.05119 5.35441 7.78923 5.36666L4.96467 5.0638C4.7273 5.01047 4.46533 4.81814 4.53082 4.45376C5.18168 1.03164 8.27217 0 11.0394 0C12.4557 0 14.306 0.37664 15.4235 1.44918C16.8399 2.77134 16.7048 4.53564 16.7048 6.45551V10.9912C16.7048 12.3543 17.2697 12.9519 17.8018 13.6888C17.9901 13.9508 18.0311 14.2661 17.7936 14.4625C17.2001 14.9577 16.1439 15.8788 15.5627 16.3947L15.5545 16.3865" fill="black"/>
<path d="M18.7254 18.1103C9.64506 22.4317 4.00967 18.8161 0.402281 16.6201C0.179057 16.4817 -0.200346 16.6524 0.128838 17.0305C1.33064 18.4877 5.2692 21.9999 10.4102 21.9999C15.5547 21.9999 18.6152 19.1929 18.998 18.7032C19.3783 18.2177 19.1097 17.9499 18.7254 18.1103H18.7254ZM21.2757 16.702C21.0318 16.3844 19.7929 16.3252 19.0132 16.421C18.2323 16.514 17.0602 16.9913 17.1621 17.2778C17.2144 17.3852 17.3211 17.337 17.8576 17.2888C18.3955 17.2351 19.9024 17.0449 20.2164 17.4554C20.5319 17.8687 19.7358 19.8375 19.5904 20.1551C19.4499 20.4726 19.6441 20.5545 19.9079 20.343C20.1682 20.1316 20.6393 19.5841 20.9554 18.8094C21.2694 18.0304 21.4609 16.9437 21.2756 16.702H21.2757Z" fill="#FF9900"/>
<path fill-rule="evenodd" clip-rule="evenodd" d="M12.6196 9.29235C12.6196 10.4262 12.6482 11.3718 12.0751 12.3788C11.6125 13.1976 10.8798 13.7011 10.0611 13.7011C8.94356 13.7011 8.29271 12.8496 8.29271 11.5929C8.29271 9.11218 10.5154 8.66194 12.6196 8.66194V9.29235ZM15.5546 16.3865C15.3622 16.5583 15.0838 16.5707 14.8669 16.456C13.9008 15.6537 13.7289 15.2812 13.1968 14.5157C11.6003 16.1449 10.4705 16.632 8.39918 16.632C5.95126 16.632 4.04366 15.1215 4.04366 12.0964C4.04366 9.73448 5.325 8.12567 7.14649 7.33977C8.72664 6.64379 10.933 6.521 12.6196 6.32867V5.95203C12.6196 5.26019 12.6727 4.4415 12.2675 3.84388C11.9114 3.30761 11.2319 3.08655 10.6342 3.08655C9.52487 3.08655 8.53422 3.65552 8.29271 4.83445C8.24352 5.0965 8.05119 5.35441 7.78923 5.36666L4.96467 5.0638C4.7273 5.01047 4.46533 4.81814 4.53082 4.45376C5.18168 1.03164 8.27217 0 11.0394 0C12.4557 0 14.306 0.37664 15.4235 1.44918C16.8399 2.77134 16.7048 4.53564 16.7048 6.45551V10.9912C16.7048 12.3543 17.2697 12.9519 17.8018 13.6888C17.9901 13.9508 18.0311 14.2661 17.7936 14.4625C17.2001 14.9577 16.1439 15.8788 15.5627 16.3947L15.5545 16.3865" fill="black"/>
</svg>
