<svg width="18" height="22" viewBox="0 0 18 22" fill="none" xmlns="http://www.w3.org/2000/svg">
<path d="M17.3382 7.4998C17.2106 7.5988 14.9578 8.8682 14.9578 11.6908C14.9578 14.9556 17.8244 16.1106 17.9102 16.1392C17.897 16.2096 17.4548 17.721 16.3988 19.261C15.4572 20.6162 14.4738 21.9692 12.9778 21.9692C11.4818 21.9692 11.0968 21.1002 9.3698 21.1002C7.6868 21.1002 7.0884 21.9978 5.72 21.9978C4.3516 21.9978 3.3968 20.7438 2.299 19.2038C1.0274 17.3954 0 14.586 0 11.9196C0 7.6428 2.7808 5.3746 5.5176 5.3746C6.9718 5.3746 8.184 6.3294 9.097 6.3294C9.966 6.3294 11.3212 5.3174 12.9756 5.3174C13.6026 5.3174 15.8554 5.3746 17.3382 7.4998ZM12.1902 3.5068C12.8744 2.695 13.3584 1.5686 13.3584 0.4422C13.3584 0.286 13.3452 0.1276 13.3166 0C12.2034 0.0418 10.879 0.7414 10.0804 1.6676C9.4534 2.3804 8.8682 3.5068 8.8682 4.6486C8.8682 4.8202 8.8968 4.9918 8.91 5.0468C8.9804 5.06 9.0948 5.0754 9.2092 5.0754C10.208 5.0754 11.4642 4.4066 12.1902 3.5068Z" fill="#B5BDDB"/>
</svg>
