<svg width="22" height="22" viewBox="0 0 22 22" fill="none" xmlns="http://www.w3.org/2000/svg">
<path d="M21.5325 11.2475C21.5325 10.5233 21.4683 9.83579 21.3583 9.16663H11V13.3008H16.9308C16.665 14.6575 15.8858 15.8033 14.7308 16.5825V19.3325H18.2692C20.3408 17.4166 21.5325 14.5933 21.5325 11.2475Z" fill="#4285F4"/>
<path d="M11 22.0001C13.97 22.0001 16.4542 21.0101 18.2692 19.3326L14.7309 16.5826C13.7409 17.2426 12.485 17.6459 11 17.6459C8.13087 17.6459 5.7017 15.7117 4.83087 13.0992H1.18253V15.9317C2.98837 19.5251 6.70087 22.0001 11 22.0001Z" fill="#34A853"/>
<path d="M4.83083 13.0993C4.60167 12.4393 4.4825 11.7335 4.4825 11.0001C4.4825 10.2668 4.61083 9.56098 4.83083 8.90098V6.06848H1.1825C0.430832 7.55348 0 9.22181 0 11.0001C0 12.7785 0.430832 14.4468 1.1825 15.9318L4.83083 13.0993Z" fill="#FBBC05"/>
<path d="M11 4.35417C12.6225 4.35417 14.0709 4.91334 15.2167 6.00417L18.3517 2.86917C16.4542 1.09083 13.97 0 11 0C6.70087 0 2.98837 2.475 1.18253 6.06834L4.83087 8.90084C5.7017 6.28834 8.13087 4.35417 11 4.35417Z" fill="#EA4335"/>
</svg>
