<svg width="22" height="23" viewBox="0 0 22 23" fill="none" xmlns="http://www.w3.org/2000/svg">
<path d="M21.5325 11.3369C21.5325 10.6128 21.4683 9.92527 21.3583 9.2561H11V13.3903H16.9308C16.665 14.7469 15.8858 15.8928 14.7308 16.6719V19.4219H18.2692C20.3408 17.5061 21.5325 14.6828 21.5325 11.3369Z" fill="#B5BDDB"/>
<path d="M11.0001 22.0893C13.9701 22.0893 16.4543 21.0993 18.2693 19.4218L14.731 16.6718C13.741 17.3318 12.4851 17.7351 11.0001 17.7351C8.13095 17.7351 5.70179 15.801 4.83095 13.1885H1.18262V16.021C2.98845 19.6143 6.70095 22.0893 11.0001 22.0893Z" fill="#B5BDDB"/>
<path d="M4.83083 13.1885C4.60167 12.5285 4.4825 11.8227 4.4825 11.0894C4.4825 10.356 4.61083 9.65021 4.83083 8.99021V6.15771H1.1825C0.430832 7.64271 0 9.31105 0 11.0894C0 12.8677 0.430832 14.536 1.1825 16.021L4.83083 13.1885Z" fill="#B5BDDB"/>
<path d="M11.0001 4.44352C12.6226 4.44352 14.0709 5.00269 15.2168 6.09352L18.3518 2.95852C16.4543 1.18019 13.9701 0.0893555 11.0001 0.0893555C6.70095 0.0893555 2.98845 2.56436 1.18262 6.15769L4.83095 8.99019C5.70178 6.37769 8.13095 4.44352 11.0001 4.44352Z" fill="#B5BDDB"/>
</svg>
