<svg width="53" height="22" viewBox="0 0 53 22" fill="none" xmlns="http://www.w3.org/2000/svg">
<path d="M4.10499 0.306885H8.01086e-05V4.4118H4.10499V0.306885Z" fill="#0068B5"/>
<path d="M4.00306 21.6932V6.9097H0.117268V21.6932H4.00306ZM29.8304 21.8393V18.2165C29.2607 18.2165 28.7786 18.1873 28.428 18.1288C28.019 18.0704 27.7122 17.9243 27.5077 17.7198C27.3032 17.5153 27.1717 17.2231 27.0987 16.8433C27.0402 16.4781 27.011 15.996 27.011 15.4117V10.2404H29.8304V6.9097H27.011V1.13944H23.1106V15.4409C23.1106 16.6534 23.2129 17.676 23.4174 18.494C23.6219 19.2975 23.9725 19.9548 24.4546 20.4515C24.9367 20.9482 25.5794 21.2988 26.3537 21.5179C27.1425 21.7371 28.1359 21.8393 29.3191 21.8393H29.8304ZM52.1518 21.6932V0H48.2514V21.6932H52.1518ZM19.3563 8.35591C18.2753 7.18725 16.7561 6.60292 14.8278 6.60292C13.8928 6.60292 13.0456 6.79283 12.2713 7.17264C11.5117 7.55246 10.8543 8.07835 10.343 8.75033L10.1239 9.02789V8.77955V6.9097H6.28194V21.6932H10.1531V13.8194V14.3599C10.1531 14.2722 10.1531 14.1846 10.1531 14.0969C10.197 12.7092 10.5329 11.6866 11.1757 11.0292C11.8623 10.328 12.695 9.97742 13.6445 9.97742C14.7693 9.97742 15.6312 10.328 16.2009 11C16.7561 11.672 17.0482 12.6215 17.0482 13.834V13.8632V21.6786H20.9778V13.2935C20.9924 11.1899 20.4373 9.52457 19.3563 8.35591ZM46.2355 14.2722C46.2355 13.2058 46.0456 12.2125 45.6804 11.2776C45.3005 10.3572 44.7747 9.53918 44.1173 8.83798C43.4453 8.13679 42.6418 7.59628 41.7069 7.20186C40.772 6.80744 39.7348 6.61753 38.61 6.61753C37.5436 6.61753 36.5356 6.82205 35.6007 7.21647C34.6657 7.6255 33.8477 8.166 33.1611 8.85259C32.4745 9.53918 31.9194 10.3572 31.525 11.2922C31.1159 12.2271 30.926 13.2351 30.926 14.3015C30.926 15.3679 31.1159 16.3758 31.4958 17.3108C31.8756 18.2457 32.4161 19.0637 33.0881 19.7503C33.76 20.4369 34.5927 20.992 35.5569 21.3865C36.521 21.7955 37.5874 22 38.7268 22C42.0283 22 44.0735 20.4954 45.3005 19.093L42.4958 16.9602C41.9114 17.6614 40.509 18.6109 38.7561 18.6109C37.6604 18.6109 36.7547 18.3626 36.0681 17.8513C35.3816 17.3546 34.9141 16.6534 34.6657 15.7915L34.6219 15.66H46.2355V14.2722ZM34.6511 12.9137C34.6511 11.8327 35.8928 9.94821 38.5662 9.9336C41.2395 9.9336 42.4958 11.8181 42.4958 12.8991L34.6511 12.9137Z" fill="black"/>
</svg>
