<svg width="23" height="22" viewBox="0 0 23 22" fill="none" xmlns="http://www.w3.org/2000/svg">
<path d="M11.0483 22L14.1393 4.61635C17.0855 4.61635 18.0148 4.93942 18.149 6.2581C18.149 6.2581 20.1254 5.52117 21.1223 4.02449C17.2323 2.22198 13.3239 2.14069 13.3239 2.14069L11.0432 4.91851L11.0483 4.91816L8.76768 2.14026C8.76768 2.14026 4.85912 2.22164 0.969727 4.02414C1.96569 5.52083 3.94288 6.25775 3.94288 6.25775C4.07784 4.93899 5.00602 4.61591 7.93247 4.61382L11.0483 22Z" fill="#B5BDDB"/>
<path d="M11.0471 1.33829C14.1916 1.31424 17.7908 1.82472 21.4752 3.43058C21.9677 2.54423 22.0943 2.1525 22.0943 2.1525C18.0666 0.559014 14.2947 0.0136791 11.0467 0C7.79883 0.0136791 4.02714 0.559101 0 2.1525C0 2.1525 0.179658 2.63501 0.618609 3.43058C4.30238 1.82472 7.90216 1.31424 11.0467 1.33829H11.0471Z" fill="#B5BDDB"/>
</svg>
