<svg width="32" height="32" viewBox="0 0 32 32" fill="none" xmlns="http://www.w3.org/2000/svg">
<circle cx="16" cy="16" r="16" fill="#2D344A"/>
<mask id="path-2-outside-1" maskUnits="userSpaceOnUse" x="7" y="8" width="18" height="15" fill="black">
<rect fill="white" x="7" y="8" width="18" height="15"/>
<path fill-rule="evenodd" clip-rule="evenodd" d="M15.7188 9.40621V11.4375H11.6561C10.5357 11.4375 9.62501 12.3482 9.62501 13.4686V16.3118H8.81242V15.0932C8.81242 14.869 8.63043 14.687 8.40621 14.687C8.18198 14.687 8 14.869 8 15.0932V16.718V18.3429C8 18.5671 8.18198 18.7491 8.40621 18.7491C8.63043 18.7491 8.81242 18.5671 8.81242 18.3429V17.1242H9.62501V19.9679C9.62501 21.0882 10.5357 21.9989 11.6561 21.9989H20.5926C21.7129 21.9989 22.6237 21.0882 22.6237 19.9679V17.1242H23.4334V18.3429C23.4334 18.5671 23.6154 18.7491 23.8396 18.7491C24.0638 18.7491 24.2458 18.5671 24.2458 18.3429V16.7755C24.2485 16.7567 24.2498 16.7375 24.2498 16.718C24.2498 16.6984 24.2485 16.6792 24.2458 16.6604V15.0932C24.2458 14.869 24.0638 14.687 23.8396 14.687C23.6154 14.687 23.4334 14.869 23.4334 15.0932V16.3118H22.6237V13.4686C22.6237 12.3482 21.7129 11.4375 20.5926 11.4375H16.5312V9.40621C16.5312 9.18198 16.3492 9 16.125 9C15.9008 9 15.7188 9.18198 15.7188 9.40621ZM10.4374 13.4686C10.4374 12.7967 10.9842 12.2499 11.6561 12.2499H20.5926C21.2645 12.2499 21.8112 12.7967 21.8112 13.4686V19.9679C21.8112 20.6397 21.2645 21.1865 20.5926 21.1865H11.6561C10.9842 21.1865 10.4374 20.6397 10.4374 19.9679V13.4686ZM13.6874 17.1242C12.7913 17.1242 12.0625 16.3954 12.0625 15.4993C12.0625 14.6032 12.7913 13.8745 13.6874 13.8745C14.5835 13.8745 15.3122 14.6032 15.3122 15.4993C15.3122 16.3954 14.5835 17.1242 13.6874 17.1242ZM13.6874 14.6869C13.2389 14.6869 12.8749 15.0509 12.8749 15.4993C12.8749 15.9478 13.2389 16.3117 13.6874 16.3117C14.1358 16.3117 14.4998 15.9478 14.4998 15.4993C14.4998 15.0509 14.1358 14.6869 13.6874 14.6869ZM18.5666 17.1242C17.6705 17.1242 16.9418 16.3954 16.9418 15.4993C16.9418 14.6032 17.6705 13.8745 18.5666 13.8745C19.4627 13.8745 20.1915 14.6032 20.1915 15.4993C20.1915 16.3954 19.4627 17.1242 18.5666 17.1242ZM18.5666 14.6869C18.1182 14.6869 17.7542 15.0509 17.7542 15.4993C17.7542 15.9478 18.1182 16.3117 18.5666 16.3117C19.0151 16.3117 19.379 15.9478 19.379 15.4993C19.379 15.0509 19.0151 14.6869 18.5666 14.6869ZM14.0895 19.5614H18.1516C18.3758 19.5614 18.5578 19.3794 18.5578 19.1552C18.5578 18.931 18.3758 18.749 18.1516 18.749H14.0895C13.8653 18.749 13.6833 18.931 13.6833 19.1552C13.6833 19.3794 13.8653 19.5614 14.0895 19.5614Z"/>
</mask>
<path fill-rule="evenodd" clip-rule="evenodd" d="M15.7188 9.40621V11.4375H11.6561C10.5357 11.4375 9.62501 12.3482 9.62501 13.4686V16.3118H8.81242V15.0932C8.81242 14.869 8.63043 14.687 8.40621 14.687C8.18198 14.687 8 14.869 8 15.0932V16.718V18.3429C8 18.5671 8.18198 18.7491 8.40621 18.7491C8.63043 18.7491 8.81242 18.5671 8.81242 18.3429V17.1242H9.62501V19.9679C9.62501 21.0882 10.5357 21.9989 11.6561 21.9989H20.5926C21.7129 21.9989 22.6237 21.0882 22.6237 19.9679V17.1242H23.4334V18.3429C23.4334 18.5671 23.6154 18.7491 23.8396 18.7491C24.0638 18.7491 24.2458 18.5671 24.2458 18.3429V16.7755C24.2485 16.7567 24.2498 16.7375 24.2498 16.718C24.2498 16.6984 24.2485 16.6792 24.2458 16.6604V15.0932C24.2458 14.869 24.0638 14.687 23.8396 14.687C23.6154 14.687 23.4334 14.869 23.4334 15.0932V16.3118H22.6237V13.4686C22.6237 12.3482 21.7129 11.4375 20.5926 11.4375H16.5312V9.40621C16.5312 9.18198 16.3492 9 16.125 9C15.9008 9 15.7188 9.18198 15.7188 9.40621ZM10.4374 13.4686C10.4374 12.7967 10.9842 12.2499 11.6561 12.2499H20.5926C21.2645 12.2499 21.8112 12.7967 21.8112 13.4686V19.9679C21.8112 20.6397 21.2645 21.1865 20.5926 21.1865H11.6561C10.9842 21.1865 10.4374 20.6397 10.4374 19.9679V13.4686ZM13.6874 17.1242C12.7913 17.1242 12.0625 16.3954 12.0625 15.4993C12.0625 14.6032 12.7913 13.8745 13.6874 13.8745C14.5835 13.8745 15.3122 14.6032 15.3122 15.4993C15.3122 16.3954 14.5835 17.1242 13.6874 17.1242ZM13.6874 14.6869C13.2389 14.6869 12.8749 15.0509 12.8749 15.4993C12.8749 15.9478 13.2389 16.3117 13.6874 16.3117C14.1358 16.3117 14.4998 15.9478 14.4998 15.4993C14.4998 15.0509 14.1358 14.6869 13.6874 14.6869ZM18.5666 17.1242C17.6705 17.1242 16.9418 16.3954 16.9418 15.4993C16.9418 14.6032 17.6705 13.8745 18.5666 13.8745C19.4627 13.8745 20.1915 14.6032 20.1915 15.4993C20.1915 16.3954 19.4627 17.1242 18.5666 17.1242ZM18.5666 14.6869C18.1182 14.6869 17.7542 15.0509 17.7542 15.4993C17.7542 15.9478 18.1182 16.3117 18.5666 16.3117C19.0151 16.3117 19.379 15.9478 19.379 15.4993C19.379 15.0509 19.0151 14.6869 18.5666 14.6869ZM14.0895 19.5614H18.1516C18.3758 19.5614 18.5578 19.3794 18.5578 19.1552C18.5578 18.931 18.3758 18.749 18.1516 18.749H14.0895C13.8653 18.749 13.6833 18.931 13.6833 19.1552C13.6833 19.3794 13.8653 19.5614 14.0895 19.5614Z" fill="#636A81"/>
<path d="M15.7188 11.4375V11.6375H15.9188V11.4375H15.7188ZM9.62501 16.3118V16.5118H9.82501V16.3118H9.62501ZM8.81242 16.3118H8.61242V16.5118H8.81242V16.3118ZM8.81242 17.1242V16.9242H8.61242V17.1242H8.81242ZM9.62501 17.1242H9.82501V16.9242H9.62501V17.1242ZM22.6237 17.1242V16.9242H22.4237V17.1242H22.6237ZM23.4334 17.1242H23.6334V16.9242H23.4334V17.1242ZM24.2458 16.7755L24.0478 16.7474L24.0458 16.7614V16.7755H24.2458ZM24.2458 16.6604H24.0458V16.6745L24.0478 16.6885L24.2458 16.6604ZM23.4334 16.3118V16.5118H23.6334V16.3118H23.4334ZM22.6237 16.3118H22.4237V16.5118H22.6237V16.3118ZM16.5312 11.4375H16.3312V11.6375H16.5312V11.4375ZM15.9188 11.4375V9.40621H15.5188V11.4375H15.9188ZM11.6561 11.6375H15.7188V11.2375H11.6561V11.6375ZM9.82501 13.4686C9.82501 12.4587 10.6462 11.6375 11.6561 11.6375V11.2375C10.4253 11.2375 9.42501 12.2378 9.42501 13.4686H9.82501ZM9.82501 16.3118V13.4686H9.42501V16.3118H9.82501ZM8.81242 16.5118H9.62501V16.1118H8.81242V16.5118ZM8.61242 15.0932V16.3118H9.01242V15.0932H8.61242ZM8.40621 14.887C8.51998 14.887 8.61242 14.9795 8.61242 15.0932H9.01242C9.01242 14.7585 8.74089 14.487 8.40621 14.487V14.887ZM8.2 15.0932C8.2 14.9795 8.29244 14.887 8.40621 14.887V14.487C8.07152 14.487 7.8 14.7585 7.8 15.0932H8.2ZM8.2 16.718V15.0932H7.8V16.718H8.2ZM8.2 18.3429V16.718H7.8V18.3429H8.2ZM8.40621 18.5491C8.29244 18.5491 8.2 18.4567 8.2 18.3429H7.8C7.8 18.6776 8.07152 18.9491 8.40621 18.9491V18.5491ZM8.61242 18.3429C8.61242 18.4567 8.51998 18.5491 8.40621 18.5491V18.9491C8.74089 18.9491 9.01242 18.6776 9.01242 18.3429H8.61242ZM8.61242 17.1242V18.3429H9.01242V17.1242H8.61242ZM9.62501 16.9242H8.81242V17.3242H9.62501V16.9242ZM9.82501 19.9679V17.1242H9.42501V19.9679H9.82501ZM11.6561 21.7989C10.6462 21.7989 9.82501 20.9777 9.82501 19.9679H9.42501C9.42501 21.1987 10.4253 22.1989 11.6561 22.1989V21.7989ZM20.5926 21.7989H11.6561V22.1989H20.5926V21.7989ZM22.4237 19.9679C22.4237 20.9777 21.6025 21.7989 20.5926 21.7989V22.1989C21.8234 22.1989 22.8237 21.1987 22.8237 19.9679H22.4237ZM22.4237 17.1242V19.9679H22.8237V17.1242H22.4237ZM23.4334 16.9242H22.6237V17.3242H23.4334V16.9242ZM23.6334 18.3429V17.1242H23.2334V18.3429H23.6334ZM23.8396 18.5491C23.7258 18.5491 23.6334 18.4567 23.6334 18.3429H23.2334C23.2334 18.6776 23.5049 18.9491 23.8396 18.9491V18.5491ZM24.0458 18.3429C24.0458 18.4567 23.9534 18.5491 23.8396 18.5491V18.9491C24.1743 18.9491 24.4458 18.6776 24.4458 18.3429H24.0458ZM24.0458 16.7755V18.3429H24.4458V16.7755H24.0458ZM24.0498 16.718C24.0498 16.7281 24.0491 16.7379 24.0478 16.7474L24.4438 16.8036C24.4478 16.7755 24.4498 16.7469 24.4498 16.718H24.0498ZM24.0478 16.6885C24.0491 16.6981 24.0498 16.7079 24.0498 16.718H24.4498C24.4498 16.689 24.4478 16.6604 24.4438 16.6323L24.0478 16.6885ZM24.0458 15.0932V16.6604H24.4458V15.0932H24.0458ZM23.8396 14.887C23.9534 14.887 24.0458 14.9795 24.0458 15.0932H24.4458C24.4458 14.7585 24.1743 14.487 23.8396 14.487V14.887ZM23.6334 15.0932C23.6334 14.9795 23.7258 14.887 23.8396 14.887V14.487C23.5049 14.487 23.2334 14.7585 23.2334 15.0932H23.6334ZM23.6334 16.3118V15.0932H23.2334V16.3118H23.6334ZM22.6237 16.5118H23.4334V16.1118H22.6237V16.5118ZM22.4237 13.4686V16.3118H22.8237V13.4686H22.4237ZM20.5926 11.6375C21.6025 11.6375 22.4237 12.4587 22.4237 13.4686H22.8237C22.8237 12.2378 21.8234 11.2375 20.5926 11.2375V11.6375ZM16.5312 11.6375H20.5926V11.2375H16.5312V11.6375ZM16.3312 9.40621V11.4375H16.7312V9.40621H16.3312ZM16.125 9.2C16.2388 9.2 16.3312 9.29244 16.3312 9.40621H16.7312C16.7312 9.07152 16.4597 8.8 16.125 8.8V9.2ZM15.9188 9.40621C15.9188 9.29244 16.0112 9.2 16.125 9.2V8.8C15.7903 8.8 15.5188 9.07152 15.5188 9.40621H15.9188ZM11.6561 12.0499C10.8737 12.0499 10.2374 12.6862 10.2374 13.4686H10.6374C10.6374 12.9071 11.0946 12.4499 11.6561 12.4499V12.0499ZM20.5926 12.0499H11.6561V12.4499H20.5926V12.0499ZM22.0112 13.4686C22.0112 12.6862 21.3749 12.0499 20.5926 12.0499V12.4499C21.154 12.4499 21.6112 12.9071 21.6112 13.4686H22.0112ZM22.0112 19.9679V13.4686H21.6112V19.9679H22.0112ZM20.5926 21.3865C21.3749 21.3865 22.0112 20.7502 22.0112 19.9679H21.6112C21.6112 20.5293 21.154 20.9865 20.5926 20.9865V21.3865ZM11.6561 21.3865H20.5926V20.9865H11.6561V21.3865ZM10.2374 19.9679C10.2374 20.7502 10.8737 21.3865 11.6561 21.3865V20.9865C11.0946 20.9865 10.6374 20.5293 10.6374 19.9679H10.2374ZM10.2374 13.4686V19.9679H10.6374V13.4686H10.2374ZM11.8625 15.4993C11.8625 16.5059 12.6808 17.3242 13.6874 17.3242V16.9242C12.9017 16.9242 12.2625 16.285 12.2625 15.4993H11.8625ZM13.6874 13.6745C12.6808 13.6745 11.8625 14.4928 11.8625 15.4993H12.2625C12.2625 14.7137 12.9017 14.0745 13.6874 14.0745V13.6745ZM15.5122 15.4993C15.5122 14.4928 14.6939 13.6745 13.6874 13.6745V14.0745C14.473 14.0745 15.1122 14.7137 15.1122 15.4993H15.5122ZM13.6874 17.3242C14.6939 17.3242 15.5122 16.5059 15.5122 15.4993H15.1122C15.1122 16.285 14.473 16.9242 13.6874 16.9242V17.3242ZM13.0749 15.4993C13.0749 15.1613 13.3494 14.8869 13.6874 14.8869V14.4869C13.1285 14.4869 12.6749 14.9404 12.6749 15.4993H13.0749ZM13.6874 16.1117C13.3494 16.1117 13.0749 15.8373 13.0749 15.4993H12.6749C12.6749 16.0582 13.1285 16.5117 13.6874 16.5117V16.1117ZM14.2998 15.4993C14.2998 15.8373 14.0254 16.1117 13.6874 16.1117V16.5117C14.2463 16.5117 14.6998 16.0582 14.6998 15.4993H14.2998ZM13.6874 14.8869C14.0254 14.8869 14.2998 15.1613 14.2998 15.4993H14.6998C14.6998 14.9404 14.2463 14.4869 13.6874 14.4869V14.8869ZM16.7418 15.4993C16.7418 16.5059 17.5601 17.3242 18.5666 17.3242V16.9242C17.781 16.9242 17.1418 16.285 17.1418 15.4993H16.7418ZM18.5666 13.6745C17.5601 13.6745 16.7418 14.4928 16.7418 15.4993H17.1418C17.1418 14.7137 17.781 14.0745 18.5666 14.0745V13.6745ZM20.3915 15.4993C20.3915 14.4928 19.5732 13.6745 18.5666 13.6745V14.0745C19.3523 14.0745 19.9915 14.7137 19.9915 15.4993H20.3915ZM18.5666 17.3242C19.5732 17.3242 20.3915 16.5059 20.3915 15.4993H19.9915C19.9915 16.285 19.3523 16.9242 18.5666 16.9242V17.3242ZM17.9542 15.4993C17.9542 15.1613 18.2286 14.8869 18.5666 14.8869V14.4869C18.0077 14.4869 17.5542 14.9404 17.5542 15.4993H17.9542ZM18.5666 16.1117C18.2286 16.1117 17.9542 15.8373 17.9542 15.4993H17.5542C17.5542 16.0582 18.0077 16.5117 18.5666 16.5117V16.1117ZM19.179 15.4993C19.179 15.8373 18.9046 16.1117 18.5666 16.1117V16.5117C19.1255 16.5117 19.579 16.0582 19.579 15.4993H19.179ZM18.5666 14.8869C18.9046 14.8869 19.179 15.1613 19.179 15.4993H19.579C19.579 14.9404 19.1255 14.4869 18.5666 14.4869V14.8869ZM18.1516 19.3614H14.0895V19.7614H18.1516V19.3614ZM18.3578 19.1552C18.3578 19.269 18.2654 19.3614 18.1516 19.3614V19.7614C18.4863 19.7614 18.7578 19.4899 18.7578 19.1552H18.3578ZM18.1516 18.949C18.2654 18.949 18.3578 19.0415 18.3578 19.1552H18.7578C18.7578 18.8205 18.4863 18.549 18.1516 18.549V18.949ZM14.0895 18.949H18.1516V18.549H14.0895V18.949ZM13.8833 19.1552C13.8833 19.0415 13.9757 18.949 14.0895 18.949V18.549C13.7548 18.549 13.4833 18.8205 13.4833 19.1552H13.8833ZM14.0895 19.3614C13.9757 19.3614 13.8833 19.269 13.8833 19.1552H13.4833C13.4833 19.4899 13.7548 19.7614 14.0895 19.7614V19.3614Z" fill="#636A81" mask="url(#path-2-outside-1)"/>
</svg>
