<svg width="32" height="32" viewBox="0 0 32 32" fill="none" xmlns="http://www.w3.org/2000/svg">
<path d="M16 32C24.8366 32 32 24.8366 32 16C32 7.16344 24.8366 0 16 0C7.16344 0 0 7.16344 0 16C0 24.8366 7.16344 32 16 32Z" fill="#2D344A"/>
<circle cx="16" cy="16" r="8.25" stroke="#636A81" stroke-width="1.5"/>
<path d="M15.124 18.6758C15.124 18.0264 15.2046 17.5088 15.3657 17.123C15.5269 16.7373 15.8442 16.3149 16.3179 15.856C16.7964 15.3921 17.0991 15.0625 17.2261 14.8672C17.4214 14.5693 17.519 14.2471 17.519 13.9004C17.519 13.4414 17.4043 13.0923 17.1748 12.853C16.9502 12.6089 16.6182 12.4868 16.1787 12.4868C15.7588 12.4868 15.4194 12.6064 15.1606 12.8457C14.9067 13.0801 14.7798 13.3999 14.7798 13.8052H13C13.0098 12.9409 13.3027 12.2573 13.8789 11.7544C14.46 11.2515 15.2266 11 16.1787 11C17.1602 11 17.9243 11.249 18.4712 11.7471C19.0229 12.2451 19.2988 12.9409 19.2988 13.8345C19.2988 14.6304 18.9277 15.4141 18.1855 16.1855L17.2847 17.0718C16.9624 17.438 16.7964 17.9727 16.7866 18.6758H15.124ZM14.9995 20.9536C14.9995 20.6655 15.0898 20.4336 15.2705 20.2578C15.4512 20.0771 15.6953 19.9868 16.0029 19.9868C16.3154 19.9868 16.562 20.0796 16.7427 20.2651C16.9233 20.4458 17.0137 20.6753 17.0137 20.9536C17.0137 21.2222 16.9258 21.4468 16.75 21.6274C16.5742 21.8081 16.3252 21.8984 16.0029 21.8984C15.6807 21.8984 15.4316 21.8081 15.2559 21.6274C15.085 21.4468 14.9995 21.2222 14.9995 20.9536Z" fill="#636A81"/>
</svg>
