<svg width="32" height="32" viewBox="0 0 32 32" fill="none" xmlns="http://www.w3.org/2000/svg">
<path d="M16 32C24.8366 32 32 24.8366 32 16C32 7.16344 24.8366 0 16 0C7.16344 0 0 7.16344 0 16C0 24.8366 7.16344 32 16 32Z" fill="#2D344A"/>
<path d="M12.4083 16.6439C12.551 16.7866 12.7412 16.8658 12.9472 16.8658C13.1533 16.8658 13.3276 16.7866 13.4861 16.6439C13.7873 16.3428 13.7873 15.8673 13.4861 15.5819L11.5841 13.6957H22.2357C22.6478 13.6957 22.9965 13.3629 22.9965 12.9349C22.9965 12.5069 22.6636 12.1741 22.2357 12.1741H11.5841L13.4703 10.2879C13.7715 9.9867 13.7715 9.51118 13.4703 9.22587C13.1691 8.92471 12.6936 8.92471 12.4083 9.22587L9.2382 12.396C8.93704 12.6971 8.93704 13.1727 9.2382 13.458L12.4083 16.6439Z" fill="#b5bddb"/>
<path d="M19.604 16.4222C19.3029 16.121 18.8273 16.121 18.542 16.4222C18.2409 16.7233 18.2409 17.1988 18.542 17.4841L20.4282 19.3704H9.76083C9.34871 19.3704 9 19.7032 9 20.1312C9 20.5433 9.33286 20.892 9.76083 20.892H20.4124L18.5262 22.7782C18.225 23.0794 18.225 23.5549 18.5262 23.8402C18.6688 23.9829 18.859 24.0621 19.0651 24.0621C19.2712 24.0621 19.4455 23.9829 19.604 23.8402L22.7741 20.6543C23.0753 20.3531 23.0753 19.8776 22.7741 19.5923L19.604 16.4222Z" fill="#b5bddb"/>
</svg>
