<svg width="100" height="100" viewBox="0 0 100 100" fill="none" xmlns="http://www.w3.org/2000/svg">
<g clip-path="url(#clip0_2709_1931)">
<path d="M19.7742 61.5818C25.2418 60.1881 28.0355 52.629 26.0139 44.698C23.9923 36.7671 17.9211 31.4676 12.4534 32.8613C6.98571 34.255 4.1921 41.8141 6.21367 49.745C8.23525 57.676 14.3065 62.9755 19.7742 61.5818Z" fill="#D79E84"/>
<path d="M93.7883 49.7485C95.8099 41.8175 93.0163 34.2584 87.5486 32.8647C82.0809 31.471 76.0097 36.7705 73.9881 44.7015C71.9665 52.6325 74.7601 60.1916 80.2278 61.5853C85.6955 62.979 91.7667 57.6795 93.7883 49.7485Z" fill="#D79E84"/>
<path d="M52.7361 97.2222H47.2639C29.2083 97.2222 11.7 83.3833 11.7 64.011C11.7 52.9416 15.8028 47.4055 15.8028 47.4055C15.8028 47.4055 14.4361 41.8694 14.4361 36.336C14.4361 19.7305 31.9445 5.8916 50 5.8916C68.0556 5.8916 85.5639 22.4972 85.5639 36.336C85.5639 41.8722 84.1972 47.4055 84.1972 47.4055C84.1972 47.4055 88.3 52.9416 88.3 64.011C88.3 83.3833 70.7917 97.2222 52.7361 97.2222Z" fill="#BF6952"/>
<path d="M61.7833 0.472222C61.7833 0.472222 47.0528 -2.475 41.1611 6.36389C35.2695 15.2028 52.9445 9.31111 52.9445 9.31111C52.9445 9.31111 55.8917 0.472222 61.7833 0.472222Z" fill="#BF6952"/>
<path d="M82.4083 42.7193C82.4083 32.1443 73.8333 23.5693 63.2583 23.5693C58.1083 23.5693 53.4417 25.6138 50 28.9193C46.5583 25.611 41.8917 23.5693 36.7417 23.5693C26.1667 23.5693 17.5917 32.1443 17.5917 42.7193C17.5917 49.1332 20.7583 54.7971 25.5972 58.2721C24.2389 61.6388 23.4833 65.3443 23.4833 69.2332C23.4833 84.6916 35.3556 94.2749 49.9972 94.2749C64.6389 94.2749 76.5111 84.6916 76.5111 69.2332C76.5111 65.3416 75.7556 61.6388 74.3972 58.2721C79.2417 54.7971 82.4083 49.1332 82.4083 42.7193Z" fill="#D79E84"/>
<path d="M36.1111 55.5556C39.1793 55.5556 41.6667 51.8246 41.6667 47.2222C41.6667 42.6199 39.1793 38.8889 36.1111 38.8889C33.0428 38.8889 30.5555 42.6199 30.5555 47.2222C30.5555 51.8246 33.0428 55.5556 36.1111 55.5556Z" fill="#292F33"/>
<path d="M63.8889 55.5556C66.9571 55.5556 69.4444 51.8246 69.4444 47.2222C69.4444 42.6199 66.9571 38.8889 63.8889 38.8889C60.8206 38.8889 58.3333 42.6199 58.3333 47.2222C58.3333 51.8246 60.8206 55.5556 63.8889 55.5556Z" fill="#292F33"/>
<path d="M50 87.5C57.5416 87.5 63.9639 83.6666 66.375 78.3083C67.3722 76.0916 65.6805 73.6111 63.1611 73.6111H36.8389C34.3194 73.6111 32.6277 76.0916 33.625 78.3083C36.0361 83.6666 42.4583 87.5 50 87.5Z" fill="#642116"/>
<path d="M45.8333 64.0583C47.3674 64.0583 48.6111 62.7387 48.6111 61.111C48.6111 59.4833 47.3674 58.1638 45.8333 58.1638C44.2992 58.1638 43.0555 59.4833 43.0555 61.111C43.0555 62.7387 44.2992 64.0583 45.8333 64.0583Z" fill="#642116"/>
<path d="M54.1667 63.8888C55.7008 63.8888 56.9445 62.6452 56.9445 61.111C56.9445 59.5769 55.7008 58.3333 54.1667 58.3333C52.6326 58.3333 51.3889 59.5769 51.3889 61.111C51.3889 62.6452 52.6326 63.8888 54.1667 63.8888Z" fill="#642116"/>
<path d="M19.0945 64.5694C20.7556 60.9778 21.5278 58.1166 21.5278 55.5555C21.5278 51.9222 19.85 48.4444 18.5 45.65C17.7389 44.0722 16.9528 42.4389 16.9528 41.6666C16.9528 41.1305 17.3472 39.4639 17.6945 37.9916C18.7695 33.4472 20.1056 27.7889 18.425 25.0778C18.0084 24.4083 17.2195 23.6111 15.8084 23.6111C10.3889 23.6111 2.08336 35.4333 2.08336 50C2.08336 57.1555 2.56669 61.6027 3.62503 64.2L1.38892 100H20.8334L18.5084 65.4416C18.7445 65.1833 18.9445 64.8944 19.0945 64.5694Z" fill="#BF6952"/>
<path d="M19.0945 64.5694C20.7556 60.9777 21.5278 58.1166 21.5278 55.5555C21.5278 51.9222 19.85 48.4444 18.5 45.65C17.7389 44.0722 16.9528 42.4389 16.9528 41.6666C16.9528 41.1305 17.3472 39.4639 17.6945 37.9916C18.7695 33.4472 20.1056 27.7889 18.425 25.0777C18.2472 24.7944 17.9861 24.4972 17.6556 24.2361C15.6167 27.9611 14.4361 32.0528 14.4361 36.3361C14.4361 41.8694 13.8889 52.9416 13.8889 64.0111C13.8889 64.8861 19.4445 100 19.4445 100H20.8334L18.5028 65.3639C18.7222 65.1166 18.9528 64.8778 19.0945 64.5694Z" fill="#9B3C07"/>
<path d="M15.8083 26.3889C11.9944 26.3889 4.36945 36.5972 4.36945 50C4.36945 57.0611 4.88333 61.5945 5.89722 63.475C6.60556 64.7945 8.63334 64.7806 10.5861 64.7611L11.2306 64.7584C14.4528 64.7584 16.7444 63.9722 17.0972 63.2084C18.5389 60.0945 19.2389 57.5889 19.2389 55.5556C19.2389 52.6778 17.7972 49.6889 16.525 47.0528C15.4861 44.8972 14.6639 43.1945 14.6639 41.6667C14.6639 40.7834 14.9639 39.4695 15.4944 37.225C16.2278 34.125 17.5917 28.3528 16.5944 26.75C16.5306 26.6417 16.3722 26.3889 15.8083 26.3889Z" fill="#D79E84"/>
<path d="M98.6111 100L96.375 64.2C97.4333 61.6027 97.9167 57.1583 97.9167 50C97.9167 35.4333 89.6111 23.6111 84.1917 23.6111C82.7806 23.6111 81.9917 24.4083 81.575 25.0778C79.8917 27.7889 81.2306 33.4472 82.3056 37.9916C82.6528 39.4639 83.0472 41.1305 83.0472 41.6666C83.0472 42.4389 82.2611 44.0722 81.5 45.65C80.15 48.4444 78.4722 51.925 78.4722 55.5555C78.4722 58.1166 79.2445 60.9778 80.9083 64.5694C81.0583 64.8944 81.2583 65.1833 81.4944 65.4416L79.1667 100H98.6111Z" fill="#BF6952"/>
<path d="M86.1111 64.0112C86.1111 52.9417 85.5639 41.8695 85.5639 36.3362C85.5639 32.5195 84.1945 28.4973 81.8861 24.6667C81.7695 24.8056 81.6583 24.9445 81.575 25.0779C79.8917 27.789 81.2306 33.4473 82.3056 37.9917C82.6528 39.464 83.0472 41.1306 83.0472 41.6667C83.0472 42.439 82.2611 44.0723 81.5 45.6501C80.15 48.4445 78.4722 51.9251 78.4722 55.5556C78.4722 58.1167 79.2445 60.9779 80.9083 64.5695C81.05 64.8751 81.2806 65.1167 81.5 65.364L79.1667 100H80.5556C80.5556 100 86.1111 64.8862 86.1111 64.0112Z" fill="#9B3C07"/>
<path d="M84.1916 26.3889C83.6277 26.3889 83.4694 26.6417 83.4027 26.75C82.4083 28.3528 83.7722 34.125 84.5027 37.225C85.0333 39.4695 85.3333 40.7834 85.3333 41.6667C85.3333 43.1945 84.5111 44.8972 83.4722 47.0528C82.2 49.6889 80.7583 52.6778 80.7583 55.5556C80.7583 57.5889 81.4583 60.0945 82.8972 63.2084C83.25 63.9695 85.5389 64.7584 88.7639 64.7584L89.4083 64.7611C91.3583 64.7806 93.3861 64.7945 94.1 63.475C95.1139 61.5973 95.6277 57.0639 95.6277 50C95.6277 36.5972 88.0055 26.3889 84.1916 26.3889Z" fill="#D79E84"/>
</g>
<defs>
<clipPath id="clip0_2709_1931">
<rect width="100" height="100" fill="white"/>
</clipPath>
</defs>
</svg>
