<svg width="40" height="40" viewBox="0 0 40 40" fill="none" xmlns="http://www.w3.org/2000/svg">
<path fill-rule="evenodd" clip-rule="evenodd" d="M28.6154 27.6503C29.1269 28.8578 29.6393 30.065 30.1496 31.2731C30.7298 32.6467 31.3018 34.0238 31.8905 35.3939C32.0934 35.8661 32.1305 36.319 31.7699 36.7131C31.4191 37.0966 30.9731 37.1127 30.4992 36.9454C29.3686 36.5462 28.2315 36.1655 27.1039 35.7578C26.8274 35.6578 26.7137 35.7302 26.5975 35.9842C26.0789 37.1165 25.5441 38.2413 25.007 39.365C24.7926 39.8134 24.416 39.9812 23.9295 39.9453C23.4974 39.9135 23.2309 39.6707 23.0719 39.2921C22.2336 37.2972 21.399 35.3007 20.5621 33.3052C20.5235 33.2132 20.475 33.1253 20.4062 32.9844C20.1183 33.6633 19.8466 34.2967 19.5806 34.9327C18.975 36.3806 18.3743 37.8306 17.7669 39.2778C17.5852 39.7106 17.2695 39.9441 16.7797 39.9489C16.2872 39.9537 15.9881 39.7147 15.7877 39.2884C15.2578 38.1612 14.7149 37.0401 14.1874 35.9118C14.0899 35.7033 13.9904 35.6714 13.7719 35.7489C12.5786 36.1725 11.3794 36.5796 10.18 36.9856C9.76103 37.1274 9.35991 37.0532 9.0669 36.7269C8.77355 36.4001 8.68862 36.0059 8.87264 35.5692C9.85216 33.2447 10.8233 30.9165 11.7992 28.5904C11.8467 28.4771 11.912 28.3713 11.9689 28.2621C12.1187 28.3246 12.259 28.4006 12.3549 28.5386C11.8723 29.709 11.3929 30.8808 10.906 32.0494C10.4058 33.2501 9.89679 34.4472 9.39476 35.647C9.28529 35.9087 9.24802 36.1765 9.47052 36.4004C9.67556 36.6067 9.91242 36.5448 10.1569 36.4592C11.4048 36.0218 12.6586 35.6009 13.9032 35.1543C14.2211 35.0403 14.3762 35.0998 14.5197 35.4147C15.0734 36.6297 15.6556 37.8317 16.2256 39.0393C16.3383 39.2779 16.4979 39.4637 16.7804 39.4596C17.0458 39.4558 17.2102 39.2851 17.3077 39.0523C18.1995 36.9218 19.0814 34.787 19.9881 32.6628C20.1294 32.3316 20.1057 32.0764 19.9082 31.8021C19.8167 31.8569 19.8016 31.936 19.7719 32.0067C18.8897 34.1049 18.0075 36.2032 17.1237 38.3008C17.0649 38.4403 17.0469 38.6379 16.8484 38.642C16.6377 38.6463 16.6 38.4416 16.5271 38.2966C15.9214 37.0925 15.3129 35.8899 14.7207 34.6793C14.6148 34.4626 14.5141 34.4118 14.2856 34.4917C13.6301 34.7209 12.9669 34.9282 12.3058 35.1412C11.6339 35.3577 10.9606 35.5695 10.289 35.7866C10.1769 35.8229 10.0687 35.8551 9.97848 35.754C9.90076 35.6668 9.92402 35.5673 9.96473 35.4693C9.99917 35.3865 10.0277 35.3012 10.0623 35.2185C10.9683 33.0573 11.8748 30.8962 12.7811 28.735C13.5383 28.9344 14.314 28.9142 15.0799 28.8666C16.0926 28.8036 16.957 29.1263 17.7801 29.6772C18.4476 30.1239 19.1347 30.5551 19.9824 30.5727C21.15 33.3652 22.3193 36.1569 23.4826 38.9512C23.5926 39.2152 23.7208 39.4504 24.0374 39.4589C24.3536 39.4675 24.5046 39.2406 24.6253 38.9837C25.164 37.836 25.6993 36.6867 26.2505 35.5452C26.5078 35.0123 26.381 34.9782 27.0693 35.2154C28.2768 35.6318 29.4853 36.0457 30.6902 36.4696C30.9552 36.5628 31.1923 36.582 31.3967 36.3593C31.6039 36.1338 31.5448 35.8971 31.4377 35.643C30.376 33.1221 29.3203 30.5987 28.2628 28.076C28.371 27.9263 28.4588 27.7597 28.6154 27.6503Z" fill="#B5BDDB"/>
<mask id="mask0_3071_2399" style="mask-type:alpha" maskUnits="userSpaceOnUse" x="4" y="0" width="32" height="31">
<path d="M4.80005 0.067482H35.2762V30.583H4.80005V0.067482Z" fill="white"/>
</mask>
<g mask="url(#mask0_3071_2399)">
<path fill-rule="evenodd" clip-rule="evenodd" d="M15.0209 2.37001C14.4756 2.37001 14.1042 2.35496 13.7346 2.37324C13.0619 2.40657 12.5012 2.65749 12.1002 3.23125C11.79 3.6751 11.5334 4.14822 11.2901 4.62822C10.8532 5.49028 10.2104 6.13405 9.34735 6.56798C8.96679 6.75935 8.60051 6.97918 8.22965 7.1895C7.45395 7.6293 7.08983 8.30316 7.09752 9.18883C7.10244 9.76205 7.09759 10.3353 7.10648 10.9084C7.11639 11.5433 6.95422 12.1296 6.63276 12.6732C6.37568 13.1079 6.11921 13.5433 5.85269 13.9723C5.30186 14.859 5.27402 15.7426 5.8446 16.6318C5.97793 16.8395 6.08557 17.0648 6.22934 17.2644C6.90643 18.205 7.20847 19.2443 7.10925 20.4043C7.07864 20.7616 7.09583 21.1233 7.09893 21.4829C7.1054 22.2495 7.3701 22.8883 8.037 23.3154C8.29179 23.4786 8.54423 23.6541 8.81883 23.7765C10.0493 24.3248 10.9713 25.1772 11.5201 26.4216C11.6328 26.6772 11.7879 26.9144 11.9281 27.1575C12.3672 27.9192 13.0391 28.2704 13.9061 28.27C14.5014 28.2698 15.0967 28.2684 15.692 28.2626C16.327 28.2563 16.9085 28.4381 17.4505 28.7573C17.8857 29.0136 18.3203 29.2711 18.749 29.538C19.6051 30.0712 20.4579 30.0779 21.3157 29.545C21.6399 29.3438 21.9741 29.1584 22.2934 28.9498C23.0286 28.4698 23.8193 28.2096 24.7083 28.2588C25.1899 28.2854 25.6739 28.2688 26.1569 28.2703C27.0375 28.2729 27.7186 27.9193 28.1591 27.1411C28.3692 26.7699 28.5896 26.4037 28.7807 26.0228C29.2138 25.1595 29.8486 24.5084 30.7157 24.0768C31.1071 23.882 31.4862 23.6609 31.8619 23.4369C32.4717 23.0734 32.8808 22.5714 32.9506 21.8325C33.0153 21.1476 32.9705 20.4628 32.9685 19.7782C32.9666 19.0838 33.1398 18.4479 33.4984 17.8574C33.7606 17.4256 34.0169 16.9902 34.2775 16.5575C34.7601 15.7561 34.7843 14.9475 34.3112 14.1345C34.1024 13.7755 33.892 13.4169 33.6667 13.0682C33.184 12.3217 32.916 11.5218 32.9682 10.6196C32.9968 10.1266 32.9854 9.63071 32.9785 9.13635C32.968 8.38491 32.7077 7.75948 32.0574 7.32738C31.6169 7.03456 31.1539 6.78302 30.6846 6.54316C29.8571 6.12009 29.2362 5.49797 28.8107 4.67132C28.6001 4.26242 28.3713 3.86242 28.1385 3.46552C27.7763 2.84792 27.2544 2.45473 26.5259 2.38808C26.2472 2.36259 25.9654 2.37203 25.6848 2.36704C25.0791 2.35611 24.4703 2.41716 23.8678 2.33493C23.1233 2.23335 22.485 1.85709 21.8999 1.42498C20.65 0.501945 19.4429 0.488994 18.1929 1.42066C17.2061 2.15618 16.104 2.55638 15.0209 2.37001ZM12.3549 28.5385C12.259 28.4006 12.1187 28.3245 11.9689 28.2621C11.3243 27.5035 10.9317 26.5886 10.4125 25.7521C10.0868 25.2273 9.5863 24.9084 9.05893 24.6207C8.54706 24.3415 8.01975 24.0881 7.55135 23.7341C6.87084 23.2197 6.52047 22.533 6.49418 21.6841C6.48171 21.28 6.46209 20.872 6.50024 20.471C6.60209 19.401 6.3078 18.4561 5.69846 17.5848C5.46787 17.255 5.27132 16.8974 5.09364 16.5355C4.69171 15.7171 4.70984 14.8914 5.10281 14.0698C5.32639 13.6021 5.61091 13.1704 5.887 12.7346C6.307 12.0717 6.54783 11.3685 6.5022 10.5712C6.47463 10.0893 6.49559 9.60481 6.48966 9.12157C6.47618 8.03267 6.96055 7.22633 7.88204 6.67361C8.23787 6.46019 8.59754 6.25021 8.96982 6.06808C9.78744 5.66815 10.3887 5.06815 10.7926 4.24947C11.07 3.68711 11.358 3.12731 11.7742 2.64549C12.2849 2.05426 12.9379 1.78572 13.7026 1.76373C14.0953 1.75247 14.492 1.72778 14.8809 1.76805C15.9782 1.88151 16.9364 1.55503 17.8238 0.934188C18.1168 0.729264 18.4372 0.5609 18.7551 0.395032C19.6142 -0.0533327 20.4753 -0.0308032 21.3385 0.39746C21.7824 0.617696 22.1981 0.884745 22.6125 1.15186C23.2844 1.58485 24.0052 1.80697 24.8087 1.77196C25.2908 1.75092 25.7743 1.76488 26.2571 1.76063C27.3475 1.75098 28.1443 2.2496 28.6895 3.17453C28.9116 3.55146 29.1335 3.93007 29.3275 4.32184C29.7059 5.08582 30.2744 5.64589 31.0346 6.02599C31.506 6.26168 31.9705 6.51233 32.406 6.81223C33.1852 7.34889 33.5771 8.09203 33.5871 9.03652C33.591 9.40738 33.6152 9.78114 33.5795 10.1486C33.4742 11.2302 33.7704 12.1877 34.3912 13.0655C34.585 13.3393 34.7452 13.6385 34.9052 13.9345C35.4378 14.9198 35.3845 15.8937 34.8261 16.8505C34.5488 17.3256 34.2665 17.7976 33.9854 18.2703C33.7028 18.7456 33.5734 19.2599 33.5798 19.812C33.5863 20.3739 33.5797 20.936 33.5893 21.4978C33.6078 22.5877 33.1255 23.3957 32.2093 23.9534C31.8165 24.1925 31.4124 24.4142 31.0044 24.6264C30.3402 24.9718 29.7946 25.4335 29.4436 26.1089C29.1747 26.6263 28.8923 27.1368 28.6157 27.6502C28.4588 27.7597 28.371 27.9263 28.2628 28.076C28.1204 28.1564 28.0118 28.2743 27.9075 28.3971C27.3061 28.8007 26.6351 28.9063 25.9263 28.8818C25.4224 28.8644 24.9176 28.8781 24.4131 28.8768C24.0622 28.8758 23.7242 28.9407 23.4032 29.0817C22.4054 29.5203 21.5677 30.2688 20.5054 30.583C20.3319 30.5334 20.1568 30.572 19.9824 30.5727C19.1347 30.5551 18.4476 30.1239 17.7802 29.6771C16.957 29.1262 16.0925 28.8036 15.0799 28.8665C14.314 28.9142 13.5382 28.9343 12.781 28.7351C12.6527 28.6395 12.5168 28.5609 12.3549 28.5385Z" fill="#464B6F"/>
</g>
<path fill-rule="evenodd" clip-rule="evenodd" d="M24.3463 18.4945C24.6192 18.5027 24.8029 18.2766 24.7232 17.997C24.2375 16.2955 23.7449 14.5961 23.2538 12.8962C23.1781 12.6343 22.9785 12.5814 22.7495 12.6358C22.5624 12.6802 22.5131 12.8569 22.4645 13.021C22.1495 14.0839 21.8341 15.1468 21.5184 16.2095C21.3461 16.7891 21.1659 17.3665 21.0033 17.9487C20.9363 18.1887 20.9873 18.4118 21.2651 18.4812C21.5072 18.5416 21.6738 18.4443 21.739 18.1833C21.8013 17.9338 21.8953 17.6921 21.958 17.4426C22.0014 17.2705 22.0907 17.2089 22.2663 17.2135C22.6585 17.2237 23.0514 17.2235 23.4436 17.2136C23.6286 17.209 23.7303 17.2582 23.7695 17.458C23.8167 17.6988 23.9002 17.9328 23.9747 18.1676C24.0321 18.3482 24.1232 18.4986 24.3463 18.4945ZM15.5261 15.5729C15.4995 15.8518 15.5802 16.1154 15.7106 16.3709C15.9604 16.8606 16.2094 17.351 16.4466 17.8469C16.6375 18.2461 16.9263 18.483 17.3821 18.4986C17.8619 18.5151 18.1558 18.2638 18.3528 17.8558C18.6112 17.3204 18.8801 16.79 19.132 16.2515C19.3487 15.7883 19.3472 15.3171 19.122 14.8544C18.8421 14.2794 18.5658 13.7025 18.2721 13.1345C17.9203 12.454 16.9426 12.4051 16.5607 13.0719C16.2048 13.6936 15.9146 14.3533 15.605 15.001C15.5222 15.1742 15.5081 15.369 15.5261 15.5729ZM26.4421 15.4576C26.4421 16.3114 26.4454 17.1652 26.4401 18.019C26.4385 18.2971 26.537 18.4878 26.8346 18.4914C27.1744 18.4954 27.2259 18.2373 27.2315 17.9787C27.2419 17.4958 27.243 17.0124 27.231 16.5297C27.2259 16.3233 27.2952 16.2564 27.5006 16.2609C28.028 16.2726 28.556 16.2735 29.0833 16.262C29.7111 16.2484 30.188 15.7771 30.2072 15.148C30.2215 14.6766 30.2225 14.2041 30.2068 13.7327C30.1857 13.0909 29.6903 12.6235 29.05 12.6218C28.2867 12.6196 27.5231 12.6308 26.76 12.6157C26.5145 12.6108 26.4305 12.6698 26.4357 12.9301C26.4527 13.7723 26.4421 14.6151 26.4421 15.4576ZM10.0627 15.4681C10.0627 16.2994 10.0622 17.1307 10.0633 17.962C10.0635 18.0515 10.0513 18.1485 10.0809 18.2287C10.1501 18.4155 10.2912 18.5127 10.4993 18.4936C10.759 18.4697 10.839 18.278 10.8462 18.0691C10.8634 17.5754 10.8666 17.0803 10.8502 16.5867C10.8421 16.3416 10.9037 16.2487 11.1655 16.2588C11.6811 16.2789 12.1983 16.2741 12.7144 16.2615C13.3249 16.2466 13.8031 15.7817 13.8266 15.1712C13.8451 14.6888 13.8446 14.2047 13.8269 13.7223C13.8035 13.0822 13.306 12.6231 12.6602 12.6217C11.8969 12.62 11.1332 12.6329 10.3703 12.6148C10.1085 12.6087 10.0531 12.6964 10.0573 12.9404C10.0714 13.7827 10.0627 14.6255 10.0627 15.4681ZM15.0209 2.37006C16.104 2.55643 17.2061 2.15623 18.1929 1.42065C19.4428 0.488978 20.6501 0.501997 21.8999 1.42503C22.485 1.85707 23.1233 2.23333 23.8678 2.33498C24.4704 2.41714 25.0791 2.35616 25.6848 2.36702C25.9654 2.37208 26.2472 2.36264 26.5259 2.38813C27.2544 2.45478 27.7764 2.84797 28.1385 3.46557C28.3713 3.86247 28.6001 4.2624 28.8106 4.67137C29.2362 5.49802 29.8571 6.12014 30.6846 6.54314C31.1539 6.78308 31.6169 7.03461 32.0574 7.32736C32.7077 7.75954 32.968 8.38497 32.9784 9.13633C32.9854 9.63077 32.9968 10.1266 32.9682 10.6196C32.916 11.5218 33.184 12.3217 33.6667 13.0683C33.8921 13.4169 34.1024 13.7756 34.3112 14.1346C34.7842 14.9475 34.7601 15.7561 34.2775 16.5575C34.0169 16.9902 33.7606 17.4256 33.4984 17.8573C33.1398 18.448 32.9666 19.0839 32.9685 19.7782C32.9705 20.4627 33.0153 21.1477 32.9506 21.8326C32.8808 22.5714 32.4717 23.0734 31.8619 23.4369C31.4862 23.6609 31.1071 23.882 30.7157 24.0768C29.8486 24.5084 29.2138 25.1595 28.7807 26.0228C28.5896 26.4037 28.3692 26.7699 28.159 27.1411C27.7186 27.9193 27.0375 28.2729 26.1569 28.2703C25.6739 28.2689 25.1899 28.2854 24.7083 28.2588C23.8193 28.2097 23.0286 28.4698 22.2934 28.9498C21.9741 29.1584 21.6399 29.3438 21.3157 29.5451C20.4578 30.0779 19.6051 30.0712 18.749 29.538C18.3203 29.2711 17.8857 29.0136 17.4506 28.7574C16.9085 28.4382 16.327 28.2563 15.6919 28.2626C15.0967 28.2685 14.5014 28.2698 13.9061 28.27C13.0391 28.2704 12.3672 27.9192 11.9281 27.1575C11.7879 26.9145 11.6328 26.6772 11.5201 26.4217C10.9713 25.1772 10.0493 24.3249 8.81883 23.7765C8.54416 23.6541 8.29179 23.4786 8.037 23.3154C7.3701 22.8882 7.1054 22.2495 7.09893 21.4828C7.09583 21.1233 7.07864 20.7616 7.10924 20.4044C7.20846 19.2444 6.90642 18.2051 6.22934 17.2645C6.08557 17.0648 5.97792 16.8395 5.8446 16.6318C5.27402 15.7426 5.30179 14.859 5.85269 13.9723C6.1192 13.5433 6.37568 13.108 6.63276 12.6733C6.95421 12.1296 7.11639 11.5433 7.10648 10.9085C7.09758 10.3354 7.10244 9.7621 7.09752 9.18888C7.08983 8.30321 7.45395 7.62935 8.22965 7.18948C8.60051 6.97923 8.96678 6.75933 9.34728 6.56803C10.2104 6.1341 10.8532 5.49026 11.2901 4.62827C11.5334 4.1482 11.79 3.67515 12.1002 3.23124C12.5012 2.65748 13.0618 2.40655 13.7345 2.3733C14.1042 2.35502 14.4756 2.37006 15.0209 2.37006Z" fill="#DEE2F1"/>
<path fill-rule="evenodd" clip-rule="evenodd" d="M27.9074 28.3971C28.737 30.3823 29.5665 32.3674 30.3961 34.3527C30.5388 34.6939 30.6855 35.0335 30.8223 35.377C30.8702 35.4974 30.954 35.6299 30.8403 35.7555C30.7243 35.8837 30.592 35.8044 30.4662 35.7639C29.1657 35.3455 27.8626 34.9343 26.5666 34.502C26.3086 34.4159 26.2029 34.4712 26.0862 34.7107C25.4965 35.9216 24.8867 37.1228 24.2826 38.3268C24.2186 38.4543 24.1771 38.6041 23.9852 38.6029C23.7856 38.6016 23.7601 38.4366 23.7072 38.3108C22.6608 35.8212 21.618 33.3299 20.5763 30.8383C20.5425 30.7573 20.5286 30.6681 20.5054 30.5828C21.5676 30.2688 22.4053 29.5203 23.4031 29.0817C23.724 28.9407 24.0621 28.8758 24.413 28.8768C24.9175 28.8781 25.4223 28.8645 25.9261 28.8818C26.635 28.9064 27.306 28.8007 27.9074 28.3971Z" fill="#B5BDDB"/>
<path fill-rule="evenodd" clip-rule="evenodd" d="M10.8227 14.4312C10.8227 14.7115 10.828 14.9919 10.8207 15.2721C10.8165 15.434 10.8551 15.5207 11.0431 15.5173C11.5695 15.508 12.0962 15.5155 12.6228 15.5132C12.9101 15.5119 13.0624 15.3486 13.0721 15.0758C13.0867 14.6614 13.0891 14.2458 13.0729 13.8316C13.062 13.5488 12.9144 13.3764 12.6027 13.3801C12.0986 13.3861 11.5942 13.3884 11.0902 13.3786C10.882 13.3745 10.8119 13.458 10.8202 13.6577C10.8309 13.9151 10.8228 14.1733 10.8227 14.4312ZM10.0628 15.4681C10.0628 14.6255 10.0714 13.7828 10.0573 12.9405C10.0532 12.6964 10.1086 12.6087 10.3704 12.6149C11.1333 12.6329 11.897 12.6199 12.6603 12.6217C13.3061 12.6231 13.8036 13.0822 13.827 13.7223C13.8447 14.2048 13.8452 14.6889 13.8267 15.1712C13.8032 15.7817 13.325 16.2466 12.7144 16.2615C12.1984 16.2741 11.6812 16.279 11.1655 16.2588C10.9037 16.2487 10.8421 16.3416 10.8503 16.5867C10.8667 17.0803 10.8634 17.5754 10.8463 18.0691C10.8391 18.278 10.7591 18.4697 10.4994 18.4936C10.2913 18.5127 10.1502 18.4155 10.081 18.2287C10.0513 18.1486 10.0635 18.0514 10.0633 17.9621C10.0623 17.1307 10.0628 16.2994 10.0628 15.4681Z" fill="#464B6F"/>
<path fill-rule="evenodd" clip-rule="evenodd" d="M27.2021 14.4449C27.2021 14.7253 27.2094 15.0058 27.1995 15.2857C27.1931 15.4635 27.2642 15.5195 27.4361 15.517C27.9514 15.5093 28.4668 15.5133 28.9822 15.5143C29.2856 15.5148 29.4438 15.352 29.4527 15.0621C29.4653 14.6476 29.4697 14.2319 29.4509 13.8179C29.4379 13.5321 29.2762 13.3742 28.9682 13.3795C28.4754 13.3879 27.9821 13.3897 27.4894 13.3781C27.269 13.3728 27.1875 13.4528 27.1989 13.6714C27.2121 13.9286 27.202 14.1871 27.2021 14.4449ZM26.4421 15.4576C26.4421 14.615 26.4527 13.7723 26.4358 12.9301C26.4306 12.6698 26.5146 12.6109 26.76 12.6157C27.5231 12.6308 28.2867 12.6196 29.0501 12.6218C29.6903 12.6235 30.1857 13.0909 30.2069 13.7327C30.2225 14.204 30.2216 14.6766 30.2072 15.148C30.188 15.7771 29.7112 16.2484 29.0834 16.262C28.556 16.2735 28.028 16.2726 27.5006 16.2609C27.2953 16.2564 27.226 16.3233 27.2311 16.5296C27.243 17.0124 27.2419 17.4958 27.2316 17.9787C27.226 18.2373 27.1744 18.4954 26.8347 18.4914C26.537 18.4879 26.4385 18.2971 26.4402 18.019C26.4453 17.1652 26.4421 16.3114 26.4421 15.4576Z" fill="#464B6F"/>
<path fill-rule="evenodd" clip-rule="evenodd" d="M18.5083 15.564C18.4865 15.455 18.4858 15.3358 18.4392 15.2386C18.1681 14.6722 17.8944 14.1066 17.6043 13.5497C17.478 13.3072 17.2788 13.3095 17.1514 13.5571C16.8743 14.0954 16.6146 14.6428 16.3568 15.1907C16.2237 15.4736 16.2591 15.7602 16.3943 16.0344C16.6374 16.5274 16.8852 17.0181 17.1303 17.5101C17.1865 17.6228 17.2433 17.7428 17.3915 17.7362C17.5189 17.7306 17.5761 17.6265 17.628 17.5226C17.884 17.011 18.1429 16.5008 18.3988 15.9891C18.4649 15.857 18.5036 15.7168 18.5083 15.564ZM15.5262 15.5729C15.5082 15.369 15.5224 15.1742 15.6051 15.0009C15.9147 14.3534 16.2049 13.6936 16.5608 13.072C16.9427 12.405 17.9204 12.454 18.2722 13.1345C18.5658 13.7024 18.8422 14.2794 19.1221 14.8544C19.3473 15.3171 19.3488 15.7883 19.132 16.2515C18.8802 16.7899 18.6113 17.3204 18.3528 17.8558C18.1559 18.2637 17.8621 18.5151 17.3822 18.4986C16.9263 18.483 16.6377 18.2461 16.4467 17.8469C16.2096 17.3509 15.9606 16.8606 15.7106 16.3709C15.5803 16.1154 15.4997 15.8519 15.5262 15.5729Z" fill="#464B6F"/>
<path fill-rule="evenodd" clip-rule="evenodd" d="M22.9171 14.5281C22.8881 14.5288 22.8592 14.5294 22.8302 14.53C22.727 14.8801 22.6153 15.2279 22.5231 15.5807C22.4479 15.8689 22.1654 16.2554 22.3614 16.4204C22.5527 16.5814 22.9796 16.4596 23.303 16.4666C23.4436 16.4697 23.4705 16.4228 23.4293 16.2864C23.2526 15.7021 23.0869 15.1145 22.9171 14.5281ZM24.3464 18.4943C24.1232 18.4985 24.032 18.3482 23.9746 18.1677C23.9002 17.9328 23.8166 17.6988 23.7695 17.458C23.7302 17.2581 23.6285 17.209 23.4436 17.2136C23.0513 17.2235 22.6584 17.2237 22.2662 17.2136C22.0906 17.209 22.0013 17.2706 21.958 17.4426C21.8952 17.6921 21.8012 17.9338 21.7389 18.1833C21.6737 18.4443 21.5071 18.5416 21.265 18.4811C20.9873 18.4119 20.9362 18.1888 21.0032 17.9487C21.1659 17.3665 21.3461 16.7891 21.5183 16.2095C21.8341 15.1468 22.1494 14.084 22.4644 13.021C22.513 12.8569 22.5623 12.6802 22.7494 12.6358C22.9784 12.5815 23.178 12.6343 23.2537 12.8962C23.7449 14.5961 24.2375 16.2955 24.7231 17.997C24.8029 18.2766 24.6191 18.5027 24.3464 18.4943Z" fill="#464B6F"/>
<path fill-rule="evenodd" clip-rule="evenodd" d="M10.8228 14.4312C10.8229 14.1733 10.8309 13.9151 10.8202 13.6577C10.8119 13.458 10.8821 13.3745 11.0903 13.3786C11.5942 13.3884 12.0986 13.3861 12.6027 13.3801C12.9145 13.3764 13.062 13.5488 13.073 13.8316C13.0891 14.2458 13.0867 14.6614 13.0721 15.0758C13.0625 15.3486 12.9102 15.5119 12.6228 15.5132C12.0963 15.5155 11.5695 15.508 11.0431 15.5173C10.8551 15.5207 10.8165 15.434 10.8207 15.2721C10.828 14.9919 10.8228 14.7115 10.8228 14.4312Z" fill="#DEE2F1"/>
<path fill-rule="evenodd" clip-rule="evenodd" d="M27.2019 14.4449C27.2019 14.1871 27.2121 13.9286 27.1988 13.6714C27.1875 13.4528 27.2689 13.3728 27.4894 13.3781C27.982 13.3897 28.4754 13.3879 28.9682 13.3795C29.2761 13.3742 29.4378 13.5321 29.4508 13.8179C29.4696 14.2319 29.4653 14.6476 29.4527 15.0621C29.4438 15.352 29.2855 15.5148 28.9821 15.5143C28.4667 15.5133 27.9513 15.5093 27.436 15.517C27.2641 15.5195 27.193 15.4635 27.1994 15.2857C27.2094 15.0058 27.202 14.7253 27.2019 14.4449Z" fill="#DEE2F1"/>
<path fill-rule="evenodd" clip-rule="evenodd" d="M18.5082 15.564C18.5034 15.7168 18.4648 15.857 18.3987 15.9891C18.1427 16.5008 17.8839 17.011 17.6279 17.5226C17.576 17.6265 17.5188 17.7306 17.3914 17.7362C17.2432 17.7428 17.1863 17.6228 17.1302 17.5101C16.8851 17.0181 16.6373 16.5274 16.3942 16.0344C16.259 15.7602 16.2235 15.4736 16.3566 15.1907C16.6145 14.6428 16.8742 14.0954 17.1513 13.5571C17.2787 13.3095 17.4779 13.3072 17.6042 13.5497C17.8943 14.1066 18.168 14.6722 18.4391 15.2386C18.4856 15.3358 18.4864 15.455 18.5082 15.564Z" fill="#DEE2F1"/>
<path fill-rule="evenodd" clip-rule="evenodd" d="M22.9171 14.5281C23.0869 15.1145 23.2527 15.7021 23.4293 16.2864C23.4706 16.4228 23.4437 16.4697 23.3031 16.4666C22.9797 16.4596 22.5527 16.5814 22.3615 16.4204C22.1654 16.2554 22.448 15.8689 22.5232 15.5807C22.6154 15.2279 22.7271 14.8801 22.8303 14.53C22.8593 14.5294 22.8882 14.5288 22.9171 14.5281Z" fill="#DEE2F1"/>
</svg>
