<svg width="100" height="100" viewBox="0 0 100 100" fill="none" xmlns="http://www.w3.org/2000/svg">
<path d="M52.7361 97.2222H47.2639C29.2083 97.2222 11.7 83.3833 11.7 64.011C11.7 52.9416 15.8028 47.4055 15.8028 47.4055C15.8028 47.4055 14.4361 41.8694 14.4361 36.336C14.4361 19.7305 31.9445 5.8916 50 5.8916C68.0556 5.8916 85.5639 22.4972 85.5639 36.336C85.5639 41.8722 84.1972 47.4055 84.1972 47.4055C84.1972 47.4055 88.3 52.9416 88.3 64.011C88.3 83.3833 70.7917 97.2222 52.7361 97.2222Z" fill="#BF6952"/>
<path d="M82.4083 42.7193C82.4083 32.1443 73.8333 23.5693 63.2583 23.5693C58.1083 23.5693 53.4417 25.6138 50 28.9193C46.5583 25.611 41.8917 23.5693 36.7417 23.5693C26.1667 23.5693 17.5917 32.1443 17.5917 42.7193C17.5917 49.1332 20.7583 54.7971 25.5972 58.2721C24.2389 61.6388 23.4833 65.3443 23.4833 69.2332C23.4833 84.6916 35.3556 94.2749 49.9972 94.2749C64.6389 94.2749 76.5111 84.6916 76.5111 69.2332C76.5111 65.3416 75.7556 61.6388 74.3972 58.2721C79.2417 54.7971 82.4083 49.1332 82.4083 42.7193Z" fill="#D79E84"/>
<path d="M36.1111 55.5556C39.1793 55.5556 41.6667 51.8246 41.6667 47.2222C41.6667 42.6199 39.1793 38.8889 36.1111 38.8889C33.0428 38.8889 30.5555 42.6199 30.5555 47.2222C30.5555 51.8246 33.0428 55.5556 36.1111 55.5556Z" fill="#292F33"/>
<path d="M63.8889 55.5556C66.9571 55.5556 69.4444 51.8246 69.4444 47.2222C69.4444 42.6199 66.9571 38.8889 63.8889 38.8889C60.8206 38.8889 58.3333 42.6199 58.3333 47.2222C58.3333 51.8246 60.8206 55.5556 63.8889 55.5556Z" fill="#292F33"/>
<path d="M50 87.5C57.5416 87.5 63.9639 83.6666 66.375 78.3083C67.3722 76.0916 65.6805 73.6111 63.1611 73.6111H36.8389C34.3194 73.6111 32.6277 76.0916 33.625 78.3083C36.0361 83.6666 42.4583 87.5 50 87.5Z" fill="#642116"/>
<path d="M45.8333 64.0583C47.3674 64.0583 48.6111 62.7387 48.6111 61.111C48.6111 59.4833 47.3674 58.1638 45.8333 58.1638C44.2992 58.1638 43.0555 59.4833 43.0555 61.111C43.0555 62.7387 44.2992 64.0583 45.8333 64.0583Z" fill="#642116"/>
<path d="M54.1667 63.8888C55.7008 63.8888 56.9445 62.6452 56.9445 61.111C56.9445 59.5769 55.7008 58.3333 54.1667 58.3333C52.6326 58.3333 51.3889 59.5769 51.3889 61.111C51.3889 62.6452 52.6326 63.8888 54.1667 63.8888Z" fill="#642116"/>
<path d="M61.7833 0.472222C61.7833 0.472222 47.0528 -2.475 41.1611 6.36389C35.2695 15.2028 52.9445 9.31111 52.9445 9.31111C52.9445 9.31111 55.8917 0.472222 61.7833 0.472222Z" fill="#BF6952"/>
<path d="M25 88.8805C25.3472 90.711 29.9472 92.7944 29.9472 92.7944L27.7778 52.7666L22.2222 66.6666C22.2222 66.6666 24.6528 87.0472 25 88.8805ZM75 88.8805C74.4778 90.886 70.1389 92.7083 70.1389 92.7083L72.225 52.7666L77.7778 66.6666C77.7778 66.6666 75.5222 86.8749 75 88.8805Z" fill="#9B3C07"/>
<path d="M5.55554 100H27.7778L24.9667 56.0194L13.8639 44.4417L5.55554 100ZM94.4444 100H72.2222L75.0055 56.0194L86.1083 44.4417L94.4444 100Z" fill="#BF6952"/>
<path d="M85.0222 41.8138C85.0222 41.8138 85.5778 34.9361 88.3472 31.9749C91.9639 28.1055 96.3194 31.1027 95.9833 36.5305C94.7611 56.2138 90.4389 61.6222 84.8222 64.8527C79.2083 68.0861 71.5194 67.4805 63.3833 59.6527C55.2472 51.8249 51.8333 47.0027 50.8611 43.5499C49.8889 40.0944 53.5167 37.2888 56.6111 39.0472C59.3944 40.6277 63.5833 45.4583 63.5833 45.4583C63.5833 45.4583 58.175 37.9694 57.4083 35.0749C56.3472 31.0722 61.0806 28.6833 63.65 30.8888C66.1833 33.0638 71.4056 39.6555 71.4056 39.6555C71.4056 39.6555 66.9444 32.8111 66.5333 29.5138C66.1278 26.2583 69.975 23.3805 73.375 26.2194C76.7722 29.0611 82.2333 37.2499 85.0222 41.8138ZM14.9778 41.8138C14.9778 41.8138 14.4222 34.9361 11.6528 31.9749C8.03611 28.1055 3.68056 31.1027 4.01667 36.5305C5.23889 56.2138 9.56111 61.6222 15.1778 64.8527C20.7917 68.0861 28.4806 67.4805 36.6167 59.6527C44.7528 51.8249 48.1667 47.0027 49.1389 43.5499C50.1111 40.0944 46.4833 37.2888 43.3889 39.0472C40.6056 40.6277 36.4167 45.4583 36.4167 45.4583C36.4167 45.4583 41.825 37.9694 42.5917 35.0749C43.6528 31.0722 38.9194 28.6833 36.35 30.8888C33.8167 33.0638 28.5944 39.6555 28.5944 39.6555C28.5944 39.6555 33.0556 32.8111 33.4667 29.5138C33.8722 26.2583 30.025 23.3805 26.625 26.2194C23.225 29.0583 17.7667 37.2499 14.9778 41.8138Z" fill="#D79E84"/>
<path d="M78.0055 68.0888C72.9222 68.0888 67.5222 65.5638 62.4194 60.6555C54.6555 53.1888 50.6778 48.0277 49.525 43.9277C48.9222 41.7861 49.6194 39.6111 51.3472 38.2583C52.9917 36.9694 55.1305 36.7583 57.0028 37.6833C56.5667 36.8277 56.2305 36.05 56.0667 35.4333C55.4389 33.0694 56.3167 30.8055 58.3528 29.5277C60.3694 28.2611 62.8611 28.3833 64.5555 29.8388C64.7889 30.0416 65.0444 30.275 65.3111 30.5361C65.2389 30.2388 65.1833 29.9555 65.15 29.6888C64.8805 27.5333 66.0028 25.375 67.9389 24.3166C69.9583 23.2166 72.3194 23.5361 74.2583 25.1555C77.3694 27.7555 81.7083 34.075 84.2305 37.9638C84.75 35.6472 85.6833 32.7861 87.3278 31.025C89.2194 29 91.5944 28.325 93.6944 29.2277C96.1361 30.2805 97.5778 33.1805 97.3639 36.6138C96.1528 56.1444 91.9305 62.3611 85.5083 66.0583C83.1555 67.4194 80.6194 68.0888 78.0055 68.0888ZM54.6111 39.8944C54.0639 39.8944 53.525 40.0777 53.0583 40.4444C52.2222 41.1 51.9 42.1194 52.1944 43.175C53.1806 46.675 57.1528 51.7388 64.3417 58.6527C71.2139 65.2583 78.2361 67.0333 84.1278 63.65C88.7333 60.9972 93.3361 56.7111 94.5944 36.4444C94.7528 33.8861 93.7055 32.2583 92.5944 31.7805C91.6083 31.3472 90.4528 31.7583 89.3583 32.925C87.3667 35.0583 86.55 40.1472 86.4055 41.9277C86.3555 42.5277 85.9278 43.0277 85.3417 43.1666C84.7583 43.3083 84.15 43.05 83.8361 42.5388C81.1611 38.1638 75.7611 30.0277 72.4805 27.2888C71.0361 26.0833 69.85 26.4361 69.2722 26.7555C68.325 27.2722 67.7778 28.3111 67.9083 29.3444C68.2139 31.7888 71.375 37.0694 72.5694 38.9C72.975 39.5222 72.8194 40.35 72.2167 40.7861C71.6194 41.2194 70.7778 41.1055 70.3167 40.5222C70.2639 40.4583 65.1472 34.0083 62.7417 31.9472C61.8722 31.1972 60.6167 31.3861 59.825 31.8805C59.3528 32.1777 58.3028 33.0472 58.7472 34.7222C59.3222 36.8916 63.2417 42.625 64.7055 44.65C65.1389 45.2527 65.025 46.0916 64.4417 46.5527C63.8611 47.0083 63.0167 46.9361 62.5305 46.375C61.4111 45.0805 58.0361 41.4583 55.925 40.2611C55.5 40.0138 55.0528 39.8944 54.6111 39.8944Z" fill="#BF6952"/>
<path d="M21.9945 68.0888C19.3778 68.0888 16.8445 67.4194 14.4834 66.0611C8.06392 62.3638 3.8417 56.15 2.63058 36.6166C2.4167 33.1833 3.85836 30.2833 6.30281 29.2305C8.38614 28.3305 10.7723 29 12.6667 31.0277C14.3111 32.7861 15.2473 35.6472 15.7667 37.9666C18.2889 34.0805 22.6223 27.7611 25.7389 25.1583C27.6806 23.5333 30.0417 23.2166 32.0556 24.3194C33.9945 25.375 35.1167 27.5361 34.8445 29.6916C34.8111 29.9583 34.7556 30.2416 34.6834 30.5388C34.9528 30.2777 35.2056 30.0416 35.4417 29.8416C37.1306 28.3916 39.6278 28.2666 41.6417 29.5305C43.6806 30.8083 44.5584 33.0722 43.9334 35.4361C43.7695 36.0527 43.4334 36.8305 43 37.6888C44.8667 36.7666 47.0084 36.975 48.65 38.2638C50.3806 39.6166 51.0778 41.7916 50.475 43.9333C49.3195 48.0388 45.3417 53.1972 37.5778 60.6611C32.4778 65.5638 27.0778 68.0888 21.9945 68.0888ZM8.20558 31.6138C7.92781 31.6138 7.66114 31.6694 7.40003 31.7805C6.2917 32.2583 5.24447 33.8861 5.40281 36.4444C6.66114 56.7111 11.2639 60.9972 15.8695 63.65C21.7611 67.0416 28.7806 65.2638 35.6528 58.6527C42.8417 51.7416 46.8139 46.6777 47.8 43.175C48.0973 42.1194 47.775 41.0972 46.9389 40.4444C46.0973 39.7833 45.025 39.7111 44.0723 40.2555C41.9584 41.4583 38.5861 45.075 37.4639 46.3694C36.975 46.9305 36.1306 47.0055 35.5528 46.5472C34.9723 46.0861 34.8556 45.2472 35.2889 44.6444C36.75 42.6194 40.6723 36.8861 41.25 34.7166C41.6945 33.0416 40.6417 32.1722 40.1695 31.875C39.3806 31.3777 38.1306 31.1861 37.2556 31.9416C34.8528 34.0055 29.7361 40.4527 29.6861 40.5166C29.225 41.0944 28.3889 41.2138 27.7861 40.7805C27.1834 40.3472 27.0278 39.5166 27.4334 38.8944C28.625 37.0638 31.7889 31.7805 32.0917 29.3388C32.2195 28.3055 31.6723 27.2666 30.7278 26.75C30.15 26.4361 28.9611 26.0805 27.5223 27.2833C24.6611 29.6722 19.6306 36.8638 16.1639 42.5333C15.85 43.0472 15.25 43.3055 14.6584 43.1611C14.075 43.0222 13.6445 42.5222 13.5945 41.9222C13.45 40.1416 12.6334 35.0527 10.6417 32.9194C9.83058 32.0611 8.9917 31.6138 8.20558 31.6138Z" fill="#BF6952"/>
<path d="M72.1889 27.1056C72.2889 27.1779 72.3805 27.2029 72.4833 27.289C75.7639 30.0279 81.1639 38.164 83.8389 42.539C84.0889 42.9445 84.5305 43.1223 84.9889 43.1362C85.5889 40.214 85.7472 36.7945 85.7278 33.539C85.0416 34.9779 84.5472 36.5584 84.2333 37.964C81.7111 34.0751 77.3722 27.7556 74.2611 25.1556C72.4111 23.6084 70.1833 23.289 68.2305 24.2112C70.0972 24.839 71.3416 25.9195 72.1889 27.1056ZM16.1611 42.539C19.6278 36.8668 24.6583 29.6779 27.5194 27.289C27.7111 27.1279 27.8833 27.0612 28.0639 26.9529C28.8944 25.8418 30.0944 24.8445 31.8389 24.2418C29.8722 23.2723 27.6111 23.589 25.7361 25.1584C22.6194 27.7612 18.2833 34.0806 15.7639 37.9668C15.4694 36.6556 15.0222 35.1862 14.4083 33.8279C14.4 36.9973 14.5666 40.2945 15.1444 43.1306C15.5555 43.0751 15.9389 42.9029 16.1611 42.539Z" fill="#9B3C07"/>
</svg>
