<svg width="100" height="100" viewBox="0 0 100 100" fill="none" xmlns="http://www.w3.org/2000/svg">
<g clip-path="url(#clip0_2709_1949)">
<path d="M19.7742 61.5818C25.2418 60.1881 28.0355 52.629 26.0139 44.698C23.9923 36.7671 17.9211 31.4676 12.4534 32.8613C6.98571 34.255 4.1921 41.8141 6.21367 49.745C8.23525 57.676 14.3065 62.9755 19.7742 61.5818Z" fill="#D79E84"/>
<path d="M93.7883 49.7485C95.8099 41.8175 93.0163 34.2584 87.5486 32.8647C82.0809 31.471 76.0097 36.7705 73.9881 44.7015C71.9665 52.6325 74.7601 60.1916 80.2278 61.5853C85.6955 62.979 91.7667 57.6795 93.7883 49.7485Z" fill="#D79E84"/>
<path d="M52.7361 97.2222H47.2639C29.2083 97.2222 11.7 83.3833 11.7 64.011C11.7 52.9416 15.8028 47.4055 15.8028 47.4055C15.8028 47.4055 14.4361 41.8694 14.4361 36.336C14.4361 19.7305 31.9445 5.8916 50 5.8916C68.0556 5.8916 85.5639 22.4972 85.5639 36.336C85.5639 41.8722 84.1972 47.4055 84.1972 47.4055C84.1972 47.4055 88.3 52.9416 88.3 64.011C88.3 83.3833 70.7917 97.2222 52.7361 97.2222Z" fill="#BF6952"/>
<path d="M82.4083 42.7193C82.4083 32.1443 73.8333 23.5693 63.2583 23.5693C58.1083 23.5693 53.4417 25.6138 50 28.9193C46.5583 25.611 41.8917 23.5693 36.7417 23.5693C26.1667 23.5693 17.5917 32.1443 17.5917 42.7193C17.5917 49.1332 20.7583 54.7971 25.5972 58.2721C24.2389 61.6388 23.4833 65.3443 23.4833 69.2332C23.4833 84.6916 35.3556 94.2749 49.9972 94.2749C64.6389 94.2749 76.5111 84.6916 76.5111 69.2332C76.5111 65.3416 75.7556 61.6388 74.3972 58.2721C79.2417 54.7971 82.4083 49.1332 82.4083 42.7193Z" fill="#D79E84"/>
<path d="M36.1111 55.5556C39.1793 55.5556 41.6667 51.8246 41.6667 47.2222C41.6667 42.6199 39.1793 38.8889 36.1111 38.8889C33.0428 38.8889 30.5555 42.6199 30.5555 47.2222C30.5555 51.8246 33.0428 55.5556 36.1111 55.5556Z" fill="#292F33"/>
<path d="M63.8889 55.5556C66.9571 55.5556 69.4444 51.8246 69.4444 47.2222C69.4444 42.6199 66.9571 38.8889 63.8889 38.8889C60.8206 38.8889 58.3333 42.6199 58.3333 47.2222C58.3333 51.8246 60.8206 55.5556 63.8889 55.5556Z" fill="#292F33"/>
<path d="M50 87.5C57.5416 87.5 63.9639 83.6666 66.375 78.3083C67.3722 76.0916 65.6805 73.6111 63.1611 73.6111H36.8389C34.3194 73.6111 32.6277 76.0916 33.625 78.3083C36.0361 83.6666 42.4583 87.5 50 87.5Z" fill="#642116"/>
<path d="M45.8333 64.0583C47.3674 64.0583 48.6111 62.7387 48.6111 61.111C48.6111 59.4833 47.3674 58.1638 45.8333 58.1638C44.2992 58.1638 43.0555 59.4833 43.0555 61.111C43.0555 62.7387 44.2992 64.0583 45.8333 64.0583Z" fill="#642116"/>
<path d="M54.1667 63.8888C55.7008 63.8888 56.9445 62.6452 56.9445 61.111C56.9445 59.5769 55.7008 58.3333 54.1667 58.3333C52.6326 58.3333 51.3889 59.5769 51.3889 61.111C51.3889 62.6452 52.6326 63.8888 54.1667 63.8888Z" fill="#642116"/>
<path d="M61.7833 0.472466C61.7833 0.472466 47.0528 -2.47476 41.1611 6.36413C35.2694 15.203 52.9444 9.31135 52.9444 9.31135C52.9444 9.31135 55.8917 0.472466 61.7833 0.472466ZM100 100L61.1111 88.8891L69.4444 72.2225L100 77.778V100ZM0 100L38.8889 88.8891L30.5556 72.2225L0 77.778V100Z" fill="#BF6952"/>
<path d="M34.3584 69.4472C34.3584 69.4472 34.6861 65.9472 34.6195 61.8944C34.5334 56.6 27.4472 53.9722 25.2445 58.9444C22.5528 65.0222 19.1667 79.6055 21.1639 85.7667C23.1611 91.9278 28.1945 96.7917 39.4806 96.4444C50.7667 96.0972 60.575 93.9278 63.6139 92.0167C66.6528 90.1055 65.9611 85.4111 62.4861 84.6389C59.3611 83.9444 50.7667 85.3333 50.7667 85.3333C50.7667 85.3333 59.8028 83.4055 62.3111 81.775C65.7833 79.5194 63.8722 74.5694 60.4889 74.4833C57.15 74.3972 48.8556 75.7861 48.8556 75.7861C48.8556 75.7861 56.7556 73.7028 59.2722 71.5333C61.7584 69.3917 60.8333 64.675 56.4083 64.5028C51.9833 64.3306 38.525 67.1889 34.3584 69.4472Z" fill="#D79E84"/>
<path d="M38.35 97.8527C28.5722 97.8527 22.35 93.9333 19.8444 86.1972C17.6055 79.2889 21.4 64.2 23.975 58.3833C25.1361 55.7555 27.5861 54.4639 30.3555 55.0361C33.1194 55.5944 35.9472 58.1222 36.0083 61.875C36.0416 63.9416 35.9777 65.8527 35.9028 67.2555C41.6139 65.1055 52.475 62.925 56.4611 63.1139C58.9916 63.2139 60.9555 64.5639 61.7111 66.7305C62.4416 68.8139 61.825 71.1694 60.1777 72.5861C59.975 72.7583 59.7444 72.9333 59.4916 73.1055C59.8666 73.0944 60.2166 73.0916 60.5222 73.0972C62.7527 73.1555 64.6833 74.7333 65.3305 77.025C65.9833 79.3416 65.1166 81.6083 63.0666 82.9416C62.9139 83.0416 62.7444 83.1388 62.5527 83.2388L62.7833 83.2861C64.9139 83.7611 66.4666 85.4055 66.8444 87.5805C67.2277 89.8 66.2472 92.0055 64.35 93.1944C61.2083 95.1722 51.4389 97.4694 39.5222 97.8361C39.125 97.8444 38.7333 97.8527 38.35 97.8527ZM29.1333 57.6889C28.3166 57.6889 27.1805 57.9972 26.5139 59.5055C23.6972 65.8666 20.7 79.8222 22.4861 85.3389C24.6972 92.1611 30.2472 95.3833 39.4389 95.0555C50.3055 94.7222 60.0611 92.6083 62.875 90.8416C64.0139 90.1222 64.2611 88.9277 64.1083 88.0472C63.925 86.9888 63.2055 86.2222 62.1833 85.9944C59.8277 85.4722 53.3055 86.3305 50.9861 86.7027C50.2472 86.8416 49.5389 86.3305 49.4 85.5889C49.2611 84.8472 49.7389 84.1333 50.475 83.975C52.9194 83.4527 59.675 81.8333 61.5527 80.6111C63.0055 79.6666 62.8083 78.3139 62.6555 77.775C62.4027 76.8805 61.6055 75.9 60.45 75.8694C57.1889 75.7333 49.1639 77.1388 49.0833 77.1527C48.3444 77.2805 47.6528 76.8 47.4972 76.075C47.3416 75.3472 47.7833 74.6277 48.5 74.4389C50.6111 73.8805 56.5 72.0805 58.3639 70.475C59.15 69.7972 59.4444 68.6555 59.0889 67.6389C58.8694 67.0139 58.2222 65.9583 56.3527 65.8833C52.3194 65.7166 39.0055 68.5055 35.0194 70.6638C34.5639 70.9055 34.0166 70.8861 33.5916 70.6027C33.1639 70.3194 32.925 69.8277 32.9722 69.3138C32.975 69.2805 33.2916 65.8389 33.2277 61.9139C33.1916 59.6333 31.475 58.0916 29.8 57.7527C29.6305 57.7194 29.4 57.6889 29.1333 57.6889Z" fill="#BF6952"/>
<path d="M65.6417 69.4472C65.6417 69.4472 65.3139 65.9472 65.3806 61.8944C65.4667 56.6 72.5528 53.9722 74.7556 58.9444C77.4472 65.0222 80.8333 79.6055 78.8361 85.7667C76.8389 91.9278 71.8056 96.7917 60.5194 96.4444C49.2333 96.0972 39.425 93.9278 36.3861 92.0167C33.3472 90.1055 34.0389 85.4111 37.5139 84.6389C40.6389 83.9444 49.2333 85.3333 49.2333 85.3333C49.2333 85.3333 40.1972 83.4055 37.6889 81.775C34.2167 79.5194 36.1278 74.5694 39.5111 74.4833C42.85 74.3972 51.1444 75.7861 51.1444 75.7861C51.1444 75.7861 43.2444 73.7028 40.7278 71.5333C38.2417 69.3917 39.1667 64.675 43.5917 64.5028C48.0167 64.3306 61.475 67.1889 65.6417 69.4472Z" fill="#D79E84"/>
<path d="M61.65 97.8528C61.2639 97.8528 60.875 97.8445 60.475 97.8334C48.5584 97.4667 38.7889 95.1695 35.6472 93.1917C33.75 92.0001 32.7695 89.7945 33.1556 87.5778C33.5306 85.4028 35.0861 83.7584 37.2139 83.2834L37.4445 83.2362C37.2584 83.1362 37.0861 83.0389 36.9334 82.9389C34.8806 81.6084 34.0139 79.3389 34.6695 77.0223C35.3167 74.7306 37.25 73.1501 39.4778 73.0945C39.7861 73.0889 40.1334 73.0917 40.5084 73.1028C40.2556 72.9306 40.025 72.7584 39.8195 72.5834C38.175 71.1639 37.5584 68.8112 38.2861 66.7278C39.0417 64.5639 41.0056 63.2112 43.5361 63.1112C47.5167 62.9751 58.3861 65.1056 64.0945 67.2528C64.0222 65.8501 63.9556 63.9417 63.9889 61.8723C64.05 58.1223 66.8778 55.5917 69.6389 55.0334C72.4278 54.4612 74.8584 55.7528 76.0222 58.3806C78.6 64.1973 82.3917 79.2834 80.1528 86.1945C77.65 93.9306 71.4278 97.8501 61.65 97.8528ZM39.9167 85.8278C39.0722 85.8278 38.3417 85.8778 37.8195 85.9945C36.7972 86.2223 36.0778 86.9889 35.8945 88.0473C35.7417 88.9251 35.9861 90.1223 37.1278 90.8417C39.9389 92.6084 49.6972 94.7195 60.5639 95.0556C69.7306 95.3362 75.3084 92.1612 77.5167 85.3389C79.3056 79.8251 76.3028 65.8667 73.4889 59.5056C72.6028 57.5056 70.8972 57.6139 70.1972 57.7556C68.5222 58.0945 66.8084 59.6362 66.7722 61.9167C66.7111 65.8417 67.025 69.2834 67.0278 69.3195C67.075 69.8306 66.8389 70.3223 66.4084 70.6056C65.9806 70.8917 65.4278 70.9112 64.9806 70.6667C60.9945 68.5112 47.7945 65.7056 43.6472 65.8862C41.775 65.9584 41.1278 67.0167 40.9111 67.6417C40.5584 68.6556 40.8472 69.7973 41.6361 70.4778C43.5 72.0862 49.3889 73.8862 51.5 74.4417C52.2167 74.6306 52.6584 75.3501 52.5028 76.0778C52.3445 76.8028 51.6361 77.2723 50.9139 77.1556C50.8306 77.1417 42.6861 75.7862 39.5472 75.8723C38.3917 75.9028 37.5917 76.8806 37.3389 77.7778C37.1861 78.3139 36.9917 79.6695 38.4445 80.6139C40.325 81.8334 47.0778 83.4556 49.5222 83.9778C50.2584 84.1362 50.7361 84.8501 50.5972 85.5917C50.4584 86.3334 49.7472 86.8334 49.0111 86.7056C47.2111 86.4112 42.8639 85.8278 39.9167 85.8278Z" fill="#BF6952"/>
<path d="M26.7861 59.0694C25.9806 58.5166 25.2278 57.95 24.5389 57.3666C24.3278 57.6805 24.1361 58.0138 23.9723 58.3833C22.4945 61.7194 20.6306 68.0972 19.7195 74.2388L13.7528 75.4888L22.0806 77.9305L22.5111 74.4083C23.3334 68.9277 24.9417 63.0444 26.5084 59.5055C26.5917 59.325 26.6973 59.2166 26.7861 59.0694ZM80.3223 74.5083C79.4278 68.2861 77.525 61.7666 76.025 58.3833C75.8556 57.9972 75.65 57.65 75.425 57.325C74.7195 57.925 73.9917 58.5027 73.2334 59.0583C73.3195 59.2 73.4084 59.3361 73.4861 59.5055C75.3973 63.8222 77.3889 71.6333 77.9139 77.9333L86.3056 75.4888L80.3223 74.5083Z" fill="#9B3C07"/>
</g>
<defs>
<clipPath id="clip0_2709_1949">
<rect width="100" height="100" fill="white"/>
</clipPath>
</defs>
</svg>
