<svg width="100" height="100" viewBox="0 0 100 100" fill="none" xmlns="http://www.w3.org/2000/svg">
<path d="M19.4444 33.3333C28.6492 33.3333 36.1111 25.8714 36.1111 16.6667C36.1111 7.46192 28.6492 0 19.4444 0C10.2397 0 2.77777 7.46192 2.77777 16.6667C2.77777 25.8714 10.2397 33.3333 19.4444 33.3333Z" fill="#2D344A"/>
<path d="M80.5556 33.3333C89.7603 33.3333 97.2222 25.8714 97.2222 16.6667C97.2222 7.46192 89.7603 0 80.5556 0C71.3508 0 63.8889 7.46192 63.8889 16.6667C63.8889 25.8714 71.3508 33.3333 80.5556 33.3333Z" fill="#2D344A"/>
<path d="M19.4444 27.7779C25.5809 27.7779 30.5555 22.8033 30.5555 16.6668C30.5555 10.5303 25.5809 5.55566 19.4444 5.55566C13.3079 5.55566 8.33331 10.5303 8.33331 16.6668C8.33331 22.8033 13.3079 27.7779 19.4444 27.7779Z" fill="#464B6F"/>
<path d="M80.5556 27.7779C86.6921 27.7779 91.6667 22.8033 91.6667 16.6668C91.6667 10.5303 86.6921 5.55566 80.5556 5.55566C74.4191 5.55566 69.4445 10.5303 69.4445 16.6668C69.4445 22.8033 74.4191 27.7779 80.5556 27.7779Z" fill="#464B6F"/>
<path d="M97.2222 61.1111C97.2222 80.5556 79.5139 94.4444 50 94.4444C20.4861 94.4444 2.77777 80.5556 2.77777 61.1111C2.77777 61.1111 6.4111 0 50 0C93.5889 0 97.2222 61.1111 97.2222 61.1111Z" fill="#8991AD"/>
<path d="M50 100C59.2047 100 66.6666 92.5382 66.6666 83.3334C66.6666 74.1287 59.2047 66.6667 50 66.6667C40.7952 66.6667 33.3333 74.1287 33.3333 83.3334C33.3333 92.5382 40.7952 100 50 100Z" fill="#B5BDDB"/>
<path d="M50 94.4444C56.1365 94.4444 61.1111 89.4698 61.1111 83.3333C61.1111 77.1968 56.1365 72.2222 50 72.2222C43.8635 72.2222 38.8889 77.1968 38.8889 83.3333C38.8889 89.4698 43.8635 94.4444 50 94.4444Z" fill="#464B6F"/>
<path d="M57.525 35.15C69.8972 27.4389 88.8889 47.2222 74.8666 62.9722C65.175 73.8639 55.5555 69.4444 55.5555 69.4444C55.5555 69.4444 48.2333 40.9444 57.525 35.15ZM42.4083 35.1805C30.0361 27.4666 11.0444 47.25 25.0639 63.0028C34.7583 73.8916 44.3777 69.4722 44.3777 69.4722C44.3777 69.4722 51.7 40.9722 42.4083 35.1805V35.1805Z" fill="#2D344A"/>
<path d="M30.5555 47.2223C30.5555 47.2223 30.5555 41.6667 36.1111 41.6667C41.6667 41.6667 41.6667 47.2223 41.6667 47.2223V52.7779C41.6667 52.7779 41.6667 58.3334 36.1111 58.3334C30.5555 58.3334 30.5555 52.7779 30.5555 52.7779V47.2223Z" fill="#464B6F"/>
<path d="M50 55.5557C50 55.5557 19.4445 65.7973 19.4445 75.0001C19.4445 84.2029 26.9083 91.6668 36.1111 91.6668C41.9111 91.6668 47.0139 88.7029 50 84.2084C52.9833 88.7029 58.0889 91.6668 63.8889 91.6668C73.0917 91.6668 80.5556 84.2029 80.5556 75.0001C80.5556 65.7973 50 55.5557 50 55.5557Z" fill="#B5BDDB"/>
<path d="M58.3333 47.2223C58.3333 47.2223 58.3333 41.6667 63.8889 41.6667C69.4444 41.6667 69.4444 47.2223 69.4444 47.2223V52.7779C69.4444 52.7779 69.4444 58.3334 63.8889 58.3334C58.3333 58.3334 58.3333 52.7779 58.3333 52.7779V47.2223Z" fill="#464B6F"/>
<path d="M36.4583 69.4444C31.9472 72.2222 45.4861 80.5555 50 80.5555C54.5139 80.5555 68.0528 72.2222 63.5389 69.4444C59.025 66.6666 40.9722 66.6666 36.4583 69.4444V69.4444Z" fill="#2D344A"/>
</svg>
