<svg width="21" height="21" viewBox="0 0 21 21" fill="none" xmlns="http://www.w3.org/2000/svg">
<path d="M10.5 21C16.299 21 21 16.299 21 10.5C21 4.70101 16.299 0 10.5 0C4.70101 0 0 4.70101 0 10.5C0 16.299 4.70101 21 10.5 21Z" fill="#B5BDDB"/>
<path d="M15.9451 13.7835C15.8413 13.6896 15.6861 13.6838 15.5747 13.7666C15.552 13.7835 13.2869 15.4583 10.4997 15.4583C7.71955 15.4583 5.44689 13.7835 5.42472 13.7666C5.3133 13.6838 5.15814 13.6908 5.0543 13.7835C4.95105 13.8768 4.92772 14.0308 4.99947 14.1498C5.07472 14.2753 6.87605 17.2083 10.4997 17.2083C14.1234 17.2083 15.9253 14.2753 16 14.1498C16.0717 14.0303 16.049 13.8768 15.9451 13.7835V13.7835Z" fill="#664500"/>
<path d="M10.4996 15.5114C10.4133 15.5114 10.3299 15.505 10.2441 15.502V18.1364H10.7546V15.5015C10.67 15.5044 10.586 15.5114 10.4996 15.5114Z" fill="#464B6F"/>
<path d="M12.8337 15.1668C12.8431 15.1644 11.9879 15.3873 11.4069 15.4503C11.1934 15.4748 10.977 15.4946 10.7553 15.5022V18.1371H11.6671C12.3087 18.1371 12.8337 17.6121 12.8337 16.9704V15.1668ZM8.16707 15.1668C8.15773 15.1644 9.0129 15.3873 9.5939 15.4503C9.8074 15.4748 10.0238 15.4946 10.2455 15.5022V18.1371H9.33374C8.69207 18.1371 8.16707 17.6121 8.16707 16.9704V15.1668Z" fill="white"/>
<path d="M15.9453 13.7837C15.8415 13.6898 15.6863 13.684 15.5749 13.7668C15.5574 13.7796 14.2571 14.7398 12.4185 15.2076C12.16 15.2735 11.3311 15.4584 10.5016 15.459C9.67096 15.459 8.83971 15.2735 8.5813 15.2076C6.74263 14.7398 5.44238 13.7796 5.42488 13.7668C5.31405 13.684 5.1583 13.6898 5.05446 13.7837C4.95063 13.877 4.92788 14.0305 4.99963 14.15C5.05621 14.2445 6.09921 15.9391 8.16655 16.764V15.697C8.15721 15.6947 9.01238 15.9175 9.59338 15.9805C9.80688 16.005 10.0233 16.0249 10.245 16.0324C10.3301 16.0354 10.4135 16.0418 10.4999 16.0418C10.5862 16.0418 10.6696 16.0354 10.7554 16.0324C10.977 16.0249 11.1935 16.0056 11.407 15.9805C11.988 15.9175 12.8431 15.6947 12.8338 15.697V16.764C14.9011 15.9391 15.9441 14.2445 16.0007 14.15C16.0719 14.0305 16.0491 13.877 15.9453 13.7837V13.7837ZM15.5305 8.18078C15.5305 9.18062 14.9834 9.99145 14.3079 9.99145C13.633 9.99145 13.0852 9.18062 13.0852 8.18078C13.0852 7.18095 13.6324 6.37012 14.3079 6.37012C14.9834 6.37012 15.5305 7.18095 15.5305 8.18078ZM5.51646 8.18078C5.51646 9.18062 6.06363 9.99145 6.73913 9.99145C7.41405 9.99145 7.9618 9.18062 7.9618 8.18078C7.9618 7.18095 7.41463 6.37012 6.73913 6.37012C6.06363 6.37012 5.51646 7.18095 5.51646 8.18078Z" fill="#464B6F"/>
<path d="M20.3048 5.61579C20.2051 5.51896 19.5658 5.77562 18.9188 5.44604C17.5842 4.76587 14.2113 4.10962 12.0157 5.66537C11.7806 5.83162 10.7983 5.85962 10.5235 5.84796C10.2488 5.86021 9.26642 5.83221 9.03134 5.66537C6.83626 4.10962 3.46342 4.76587 2.12876 5.44604C1.48184 5.77562 0.842505 5.51896 0.742755 5.61579C0.598672 5.75521 0.598672 6.31346 0.743339 6.45346C0.886839 6.59287 1.60492 6.75387 1.74784 7.17212C1.89192 7.59096 1.89309 10.0643 3.03876 10.9195C4.11151 11.7198 6.61401 11.9607 8.20009 11.0583C9.58376 10.2714 9.53534 8.61471 9.78909 7.62771C9.87951 7.27596 10.1344 7.09862 10.5241 7.09862C10.9138 7.09862 11.1687 7.27596 11.2591 7.62771C11.5128 8.61412 11.4638 10.2714 12.8481 11.0583C14.4342 11.9601 16.9367 11.7192 18.0088 10.9195C19.1551 10.0649 19.1563 7.59096 19.2998 7.17212C19.4427 6.75387 20.1608 6.59229 20.3043 6.45346C20.4489 6.31346 20.4495 5.75521 20.3048 5.61579ZM8.52501 7.74496C8.48009 8.38954 8.36517 9.62737 7.59342 10.0666C7.12034 10.3361 6.50376 10.5 5.85859 10.5C5.14401 10.5 4.15292 10.2976 3.76559 10.0089C3.28142 9.64779 3.09709 8.16146 3.02767 7.60554C2.98334 7.25146 2.86434 6.38637 3.25401 6.25337C3.87234 6.04279 4.73509 5.87829 5.61767 5.87829C6.02192 5.87829 7.37992 5.90337 8.04142 6.31054C8.62767 6.67046 8.55009 7.39029 8.52501 7.74496ZM18.0205 7.59737C17.9511 8.15387 17.7668 9.64779 17.2826 10.0089C16.8953 10.2976 15.9048 10.5 15.1902 10.5C14.5444 10.5 13.9278 10.3361 13.4542 10.0666C12.6824 9.62795 12.5675 8.39771 12.5226 7.75312C12.4981 7.39846 12.4199 6.67337 13.0062 6.31346C13.6683 5.90629 15.0257 5.87829 15.4299 5.87829C16.3125 5.87829 17.1747 6.03987 17.7936 6.25046C18.1833 6.38346 18.0648 7.24329 18.0205 7.59737Z" fill="#464B6F"/>
</svg>
