<svg width="1079" height="1276" viewBox="0 0 1079 1276" fill="none" xmlns="http://www.w3.org/2000/svg">
<g filter="url(#filter0_f_120_9)">
<path opacity="0.6" d="M417.652 844.389C482.629 844.389 535.304 791.714 535.304 726.737C535.304 661.76 482.629 609.085 417.652 609.085C352.675 609.085 300 661.76 300 726.737C300 791.714 352.675 844.389 417.652 844.389Z" fill="#DD273B"/>
<path opacity="0.6" d="M417.652 844.389C482.629 844.389 535.304 791.714 535.304 726.737C535.304 661.76 482.629 609.085 417.652 609.085C352.675 609.085 300 661.76 300 726.737C300 791.714 352.675 844.389 417.652 844.389Z" fill="#DD273B"/>
<path opacity="0.6" d="M660.931 872.307C725.909 872.307 778.583 819.632 778.583 754.655C778.583 689.678 725.909 637.003 660.931 637.003C595.954 637.003 543.279 689.678 543.279 754.655C543.279 819.632 595.954 872.307 660.931 872.307Z" fill="#DD273B"/>
<path opacity="0.6" d="M660.931 872.307C725.909 872.307 778.583 819.632 778.583 754.655C778.583 689.678 725.909 637.003 660.931 637.003C595.954 637.003 543.279 689.678 543.279 754.655C543.279 819.632 595.954 872.307 660.931 872.307Z" fill="#0037FA"/>
<path opacity="0.6" d="M549.263 976C614.241 976 666.915 923.325 666.915 858.348C666.915 793.37 614.241 740.696 549.263 740.696C484.286 740.696 431.611 793.37 431.611 858.348C431.611 923.325 484.286 976 549.263 976Z" fill="#DD273B"/>
<path opacity="0.6" d="M549.263 976C614.241 976 666.915 923.325 666.915 858.348C666.915 793.37 614.241 740.696 549.263 740.696C484.286 740.696 431.611 793.37 431.611 858.348C431.611 923.325 484.286 976 549.263 976Z" fill="#DD27D6"/>
<path opacity="0.6" d="M559.232 844.389C624.209 844.389 676.884 791.714 676.884 726.737C676.884 661.76 624.209 609.085 559.232 609.085C494.255 609.085 441.58 661.76 441.58 726.737C441.58 791.714 494.255 844.389 559.232 844.389Z" fill="#DD273B"/>
<path opacity="0.6" d="M559.232 844.389C624.209 844.389 676.884 791.714 676.884 726.737C676.884 661.76 624.209 609.085 559.232 609.085C494.255 609.085 441.58 661.76 441.58 726.737C441.58 791.714 494.255 844.389 559.232 844.389Z" fill="#F4DF95"/>
<path opacity="0.6" d="M550.258 300L651.284 640.991H449.232L550.258 300Z" fill="#00FFA3"/>
</g>
<defs>
<filter id="filter0_f_120_9" x="-298" y="0" width="1674" height="1574" filterUnits="userSpaceOnUse" color-interpolation-filters="sRGB">
<feFlood flood-opacity="0" result="BackgroundImageFix"/>
<feBlend mode="normal" in="SourceGraphic" in2="BackgroundImageFix" result="shape"/>
<feGaussianBlur stdDeviation="150" result="effect1_foregroundBlur_120_9"/>
</filter>
</defs>
</svg>
