<svg width="100" height="100" viewBox="0 0 100 100" fill="none" xmlns="http://www.w3.org/2000/svg">
<path d="M100 74.9998C100 81.1359 95.025 86.1109 88.8889 86.1109H11.1111C4.975 86.1109 0 81.1359 0 74.9998V24.9998C0 18.8637 4.975 13.8887 11.1111 13.8887H88.8889C95.025 13.8887 100 18.8637 100 24.9998V74.9998Z" fill="#B5BDDB"/>
<path d="M33.1945 48.9889L1.76945 80.4139C1.69445 80.4917 1.66667 80.5889 1.60278 80.6667C2.54723 82.25 3.86389 83.5639 5.44723 84.5111C5.52778 84.4472 5.62223 84.4195 5.69723 84.3445L37.125 52.9167C38.2083 51.8306 38.2083 50.075 37.125 48.9889C36.0361 47.9028 34.2806 47.9028 33.1945 48.9889ZM98.3972 80.6667C98.3389 80.5889 98.3056 80.4917 98.2306 80.4167L66.8084 48.9889C65.7195 47.9028 63.9639 47.9028 62.8778 48.9889C61.7917 50.075 61.7917 51.8306 62.8778 52.9167L94.3028 84.3445C94.375 84.4167 94.475 84.4472 94.5528 84.5111C96.1389 83.5667 97.4528 82.25 98.3972 80.6667Z" fill="#464B6F"/>
<path d="M88.8889 13.8887H11.1111C4.975 13.8887 0 18.8637 0 24.9998V27.8609L40.3556 68.1276C45.6167 73.3859 54.2111 73.3859 59.4778 68.1276L100 27.8026V24.9998C100 18.8637 95.025 13.8887 88.8889 13.8887Z" fill="#464B6F"/>
<path d="M88.8869 13.8896H11.1092C6.69805 13.8896 2.91749 16.4841 1.12305 20.2091L42.1397 61.2285C46.4786 65.5674 53.5175 65.5674 57.8536 61.2285L98.8731 20.2091C97.0786 16.4841 93.3008 13.8896 88.8869 13.8896Z" fill="#B5BDDB"/>
</svg>
