<svg width="100" height="100" viewBox="0 0 100 100" fill="none" xmlns="http://www.w3.org/2000/svg">
<path d="M100 88.8889C100 95.025 95.025 100 88.8889 100H11.1111C4.975 100 0 95.025 0 88.8889V11.1111C0 4.975 4.975 0 11.1111 0H88.8889C95.025 0 100 4.975 100 11.1111V88.8889Z" fill="#004A77"/>
<path d="M88.8889 66.5499C93.2639 69.2249 97.1028 71.2054 100 72.5804V66.8304C90.1805 61.7471 69.4806 48.8721 55.5556 24.9999C55.5556 24.9999 55.5556 19.4443 50 19.4443C44.4444 19.4443 44.4444 24.9999 44.4444 24.9999C30.5194 48.8721 9.81944 61.7471 0 66.8304V72.5804C2.89722 71.2054 6.73611 69.2249 11.1111 66.5499V74.9999H0V86.111H44.4444V99.9999H55.5556V86.111H100V74.9999H88.8889V66.5499ZM83.3333 74.9999H72.2222V54.3471C76.0056 57.6416 79.7667 60.4971 83.3333 62.9443V74.9999ZM16.6667 62.9416C20.2333 60.4971 23.9917 57.6416 27.7778 54.3471V74.9999H16.6667V62.9416ZM33.3333 74.9999V49.1888C37.1778 45.3693 40.9444 41.0693 44.4444 36.2582V74.9999H33.3333ZM55.5556 36.261C59.0556 41.0693 62.8222 45.3721 66.6667 49.1916V74.9999H55.5556V36.261Z" fill="#FE5011"/>
<path d="M18.0555 19.4446C14.2194 19.4446 11.1111 16.3362 11.1111 12.5001C11.1111 9.36122 13.2083 6.739 16.0667 5.88066C15.3694 5.689 14.6472 5.55566 13.8889 5.55566C9.2861 5.55566 5.55554 9.28622 5.55554 13.889C5.55554 18.4918 9.2861 22.2223 13.8889 22.2223C16.5528 22.2223 18.8972 20.9501 20.425 19.0029C19.6805 19.2723 18.8917 19.4446 18.0555 19.4446Z" fill="white"/>
<path d="M29.1666 8.33344C29.9337 8.33344 30.5555 7.71162 30.5555 6.94455C30.5555 6.17749 29.9337 5.55566 29.1666 5.55566C28.3995 5.55566 27.7777 6.17749 27.7777 6.94455C27.7777 7.71162 28.3995 8.33344 29.1666 8.33344Z" fill="white"/>
<path d="M73.6111 33.3334C74.3781 33.3334 74.9999 32.7116 74.9999 31.9446C74.9999 31.1775 74.3781 30.5557 73.6111 30.5557C72.844 30.5557 72.2222 31.1775 72.2222 31.9446C72.2222 32.7116 72.844 33.3334 73.6111 33.3334Z" fill="white"/>
<path d="M20.8333 33.3334C21.6004 33.3334 22.2222 32.7116 22.2222 31.9446C22.2222 31.1775 21.6004 30.5557 20.8333 30.5557C20.0663 30.5557 19.4445 31.1775 19.4445 31.9446C19.4445 32.7116 20.0663 33.3334 20.8333 33.3334Z" fill="white"/>
<path d="M61.1112 16.6669C62.6453 16.6669 63.8889 15.4232 63.8889 13.8891C63.8889 12.355 62.6453 11.1113 61.1112 11.1113C59.577 11.1113 58.3334 12.355 58.3334 13.8891C58.3334 15.4232 59.577 16.6669 61.1112 16.6669Z" fill="white"/>
<path d="M11.1112 49.9999C12.6453 49.9999 13.8889 48.7562 13.8889 47.2221C13.8889 45.688 12.6453 44.4443 11.1112 44.4443C9.57703 44.4443 8.33337 45.688 8.33337 47.2221C8.33337 48.7562 9.57703 49.9999 11.1112 49.9999Z" fill="white"/>
<path d="M33.3333 22.2225C34.8674 22.2225 36.1111 20.9789 36.1111 19.4448C36.1111 17.9106 34.8674 16.667 33.3333 16.667C31.7992 16.667 30.5555 17.9106 30.5555 19.4448C30.5555 20.9789 31.7992 22.2225 33.3333 22.2225Z" fill="white"/>
<path d="M88.8889 49.9999C90.423 49.9999 91.6666 48.7562 91.6666 47.2221C91.6666 45.688 90.423 44.4443 88.8889 44.4443C87.3547 44.4443 86.1111 45.688 86.1111 47.2221C86.1111 48.7562 87.3547 49.9999 88.8889 49.9999Z" fill="white"/>
<path d="M73.6111 16.6669C74.3781 16.6669 74.9999 16.0451 74.9999 15.278C74.9999 14.511 74.3781 13.8892 73.6111 13.8892C72.844 13.8892 72.2222 14.511 72.2222 15.278C72.2222 16.0451 72.844 16.6669 73.6111 16.6669Z" fill="white"/>
<path d="M86.1112 11.1112C87.6453 11.1112 88.8889 9.86757 88.8889 8.33344C88.8889 6.79932 87.6453 5.55566 86.1112 5.55566C84.577 5.55566 83.3334 6.79932 83.3334 8.33344C83.3334 9.86757 84.577 11.1112 86.1112 11.1112Z" fill="white"/>
<path d="M87.5 22.2221C88.267 22.2221 88.8889 21.6003 88.8889 20.8332C88.8889 20.0662 88.267 19.4443 87.5 19.4443C86.7329 19.4443 86.1111 20.0662 86.1111 20.8332C86.1111 21.6003 86.7329 22.2221 87.5 22.2221Z" fill="white"/>
</svg>
