<svg width="100" height="100" viewBox="0 0 100 100" fill="none" xmlns="http://www.w3.org/2000/svg">
<path d="M55.5555 59.7222C55.5555 62.0222 53.6888 63.8888 51.3888 63.8888C49.0861 63.8888 47.2222 62.0222 47.2222 59.7222V51.3888C47.2222 49.0861 49.0861 47.2222 51.3888 47.2222C53.6888 47.2222 55.5555 49.0861 55.5555 51.3888V59.7222Z" fill="#67757F"/>
<path d="M75.3834 93.9362C75.5084 97.2834 72.7945 100 69.4445 100H33.8417C30.4917 100 27.7778 97.2834 27.7778 93.9362V58.3334C27.7778 54.9862 28.0973 52.2695 33.8417 52.2695C39.5862 52.2695 41.6667 63.889 69.4445 58.3334C72.4751 58.3334 75.5084 61.0501 75.3834 64.3973V93.9362Z" fill="#E1E8ED"/>
<path d="M51.9083 51.4943C44.7 51.4943 32.5695 46.1221 32.5695 35.111C32.5695 24.0332 44.6556 20.0721 52.0278 3.44154C54.1139 -1.26123 54.8028 0.366543 57.1945 3.23043C62.9167 10.0721 71.2445 24.0165 71.2445 35.3804C71.2417 48.2721 58.3556 51.4943 51.9083 51.4943Z" fill="#FCAB40"/>
<path d="M51.9083 48.4638C40.2861 48.4638 42.2361 32.3472 51.9083 22.6777C58.3556 25.9 68.0222 48.4638 51.9083 48.4638Z" fill="#FDCB58"/>
<path d="M30.5556 80.5556C30.5556 82.0917 29.3111 83.3334 27.7778 83.3334C26.2444 83.3334 25 82.0917 25 80.5556V61.1112C25 59.5751 26.2444 58.3334 27.7778 58.3334C29.3111 58.3334 30.5556 59.5751 30.5556 61.1112V80.5556ZM41.6667 88.8889C41.6667 90.425 40.4222 91.6667 38.8889 91.6667C37.3556 91.6667 36.1111 90.425 36.1111 88.8889V69.4445C36.1111 67.9084 37.3556 66.6667 38.8889 66.6667C40.4222 66.6667 41.6667 67.9084 41.6667 69.4445V88.8889ZM41.6667 58.3334C41.6667 59.8695 40.4222 61.1112 38.8889 61.1112C37.3556 61.1112 36.1111 59.8695 36.1111 58.3334V55.5556C36.1111 54.0195 37.3556 52.7778 38.8889 52.7778C40.4222 52.7778 41.6667 54.0195 41.6667 55.5556V58.3334Z" fill="#CCD6DD"/>
</svg>
