<svg width="100" height="100" viewBox="0 0 100 100" fill="none" xmlns="http://www.w3.org/2000/svg">
<path d="M91.6666 94.4445V100H83.275V94.4445C83.275 89.8417 79.5166 86.1112 74.8833 86.1112V77.7778C84.1527 77.7778 91.6666 85.2417 91.6666 94.4445Z" fill="#8991AD"/>
<path d="M76.5139 83.3334C76.0362 83.3334 75.5778 83.4056 75.1167 83.4751V86.1334C79.6389 86.2584 83.275 89.9195 83.275 94.4445V100H86.3056V93.0556C86.3056 87.6862 81.9223 83.3334 76.5139 83.3334ZM58.3334 94.4445V100H66.725V94.4445C66.725 89.8417 70.4834 86.1112 75.1167 86.1112V77.7778C65.8473 77.7778 58.3334 85.2417 58.3334 94.4445Z" fill="#B5BDDB"/>
<path d="M73.7167 83.3333C74.1945 83.3333 74.6528 83.4056 75.1139 83.475V86.1333C70.5917 86.2583 66.9556 89.9194 66.9556 94.4444V100H63.925V93.0555C63.9278 87.6861 68.3112 83.3333 73.7167 83.3333ZM91.6667 5.55556V0H83.275V5.55556C83.275 10.1583 79.5167 13.8889 74.8834 13.8889V22.2222C84.15 22.2222 91.6667 14.7583 91.6667 5.55556Z" fill="#8991AD"/>
<path d="M76.5139 16.6667C76.0362 16.6667 75.5778 16.5944 75.1167 16.525V13.8667C79.6389 13.7389 83.275 10.0806 83.275 5.55556V0H86.3056V6.94444C86.3056 12.3139 81.9195 16.6667 76.5139 16.6667ZM58.3334 5.55556V0H66.725V5.55556C66.725 10.1583 70.4834 13.8889 75.1167 13.8889V22.2222C65.8473 22.2222 58.3334 14.7583 58.3334 5.55556Z" fill="#B5BDDB"/>
<path d="M73.7166 16.6667C74.1944 16.6667 74.6527 16.5944 75.1138 16.525V13.8667C70.5944 13.7389 66.9583 10.0806 66.9583 5.55556V0H63.9277V6.94444C63.9277 12.3139 68.3111 16.6667 73.7166 16.6667ZM74.8833 27.7778V36.1111C79.5166 36.1111 83.275 39.8417 83.275 44.4444V55.5556C83.275 60.1583 79.5166 63.8889 74.8833 63.8889V72.2222C84.1527 72.2222 91.6666 64.7583 91.6666 55.5556V44.4444C91.6666 35.2417 84.1527 27.7778 74.8833 27.7778Z" fill="#8991AD"/>
<path d="M76.5139 33.3335C76.0361 33.3335 75.5778 33.4057 75.1139 33.4752V36.1335C79.6361 36.2585 83.2722 39.9196 83.2722 44.4446V55.5557C83.2722 60.0807 79.6361 63.7391 75.1139 63.8668V66.5252C75.5778 66.5946 76.0361 66.6668 76.5139 66.6668C81.9194 66.6668 86.3028 62.3141 86.3028 56.9446V43.0557C86.3056 37.6863 81.9222 33.3335 76.5139 33.3335Z" fill="#B5BDDB"/>
<path d="M66.725 44.4445C66.725 39.8417 70.4834 36.1112 75.1167 36.1112V27.7778C65.8473 27.7778 58.3334 35.2417 58.3334 44.4445V55.5556C58.3334 64.7584 65.8473 72.2223 75.1167 72.2223V63.8889C70.4834 63.8889 66.725 60.1584 66.725 55.5556V44.4445Z" fill="#B5BDDB"/>
<path d="M73.7166 33.3335C68.3111 33.3335 63.9277 37.6863 63.9277 43.0557V56.9446C63.9277 62.3141 68.3111 66.6668 73.7166 66.6668C74.1944 66.6668 74.6527 66.5946 75.1139 66.5252V63.8668C70.5916 63.7418 66.9555 60.0807 66.9555 55.5557V44.4446C66.9555 39.9196 70.5916 36.2613 75.1139 36.1335V33.4752C74.6555 33.4057 74.1972 33.3335 73.7166 33.3335ZM24.8833 52.7779V61.1113C29.5166 61.1113 33.275 64.8418 33.275 69.4446V80.5557C33.275 85.1585 29.5166 88.8891 24.8833 88.8891V97.2224C34.1527 97.2224 41.6666 89.7585 41.6666 80.5557V69.4446C41.6666 60.2418 34.1527 52.7779 24.8833 52.7779Z" fill="#8991AD"/>
<path d="M26.5139 58.3335C26.0361 58.3335 25.5778 58.4057 25.1139 58.4752V61.1335C29.6361 61.2585 33.2722 64.9196 33.2722 69.4446V80.5557C33.2722 85.0807 29.6361 88.7391 25.1139 88.8668V91.5252C25.5778 91.5946 26.0361 91.6668 26.5139 91.6668C31.9194 91.6668 36.3028 87.3141 36.3028 81.9446V68.0557C36.3056 62.6863 31.9222 58.3335 26.5139 58.3335Z" fill="#B5BDDB"/>
<path d="M16.725 69.4445C16.725 64.8417 20.4834 61.1112 25.1167 61.1112V52.7778C15.8473 52.7778 8.33337 60.2417 8.33337 69.4445V80.5556C8.33337 89.7584 15.8473 97.2223 25.1167 97.2223V88.8889C20.4834 88.8889 16.725 85.1584 16.725 80.5556V69.4445Z" fill="#B5BDDB"/>
<path d="M23.7166 58.3334C18.3111 58.3334 13.9277 62.6862 13.9277 68.0556V81.9445C13.9277 87.3139 18.3111 91.6667 23.7166 91.6667C24.1944 91.6667 24.6527 91.5945 25.1138 91.5251V88.8667C20.5944 88.7389 16.9583 85.0806 16.9583 80.5556V69.4445C16.9583 64.9195 20.5944 61.2612 25.1166 61.1334V58.4751C24.6555 58.4056 24.1972 58.3334 23.7166 58.3334ZM24.8833 2.77783V11.1112C29.5166 11.1112 33.275 14.8417 33.275 19.4445V30.5556C33.275 35.1584 29.5166 38.8889 24.8833 38.8889V47.2223C34.1527 47.2223 41.6666 39.7584 41.6666 30.5556V19.4445C41.6666 10.2417 34.1527 2.77783 24.8833 2.77783Z" fill="#8991AD"/>
<path d="M26.5139 8.33339C26.0362 8.33339 25.5778 8.40561 25.1167 8.47505V11.1334C29.6389 11.2612 33.275 14.9195 33.275 19.4445V30.5556C33.275 35.0806 29.6389 38.7389 25.1167 38.8667V41.5251C25.5778 41.5945 26.0362 41.6667 26.5139 41.6667C31.9195 41.6667 36.3028 37.3139 36.3028 31.9445V18.0556C36.3056 12.6862 31.9223 8.33339 26.5139 8.33339ZM16.725 19.4445C16.725 14.8417 20.4834 11.1112 25.1167 11.1112V2.77783C15.8473 2.77783 8.33337 10.2417 8.33337 19.4445V30.5556C8.33337 39.7584 15.8473 47.2223 25.1167 47.2223V38.8889C20.4834 38.8889 16.725 35.1584 16.725 30.5556V19.4445Z" fill="#B5BDDB"/>
<path d="M23.7166 8.3335C18.3111 8.3335 13.9277 12.6863 13.9277 18.0557V31.9446C13.9277 37.3141 18.3111 41.6668 23.7166 41.6668C24.1944 41.6668 24.6527 41.5946 25.1138 41.5252V38.8668C20.5944 38.739 16.9583 35.0807 16.9583 30.5557V19.4446C16.9583 14.9196 20.5944 11.2613 25.1166 11.1335V8.47516C24.6555 8.40572 24.1972 8.3335 23.7166 8.3335ZM80.5555 91.6668C80.5555 94.7335 78.0666 97.2224 75 97.2224C71.9333 97.2224 69.4444 94.7335 69.4444 91.6668V58.3335C69.4444 55.2668 71.9333 52.7779 75 52.7779C78.0666 52.7779 80.5555 55.2668 80.5555 58.3335V91.6668Z" fill="#464B6F"/>
<path d="M69.4445 58.3334V91.6667C69.4445 94.7334 71.9333 97.2223 75 97.2223V52.7778C71.9333 52.7778 69.4445 55.2667 69.4445 58.3334Z" fill="#B5BDDB"/>
<path d="M80.5556 41.6667C80.5556 44.7334 78.0667 47.2223 75 47.2223C71.9333 47.2223 69.4445 44.7334 69.4445 41.6667V8.33339C69.4445 5.26394 71.9333 2.77783 75 2.77783C78.0667 2.77783 80.5556 5.26394 80.5556 8.33339V41.6667Z" fill="#464B6F"/>
<path d="M69.4445 8.33339V41.6667C69.4445 44.7334 71.9333 47.2223 75 47.2223V2.77783C71.9333 2.77783 69.4445 5.26672 69.4445 8.33339Z" fill="#B5BDDB"/>
<path d="M30.5556 100H19.4445V83.3334C19.4445 80.2667 21.9333 77.7778 25 77.7778C28.0667 77.7778 30.5556 80.2667 30.5556 83.3334V100Z" fill="#464B6F"/>
<path d="M25 77.7778C21.9333 77.7778 19.4445 80.2667 19.4445 83.3334V100H25V77.7778Z" fill="#B5BDDB"/>
<path d="M30.5556 66.6667C30.5556 69.7334 28.0667 72.2223 25 72.2223C21.9333 72.2223 19.4445 69.7334 19.4445 66.6667V33.3334C19.4445 30.2667 21.9333 27.7778 25 27.7778C28.0667 27.7778 30.5556 30.2667 30.5556 33.3334V66.6667Z" fill="#464B6F"/>
<path d="M19.4445 33.3334V66.6667C19.4445 69.7334 21.9333 72.2223 25 72.2223V27.7778C21.9333 27.7778 19.4445 30.2667 19.4445 33.3334Z" fill="#B5BDDB"/>
<path d="M30.5556 0H19.4445V16.6667C19.4445 19.7333 21.9333 22.2222 25 22.2222C28.0667 22.2222 30.5556 19.7333 30.5556 16.6667V0Z" fill="#464B6F"/>
<path d="M25 22.2222C21.9333 22.2222 19.4445 19.7333 19.4445 16.6667V0H25V22.2222Z" fill="#B5BDDB"/>
</svg>
