<svg width="101" height="100" viewBox="0 0 101 100" fill="none" xmlns="http://www.w3.org/2000/svg">
<path d="M100.117 88.8889C100.117 95.025 95.1417 100 89.0056 100H11.2278C5.0917 100 0.116699 95.025 0.116699 88.8889V11.1111C0.116699 4.975 5.0917 0 11.2278 0H89.0056C95.1417 0 100.117 4.975 100.117 11.1111V88.8889Z" fill="#464B6F"/>
<path d="M27.4889 41.3193H16.0889C14.1777 41.3193 12.6805 40.4109 12.6805 38.5832C12.6805 36.747 14.1777 35.8332 16.0889 35.8332H24.0777L10.7666 15.2804C9.93885 14.0332 9.51941 13.1248 9.51941 11.9609C9.51941 10.3748 11.1027 9.21094 12.4333 9.21094C13.7666 9.21094 15.0944 9.79427 16.2611 11.5415L31.15 33.9248L46.0444 11.5415C47.2083 9.79427 48.5361 9.21094 49.8722 9.21094C51.2 9.21094 52.7777 10.3776 52.7777 11.9609C52.7777 13.1248 52.3666 14.0332 51.5333 15.2804L38.2222 35.8332H46.2083C48.1222 35.8332 49.6222 36.747 49.6222 38.5832C49.6222 40.4109 48.125 41.3193 46.2083 41.3193H34.8139V47.2248H46.2083C48.1222 47.2248 49.6222 48.147 49.6222 49.9748C49.6222 51.8026 48.125 52.7165 46.2083 52.7165H34.8139V65.5248C34.8139 67.9359 33.3166 69.4415 31.15 69.4415C28.9889 69.4415 27.4916 67.9359 27.4916 65.5248V52.7165H16.0889C14.1777 52.7165 12.6805 51.8026 12.6805 49.9748C12.6805 48.147 14.1777 47.2248 16.0889 47.2248H27.4916V41.3193H27.4889Z" fill="#B5BDDB"/>
<path d="M11.1167 94.4444C9.2278 94.4444 7.38892 93.4833 6.34725 91.7472C4.76947 89.1166 5.62225 85.7027 8.2528 84.125L22.1417 75.7916C23.5334 74.9583 25.2195 74.775 26.7556 75.2833L39.7473 79.6166L48.4389 68.7527C49.9667 66.8416 52.5584 66.1611 54.8417 67.0638L63.2584 70.4333L69.7278 51.0222C70.0028 50.2027 70.4611 49.4611 71.0695 48.85L84.9584 34.9611C87.1278 32.7916 90.6445 32.7916 92.8139 34.9611C94.9834 37.1305 94.9834 40.6472 92.8139 42.8166L79.8528 55.7777L71.9334 79.5361C71.45 80.9861 70.3861 82.175 69 82.8194C67.6139 83.4583 66.0223 83.5027 64.5973 82.9388L54.5361 78.9138L46 89.5833C44.5473 91.4 42.1139 92.1166 39.9056 91.3833L25.6667 86.6333L13.9695 93.65C13.075 94.1888 12.0889 94.4444 11.1167 94.4444V94.4444Z" fill="#B5BDDB"/>
</svg>
