<svg width="100" height="100" viewBox="0 0 100 100" fill="none" xmlns="http://www.w3.org/2000/svg">
<g clip-path="url(#clip0_3289_2813)">
<path d="M72.2222 24.9998C62.2472 24.9998 54.8055 20.422 50.0305 11.3748C45.5139 20.3164 38.8694 24.9998 30.5555 24.9998C29.0222 24.9998 27.7778 23.7553 27.7778 22.222C27.7778 20.6887 29.0222 19.4442 30.5555 19.4442C38.1361 19.4442 43.7917 14.0081 47.3639 3.28867C47.7444 2.15256 48.8028 1.38867 50 1.38867C51.1972 1.38867 52.2555 2.15256 52.6361 3.28867C56.3083 14.3081 62.5333 19.4442 72.2222 19.4442C73.7583 19.4442 75 20.6887 75 22.222C75 23.7553 73.7583 24.9998 72.2222 24.9998Z" fill="#292F33"/>
<path d="M40.8639 26.8167C50.2083 36.1667 42.2472 43.3556 32.8972 52.7028C23.55 62.05 16.3583 70.0139 7.0111 60.6695C-2.3389 51.3195 -2.3389 36.1639 7.0111 26.8167C16.3611 17.4667 31.5139 17.4667 40.8639 26.8167V26.8167Z" fill="#FFAC33"/>
<path d="M43.1722 30.478C47.5722 34.8807 43.8611 45.7169 34.8861 54.6919C25.9111 63.6669 15.075 67.3807 10.6722 62.9752C6.27225 58.5752 9.98336 47.7363 18.9556 38.7613C27.9334 29.7891 38.7722 26.078 43.1722 30.478V30.478Z" fill="#BE1931"/>
<path d="M59.1361 26.8167C49.7944 36.1667 57.7528 43.3556 67.1028 52.7028C76.45 62.05 83.6417 70.0139 92.9889 60.6695C102.336 51.3195 102.336 36.1639 92.9889 26.8167C83.6417 17.4667 68.4889 17.4667 59.1361 26.8167V26.8167Z" fill="#FFAC33"/>
<path d="M56.8306 30.478C52.4278 34.8807 56.1389 45.7169 65.1139 54.6919C74.0861 63.6669 84.9278 67.3807 89.3278 62.9752C93.7278 58.5752 90.0167 47.7363 81.0417 38.7613C72.0694 29.7891 61.2278 26.078 56.8306 30.478V30.478Z" fill="#BE1931"/>
<path d="M62.25 50.6139C62.8028 50.1695 63.525 49.9362 64.2889 50.0167C66.6972 50.2778 68.7278 51.1167 70.1472 52.4417C71.65 53.8445 72.3889 55.7278 72.1861 57.6139C71.8278 60.9223 68.5083 63.9611 62.8444 63.35C60.6417 63.1139 59.6611 63.8223 59.6278 64.1584C59.5889 64.4945 60.3972 65.3973 62.6 65.6361C65.0083 65.8973 67.0389 66.7362 68.4583 68.0612C69.9611 69.4639 70.7055 71.3473 70.4972 73.2334C70.1389 76.5445 66.8194 79.5806 61.1611 78.9723C59.5555 78.8 58.7083 79.1306 58.35 79.3445C58.0639 79.5195 57.95 79.6889 57.9389 79.7834C57.9055 80.1167 58.7028 81.0195 60.9111 81.2584C62.4361 81.425 63.5417 82.7945 63.375 84.3195C63.2111 85.8445 61.8444 86.9473 60.3139 86.7834C54.6555 86.175 52.0555 82.5 52.4139 79.1861C52.7722 75.875 56.0917 72.8389 61.7555 73.45C63.3611 73.625 64.2028 73.2917 64.5611 73.0778C64.85 72.9056 64.9639 72.7361 64.9722 72.6417C65.0111 72.3056 64.2083 71.4028 62 71.1639C56.3417 70.5528 53.7417 66.8806 54.1 63.5667C54.4583 60.2556 57.7778 57.2167 63.4361 57.8334C65.0417 58.0056 65.8889 57.6723 66.2472 57.4584C66.5333 57.2861 66.6472 57.1167 66.6583 57.0223C66.6917 56.6861 65.8889 55.7834 63.6861 55.5445C62.1611 55.3806 61.0555 54.0084 61.2222 52.4834C61.3111 51.7167 61.6972 51.0612 62.25 50.6139V50.6139Z" fill="#AA8DD8"/>
<path d="M42.4056 99.5222C36.925 101.069 33.1444 98.6278 32.2444 95.4195C31.3444 92.2139 33.2944 88.1556 38.7722 86.6139C40.9111 86.0139 41.5528 84.9917 41.4667 84.6667C41.3722 84.3361 40.2861 83.8 38.1528 84.4C32.675 85.9445 28.8944 83.5 27.9944 80.2917C27.0889 77.0833 29.0444 73.0306 34.525 71.4889C36.6611 70.8861 37.3056 69.8611 37.2111 69.5361C37.1194 69.2139 36.0361 68.6722 33.9 69.2722C32.4278 69.6861 30.8889 68.8306 30.475 67.3556C30.0639 65.875 30.9222 64.3445 32.4 63.9278C37.875 62.3861 41.6583 64.8222 42.5639 68.0361C43.4639 71.2417 41.5111 75.2945 36.0306 76.8417C33.8917 77.4417 33.25 78.4639 33.3444 78.7889C33.4333 79.1139 34.5167 79.6556 36.65 79.0556C42.1333 77.5111 45.9111 79.95 46.8139 83.1639C47.7167 86.3667 45.7639 90.4195 40.2806 91.9667C38.1472 92.5639 37.5056 93.5944 37.5944 93.9139C37.6889 94.2417 38.7694 94.7806 40.9056 94.1833C42.3833 93.7639 43.9139 94.625 44.3306 96.1C44.7444 97.575 43.8833 99.1111 42.4056 99.5222V99.5222Z" fill="#77B255"/>
<path d="M6.94444 80.5555C9.24562 80.5555 11.1111 78.69 11.1111 76.3888C11.1111 74.0876 9.24562 72.2222 6.94444 72.2222C4.64325 72.2222 2.77777 74.0876 2.77777 76.3888C2.77777 78.69 4.64325 80.5555 6.94444 80.5555Z" fill="#5C913B"/>
<path d="M19.4445 91.6668C22.5127 91.6668 25 89.1795 25 86.1112C25 83.043 22.5127 80.5557 19.4445 80.5557C16.3762 80.5557 13.8889 83.043 13.8889 86.1112C13.8889 89.1795 16.3762 91.6668 19.4445 91.6668Z" fill="#9266CC"/>
<path d="M83.3333 80.5554C86.4016 80.5554 88.8889 78.0681 88.8889 74.9999C88.8889 71.9316 86.4016 69.4443 83.3333 69.4443C80.2651 69.4443 77.7778 71.9316 77.7778 74.9999C77.7778 78.0681 80.2651 80.5554 83.3333 80.5554Z" fill="#9266CC"/>
<path d="M70.8334 91.6668C73.1345 91.6668 75 89.8013 75 87.5002C75 85.199 73.1345 83.3335 70.8334 83.3335C68.5322 83.3335 66.6667 85.199 66.6667 87.5002C66.6667 89.8013 68.5322 91.6668 70.8334 91.6668Z" fill="#5C913B"/>
<path d="M48.6111 58.3333C50.9123 58.3333 52.7778 56.4679 52.7778 54.1667C52.7778 51.8655 50.9123 50 48.6111 50C46.3099 50 44.4445 51.8655 44.4445 54.1667C44.4445 56.4679 46.3099 58.3333 48.6111 58.3333Z" fill="#5C913B"/>
<path d="M19.4445 69.4446C22.5127 69.4446 25 66.9573 25 63.8891C25 60.8208 22.5127 58.3335 19.4445 58.3335C16.3762 58.3335 13.8889 60.8208 13.8889 63.8891C13.8889 66.9573 16.3762 69.4446 19.4445 69.4446Z" fill="#FFCC4D"/>
<path d="M76.3889 49.9998C78.6901 49.9998 80.5556 48.1344 80.5556 45.8332C80.5556 43.532 78.6901 41.6665 76.3889 41.6665C74.0877 41.6665 72.2222 43.532 72.2222 45.8332C72.2222 48.1344 74.0877 49.9998 76.3889 49.9998Z" fill="#FFCC4D"/>
<path d="M34.7222 44.4447C37.0234 44.4447 38.8889 42.5792 38.8889 40.278C38.8889 37.9768 37.0234 36.1113 34.7222 36.1113C32.421 36.1113 30.5555 37.9768 30.5555 40.278C30.5555 42.5792 32.421 44.4447 34.7222 44.4447Z" fill="#FFCC4D"/>
</g>
<defs>
<clipPath id="clip0_3289_2813">
<rect width="100" height="100" fill="white"/>
</clipPath>
</defs>
</svg>
