<svg width="31" height="32" viewBox="0 0 31 32" fill="none" xmlns="http://www.w3.org/2000/svg">
<path d="M24.8059 29.9969V7.20577C24.8059 6.09177 23.9052 5.20288 22.8029 5.20288H2.01476C0.90068 5.20288 0 6.09177 0 7.20577V29.9969C1e-05 31.0992 0.90069 31.9999 2.01476 31.9999H22.8029C23.9052 31.9999 24.8059 31.0992 24.8059 29.9969ZM18.6074 19.1881H13.0015V24.794C13.0015 25.1258 12.7289 25.3865 12.4089 25.3865C12.0771 25.3865 11.8163 25.1258 11.8163 24.794V19.1881H6.21038C5.87849 19.1881 5.61779 18.9273 5.61779 18.5955C5.61779 18.2754 5.8785 18.0029 6.21038 18.0029H11.8163V12.3969C11.8163 12.0651 12.0771 11.8043 12.4089 11.8043C12.7289 11.8043 13.0015 12.0651 13.0015 12.3969V18.0029H18.6074C18.9392 18.0029 19.1999 18.2754 19.1999 18.5955C19.1999 18.9273 18.9392 19.1881 18.6074 19.1881Z" fill="#B5BDDB"/>
<path d="M30.0088 24.7941V2.00297C30.0088 0.90075 29.1081 0 27.994 0H7.20584C6.10363 0 5.20288 0.90075 5.20288 2.00297V4.0178H22.8029C24.557 4.0178 25.9911 5.43996 25.9911 7.20588V26.797H27.994C29.1081 26.797 30.0088 25.9081 30.0088 24.7941Z" fill="#B5BDDB"/>
</svg>
