<svg width="100" height="100" viewBox="0 0 100 100" fill="none" xmlns="http://www.w3.org/2000/svg">
<path d="M0 50.1475C0 53.1348 0.983607 55.6849 2.95082 57.7978C4.91803 59.8379 7.61384 60.8579 11.0383 60.8579C14.4627 60.8579 17.1949 59.8379 19.235 57.7978C21.3479 55.6849 22.4044 53.1348 22.4044 50.1475C22.4044 47.0146 21.3843 44.3916 19.3443 42.2787C17.3042 40.0929 14.5355 39 11.0383 39C7.61384 39 4.91803 40.0929 2.95082 42.2787C0.983607 44.4645 0 47.0874 0 50.1475ZM39.3443 50.1475C39.3443 53.1348 40.3279 55.6849 42.2951 57.7978C44.2623 59.8379 46.9581 60.8579 50.3825 60.8579C53.8069 60.8579 56.5392 59.8379 58.5792 57.7978C60.6922 55.6849 61.7486 53.1348 61.7486 50.1475C61.7486 47.0146 60.7286 44.3916 58.6885 42.2787C56.6485 40.0929 53.8798 39 50.3825 39C46.9581 39 44.2623 40.0929 42.2951 42.2787C40.3279 44.4645 39.3443 47.0874 39.3443 50.1475ZM77.5956 50.1475C77.5956 53.1348 78.5792 55.6849 80.5464 57.7978C82.5137 59.8379 85.2095 60.8579 88.6339 60.8579C92.0583 60.8579 94.7905 59.8379 96.8306 57.7978C98.9435 55.6849 100 53.1348 100 50.1475C100 47.0146 98.98 44.3916 96.9399 42.2787C94.8998 40.0929 92.1311 39 88.6339 39C85.2095 39 82.5137 40.0929 80.5464 42.2787C78.5792 44.4645 77.5956 47.0874 77.5956 50.1475Z" fill="white"/>
</svg>
