<svg width="21" height="21" viewBox="0 0 21 21" fill="none" xmlns="http://www.w3.org/2000/svg">
<path d="M6.55722 10.6439C6.69992 10.7866 6.89012 10.8658 7.09612 10.8658C7.30222 10.8658 7.47653 10.7866 7.63503 10.6439C7.93623 10.3428 7.93623 9.8673 7.63503 9.5819L5.73302 7.6957H16.3846C16.7967 7.6957 17.1454 7.3629 17.1454 6.9349C17.1454 6.5069 16.8125 6.1741 16.3846 6.1741H5.73302L7.61922 4.2879C7.92042 3.9867 7.92042 3.51118 7.61922 3.22587C7.31802 2.92471 6.84252 2.92471 6.55722 3.22587L3.38712 6.396C3.08596 6.6971 3.08596 7.1727 3.38712 7.458L6.55722 10.6439Z" fill="#B5BDDB"/>
<path d="M13.7526 10.4222C13.4515 10.121 12.9759 10.121 12.6906 10.4222C12.3895 10.7233 12.3895 11.1988 12.6906 11.4841L14.5768 13.3704H3.90939C3.49727 13.3704 3.14856 13.7032 3.14856 14.1312C3.14856 14.5433 3.48142 14.892 3.90939 14.892H14.561L12.6748 16.7782C12.3736 17.0794 12.3736 17.5549 12.6748 17.8402C12.8174 17.9829 13.0076 18.0621 13.2137 18.0621C13.4198 18.0621 13.5941 17.9829 13.7526 17.8402L16.9227 14.6543C17.2239 14.3531 17.2239 13.8776 16.9227 13.5923L13.7526 10.4222Z" fill="#B5BDDB"/>
</svg>
