<svg width="32" height="32" viewBox="0 0 32 32" fill="none" xmlns="http://www.w3.org/2000/svg">
<path fill-rule="evenodd" clip-rule="evenodd" d="M32 16C32 24.8366 24.8366 32 16 32C12.3586 32 9.00128 30.7835 6.31231 28.7348L6.37392 28.748C11.1436 28.4011 22.8682 25.1057 31.6097 14.6992C31.7132 14.576 31.8148 14.4547 31.9144 14.3353C31.971 14.8825 32 15.4378 32 16ZM0 16C0 19.1751 0.924827 22.1341 2.51979 24.6225C3.53856 24.6322 4.53763 24.6001 5.51598 24.5303C5.9286 24.5009 6.2439 24.1545 6.2439 23.7408V14.8293C6.2439 14.1109 6.8263 13.5285 7.54472 13.5285H10.1463C10.8648 13.5285 11.4472 14.1108 11.4472 14.8293V22.6052C11.4472 23.122 11.93 23.5035 12.4293 23.37C12.5169 23.3466 12.6043 23.3229 12.6915 23.2989C13.0341 23.2047 13.2683 22.8911 13.2683 22.5357V11.4472C13.2683 10.7287 13.8507 10.1463 14.5691 10.1463H16.9106C17.629 10.1463 18.2114 10.7287 18.2114 11.4472V20.0674C18.2114 20.6483 18.8156 21.032 19.337 20.7759V20.7759C19.6076 20.6431 19.7724 20.3687 19.7724 20.0673V8.3252C19.7724 7.60678 20.3548 7.02439 21.0732 7.02439H23.4146C24.1331 7.02439 24.7154 7.60678 24.7154 8.3252V16.0018C24.7154 16.6533 25.4499 17.0269 25.9621 16.6243C28.4 14.708 30.2021 12.7655 31.2672 11.1989C29.228 4.70811 23.1638 0 16 0C7.16344 0 0 7.16344 0 16Z" fill="white"/>
</svg>
