<svg width="100" height="100" viewBox="0 0 100 100" fill="none" xmlns="http://www.w3.org/2000/svg">
<path d="M0 25.1637V36.1109H15.6333L0 25.1637ZM12.9556 86.1109H36.1111V69.897L12.9556 86.1109ZM63.8889 69.8998V86.1109H87.0417L63.8889 69.8998ZM0 63.8887V74.8359L15.6389 63.8887H0ZM87.0472 13.8887H63.8889V30.1026L87.0472 13.8887ZM100 74.8387V63.8887H84.3583L100 74.8387ZM100 36.1109V25.1637L84.3639 36.1109H100ZM36.1111 13.8887H12.9556L36.1111 30.1026V13.8887Z" fill="#00247D"/>
<path d="M69.8334 63.8891L96.8112 82.7807C98.1195 81.4502 99.0556 79.7752 99.5611 77.9224L79.5195 63.8891H69.8334ZM36.1112 63.8891H30.1639L3.18893 82.7779C4.63616 84.2502 6.49171 85.3029 8.57227 85.7918L36.1112 66.5085V63.8891ZM63.8889 36.1113H69.8362L96.8112 17.2224C95.3639 15.7502 93.5112 14.6974 91.4306 14.2085L63.8889 33.4918V36.1113ZM30.1639 36.1113L3.18893 17.2224C1.8806 18.5557 0.944491 20.2279 0.436157 22.0807L20.4778 36.1113H30.1639Z" fill="#CF1B2B"/>
<path d="M100 58.3331H58.3333V86.1109H63.8889V69.8998L87.0417 86.1109H88.8889C91.9917 86.1109 94.7944 84.8303 96.8111 82.7803L69.8333 63.8887H79.5194L99.5611 77.922C99.8194 76.9859 100 76.0164 100 74.9998V74.8387L84.3583 63.8887H100V58.3331ZM0 58.3331V63.8887H15.6389L0 74.8359V74.9998C0 78.0303 1.21944 80.772 3.18889 82.7776L30.1639 63.8887H36.1111V66.5081L8.57222 85.7887C9.38889 85.9831 10.2333 86.1109 11.1111 86.1109H12.9556L36.1111 69.897V86.1109H41.6667V58.3331H0ZM100 24.9998C100 21.9692 98.7806 19.2276 96.8111 17.222L69.8361 36.1109H63.8889V33.4914L91.4306 14.2081C90.6111 14.0164 89.7667 13.8887 88.8889 13.8887H87.0472L63.8889 30.1026V13.8887H58.3333V41.6664H100V36.1109H84.3639L100 25.1637V24.9998ZM36.1111 13.8887V30.1026L12.9556 13.8887H11.1111C8.00556 13.8887 5.20556 15.1692 3.18889 17.222L30.1639 36.1109H20.4778L0.436111 22.0803C0.180556 23.0164 0 23.9831 0 24.9998V25.1637L15.6333 36.1109H0V41.6664H41.6667V13.8887H36.1111Z" fill="#EEEEEE"/>
<path d="M58.3333 41.6664V13.8887H41.6667V41.6664H0V58.3331H41.6667V86.1109H58.3333V58.3331H100V41.6664H58.3333Z" fill="#CF1B2B"/>
</svg>
