<svg width="100" height="100" viewBox="0 0 100 100" fill="none" xmlns="http://www.w3.org/2000/svg">
<path d="M98.4583 19.4442C96.5333 16.1359 92.9917 13.8887 88.8889 13.8887H50V19.4442H98.4583ZM0 69.4442H100V74.9998H0V69.4442ZM50 47.222H100V52.7776H50V47.222ZM50 36.1109H100V41.6664H50V36.1109ZM0 58.3331H100V63.8887H0V58.3331ZM11.1111 86.1109H88.8889C92.9917 86.1109 96.5333 83.8637 98.4583 80.5553H1.54167C3.46667 83.8637 7.00833 86.1109 11.1111 86.1109ZM50 24.9998H100V30.5553H50V24.9998Z" fill="#B22334"/>
<path d="M0.188889 76.886C0.236111 77.1443 0.288889 77.4027 0.352778 77.6554C0.425 77.936 0.513889 78.2055 0.608333 78.4777C0.855556 79.1971 1.15556 79.8916 1.53333 80.5416L1.54167 80.5554H98.4583L98.4639 80.5443C98.8389 79.8971 99.1389 79.2027 99.3861 78.486C99.4805 78.211 99.5722 77.936 99.6444 77.6499C99.7083 77.3999 99.7611 77.1443 99.8083 76.886C99.9222 76.2749 100 75.6471 100 74.9999H0C0 75.6471 0.0777778 76.2721 0.188889 76.886V76.886ZM0 63.8888H100V69.4443H0V63.8888ZM0 52.7777V58.3332H100V52.7777H50H0ZM50 41.6666H100V47.2221H50V41.6666ZM50 30.5554H100V36.111H50V30.5554ZM0 24.9999C0 24.3527 0.0833333 23.7304 0.188889 23.1138C0.0777778 23.7277 0 24.3527 0 24.9999ZM1.54167 19.4443L1.53333 19.4582L1.54167 19.4443ZM0.355556 22.3443C0.425 22.061 0.522222 21.7916 0.611111 21.5193C0.516667 21.7916 0.427778 22.0638 0.355556 22.3443ZM50 24.9999H100C100 24.3527 99.9222 23.7249 99.8083 23.111C99.7611 22.8554 99.7111 22.5999 99.6444 22.3499C99.5694 22.0638 99.4806 21.786 99.3833 21.511C99.1361 20.7943 98.8361 20.1027 98.4611 19.4554C98.4639 19.4527 98.4611 19.4471 98.4583 19.4443H50V24.9999Z" fill="#EEEEEE"/>
<path d="M50 13.8887H11.1111C4.975 13.8887 0 18.8637 0 24.9998V52.7776H50V13.8887Z" fill="#3C3B6E"/>
<path d="M5.55835 21.461L7.27502 22.7082L6.61946 24.7221L8.33335 23.4777L10.05 24.7221L9.39446 22.7082L11.1111 21.461H8.98891L8.33335 19.4443L7.68057 21.461H5.55835ZM11.1139 27.0166L12.8306 28.2638L12.175 30.2777L13.8889 29.0332L15.6056 30.2777L14.95 28.2638L16.6667 27.0166H14.5445L13.8889 24.9999L13.2361 27.0166H11.1139ZM22.225 27.0166L23.9417 28.2638L23.2861 30.2777L25 29.0332L26.7167 30.2777L26.0611 28.2638L27.7778 27.0166H25.6556L25 24.9999L24.3472 27.0166H22.225ZM33.3361 27.0166L35.0528 28.2638L34.3972 30.2777L36.1111 29.0332L37.8278 30.2777L37.1722 28.2638L38.8889 27.0166H36.7667L36.1111 24.9999L35.4583 27.0166H33.3361ZM11.1139 38.1277L12.8306 39.3749L12.175 41.3888L13.8889 40.1443L15.6056 41.3888L14.95 39.3749L16.6667 38.1277H14.5445L13.8889 36.111L13.2361 38.1277H11.1139ZM22.225 38.1277L23.9417 39.3749L23.2861 41.3888L25 40.1443L26.7167 41.3888L26.0611 39.3749L27.7778 38.1277H25.6556L25 36.111L24.3472 38.1277H22.225ZM33.3361 38.1277L35.0528 39.3749L34.3972 41.3888L36.1111 40.1443L37.8278 41.3888L37.1722 39.3749L38.8889 38.1277H36.7667L36.1111 36.111L35.4583 38.1277H33.3361ZM16.6695 21.461L18.3861 22.7082L17.7306 24.7221L19.4445 23.4777L21.1611 24.7221L20.5056 22.7082L22.2222 21.461H20.1L19.4445 19.4443L18.7917 21.461H16.6695ZM27.7806 21.461L29.4972 22.7082L28.8417 24.7221L30.5556 23.4777L32.2722 24.7221L31.6167 22.7082L33.3334 21.461H31.2111L30.5556 19.4443L29.9028 21.461H27.7806ZM38.8917 21.461L40.6083 22.7082L39.9528 24.7221L41.6667 23.4777L43.3833 24.7221L42.7278 22.7082L44.4445 21.461H42.3222L41.6667 19.4443L41.0139 21.461H38.8917ZM5.55835 32.5721L7.27502 33.8193L6.61946 35.8332L8.33335 34.5888L10.05 35.8332L9.39446 33.8193L11.1111 32.5721H8.98891L8.33335 30.5554L7.68057 32.5721H5.55835ZM17.7306 35.8332L19.4445 34.5888L21.1611 35.8332L20.5056 33.8193L22.2222 32.5721H20.1L19.4445 30.5554L18.7917 32.5721H16.6695L18.3861 33.8193L17.7306 35.8332ZM27.7806 32.5721L29.4972 33.8193L28.8417 35.8332L30.5556 34.5888L32.2722 35.8332L31.6167 33.8193L33.3334 32.5721H31.2111L30.5556 30.5554L29.9028 32.5721H27.7806ZM38.8917 32.5721L40.6083 33.8193L39.9528 35.8332L41.6667 34.5888L43.3833 35.8332L42.7278 33.8193L44.4445 32.5721H42.3222L41.6667 30.5554L41.0139 32.5721H38.8917ZM5.55835 43.6832L7.27502 44.9304L6.61946 46.9443L8.33335 45.6999L10.05 46.9443L9.39446 44.9304L11.1111 43.6832H8.98891L8.33335 41.6666L7.68057 43.6832H5.55835ZM17.7306 46.9443L19.4445 45.6999L21.1611 46.9443L20.5056 44.9304L22.2222 43.6832H20.1L19.4445 41.6666L18.7917 43.6832H16.6695L18.3861 44.9304L17.7306 46.9443ZM27.7806 43.6832L29.4972 44.9304L28.8417 46.9443L30.5556 45.6999L32.2722 46.9443L31.6167 44.9304L33.3334 43.6832H31.2111L30.5556 41.6666L29.9028 43.6832H27.7806ZM38.8917 43.6832L40.6083 44.9304L39.9528 46.9443L41.6667 45.6999L43.3833 46.9443L42.7278 44.9304L44.4445 43.6832H42.3222L41.6667 41.6666L41.0139 43.6832H38.8917Z" fill="white"/>
</svg>
