<svg width="100" height="100" viewBox="0 0 100 100" fill="none" xmlns="http://www.w3.org/2000/svg">
<g clip-path="url(#clip0_3016_2225)">
<path d="M97.2223 52.7778C97.2223 47.05 96.2028 41.5584 94.3334 36.4778C93.0556 51.4473 85.0751 59.1361 76.7362 55.5556C68.925 52.2 74.1889 39.1195 74.5778 32.8778C75.2334 22.2973 74.5445 10.1861 55.3251 0.116699C63.3112 15.3945 56.25 24.8861 48.8445 25.4639C40.6278 26.1056 33.1028 18.4028 35.8806 5.90281C26.8862 12.5306 26.6251 23.6861 29.4001 30.9028C32.2945 38.425 29.2834 44.675 22.2251 45.3695C14.3362 46.1473 9.95283 36.9223 13.9945 22.2223C7.00005 30.4584 2.77783 41.125 2.77783 52.7778C2.77783 78.8584 23.9195 100 50.0001 100C76.0806 100 97.2223 78.8584 97.2223 52.7778Z" fill="#464B6F"/>
<path d="M78.8722 66.6639C79.2833 75.2306 71.7584 78.5889 67.7084 76.9667C61.8584 74.625 63.4278 70.6028 61.9222 62.2695C60.4167 53.9361 54.6306 48.15 46.0667 45.6028C52.3167 63.1945 42.6028 69.6778 37.5111 70.8361C32.3111 72.0194 27.0861 70.8333 26.4889 59.7056C20.4222 65.7444 16.6667 74.1 16.6667 83.3333C16.6667 84.3556 16.7306 85.3611 16.8195 86.3611C25.3472 94.7889 37.0611 100 50 100C62.9389 100 74.6528 94.7889 83.1806 86.3611C83.2695 85.3611 83.3334 84.3556 83.3334 83.3333C83.3334 77.2583 81.7111 71.5667 78.8722 66.6639Z" fill="#8991AD"/>
</g>
<defs>
<clipPath id="clip0_3016_2225">
<rect width="100" height="100" fill="white"/>
</clipPath>
</defs>
</svg>
