<svg width="100" height="100" viewBox="0 0 100 100" fill="none" xmlns="http://www.w3.org/2000/svg">
<path d="M92.4722 23.9665C92.4028 23.9443 68.0528 16.6665 59.7194 13.8887C56.3861 12.7776 1.38611 -5.5557 1.38611 58.3332C1.38611 60.1026 6.94166 88.8887 12.4972 88.8887H43.0528C66.3167 88.8887 58.725 59.2221 87.275 55.261C92.1055 54.5915 94.5555 52.1721 94.125 48.1332C93.6667 43.8304 88.6389 42.4137 84.3083 42.4137C81.125 42.4137 68.325 43.061 59.2361 47.8332C58.4417 42.8082 56.9417 36.686 56.9417 30.5526C70.8306 33.3304 87.7528 37.0332 88.0778 37.1415C91.7167 38.3471 95.65 36.3887 96.8611 32.7471C98.0778 29.111 96.1111 25.1804 92.4722 23.9665V23.9665Z" fill="#FFDC5D"/>
<path d="M53.3527 20.2584C52.2722 19.1722 50.5111 19.1695 49.425 20.2556C48.3388 21.3389 48.3361 23.0972 49.4222 24.1861C49.4694 24.2334 54.1555 29.0111 54.1555 36.1111V55.8584C54.1555 58.225 52.7638 59.0639 51.4611 59.0639C50.0833 59.0639 48.6138 58.1417 48.6138 55.5528V49.9972C48.6138 39.5334 47.7722 28.4139 41.5222 25.2889C40.1472 24.6028 38.4805 25.1611 37.7944 26.5306C37.1083 27.9028 37.6638 29.5722 39.0361 30.2584C40.8694 31.175 43.0555 35.3445 43.0555 49.9945V52.7611C43.0555 52.7611 43.0444 55.5417 43.0444 61.4111C43.0444 63.7778 41.6527 64.6167 40.35 64.6167C38.9722 64.6167 37.5027 63.6945 37.5027 61.1056V55.55C37.5027 45.0861 36.6611 33.9667 30.4111 30.8417C29.0361 30.1528 27.3694 30.7139 26.6833 32.0834C25.9972 33.4556 26.5527 35.125 27.925 35.8111C29.7583 36.7278 31.9444 40.8972 31.9444 55.5472V61.1028C31.9444 61.1611 31.9583 61.2111 31.9583 61.2695C31.9555 61.3167 31.9305 61.3584 31.9305 61.4056C31.9305 63.7723 30.5388 64.6111 29.2361 64.6111C27.8583 64.6222 26.3888 63.7 26.3888 61.1111C26.3888 51.6834 26.3888 39.95 19.2972 36.4028C17.9222 35.7139 16.2555 36.275 15.5694 37.6445C14.8833 39.0167 15.4388 40.6861 16.8111 41.3722C20.8333 43.3834 20.8333 54.4806 20.8333 61.1111C20.8333 67.0639 25.0611 70.1778 29.2361 70.1778C31.2416 70.1778 33.25 69.4472 34.7888 68.0417C36.3444 69.4445 38.3472 70.1778 40.3472 70.1778C43.7805 70.1778 47.2166 68.0417 48.2527 63.9778C49.275 64.3972 50.3666 64.6222 51.4583 64.6222C55.5583 64.6222 59.7083 61.6139 59.7083 55.8611V36.1111C59.7083 26.7361 53.6138 20.5195 53.3527 20.2584Z" fill="#EF9645"/>
</svg>
