<svg width="100" height="100" viewBox="0 0 100 100" fill="none" xmlns="http://www.w3.org/2000/svg">
<path d="M64.4889 58.1583L59.7084 39.1028L48.7445 14.6139C47.3501 11.0111 49.1417 6.95834 52.7445 5.56668C56.3445 4.16112 60.4001 5.9639 61.7945 9.56668L79.0251 53.3695L64.4889 58.1583Z" fill="#EF9645"/>
<path d="M87.6805 51.2474C86.325 44.078 82.1583 33.128 82.1583 33.128L66.0833 3.99185C64.3444 0.54185 60.1333 -0.841483 56.6861 0.894628C53.2361 2.63352 51.8472 6.84185 53.5889 10.2919L68.3944 36.8113C68.4305 36.8724 72.3194 52.0641 72.3194 52.0641C69.325 49.3002 65.0778 45.5113 61.1666 42.0141C52.5611 34.3141 47.4555 31.428 47.4555 31.428C45.4833 30.1974 44.1805 30.0224 41.5333 31.2641L25.2222 38.3974C24.7861 38.6141 24.4166 38.9196 24.125 39.3113L17.7 47.8835C15.2194 50.8474 15.6111 55.2585 18.575 57.7363C21.5361 60.2169 25.9444 59.8196 28.4305 56.8641C28.5639 56.703 33.375 49.753 33.8083 49.5307C36.6889 48.0502 42.0444 45.5113 44.3861 45.5863C46.8778 45.6669 61.8333 62.1335 61.8333 62.1335C62.4055 62.853 62.4722 63.8502 62 64.6391L53.9028 79.1613C53.6833 79.5252 53.3666 79.8169 52.9861 80.003L45.5583 84.1696C45.1305 84.378 44.6472 84.4446 44.1805 84.3557L29.5416 78.0446C28.8139 77.7307 28.2083 77.1557 27.8972 76.4252C25.7111 71.2863 25.4028 66.3724 25.4 66.3169C25.2194 62.4557 21.9444 59.4752 18.0833 59.6557C14.2305 59.8113 11.2416 63.1085 11.4222 66.9696C11.4583 67.7002 12.3972 82.6363 24.5528 92.7807C31.575 98.6363 40.2583 100.903 51.3555 99.4113C64.1666 97.6918 72.1027 95.9863 83.3166 72.8613C86.4194 66.4585 88.6028 56.128 87.6805 51.2474V51.2474Z" fill="#FFDC5D"/>
</svg>
