<svg xmlns="http://www.w3.org/2000/svg" height="32" viewBox="0 0 32 32" width="32" >
<path d="M 19.332031 28 C 18.222656 28 17.277344 27.609375 16.5 26.832031 C 15.722656 26.054688 15.332031 25.109375 15.332031 24 C 15.332031 22.890625 15.722656 21.945312 16.5 21.167969 C 17.277344 20.390625 18.222656 20 19.332031 20 C 20.445312 20 21.390625 20.390625 22.167969 21.167969 C 22.945312 21.945312 23.332031 22.890625 23.332031 24 C 23.332031 25.109375 22.945312 26.054688 22.167969 26.832031 C 21.390625 27.609375 20.445312 28 19.332031 28 Z M 19.332031 25.332031 C 19.710938 25.332031 20.027344 25.207031 20.285156 24.949219 C 20.539062 24.695312 20.667969 24.378906 20.667969 24 C 20.667969 23.621094 20.539062 23.304688 20.285156 23.050781 C 20.027344 22.792969 19.710938 22.667969 19.332031 22.667969 C 18.957031 22.667969 18.640625 22.792969 18.382812 23.050781 C 18.128906 23.304688 18 23.621094 18 24 C 18 24.378906 18.128906 24.695312 18.382812 24.949219 C 18.640625 25.207031 18.957031 25.332031 19.332031 25.332031 Z M 22 18.667969 C 19.957031 18.667969 18.222656 17.957031 16.800781 16.535156 C 15.378906 15.109375 14.667969 13.378906 14.667969 11.332031 C 14.667969 9.289062 15.378906 7.554688 16.800781 6.132812 C 18.222656 4.710938 19.957031 4 22 4 C 24.042969 4 25.777344 4.710938 27.199219 6.132812 C 28.621094 7.554688 29.332031 9.289062 29.332031 11.332031 C 29.332031 13.378906 28.621094 15.109375 27.199219 16.535156 C 25.777344 17.957031 24.042969 18.667969 22 18.667969 Z M 22 16 C 23.3125 16 24.417969 15.550781 25.316406 14.648438 C 26.214844 13.75 26.667969 12.644531 26.667969 11.332031 C 26.667969 10.023438 26.214844 8.917969 25.316406 8.015625 C 24.417969 7.117188 23.3125 6.667969 22 6.667969 C 20.6875 6.667969 19.582031 7.117188 18.683594 8.015625 C 17.785156 8.917969 17.332031 10.023438 17.332031 11.332031 C 17.332031 12.644531 17.785156 13.75 18.683594 14.648438 C 19.582031 15.550781 20.6875 16 22 16 Z M 9.332031 24 C 7.867188 24 6.609375 23.476562 5.566406 22.433594 C 4.523438 21.390625 4 20.132812 4 18.667969 C 4 17.199219 4.523438 15.945312 5.566406 14.898438 C 6.609375 13.855469 7.867188 13.332031 9.332031 13.332031 C 10.800781 13.332031 12.054688 13.855469 13.101562 14.898438 C 14.144531 15.945312 14.667969 17.199219 14.667969 18.667969 C 14.667969 20.132812 14.144531 21.390625 13.101562 22.433594 C 12.054688 23.476562 10.800781 24 9.332031 24 Z M 9.332031 21.332031 C 10.066406 21.332031 10.695312 21.070312 11.214844 20.550781 C 11.738281 20.027344 12 19.398438 12 18.667969 C 12 17.933594 11.738281 17.304688 11.214844 16.785156 C 10.695312 16.261719 10.066406 16 9.332031 16 C 8.601562 16 7.972656 16.261719 7.449219 16.785156 C 6.929688 17.304688 6.667969 17.933594 6.667969 18.667969 C 6.667969 19.398438 6.929688 20.027344 7.449219 20.550781 C 7.972656 21.070312 8.601562 21.332031 9.332031 21.332031 Z M 19.332031 24 Z M 22 11.332031 Z M 9.332031 18.667969 Z M 9.332031 18.667969" fill="#B5BDDB"/>
</svg>

