<svg width="100" height="100" viewBox="0 0 100 100" fill="none" xmlns="http://www.w3.org/2000/svg">
<path d="M50 22.2222L30.5556 0H0L38.8889 47.2222L70.8917 34.0278L50 22.2222Z" fill="#55ACEE"/>
<path d="M69.4444 0L50 22.2222L64.9722 42.5333L68.3806 38.3972L100 0H69.4444Z" fill="#3B88C3"/>
<path d="M64.4558 44.5167C64.678 43.9139 64.8197 43.2722 64.8197 42.5917C64.8197 39.525 62.3308 37.0361 59.2641 37.0361H40.7447C37.6752 37.0361 35.1891 39.525 35.1891 42.5917C35.1891 43.2722 35.328 43.9139 35.553 44.5167C26.503 49.5889 20.3752 59.2584 20.3752 70.3695C20.3725 86.7334 33.6391 100 50.003 100C66.3669 100 79.6336 86.7334 79.6336 70.3695C79.6336 59.2584 73.5058 49.5889 64.4558 44.5167V44.5167Z" fill="#FFAC33"/>
<path d="M53.8999 51.667H49.1193L41.536 57.5892C41.3804 57.7448 41.2249 58.1614 41.2249 58.367V61.6392C41.2249 62.1559 41.6415 62.6225 42.161 62.6225H47.1471V85.9948C47.1471 86.517 47.5637 86.9809 48.1332 86.9809H53.8999C54.4165 86.9809 54.8332 86.5142 54.8332 85.9948V52.6503C54.8332 52.1337 54.4193 51.667 53.8999 51.667Z" fill="#9E5200"/>
</svg>
