<svg width="100" height="100" viewBox="0 0 100 100" fill="none" xmlns="http://www.w3.org/2000/svg">
<path d="M50 22.2222L30.5556 0H0L38.8889 47.2222L70.8917 34.0278L50 22.2222Z" fill="#55ACEE"/>
<path d="M69.4444 0L50 22.2222L64.9722 42.5333L68.3806 38.3972L100 0H69.4444Z" fill="#3B88C3"/>
<path d="M64.4581 44.5167C64.6803 43.9139 64.822 43.2722 64.822 42.5917C64.822 39.525 62.3331 37.0361 59.2665 37.0361H40.747C37.6776 37.0361 35.1915 39.525 35.1915 42.5917C35.1915 43.2722 35.3303 43.9139 35.5553 44.5167C26.5053 49.5889 20.3776 59.2584 20.3776 70.3695C20.3748 86.7334 33.6415 100 50.0053 100C66.3692 100 79.6359 86.7334 79.6359 70.3695C79.6359 59.2584 73.5081 49.5889 64.4581 44.5167V44.5167Z" fill="#FF8A3B"/>
<path d="M39.2247 81.5277L42.4969 78.2555C42.858 77.8888 43.3802 77.8388 43.7941 78.1499C43.7941 78.1499 47.0136 80.5416 49.5052 80.5416C51.7413 80.5416 54.0275 78.6722 54.0275 76.3861C54.0275 74.0999 51.6886 72.1805 47.8469 72.1805H46.0719C45.5552 72.1805 45.0886 71.7138 45.0886 71.1944V66.8833C45.0886 66.3111 45.5552 65.8972 46.0719 65.8972H47.8469C51.483 65.8972 53.4025 64.1333 53.4025 61.8999C53.4025 59.6638 51.483 58.0055 49.2469 58.0055C46.9608 58.0055 45.508 59.1999 44.7302 60.0805C44.3636 60.4972 43.7441 60.4972 43.3302 60.1361L40.1608 57.0194C39.7413 56.6527 39.7941 56.0333 40.1608 55.6694C40.1608 55.6694 44.4191 51.0972 50.0775 51.0972C56.1025 51.0972 61.2969 54.7861 61.2969 60.6027C61.2969 64.5999 58.283 67.5611 55.9469 68.6499V68.8083C58.3886 69.8472 62.2302 73.0666 62.2302 77.5333C62.2302 83.1944 57.2969 87.4555 50.1274 87.4555C43.5886 87.4555 40.2608 84.2333 39.1719 82.8333C38.858 82.4611 38.9136 81.8888 39.2247 81.5277V81.5277Z" fill="#7C4119"/>
</svg>
