<svg width="100" height="100" viewBox="0 0 100 100" fill="none" xmlns="http://www.w3.org/2000/svg">
<path d="M50 22.2222L30.5556 0H0L38.8889 47.2222L70.8917 34.0278L50 22.2222Z" fill="#55ACEE"/>
<path d="M69.4444 0L50 22.2222L64.9722 42.5333L68.3806 38.3972L100 0H69.4444Z" fill="#3B88C3"/>
<path d="M64.4581 44.5167C64.6803 43.9139 64.822 43.2722 64.822 42.5917C64.822 39.525 62.3331 37.0361 59.2665 37.0361H40.747C37.6776 37.0361 35.1915 39.525 35.1915 42.5917C35.1915 43.2722 35.3303 43.9139 35.5553 44.5167C26.5053 49.5889 20.3776 59.2584 20.3776 70.3695C20.3748 86.7334 33.6415 100 50.0053 100C66.3692 100 79.6359 86.7334 79.6359 70.3695C79.6359 59.2584 73.5081 49.5889 64.4581 44.5167V44.5167Z" fill="#CCD6DD"/>
<path d="M61.1167 80.3363H51.2751C53.7139 76.9086 57.9751 71.353 59.6362 68.3891C60.8834 65.9475 61.6612 64.3919 61.6612 61.6391C61.6612 55.8725 57.3001 51.1475 49.8723 51.1475C43.6917 51.1475 39.4834 56.2364 39.4834 56.2364C39.1195 56.653 39.1723 57.2752 39.5362 57.5891L42.7056 60.8086C43.1195 61.2252 43.7445 61.2252 44.1584 60.8086C45.1445 59.7169 47.0667 58.2113 49.1945 58.2113C52.1028 58.2113 53.7667 59.9752 53.7667 61.9502C53.7667 63.403 53.0917 64.8586 52.4167 65.8975C49.3501 70.5697 41.6639 81.0113 38.6528 84.9586V85.9975C38.6528 86.5197 39.0667 86.9836 39.6389 86.9836H61.1167C61.6334 86.9836 62.1028 86.5169 62.1028 85.9975V81.3252C62.1056 80.803 61.6334 80.3363 61.1167 80.3363V80.3363Z" fill="#627077"/>
</svg>
