<svg width="100" height="100" viewBox="0 0 100 100" fill="none" xmlns="http://www.w3.org/2000/svg">
<g clip-path="url(#clip0_4939_4667)">
<path d="M98.8945 45.2223C91.7222 34.775 76.8945 50.15 49.8334 53.275C39.8139 54.4306 30.7861 62.7973 19.1472 62C14.375 61.6723 7.71113 47.9417 2.72224 50.1306C0.155576 51.2584 -1.0222 55.0223 1.61669 57.85L30.9167 92.8111C30.9167 92.8111 32.4056 94.5278 37.4222 93.3389C38.6584 93.7028 57.2417 86.2556 67.9861 71.3473C70.5583 67.7778 73.625 64.8056 76.8 62.3223C87.1084 54.7 98.3139 52.0445 98.3139 52.0445C99.7472 50.8611 100.083 49.6028 100.006 48.5111C100.1 46.6889 98.8945 45.2223 98.8945 45.2223Z" fill="#464B6F"/>
<path d="M31.8778 28.539C21.3695 43.1223 2.96669 50.0306 2.96669 50.0306C-0.466645 52.939 2.43335 56.3667 2.43335 56.3667L31.4278 90.6973C31.4278 90.6973 32.8778 92.4112 37.7611 91.2223C37.7611 91.2223 56.1639 84.3278 66.6695 69.7445C77.5 54.7167 97.0306 49.9723 97.0306 49.9723C100.461 47.064 97.5639 43.6306 97.5639 43.6306L68.5695 9.30563C68.5695 9.30563 67.1195 7.58896 62.2361 8.77229C62.2361 8.77229 42.7084 13.5056 31.8778 28.539Z" fill="#B5BDDB"/>
<path d="M61.1112 54.1666C69.5488 54.1666 76.3889 47.3265 76.3889 38.8889C76.3889 30.4512 69.5488 23.6111 61.1112 23.6111C52.6735 23.6111 45.8334 30.4512 45.8334 38.8889C45.8334 47.3265 52.6735 54.1666 61.1112 54.1666Z" fill="#464B6F"/>
<path d="M35.7583 88.6916C33.3111 88.6916 32.4139 87.7805 32.2917 87.6416L6.15557 57.1333C6.10557 57.0749 4.78057 55.5583 4.94168 53.6305C5.0389 52.461 5.64446 51.4194 6.7389 50.5332L6.9139 50.4277C7.08334 50.361 24.0333 43.3944 33.5333 30.8027L34.0889 31.2194L33.5333 30.8027C43.5833 17.4805 60.9195 11.7638 61.0917 11.7083C65.9389 10.5805 67.525 12.1916 67.6945 12.3805L93.4861 43.0583C93.5333 43.1083 94.8556 44.6305 94.6945 46.561C94.5972 47.7277 93.9917 48.7694 92.8972 49.6555L92.6222 49.7916C92.4528 49.8332 75.5972 54.0221 65.8333 66.961C56.1139 79.8499 39.1472 88.1888 38.9778 88.2694C37.6889 88.5749 36.6278 88.6916 35.7583 88.6916ZM33.3389 86.7277C33.3417 86.7277 34.5945 87.8833 38.5195 86.9721C38.5417 86.9416 55.2111 78.7444 64.7306 66.1277C74.2778 53.4749 90.3556 48.9555 92.1389 48.486C92.8528 47.8721 93.2472 47.1916 93.3111 46.461C93.4278 45.1277 92.4445 43.9805 92.4361 43.9694L66.6445 13.2888C66.6389 13.2888 65.3945 12.136 61.4667 13.0471C61.3528 13.086 44.425 18.6749 34.6445 31.6388C25.2945 44.0305 8.98057 51.0694 7.5389 51.6749C6.79445 52.2999 6.3889 52.9971 6.32501 53.7444C6.2139 55.0666 7.19168 56.2083 7.20001 56.2194L33.3389 86.7277Z" fill="#464B6F"/>
<path d="M59.1 61.5723L59.0834 78.0723L60.4639 79.7112C63.1556 77.2556 65.7417 74.4945 67.9778 71.389C70.2973 68.1723 72.9917 65.4195 75.8334 63.0945L74.4917 61.4973L59.1 61.5723Z" fill="#8888AF"/>
<path d="M74.4389 61.439L39.7 20.2917C36.8778 22.614 34.1667 25.3223 31.8611 28.5251C29.6084 31.6529 26.9861 34.4056 24.2639 36.8334L28.325 41.6417L28.3223 41.6445L59.0861 78.0723C61.8084 75.6417 64.4 72.8612 66.6556 69.7306C68.9611 66.5306 71.6695 63.8251 74.4889 61.5029L74.4361 61.439H74.4389Z" fill="#DEE2F1"/>
<path d="M40.2195 62.6527C35.8945 57.5305 26.7389 65.8416 24.1278 62.75C22.8639 61.2527 23.6778 59.3111 25.3389 57.9111C28.1306 55.55 30.1445 56.925 31.4084 55.8555C32.3056 55.1 32.2584 54.175 31.725 53.5388C30.4862 52.075 27.3195 52.8388 24.8584 54.2611L23.6612 52.8444C22.9139 51.9611 21.5917 51.8472 20.7084 52.5944C19.825 53.3444 19.7139 54.6611 20.4612 55.5444L21.7 57.0138C19.8195 59.5083 19.1806 62.8194 21.4056 65.45C25.5612 70.3666 34.8306 62.1944 37.7473 65.65C38.7584 66.85 38.475 69.1388 36.3473 70.9333C33.1584 73.6305 30.2695 72.3666 28.9723 73.4611C28.3389 73.9916 28.225 75.0027 28.9 75.8055C29.975 77.075 33.4 76.8027 36.6917 74.7527C36.6973 74.7583 36.6973 74.7638 36.6973 74.7694L38.05 76.3694C38.7973 77.2527 40.1223 77.3611 41.0056 76.6194C41.8917 75.8694 42 74.5472 41.2528 73.6638L39.9 72.0638C39.8862 72.0472 39.8639 72.0361 39.8473 72.0194C42.0667 69.3027 42.8167 65.7222 40.2195 62.6527Z" fill="#464B6F"/>
<path d="M90.1555 90.5222C90.1805 90.5 90.2083 90.4834 90.2333 90.4639C90.4222 90.275 90.5694 90.0583 90.7361 89.85C90.8527 89.7056 90.9833 89.5667 91.0916 89.4195C91.1888 89.2806 91.2694 89.1389 91.3583 88.9972C95.3027 82.9222 92.7194 72.6222 84.9111 64.8111C77.0999 57 66.7972 54.4167 60.7249 58.3639C60.5805 58.45 60.4388 58.5306 60.2999 58.6306C60.1527 58.7389 60.0111 58.8695 59.8722 58.9833C59.6666 59.1528 59.4499 59.2972 59.2583 59.4889C59.2333 59.5139 59.2166 59.5417 59.1972 59.5667C59.1666 59.5972 59.1305 59.6167 59.0972 59.65L59.1138 59.6639C56.3361 62.6139 56.3027 67.1778 59.0972 69.975C61.8972 72.775 66.4583 72.7361 69.4111 69.9583L69.4416 69.9917C69.3833 70.0472 69.3194 70.0833 69.2638 70.1389C66.3222 73.0806 66.2527 77.7722 69.0999 80.625C71.9499 83.4722 76.6472 83.4028 79.586 80.4611C79.6416 80.4056 79.6777 80.3417 79.7333 80.2833L79.7638 80.3167C76.9861 83.2667 76.9499 87.8306 79.7499 90.6306C82.5472 93.425 87.1083 93.3917 90.0583 90.6139L90.0749 90.6306C90.1027 90.5917 90.1249 90.5556 90.1555 90.5222Z" fill="#DEE2F1"/>
<path d="M59.1028 70.0861C61.6194 72.6 65.55 72.8056 68.4639 70.8111C69.6833 68.7278 70.0333 66.7472 70.0333 66.1278C63.9028 70.7 58.4305 66.1528 57.2055 63.4333C56.6972 65.7833 57.3139 68.2945 59.1028 70.0861ZM79.3778 80.7528C80.2055 79.5889 80.8472 78.4639 81.1472 77.7028C77.2444 81.2806 69.7833 78.6611 67.5222 72.9861C66.5278 75.625 67.0361 78.6639 69.1083 80.7361C71.8917 83.5195 76.425 83.4972 79.3778 80.7528ZM90.0833 90.7389L90.1639 90.6389C90.1917 90.6167 90.2194 90.6 90.2417 90.5778C90.4333 90.3889 90.5805 90.1722 90.7444 89.9667C90.8639 89.8195 90.9917 89.6833 91.1 89.5333C91.2 89.3972 91.2805 89.2528 91.3694 89.1111C91.55 88.8334 91.6472 88.5056 91.8 88.2111C84.7778 91.3528 79.5361 86.0222 78.0667 83.3639C77.2472 85.9111 77.7805 88.7639 79.7583 90.7445C82.5528 93.5417 87.1139 93.5083 90.0667 90.7278L90.0833 90.7389Z" fill="#B5BDDB"/>
<path d="M38.7667 34.7167L38.8444 34.6556C39.0361 34.4667 39.1833 34.25 39.3472 34.0445C39.4639 33.9 39.5917 33.7639 39.7 33.6139C39.8 33.475 39.8805 33.3334 39.9694 33.1917C43.9139 27.1167 41.3278 16.8139 33.5194 9.00557C25.7083 1.19446 15.4083 -1.39165 9.33332 2.55279C9.19165 2.64168 9.04721 2.72224 8.90832 2.82224C8.75832 2.93057 8.62221 3.05835 8.47777 3.17502C8.27221 3.34168 8.05554 3.48613 7.86666 3.67779C7.84166 3.70279 7.82499 3.73335 7.80554 3.75557C7.77499 3.78335 7.7361 3.80835 7.70554 3.8389L7.71943 3.85279C4.94166 6.80279 4.90832 11.3667 7.70554 14.1639C10.5028 16.9611 15.0667 16.9278 18.0167 14.15L18.0472 14.1806C17.9889 14.2333 17.925 14.2722 17.8694 14.3278C14.9278 17.2695 14.8583 21.9611 17.7083 24.8139C20.5583 27.6667 25.2528 27.5945 28.1944 24.6528C28.25 24.5972 28.2861 24.5333 28.3417 24.475L28.3722 24.5056C25.5944 27.4556 25.5583 32.0195 28.3583 34.8167C31.1555 37.6139 35.7167 37.5806 38.6667 34.8L38.6805 34.8167C38.7111 34.7861 38.7361 34.75 38.7667 34.7167Z" fill="#DEE2F1"/>
<path d="M7.70274 14.1666C10.2194 16.6833 14.15 16.8889 17.0639 14.8889C18.2833 12.8055 18.6305 10.8277 18.6305 10.2083C12.5027 14.7777 7.02774 10.2277 5.80552 7.5083C5.29718 9.86108 5.91385 12.375 7.70274 14.1666ZM27.9833 24.8277C28.8083 23.6639 29.45 22.5444 29.7472 21.7833C25.8416 25.3611 18.3805 22.7389 16.1222 17.0639C15.1277 19.7027 15.6361 22.7416 17.7055 24.8139C20.4944 27.6 25.0305 27.575 27.9833 24.8277ZM38.6805 34.8194C38.7111 34.7889 38.7361 34.7527 38.7638 34.7194L38.8416 34.6583C39.0333 34.4694 39.1805 34.2527 39.3444 34.0472C39.4611 33.9027 39.5888 33.7666 39.6972 33.6166C39.7972 33.4777 39.8777 33.3361 39.9666 33.1944C40.1472 32.9166 40.2444 32.5861 40.3972 32.2916C33.375 35.4333 28.1333 30.1055 26.6639 27.4472C25.8444 29.9944 26.3777 32.8472 28.3555 34.825C31.1527 37.6222 35.7138 37.5889 38.6638 34.8083L38.6805 34.8194Z" fill="#B5BDDB"/>
</g>
<defs>
<clipPath id="clip0_4939_4667">
<rect width="100" height="100" fill="white"/>
</clipPath>
</defs>
</svg>
