<svg width="100" height="100" viewBox="0 0 100 100" fill="none" xmlns="http://www.w3.org/2000/svg">
<path d="M50 100C77.6142 100 100 77.6142 100 50C100 22.3858 77.6142 0 50 0C22.3858 0 0 22.3858 0 50C0 77.6142 22.3858 100 50 100Z" fill="#FFCC4D"/>
<path d="M75.9305 65.6365C75.436 65.1893 74.6972 65.1615 74.1666 65.556C74.0583 65.6365 63.2722 73.6115 49.9999 73.6115C36.761 73.6115 25.9388 65.6365 25.8333 65.556C25.3027 65.1615 24.5638 65.1948 24.0694 65.6365C23.5777 66.081 23.4666 66.8143 23.8083 67.381C24.1666 67.9782 32.7444 81.9448 49.9999 81.9448C67.2555 81.9448 75.8361 67.9782 76.1916 67.381C76.5333 66.8115 76.4249 66.081 75.9305 65.6365V65.6365Z" fill="#664500"/>
<path d="M50 73.8636C49.5889 73.8636 49.1917 73.8331 48.7833 73.8192V86.3636H51.2139V73.8164C50.8111 73.8303 50.4111 73.8636 50 73.8636Z" fill="#65471B"/>
<path d="M61.1111 72.2218C61.1556 72.2107 57.0834 73.2718 54.3167 73.5718C53.3 73.6884 52.2695 73.7829 51.2139 73.819V86.3662H55.5556C58.6111 86.3662 61.1111 83.8662 61.1111 80.8107V72.2218ZM38.8889 72.2218C38.8445 72.2107 42.9167 73.2718 45.6834 73.5718C46.7 73.6884 47.7306 73.7829 48.7861 73.819V86.3662H44.4445C41.3889 86.3662 38.8889 83.8662 38.8889 80.8107V72.2218Z" fill="white"/>
<path d="M75.9305 65.6358C75.4361 65.1886 74.6972 65.1608 74.1666 65.5552C74.0833 65.6163 67.8916 70.1886 59.1361 72.4163C57.9055 72.7302 53.9583 73.6108 50.0083 73.6136C46.0528 73.6136 42.0944 72.7302 40.8639 72.4163C32.1083 70.1886 25.9166 65.6163 25.8333 65.5552C25.3055 65.1608 24.5639 65.1886 24.0694 65.6358C23.575 66.0802 23.4666 66.8108 23.8083 67.3802C24.0778 67.8302 29.0444 75.8997 38.8889 79.8275V74.7469C38.8444 74.7358 42.9166 75.7969 45.6833 76.0969C46.7 76.2136 47.7305 76.308 48.7861 76.3441C49.1916 76.358 49.5889 76.3886 50 76.3886C50.4111 76.3886 50.8083 76.358 51.2166 76.3441C52.2722 76.308 53.3028 76.2163 54.3194 76.0969C57.0861 75.7969 61.1583 74.7358 61.1139 74.7469V79.8275C70.9583 75.8997 75.925 67.8302 76.1944 67.3802C76.5333 66.8108 76.425 66.0802 75.9305 65.6358V65.6358ZM73.9555 38.9552C73.9555 43.7163 71.35 47.5775 68.1333 47.5775C64.9194 47.5775 62.3111 43.7163 62.3111 38.9552C62.3111 34.1941 64.9166 30.333 68.1333 30.333C71.35 30.333 73.9555 34.1941 73.9555 38.9552ZM26.2694 38.9552C26.2694 43.7163 28.875 47.5775 32.0916 47.5775C35.3055 47.5775 37.9139 43.7163 37.9139 38.9552C37.9139 34.1941 35.3083 30.333 32.0916 30.333C28.875 30.333 26.2694 34.1941 26.2694 38.9552Z" fill="#65471B"/>
<path d="M96.6889 26.7416C96.2139 26.2805 93.1694 27.5027 90.0889 25.9332C83.7333 22.6944 67.6722 19.5694 57.2166 26.9777C56.0972 27.7694 51.4194 27.9027 50.1111 27.8471C48.8028 27.9055 44.125 27.7721 43.0055 26.9777C32.5528 19.5694 16.4916 22.6944 10.1361 25.9332C7.05553 27.5027 4.01109 26.2805 3.53609 26.7416C2.84998 27.4055 2.84998 30.0638 3.53887 30.7305C4.2222 31.3944 7.64164 32.161 8.3222 34.1527C9.00831 36.1471 9.01386 47.9249 14.4694 51.9971C19.5778 55.8082 31.4944 56.9555 39.0472 52.6582C45.6361 48.911 45.4055 41.0221 46.6139 36.3221C47.0444 34.6471 48.2583 33.8027 50.1139 33.8027C51.9694 33.8027 53.1833 34.6471 53.6139 36.3221C54.8222 41.0194 54.5889 48.911 61.1805 52.6582C68.7333 56.9527 80.65 55.8055 85.7555 51.9971C91.2139 47.9277 91.2194 36.1471 91.9027 34.1527C92.5833 32.161 96.0027 31.3916 96.6861 30.7305C97.375 30.0638 97.3777 27.4055 96.6889 26.7416V26.7416ZM40.5944 36.8805C40.3805 39.9499 39.8333 45.8444 36.1583 47.936C33.9055 49.2194 30.9694 49.9999 27.8972 49.9999H27.8944C24.4916 49.9999 19.775 49.036 17.9305 47.661C15.625 45.9416 14.7472 38.8638 14.4166 36.2166C14.2055 34.5305 13.6389 30.411 15.4944 29.7777C18.4389 28.7749 22.5472 27.9916 26.75 27.9916C28.675 27.9916 35.1416 28.111 38.2916 30.0499C41.0833 31.7638 40.7139 35.1916 40.5944 36.8805V36.8805ZM85.8111 36.1777C85.4805 38.8277 84.6028 45.9416 82.2972 47.661C80.4528 49.036 75.7361 49.9999 72.3333 49.9999H72.3305C69.2555 49.9999 66.3222 49.2194 64.0666 47.936C60.3916 45.8471 59.8444 39.9888 59.6305 36.9194C59.5139 35.2305 59.1416 31.7777 61.9333 30.0638C65.0861 28.1249 71.55 27.9916 73.475 27.9916C77.6778 27.9916 81.7833 28.761 84.7305 29.7638C86.5861 30.3971 86.0222 34.4916 85.8111 36.1777V36.1777Z" fill="#292F33"/>
</svg>
