<svg width="100" height="100" viewBox="0 0 100 100" fill="none" xmlns="http://www.w3.org/2000/svg">
<path d="M100 88.8889C100 95.025 95.025 100 88.8889 100H11.1111C4.975 100 0 95.025 0 88.8889V11.1111C0 4.975 4.975 0 11.1111 0H88.8889C95.025 0 100 4.975 100 11.1111V88.8889Z" fill="#3B88C3"/>
<path d="M20.0362 30.4859H14.5973C10.175 30.4859 8.33337 27.2609 8.33337 24.1276C8.33337 20.9054 10.6362 17.7721 14.5973 17.7721H27.6806C31.6417 17.7721 33.8556 20.6276 33.8556 24.3109V76.7415C33.8556 81.3471 30.9056 83.9248 26.9445 83.9248C22.9834 83.9248 20.0362 81.3471 20.0362 76.7415V30.4859V30.4859ZM42.1667 50.5721C42.1667 35.5526 47.9723 16.6665 66.5834 16.6665C85.1945 16.6665 91.0028 35.5526 91.0028 50.5721C91.0028 65.5887 85.1945 84.4804 66.5834 84.4804C47.9723 84.4804 42.1667 65.5887 42.1667 50.5721V50.5721ZM76.6278 50.5721C76.6278 43.5693 75.9834 29.1943 66.5834 29.1943C57.1861 29.1943 56.5417 43.5693 56.5417 50.5721C56.5417 57.1137 57.1861 71.9471 66.5834 71.9471C75.9834 71.9471 76.6278 57.1165 76.6278 50.5721Z" fill="#F5F8FA"/>
</svg>
