<svg width="100" height="100" viewBox="0 0 100 100" fill="none" xmlns="http://www.w3.org/2000/svg">
<path d="M100 88.8889C100 95.025 95.025 100 88.8889 100H11.1111C4.975 100 0 95.025 0 88.8889V11.1111C0 4.975 4.975 0 11.1111 0H88.8889C95.025 0 100 4.975 100 11.1111V88.8889Z" fill="#3B88C3"/>
<path d="M56.5473 31.1195H34.5C29.85 31.1195 28.1278 28.1056 28.1278 25.1778C28.1278 22.164 29.7639 19.2334 34.5 19.2334H65.6778C70.0722 19.2334 71.8806 23.1945 71.8806 25.4334C71.8806 27.1556 70.9334 28.964 69.9 31.1167L48.5389 74.5251C46.1278 79.3473 45.1806 81.0667 41.3056 81.0667C36.5695 81.0667 34.1556 77.4501 34.1556 74.9528C34.1556 73.9195 34.4139 73.1473 35.0195 71.939L56.5473 31.1195Z" fill="white"/>
</svg>
