<svg width="100" height="100" viewBox="0 0 100 100" fill="none" xmlns="http://www.w3.org/2000/svg">
<path d="M100 88.8889C100 95.025 95.025 100 88.8889 100H11.1111C4.975 100 0 95.025 0 88.8889V11.1111C0 4.975 4.975 0 11.1111 0H88.8889C95.025 0 100 4.975 100 11.1111V88.8889Z" fill="#3B88C3"/>
<path d="M28.3861 60.2308C28.3861 47.2252 41.5639 28.9669 50.2611 20.8696C50.95 20.1808 51.9833 19.4919 53.0167 18.803C53.9639 18.2002 54.9139 18.2002 55.6028 18.2002C58.0111 18.2002 61.7167 21.3863 61.7167 24.4891C61.7167 25.6946 60.9417 26.728 59.9083 28.0196C56.4639 32.2391 50.8667 37.7502 48.0222 41.8002L48.1944 41.9724C49.7444 41.2835 51.725 40.9391 53.6222 40.9391C63.9583 40.9391 71.6194 50.0696 71.6194 60.2308C71.6194 71.4252 62.7472 81.5919 50 81.5919C36.7417 81.5891 28.3861 71.6863 28.3861 60.2308V60.2308ZM41.8222 60.2308C41.8222 65.053 44.8361 69.1891 50.0028 69.1891C54.9139 69.1891 58.1861 65.2252 58.1861 60.2308C58.1861 55.6669 55.4306 51.2724 50.0028 51.2724C45.0944 51.2724 41.8222 55.1502 41.8222 60.2308V60.2308Z" fill="white"/>
</svg>
