<svg width="100" height="100" viewBox="0 0 100 100" fill="none" xmlns="http://www.w3.org/2000/svg">
<path d="M100 88.8889C100 95.025 95.025 100 88.8889 100H11.1111C4.975 100 0 95.025 0 88.8889V11.1111C0 4.975 4.975 0 11.1111 0H88.8889C95.025 0 100 4.975 100 11.1111V88.8889Z" fill="#3B88C3"/>
<path d="M28.7306 61.953C28.7306 55.0641 32.5195 49.9835 37.9445 47.053C33.8973 44.1252 31.4 40.1641 31.4 34.7363C31.4 24.6585 39.7556 18.2002 50.0028 18.2002C59.9917 18.2002 68.6945 24.5724 68.6945 34.7363C68.6945 39.5585 66.2806 44.3835 62.0584 47.053C67.9167 49.9835 71.275 55.3224 71.275 61.953C71.275 73.9252 61.5417 81.5891 50 81.5891C38.1195 81.5891 28.7306 73.4919 28.7306 61.953V61.953ZM42.1667 61.0891C42.1667 65.4835 44.75 69.7058 50.0028 69.7058C54.9139 69.7058 57.8417 65.4835 57.8417 61.0891C57.8417 55.6641 54.7417 52.478 50.0028 52.478C45.0111 52.478 42.1667 56.2669 42.1667 61.0891V61.0891ZM43.8028 36.1141C43.8028 39.9891 46.0445 42.6585 50.0028 42.6585C53.9639 42.6585 56.2917 39.9891 56.2917 36.1141C56.2917 32.4113 54.05 29.5669 50.0028 29.5669C45.9556 29.5669 43.8028 32.4113 43.8028 36.1141V36.1141Z" fill="white"/>
</svg>
