<svg width="100" height="100" viewBox="0 0 100 100" fill="none" xmlns="http://www.w3.org/2000/svg">
<path d="M100 88.8889C100 95.025 95.025 100 88.8889 100H11.1111C4.975 100 0 95.025 0 88.8889V11.1111C0 4.975 4.975 0 11.1111 0H88.8889C95.025 0 100 4.975 100 11.1111V88.8889Z" fill="#3B88C3"/>
<path d="M29.9129 67.0335C25.6935 67.0335 23.8851 64.1946 23.8851 61.953C23.8851 60.0585 24.574 59.0224 25.0907 58.1641L44.3851 23.1946C46.2796 19.7502 48.6907 18.2002 53.1685 18.2002C58.1657 18.2002 63.074 21.3863 63.074 29.2252V55.6669H64.5379C67.8962 55.6669 70.5657 57.9085 70.5657 61.353C70.5657 64.7974 67.8962 67.0363 64.5379 67.0363H63.074V74.3585C63.074 78.9252 61.2657 81.0752 56.874 81.0752C52.4824 81.0752 50.6712 78.9252 50.6712 74.3585V67.0363H29.9129V67.0335ZM50.6712 31.6363H50.499L38.8712 55.6641H50.6712V31.6363Z" fill="white"/>
</svg>
