<svg width="100" height="100" viewBox="0 0 100 100" fill="none" xmlns="http://www.w3.org/2000/svg">
<path d="M100 88.8889C100 95.025 95.025 100 88.8889 100H11.1111C4.975 100 0 95.025 0 88.8889V11.1111C0 4.975 4.975 0 11.1111 0H88.8889C95.025 0 100 4.975 100 11.1111V88.8889Z" fill="#3B88C3"/>
<path d="M45.525 40.2473C47.5917 39.8167 49.8333 39.3862 51.9861 39.3862C62.4083 39.3862 69.8139 47.6556 69.8139 57.7306C69.8139 72.114 61.8944 81.589 46.9917 81.589C40.8778 81.589 28.0444 77.6251 28.0444 70.0473C28.0444 66.8612 30.7139 64.1945 33.9 64.1945C37.3444 64.1945 41.4805 69.7056 47.25 69.7056C53.2778 69.7056 56.3833 63.8473 56.3833 58.4223C56.3833 53.2556 53.4528 49.7251 48.1139 49.7251C43.1167 49.7251 42.3417 52.5667 37.95 52.5667C34.5917 52.5667 32.8694 49.9834 32.8694 48.5195C32.8694 47.4001 33.0417 46.539 33.1278 45.5917L35.2778 27.414C36.225 20.6973 37.8611 19.2334 41.9944 19.2334H62.75C66.7167 19.2334 69.0389 21.5584 69.0389 24.6584C69.0389 30.6028 64.5639 31.1195 63.0111 31.1195H46.8194L45.525 40.2473V40.2473Z" fill="white"/>
</svg>
