<svg width="100" height="100" viewBox="0 0 100 100" fill="none" xmlns="http://www.w3.org/2000/svg">
<path d="M100 88.8889C100 95.025 95.025 100 88.8889 100H11.1111C4.975 100 0 95.025 0 88.8889V11.1111C0 4.975 4.975 0 11.1111 0H88.8889C95.025 0 100 4.975 100 11.1111V88.8889Z" fill="#3B88C3"/>
<path d="M71.6222 39.5585C71.6222 52.5641 58.4472 70.8224 49.7472 78.9196C49.0584 79.6085 48.025 80.2974 46.9917 80.9863C46.0445 81.5891 45.0972 81.5891 44.4084 81.5891C41.9972 81.5891 38.2917 78.4002 38.2917 75.3002C38.2917 74.0946 39.0667 73.0613 40.1 71.7696C43.5445 67.5474 49.1445 62.0363 51.9861 57.9891L51.8139 57.8169C50.2639 58.5058 48.2834 58.8502 46.3889 58.8502C36.0528 58.8502 28.3889 49.7196 28.3889 39.5585C28.3889 28.3613 37.2584 18.2002 50.0056 18.2002C63.2695 18.2002 71.6222 28.103 71.6222 39.5585V39.5585ZM58.1861 39.5585C58.1861 34.7363 55.1695 30.6002 50.0028 30.6002C45.0945 30.6002 41.8222 34.5613 41.8222 39.5585C41.8222 44.1252 44.5778 48.5169 50.0028 48.5169C54.9167 48.5169 58.1861 44.6391 58.1861 39.5585V39.5585Z" fill="white"/>
</svg>
