<svg width="100" height="100" viewBox="0 0 100 100" fill="none" xmlns="http://www.w3.org/2000/svg">
<path d="M50 8.73047C22.3861 8.73047 0 27.9194 0 51.586C0 54.5471 0.35 57.4388 1.01944 60.2305C5.96111 68.7332 9.38055 63.3666 25 55.5555C40.9083 47.5999 25 66.6666 19.4444 77.7777C17.7361 81.1944 18.6611 84.086 21 86.4555C29.1833 91.4666 39.1778 94.4444 50 94.4444C77.6139 94.4444 100 75.2582 100 51.586C100 27.9194 77.6139 8.73047 50 8.73047V8.73047ZM57.9139 76.6388C56.8167 80.3777 51.0806 81.9832 45.1 80.2249C39.1194 78.4694 35.1611 74.0194 36.2583 70.2777C37.3556 66.5388 43.0917 64.9332 49.0722 66.6944C55.0528 68.4471 59.0111 72.8971 57.9139 76.6388V76.6388Z" fill="#B5BDDB"/>
<path d="M27.7778 38.8893C32.3802 38.8893 36.1111 35.1584 36.1111 30.556C36.1111 25.9536 32.3802 22.2227 27.7778 22.2227C23.1754 22.2227 19.4445 25.9536 19.4445 30.556C19.4445 35.1584 23.1754 38.8893 27.7778 38.8893Z" fill="#464B6F"/>
<path d="M55.5555 33.3337C60.1579 33.3337 63.8888 29.6027 63.8888 25.0003C63.8888 20.398 60.1579 16.667 55.5555 16.667C50.9531 16.667 47.2222 20.398 47.2222 25.0003C47.2222 29.6027 50.9531 33.3337 55.5555 33.3337Z" fill="#464B6F"/>
<path d="M80.5555 49.9997C85.1579 49.9997 88.8888 46.2687 88.8888 41.6663C88.8888 37.064 85.1579 33.333 80.5555 33.333C75.9531 33.333 72.2222 37.064 72.2222 41.6663C72.2222 46.2687 75.9531 49.9997 80.5555 49.9997Z" fill="#464B6F"/>
<path d="M77.7778 74.9997C82.3802 74.9997 86.1111 71.2687 86.1111 66.6663C86.1111 62.064 82.3802 58.333 77.7778 58.333C73.1754 58.333 69.4445 62.064 69.4445 66.6663C69.4445 71.2687 73.1754 74.9997 77.7778 74.9997Z" fill="#464B6F"/>
</svg>
