<svg width="100" height="100" viewBox="0 0 100 100" fill="none" xmlns="http://www.w3.org/2000/svg">
<path d="M55.6528 51.6C49.1611 51.6 30.9056 50.1528 24.4139 53.4C17.9222 56.6472 8.18613 66.3833 8.18613 69.6278C8.18613 72.8722 7.79724 82.1333 7.79724 88.625C7.79724 96.2694 21.0917 98.7778 36.925 99.4611C52.4445 100.131 72.4695 96.6444 81.7889 92.6667C87.2778 90.3222 91.3361 86.8167 91.7361 70.75C92.0806 56.9833 85.6778 20.0805 84.8611 16.7333C81.6695 3.64999 77.7195 11.9667 77.6917 11.8833C76.275 7.63054 71.6806 5.33332 67.4278 6.75277C63.175 8.16943 60.8861 12.7639 62.2945 17.0167C62.4222 17.3972 66.7472 37.1722 69.9945 53.4C71.7806 62.1528 70.4778 66.9389 61.1611 66.6222C49.8167 66.2361 51.3167 59.1639 55.6528 51.6Z" fill="#EF9645"/>
<path d="M47.0723 63.2918C47.0723 63.2918 56.9612 71.8529 63.1056 69.9224C69.25 67.9918 78.8584 19.3502 70.0723 8.68905C63.8612 1.15016 52.8695 5.84183 54.725 15.6196C55.4028 19.1946 58.2278 29.5918 61.0362 40.1252C61.5306 41.9807 60.4528 49.6002 60.3056 52.8002C59.8695 62.3752 47.0723 63.2918 47.0723 63.2918Z" fill="#EF9645"/>
<path d="M48.2111 63.7554C48.2111 63.7554 63.3888 72.3027 69.0694 69.4027C74.7499 66.5027 77.7555 22.6693 71.0611 10.7888C65.5833 1.06931 54.8388 6.29987 56.7055 15.1193C57.6277 19.486 61.275 29.7971 63.1416 39.1304C63.6361 41.6054 63.0166 47.7943 62.3805 52.3999C61.0833 61.7915 48.2111 63.7554 48.2111 63.7554Z" fill="#F9CA55"/>
<path d="M51.8417 64.0085C51.8417 64.0085 61.7306 72.2529 67.875 70.1613C74.0194 68.0696 83.6833 16.2807 74.8972 4.72515C68.6861 -3.44707 58.0639 2.72793 59.9222 12.2752C60.5583 15.5418 64 25.0613 66.2333 38.0168C66.8528 41.6057 65.7389 47.4224 65.0778 52.6363C63.7722 62.9446 51.8417 64.0085 51.8417 64.0085Z" fill="#EF9645"/>
<path d="M53.1472 64.5697C53.1472 64.5697 68.1611 72.7447 73.8417 69.603C79.5222 66.4613 82.5833 19.3336 75.8889 6.45857C70.4111 -4.07476 60.0389 3.46135 61.9028 13.0169C62.8806 18.028 66.3861 27.753 68.3389 37.3975C68.8389 39.8613 68.0917 47.6697 67.225 53.3641C65.6806 63.5169 53.1472 64.5697 53.1472 64.5697Z" fill="#F9CA55"/>
<path d="M84.5611 12.336C82.0222 0.497077 73.125 0.463744 69.0361 5.50541C64.6666 10.8915 68.0666 26.6443 70.1972 36.411C74.6527 56.8304 67.35 65.2471 53.6138 65.7415C46.3611 66.0026 74.725 72.3165 81.6888 70.2665C88.65 68.2165 87.5194 39.7082 87.3472 35.3276C87.2166 32.0832 84.5611 12.336 84.5611 12.336Z" fill="#EF9645"/>
<path d="M84.2612 12.8279C81.0362 0.850113 73.1723 1.214 69.8862 7.50567C67.7973 11.5029 69.3945 20.8084 71.5417 34.6834C74.8417 56.0057 72.2973 66.7473 56.1362 68.5279C48.9223 69.3223 67.8056 77.4085 74.2778 74.1279C80.7528 70.8473 90.2806 67.7307 90.6167 64.5029C91.1167 59.714 89.6278 33.0668 88.8834 30.3446C85.9834 19.7112 84.2612 12.8279 84.2612 12.8279Z" fill="#F9CA55"/>
<path d="M56.1501 50.7333C49.6584 50.7333 30.9084 50.1528 24.4167 53.4C17.9251 56.6472 8.56673 66.4055 8.18895 69.6278C7.92506 71.8722 8.24173 80.2667 8.91673 89.3278C9.48617 96.95 20.8473 97.4194 36.6778 98.1028C52.1973 98.7722 70.9167 95.0611 80.2362 91.0833C85.7251 88.7389 90.0445 86.0889 90.4473 70.0222C90.7917 56.2555 90.1306 52.3805 89.0112 49.1222C85.5306 39 77.7223 11.9667 77.6917 11.8833C76.2751 7.63054 71.6806 5.33332 67.4278 6.75277C63.1751 8.16943 60.7612 13.4555 61.6556 17.8444C62.3778 21.3944 64.1306 23.7861 68.8334 37.15C69.3139 38.3861 70.1945 48.1639 70.5667 56.9528C70.8251 63.0444 64.7306 65.5583 59.7167 66.3167C49.3278 67.8917 51.8112 58.2972 56.1501 50.7333Z" fill="#EF9645"/>
<path d="M8.18616 69.6305C8.18616 72.875 42.9167 62.7194 48.0584 59.8C61.1278 52.3805 62.4889 26.4833 62.4889 21.425C62.4889 16.3666 60.8362 10.4916 55.8084 9.95553C51.0889 9.45275 48.2639 12.3139 47.4806 17.9583C42.8528 51.3139 8.18616 42.4444 8.18616 69.6305Z" fill="#EF9645"/>
<path d="M89.4139 48.3501C88.7278 42.1363 87.525 33.439 86.6583 31.4585C84.1666 25.7613 77.7166 11.9279 77.6944 11.8835C75.3972 7.32515 72.3889 6.1557 68.1361 7.57237C63.8833 8.98904 62.2305 14.5696 64.1972 19.7001C65.5166 23.1446 70.6083 34.3585 71.2305 36.5335C71.7083 37.9696 73.2444 49.8363 73.0472 58.8696C72.9222 64.564 65.4361 67.6557 60.9333 67.7863C48.5361 68.1474 48.7805 60.139 53.1194 52.5779L53.9889 51.0085C60.1 40.4224 60.7139 26.2501 60.7139 22.4224C60.7139 17.3613 60.3416 13.1224 55.5972 11.3668C51.1416 9.71681 48.2666 12.3113 47.4833 17.9557C42.8528 51.314 8.18609 42.4446 8.18609 69.6307C7.9222 71.8751 8.36386 76.1501 9.03886 85.2085C9.60831 92.8307 21.1861 95.2501 37.0194 95.9335C52.5389 96.6029 70.9166 95.0613 80.2333 91.0835C85.7222 88.739 90.0416 86.089 90.4444 70.0224C90.7916 56.2557 89.7916 51.7751 89.4139 48.3501Z" fill="#FFDC5D"/>
</svg>
