<svg width="100" height="100" viewBox="0 0 100 100" fill="none" xmlns="http://www.w3.org/2000/svg">
<path d="M47.2222 75.0001C42.6194 75.0001 38.8888 71.2695 38.8888 66.6668V55.5557C38.8888 50.9529 42.6194 47.2223 47.2222 47.2223C48.8972 47.2057 63.8888 44.4445 63.8888 33.3334C63.8888 27.7779 58.3333 22.2223 49.9999 22.2223C43.2194 22.2223 38.8888 27.7779 38.8888 30.5557C38.8888 35.1584 35.1583 38.889 30.5555 38.889C25.9527 38.889 22.2222 35.1584 22.2222 30.5557C22.2222 17.0057 34.9444 5.55566 49.9999 5.55566C72.2222 5.55566 80.5555 22.1723 80.5555 36.1112C80.5555 47.6251 74.2305 56.4251 62.7416 60.889C60.2416 61.864 57.7694 62.5196 55.5555 62.964V66.6668C55.5555 71.2695 51.8249 75.0001 47.2222 75.0001Z" fill="#CCD6DD"/>
<path d="M47.2222 97.2223C51.8246 97.2223 55.5556 93.4914 55.5556 88.889C55.5556 84.2866 51.8246 80.5557 47.2222 80.5557C42.6199 80.5557 38.8889 84.2866 38.8889 88.889C38.8889 93.4914 42.6199 97.2223 47.2222 97.2223Z" fill="#CCD6DD"/>
</svg>
