<svg width="101" height="100" viewBox="0 0 101 100" fill="none" xmlns="http://www.w3.org/2000/svg">
<path d="M84.3334 63.8893H92.6667L98.2223 47.2227H89.8889L84.3334 63.8893Z" fill="#464B6F"/>
<path d="M81.5555 52.7781C81.5555 52.7781 73.2222 41.667 70.4444 41.667H45.4444L28.7777 55.5559L11.8861 60.4725C10.1639 61.0753 7.85829 62.2392 7.55274 63.8892L0.999962 91.667C0.65274 93.4614 2.24441 94.4448 3.77774 94.4448H98.2222C99.7583 94.4448 101 93.2031 101 91.667V58.3337C101 52.7781 81.5555 52.7781 81.5555 52.7781Z" fill="#B5BDDB"/>
<path d="M45.7055 55.5557L31.5555 94.4446H64.8889L78.7778 55.5557H45.7055Z" fill="#464B6F"/>
<path d="M23.2222 97.2222C29.3587 97.2222 34.3333 92.2476 34.3333 86.1111C34.3333 79.9746 29.3587 75 23.2222 75C17.0857 75 12.1111 79.9746 12.1111 86.1111C12.1111 92.2476 17.0857 97.2222 23.2222 97.2222Z" fill="#2D344A"/>
<path d="M23.2222 91.6668C26.2904 91.6668 28.7777 89.1795 28.7777 86.1112C28.7777 83.043 26.2904 80.5557 23.2222 80.5557C20.1539 80.5557 17.6666 83.043 17.6666 86.1112C17.6666 89.1795 20.1539 91.6668 23.2222 91.6668Z" fill="#464B6F"/>
<path d="M81.5556 97.2222C87.6921 97.2222 92.6667 92.2476 92.6667 86.1111C92.6667 79.9746 87.6921 75 81.5556 75C75.4191 75 70.4445 79.9746 70.4445 86.1111C70.4445 92.2476 75.4191 97.2222 81.5556 97.2222Z" fill="#2D344A"/>
<path d="M81.5556 91.6668C84.6238 91.6668 87.1111 89.1795 87.1111 86.1112C87.1111 83.043 84.6238 80.5557 81.5556 80.5557C78.4873 80.5557 76 83.043 76 86.1112C76 89.1795 78.4873 91.6668 81.5556 91.6668Z" fill="#464B6F"/>
<path d="M55.1667 83.3331C60.5361 83.3331 64.8889 78.9803 64.8889 73.6109C64.8889 68.2415 60.5361 63.8887 55.1667 63.8887C49.7972 63.8887 45.4445 68.2415 45.4445 73.6109C45.4445 78.9803 49.7972 83.3331 55.1667 83.3331Z" fill="#DEE2F1"/>
<path d="M59.4861 70.1168C59.4861 71.3418 58.9583 72.4112 57.8917 73.0946C59.2917 73.7334 60.2639 75.0362 60.2639 76.5779C60.2639 78.9112 58.1278 80.8751 55.3639 80.8751C52.4833 80.8751 50.6917 78.7529 50.6917 77.2196C50.6917 76.4612 51.4889 75.9168 52.1889 75.9168C53.5139 75.9168 53.2 78.189 55.4 78.189C56.4083 78.189 57.2278 77.414 57.2278 76.3834C57.2278 73.6612 53.9194 75.6612 53.9194 73.3668C53.9194 71.3279 56.6833 72.7057 56.6833 70.5446C56.6833 69.8057 56.1611 69.2418 55.2805 69.2418C53.4333 69.2418 53.6861 71.1473 52.3639 71.1473C51.5639 71.1473 51.0972 70.4307 51.0972 69.7084C51.0972 68.189 53.1805 66.5557 55.3389 66.5557C58.1417 66.5584 59.4861 68.6029 59.4861 70.1168V70.1168Z" fill="#2D344A"/>
<path d="M84.3334 49.9999L87.1112 47.2221L101 44.4443V49.9999H84.3334Z" fill="#B5BDDB"/>
<path d="M48.2223 44.4443H70.4445V55.5554H34.3334L48.2223 44.4443Z" fill="#DEE2F1"/>
<path d="M17.6667 66.6664C17.6667 68.2026 16.4222 69.4442 14.8889 69.4442H9.33332C7.79999 69.4442 6.55554 68.2026 6.55554 66.6664C6.55554 65.1303 7.79999 63.8887 9.33332 63.8887H14.8889C16.4222 63.8887 17.6667 65.1303 17.6667 66.6664Z" fill="#DEE2F1"/>
<path d="M101 61.1113H98.2222C96.6861 61.1113 95.4445 62.353 95.4445 63.8891V66.6669C95.4445 68.203 96.6861 69.4447 98.2222 69.4447H101V61.1113Z" fill="#464B6F"/>
</svg>
