<svg width="100" height="100" viewBox="0 0 100 100" fill="none" xmlns="http://www.w3.org/2000/svg">
<g clip-path="url(#clip0_4939_4417)">
<path d="M93.0555 50.0001C96.8908 50.0001 100 45.6473 100 40.2779C100 34.9085 96.8908 30.5557 93.0555 30.5557C89.2202 30.5557 86.1111 34.9085 86.1111 40.2779C86.1111 45.6473 89.2202 50.0001 93.0555 50.0001Z" fill="#F4900C"/>
<path d="M6.94444 50.0001C10.7798 50.0001 13.8889 45.6473 13.8889 40.2779C13.8889 34.9085 10.7798 30.5557 6.94444 30.5557C3.10913 30.5557 0 34.9085 0 40.2779C0 45.6473 3.10913 50.0001 6.94444 50.0001Z" fill="#F4900C"/>
<path d="M94.4444 52.7778C94.4444 54.3139 93.2028 55.5556 91.6666 55.5556H83.3333C81.7972 55.5556 80.5555 54.3139 80.5555 52.7778V27.7778C80.5555 26.2444 81.7972 25 83.3333 25H91.6666C93.2028 25 94.4444 26.2444 94.4444 27.7778V52.7778ZM19.4444 52.7778C19.4444 54.3139 18.2 55.5556 16.6667 55.5556H8.33332C6.79999 55.5556 5.55554 54.3139 5.55554 52.7778V27.7778C5.55554 26.2444 6.79999 25 8.33332 25H16.6667C18.2 25 19.4444 26.2444 19.4444 27.7778V52.7778Z" fill="#FFAC33"/>
<path d="M77.7777 13.8889C77.7777 21.5583 65.3388 25 49.9999 25C34.6583 25 22.2222 21.5583 22.2222 13.8889C22.2222 6.21944 34.6583 0 49.9999 0C65.3388 0 77.7777 6.21944 77.7777 13.8889Z" fill="#FFCC4D"/>
<path d="M69.4444 11.3415C69.4444 15.8165 60.7361 19.4443 50 19.4443C39.2611 19.4443 30.5555 15.8165 30.5555 11.3415C30.5555 6.86655 39.2611 3.23877 50 3.23877C60.7361 3.23877 69.4444 6.86655 69.4444 11.3415Z" fill="#F4900C"/>
<path d="M83.3333 15.2779C83.3333 19.1141 80.225 19.4446 76.3888 19.4446H23.6111C19.775 19.4446 16.6666 19.1141 16.6666 15.2779C16.6666 11.4418 19.775 8.3335 23.6111 8.3335H76.3888C80.225 8.3335 83.3333 11.4418 83.3333 15.2779Z" fill="#226699"/>
<path d="M83.3333 16.6665H16.6666C13.6 16.6665 11.1111 19.1554 11.1111 22.2221V94.4443H88.8889V22.2221C88.8889 19.1554 86.4 16.6665 83.3333 16.6665Z" fill="#55ACEE"/>
<path d="M97.2222 91.6668V88.8891C97.2222 85.8224 94.7333 83.3335 91.6666 83.3335H61.3083L51.9639 92.6779C50.8778 93.764 49.1222 93.764 48.0361 92.6779L38.6917 83.3335H8.33332C5.26666 83.3335 2.77777 85.8224 2.77777 88.8891V91.6668C2.77777 94.7335 2.48888 97.2224 5.55555 97.2224H94.4444C97.5111 97.2224 97.2222 94.7335 97.2222 91.6668Z" fill="#3B88C3"/>
<path d="M68.0555 52.7778C74.9591 52.7778 80.5555 47.1814 80.5555 40.2778C80.5555 33.3743 74.9591 27.7778 68.0555 27.7778C61.152 27.7778 55.5555 33.3743 55.5555 40.2778C55.5555 47.1814 61.152 52.7778 68.0555 52.7778Z" fill="white"/>
<path d="M68.0555 47.8359C72.2299 47.8359 75.6139 44.4519 75.6139 40.2776C75.6139 36.1032 72.2299 32.7192 68.0555 32.7192C63.8812 32.7192 60.4972 36.1032 60.4972 40.2776C60.4972 44.4519 63.8812 47.8359 68.0555 47.8359Z" fill="#DD2E44"/>
<path d="M31.9445 52.7778C38.848 52.7778 44.4445 47.1814 44.4445 40.2778C44.4445 33.3743 38.848 27.7778 31.9445 27.7778C25.0409 27.7778 19.4445 33.3743 19.4445 40.2778C19.4445 47.1814 25.0409 52.7778 31.9445 52.7778Z" fill="white"/>
<path d="M80.5556 70.8331C80.5556 74.6692 77.4472 77.7776 73.6111 77.7776H26.3889C22.5528 77.7776 19.4445 74.6692 19.4445 70.8331C19.4445 66.997 22.5528 63.8887 26.3889 63.8887H73.6111C77.4472 63.8887 80.5556 66.997 80.5556 70.8331Z" fill="#F5F8FA"/>
<path d="M47.2222 63.8887H52.7778V77.7776H47.2222V63.8887ZM33.3333 63.8887H38.8889V77.7776H33.3333V63.8887ZM61.1111 63.8887H66.6667V77.7776H61.1111V63.8887ZM19.4445 70.8331C19.4445 74.1942 21.8306 76.9942 25 77.6387V64.0276C21.8306 64.672 19.4445 67.472 19.4445 70.8331ZM75 64.0276V77.6359C78.1695 76.9914 80.5556 74.1915 80.5556 70.8303C80.5556 67.4692 78.1695 64.672 75 64.0276Z" fill="#CCD6DD"/>
<path d="M31.9444 47.8359C36.1188 47.8359 39.5028 44.4519 39.5028 40.2776C39.5028 36.1032 36.1188 32.7192 31.9444 32.7192C27.7701 32.7192 24.3861 36.1032 24.3861 40.2776C24.3861 44.4519 27.7701 47.8359 31.9444 47.8359Z" fill="#DD2E44"/>
</g>
<defs>
<clipPath id="clip0_4939_4417">
<rect width="100" height="100" fill="white"/>
</clipPath>
</defs>
</svg>
