<svg width="100" height="100" viewBox="0 0 100 100" fill="none" xmlns="http://www.w3.org/2000/svg">
<path d="M97.2223 47.2222C97.2223 73.3028 76.0806 94.4444 50.0001 94.4444C23.9195 94.4444 2.77783 73.3028 2.77783 47.2222C2.77783 21.1417 23.9195 0 50.0001 0C76.0806 0 97.2223 21.1417 97.2223 47.2222Z" fill="#FFCB4C"/>
<path d="M49.4778 69.5972C55.7094 69.5972 60.7611 67.197 60.7611 64.2361C60.7611 61.2753 55.7094 58.875 49.4778 58.875C43.2462 58.875 38.1945 61.2753 38.1945 64.2361C38.1945 67.197 43.2462 69.5972 49.4778 69.5972Z" fill="#65471B"/>
<path d="M70.4167 72.1695L70.325 72.1139C67.9945 70.6834 64.9167 71.4195 63.4862 73.75L63.0667 74.4306C61.5612 72.8695 59.5945 71.725 57.3223 71.2611L53.4362 70.4667L56.9695 53.1778C57.5167 50.4973 55.7723 47.8584 53.0945 47.3111L52.9889 47.2889C50.3084 46.7417 47.6695 48.4861 47.1223 51.1639L42.475 73.8945L42.4334 74.1L41.5639 78.3528L41.5612 78.3806L38.4278 93.75C37.8167 96.7445 39.1778 100 43.6917 100H52.7778C60.5667 100 62.875 97.1945 64.4389 91.4084L72.0528 79.0111C73.4806 76.6806 72.7473 73.6028 70.4167 72.1695V72.1695Z" fill="#F19020"/>
<path d="M62.2473 85.3973C62.1917 85.3973 62.1306 85.3917 62.0695 85.3806C61.5584 85.2862 61.2223 84.7917 61.3223 84.2778C61.4862 83.4112 61.3167 82.6473 60.8028 81.9473C59.1639 79.7028 54.4445 78.6834 52.7639 78.4806C52.2473 78.4195 51.8778 77.9473 51.9417 77.4334C52.0028 76.9167 52.4528 76.5417 52.9889 76.6112C53.2695 76.6417 59.8612 77.4723 62.3223 80.8362C63.15 81.9667 63.4362 83.2473 63.1723 84.6362C63.0862 85.0834 62.6917 85.3973 62.2473 85.3973V85.3973ZM53.1945 98.5362C52.4917 98.5362 51.7223 98.45 50.8806 98.2528C49.1862 97.8528 47.9917 96.8667 47.6028 95.5445C47.275 94.4306 47.575 93.2528 48.4056 92.3917C49.4834 91.2751 51.1917 90.9084 53.1139 91.3973C53.6167 91.525 53.9223 92.0389 53.7945 92.5445C53.6667 93.0445 53.1584 93.3528 52.6473 93.225C51.4112 92.9084 50.3556 93.0862 49.7639 93.7C49.4084 94.0667 49.2778 94.5584 49.4112 95.0139C49.6028 95.6695 50.2973 96.1834 51.3139 96.4195C54.5917 97.1889 56.4056 95.9028 57.3528 94.6834C58.7639 92.8695 58.9306 90.4112 58.4278 89.4473C57.2556 87.1917 52.7362 86.6917 51.0945 86.6889C50.575 86.6889 50.1528 86.2667 50.1528 85.7473C50.1528 85.2278 50.575 84.8056 51.0945 84.8056C51.3806 84.8056 58.1556 84.8473 60.1 88.5806C60.9473 90.2056 60.7056 93.4445 58.8389 95.8417C57.9834 96.9362 56.2195 98.5362 53.1945 98.5362V98.5362ZM39.5056 36.7278C39.5056 40.5917 37.1556 43.725 34.2584 43.725C31.3612 43.725 29.0112 40.5945 29.0112 36.7278C29.0112 32.8639 31.3584 29.7306 34.2584 29.7306C37.1556 29.7334 39.5056 32.8639 39.5056 36.7278ZM83.0167 28.5306C83.6334 28.5306 84.2528 28.3389 84.7862 27.9389C86.0917 26.9612 86.3528 25.1112 85.375 23.8084C75.7473 10.9695 62.8973 10.8223 62.3556 10.8223C60.725 10.8223 59.4056 12.1445 59.4056 13.775C59.4056 15.4 60.7195 16.7195 62.3445 16.725C62.8056 16.7306 72.8778 16.9778 80.6556 27.35C81.2334 28.1223 82.1195 28.5306 83.0167 28.5306V28.5306ZM60.4945 36.7278C60.4945 40.5917 62.8445 43.725 65.7417 43.725C68.6389 43.725 70.9889 40.5945 70.9889 36.7278C70.9889 32.8639 68.6417 29.7306 65.7417 29.7306C62.8417 29.7334 60.4945 32.8639 60.4945 36.7278ZM16.9834 28.5306C16.3667 28.5306 15.7473 28.3389 15.2139 27.9389C13.9112 26.9612 13.6473 25.1112 14.625 23.8084C24.2528 10.9695 37.1028 10.8223 37.6445 10.8223C39.275 10.8223 40.5945 12.1445 40.5945 13.775C40.5945 15.4 39.2806 16.7195 37.6556 16.725C37.1945 16.7306 27.1223 16.9778 19.3445 27.35C18.7667 28.1223 17.8806 28.5306 16.9834 28.5306V28.5306Z" fill="#65471B"/>
</svg>
