<svg width="100" height="100" viewBox="0 0 100 100" fill="none" xmlns="http://www.w3.org/2000/svg">
<path d="M91.6667 99.9998V97.222C91.6667 88.0192 84.2028 80.5553 75 80.5553H25C15.7973 80.5553 8.33337 88.0192 8.33337 97.222V99.9998H91.6667ZM74.3056 56.7637C77.6056 57.3414 81.5806 57.122 81.0167 59.3109C79.6861 64.4609 73.7834 62.5526 72.7417 62.6109C71.7 62.6665 74.3056 56.7637 74.3056 56.7637Z" fill="#66757F"/>
<path d="M75.1723 57.3472C80.3806 58.0416 82.2306 58.5027 78.4112 60.0083C76.2667 60.8555 72.1806 73.3499 69.1584 71.4472C66.1389 69.5444 75.1723 57.3472 75.1723 57.3472Z" fill="#292F33"/>
<path d="M25.7083 56.7637C22.4083 57.3414 18.4333 57.122 18.9972 59.3109C20.3278 64.4609 26.2306 62.5526 27.2722 62.6109C28.3139 62.6665 25.7083 56.7637 25.7083 56.7637Z" fill="#66757F"/>
<path d="M24.8416 57.3472C19.6333 58.0416 17.7833 58.5027 21.6027 60.0083C23.7472 60.8555 27.8333 73.3499 30.8555 71.4472C33.8777 69.5444 24.8416 57.3472 24.8416 57.3472Z" fill="#292F33"/>
<path d="M60.475 11.1586C55.0361 9.39744 42.2361 9.878 39.0361 14.0391C30.7166 14.2002 20.9583 21.7169 19.6777 31.6363C18.4111 41.453 21.2333 46.0113 22.2388 53.3947C23.375 61.7586 28.0777 64.4336 31.8388 65.553C37.2472 72.6974 42.9972 72.3919 52.65 72.3919C71.5027 72.3919 80.4805 59.778 81.275 38.3558C81.7527 25.3974 74.15 15.5836 60.475 11.1586Z" fill="#FFAC33"/>
<path d="M71.2555 39.2693C69.4305 36.7443 67.0972 34.7109 61.9778 33.9887C63.8972 34.8693 65.7361 37.9082 65.9778 39.5887C66.2167 41.2693 66.4583 42.6276 64.9389 40.9498C58.85 34.2193 52.2194 36.8693 45.65 32.7582C41.0611 29.8859 39.6639 26.7109 39.6639 26.7109C39.6639 26.7109 39.1028 30.9498 32.1444 35.2693C30.1278 36.522 27.7194 39.3109 26.3861 43.4276C25.425 46.3887 25.725 49.0276 25.725 53.5387C25.725 66.7054 36.575 77.7776 49.9639 77.7776C63.3528 77.7776 74.2028 66.6109 74.2028 53.5387C74.1916 45.3498 73.3361 42.1498 71.2555 39.2693Z" fill="#FFDC5D"/>
<path d="M52.5944 59.903H47.2555C46.5194 59.903 45.9194 59.3057 45.9194 58.5669V58.0835C45.9194 57.3474 46.5167 56.7446 47.2555 56.7446H52.5944C53.3305 56.7446 53.9333 57.3446 53.9333 58.0835V58.5669C53.9333 59.3057 53.3333 59.903 52.5944 59.903Z" fill="#C1694F"/>
<path fill-rule="evenodd" clip-rule="evenodd" d="M21.2694 41.0778C21.6805 41.4861 23.7361 42.7194 24.1472 43.95C24.5583 45.1806 25.3833 52.1556 27.85 54.2083C30.3944 56.325 39.9889 55.5361 41.8277 54.6222C45.9389 52.5722 46.4444 46.85 47.1722 43.95C47.5833 42.3083 50.05 42.3083 50.05 42.3083C50.05 42.3083 52.5166 42.3083 52.9278 43.95C53.6555 46.85 54.1611 52.5722 58.2722 54.6194C60.1111 55.5361 69.7055 56.325 72.2555 54.2111C74.7194 52.1583 75.5416 45.1833 75.9528 43.95C76.3583 42.7194 78.4194 41.4889 78.8278 41.0778C79.2389 40.6667 79.2389 39.025 78.8278 38.6139C78.0055 37.7944 68.3055 37.0611 57.8611 38.2028C55.7778 38.4306 54.9861 39.0222 50.05 39.0222C45.1166 39.0222 44.3222 38.4278 42.2389 38.2028C31.7972 37.0611 22.0944 37.7917 21.2722 38.6139C20.8583 39.025 20.8583 40.6694 21.2694 41.0778Z" fill="#292F33"/>
<path d="M21.8277 23.3195C21.8277 23.3195 25.6027 -1.40547 38.3055 0.063973C48.0611 1.19175 51.8888 2.35564 60.0638 0.333417C65.4722 -1.00547 71.3555 3.48897 74.9027 12.4973C77.1694 18.2418 78.3027 23.7223 78.3027 23.7223C78.3027 23.7223 89.2416 22.6529 89.8722 28.5334C90.5055 34.414 77.7777 41.6334 45.7361 41.6334C27.7777 41.6306 9.24996 35.0834 8.3694 29.6029C7.48885 24.1223 21.8277 23.3195 21.8277 23.3195Z" fill="#66757F"/>
<path d="M22.5694 19.8613C22.5694 19.8613 21.8194 22.928 21.4417 25.0585C21.0639 27.1919 22.0694 28.6585 28.9555 30.1252C38.0861 32.0697 58.6194 32.0474 70.7833 29.0613C75.6694 27.8613 78.8 27.0613 78.425 24.6641C77.9611 21.6974 77.8806 21.703 76.9222 18.5308C76.9222 18.5308 72.8194 19.9252 67.4028 21.1974C60.0139 22.9308 39.725 23.728 29.9555 21.5974C24.75 20.4585 22.5694 19.8613 22.5694 19.8613ZM22.1917 58.6197C21.2083 59.0224 30.3055 62.4474 42.9694 62.6697C56.2222 62.903 60.2861 63.753 57.2639 66.7224C54.0805 69.8474 54.8972 74.7613 55.1222 76.2169C55.3472 77.6724 60.8083 81.5391 61.2555 83.328C61.7028 85.1196 57.8417 99.8863 57.8417 99.8863L33.5944 99.1863C26.4694 74.6197 25.5861 75.5724 22.1917 61.3974C21.5222 58.5974 22.1917 58.6197 22.1917 58.6197Z" fill="#292F33"/>
<path d="M19.4138 58.7334C18.4305 59.139 27.5277 62.5612 40.1916 62.7834C53.4444 63.0167 57.5083 63.8667 54.4861 66.8362C51.3027 69.9612 52.6416 74.8751 52.8666 76.3306C53.0916 77.7862 58.0305 81.6529 58.4805 83.4445C58.9249 85.2334 55.0611 100 55.0611 100L30.8138 99.3001C23.6888 74.7334 22.8055 75.6862 19.4111 61.5112C18.7444 58.7112 19.4138 58.7334 19.4138 58.7334Z" fill="#66757F"/>
<path d="M77.9222 58.6196C78.9056 59.0224 69.8083 62.4474 57.1472 62.6696C43.8945 62.903 39.8306 63.753 42.8528 66.7224C46.0361 69.8474 51.1195 74.7557 50.8972 76.2113C50.6722 77.6669 39.3083 81.5391 38.8611 83.328C38.4139 85.1196 42.275 99.8863 42.275 99.8863L66.5222 99.1863C73.6472 74.6196 74.5306 75.5724 77.9222 61.3974C78.5917 58.5974 77.9222 58.6196 77.9222 58.6196Z" fill="#292F33"/>
<path d="M80.4388 58.6196C81.4222 59.0224 72.3249 62.4474 59.6638 62.6696C46.4111 62.903 42.3472 63.753 45.3694 66.7224C48.5527 69.8474 53.6388 74.7557 53.4138 76.2113C53.1888 77.6669 41.825 81.5391 41.3777 83.328C40.9305 85.1196 44.7916 99.8863 44.7916 99.8863L68.8388 99.9141C75.9638 75.3474 77.0472 75.5724 80.4416 61.3974C81.1083 58.5974 80.4388 58.6196 80.4388 58.6196Z" fill="#66757F"/>
</svg>
