<svg width="100" height="100" viewBox="0 0 100 100" fill="none" xmlns="http://www.w3.org/2000/svg">
<path d="M100 50C100 77.6139 77.6139 100 50 100C22.3889 100 0 77.6139 0 50C0 22.3889 22.3889 0 50 0C77.6139 0 100 22.3889 100 50Z" fill="#FFCC4D"/>
<path d="M85 47.7779C84.6833 47.5418 79.6361 43.8168 72.0945 41.2668C72.1667 40.9473 72.2222 40.6196 72.2222 40.2779C72.2222 39.2529 71.8361 38.3251 71.225 37.6001C76.2306 36.1557 80.4861 36.1112 80.5611 36.1112C82.0917 36.1057 83.3333 34.8612 83.3306 33.3279C83.3278 31.7973 82.0889 30.5557 80.5556 30.5557C79.9417 30.5557 65.4139 30.6612 56.3695 39.7029C55.575 40.4973 55.3361 41.6918 55.7667 42.7307C56.1945 43.7668 57.2111 44.4446 58.3333 44.4446C71.0833 44.4446 81.5639 52.1446 81.6695 52.2251C82.1695 52.5973 82.7528 52.7751 83.3306 52.7751C84.1778 52.7751 85.0111 52.389 85.5583 51.664C86.475 50.4334 86.225 48.6973 85 47.7779V47.7779ZM43.6306 39.7029C34.5889 30.6612 20.0583 30.5557 19.4445 30.5557C17.9111 30.5557 16.6695 31.7973 16.6695 33.3279C16.6667 34.8612 17.9083 36.1057 19.4417 36.1112C19.5139 36.1112 23.7695 36.1557 28.7778 37.6001C28.1639 38.3251 27.7778 39.2529 27.7778 40.2779C27.7778 40.6196 27.8306 40.9473 27.9083 41.2668C20.3639 43.8168 15.3167 47.5418 15 47.7779C13.7722 48.6973 13.525 50.439 14.4445 51.664C14.9889 52.3946 15.825 52.7779 16.6695 52.7779C17.2472 52.7779 17.8333 52.5973 18.3333 52.2223C18.4361 52.1446 28.8528 44.4446 41.6667 44.4446C42.7889 44.4446 43.8028 43.7668 44.2333 42.7307C44.6639 41.6918 44.425 40.4973 43.6306 39.7029V39.7029ZM44.4445 80.5557C50 66.6668 80.5556 66.6668 80.5556 72.2223C80.5556 75.0001 58.3333 69.4446 44.4445 80.5557Z" fill="#664500"/>
<path d="M51.1278 50.0916C58.5667 57.5249 40.0889 93.2138 36.5445 96.7583C33.6278 99.6749 24.8778 99.6749 21.9612 93.8416C19.0445 88.0083 10.2945 93.8416 7.37783 90.9249C1.5445 85.0916 10.2945 82.1749 7.37783 76.3416C4.46116 70.5083 -1.37217 67.5916 4.46116 61.7583C10.2945 55.9249 24.8778 58.8416 33.6278 53.0083C42.3778 47.1749 48.2084 47.1749 51.1278 50.0916V50.0916Z" fill="#CCD6DD"/>
<path d="M48.1166 55.1998C48.0722 55.0276 47.9694 54.8859 47.8972 54.7276C47.8139 54.5442 47.7583 54.3526 47.6361 54.1887C47.1889 53.5831 46.5111 53.1498 45.7083 53.0359H45.7055C45.325 52.9831 44.9444 53.0054 44.5777 53.097C44.325 53.1609 44.1083 53.2942 43.8861 53.422C43.7805 53.4804 43.6639 53.5054 43.5666 53.5776C43.2583 53.8054 42.9944 54.0915 42.7944 54.4248C34.6444 68.0081 15.1777 76.4915 14.9805 76.5776C13.5 77.2137 12.8166 78.9276 13.4527 80.4081C13.9277 81.5137 15.0027 82.1748 16.1333 82.1748C16.5166 82.1748 16.9055 82.0998 17.2805 81.9387C17.9 81.672 28.5444 77.022 37.9055 68.8498C32.1611 79.4748 23.3777 85.5026 23.2583 85.5859C21.9222 86.4831 21.5639 88.2915 22.4583 89.6304C23.0222 90.4692 23.9444 90.9276 24.8861 90.9276C25.4416 90.9276 26.0027 90.7692 26.5 90.4387C27.2583 89.9304 45.1194 77.8026 48.1861 56.3442C48.2361 55.9554 48.2111 55.5692 48.1166 55.1998Z" fill="#F5F8FA"/>
</svg>
