<svg width="100" height="100" viewBox="0 0 100 100" fill="none" xmlns="http://www.w3.org/2000/svg">
<g clip-path="url(#clip0_3422_2930)">
<path d="M100 50C100 77.6139 77.6139 100 50 100C22.3861 100 0 77.6139 0 50C0 22.3861 22.3861 0 50 0C77.6139 0 100 22.3861 100 50Z" fill="#FFCC4D"/>
<path d="M61.1111 74.9999C61.1111 82.6749 56.1361 83.3332 50 83.3332C43.8611 83.3332 38.8889 82.6749 38.8889 74.9999C38.8889 67.3304 43.8611 58.3332 50 58.3332C56.1361 58.3332 61.1111 67.3304 61.1111 74.9999ZM83.3333 41.6665C82.9889 41.6665 82.6389 41.6026 82.3028 41.4665C67.7778 35.6582 61.825 26.9082 61.5778 26.5387C60.725 25.261 61.0694 23.536 62.3472 22.686C63.6222 21.836 65.3389 22.1748 66.1944 23.4471C66.2472 23.5221 71.5556 31.1832 84.3639 36.3054C85.7889 36.8776 86.4833 38.4915 85.9139 39.9165C85.4778 41.0054 84.4333 41.6665 83.3333 41.6665V41.6665ZM16.6667 41.6665C15.5639 41.6665 14.5222 41.0054 14.0861 39.9193C13.5167 38.4943 14.2083 36.8776 15.6333 36.3082C28.4444 31.186 33.7528 23.5249 33.8056 23.4499C34.6611 22.1832 36.3861 21.8471 37.6583 22.6998C38.9278 23.5554 39.2722 25.2693 38.4222 26.5415C38.175 26.911 32.2222 35.661 17.7 41.4693C17.3611 41.6026 17.0111 41.6665 16.6667 41.6665Z" fill="#664500"/>
<path d="M66.6667 44.4443H77.7778V97.2221L66.6667 97.0943V44.4443ZM22.2222 97.2221L33.3333 97.0943V44.4443H22.2222V97.2221Z" fill="#5DADEC"/>
<path d="M41.6639 50.0001C41.2472 50.0001 40.8222 49.9056 40.425 49.7084C30.6695 44.8306 20.7861 49.6584 20.6889 49.7084C19.3139 50.4001 17.6472 49.8362 16.9611 48.4668C16.275 47.0945 16.8306 45.4251 18.2028 44.739C18.7083 44.489 30.6972 38.6362 42.9111 44.739C44.2833 45.4251 44.8389 47.0945 44.1528 48.4668C43.6639 49.439 42.6833 50.0001 41.6639 50.0001V50.0001ZM80.5528 50.0001C80.1361 50.0001 79.7111 49.9056 79.3139 49.7084C69.5556 44.8306 59.675 49.6584 59.5778 49.7084C58.2056 50.3973 56.5389 49.839 55.85 48.4668C55.1639 47.0945 55.7195 45.4251 57.0917 44.739C57.5972 44.489 69.5945 38.639 81.8 44.739C83.1722 45.4251 83.7278 47.0945 83.0417 48.4668C82.5528 49.439 81.5722 50.0001 80.5528 50.0001V50.0001Z" fill="#664500"/>
<path d="M50 99.9998C77.6142 99.9998 100 97.5125 100 94.4442C100 91.376 77.6142 88.8887 50 88.8887C22.3858 88.8887 0 91.376 0 94.4442C0 97.5125 22.3858 99.9998 50 99.9998Z" fill="#5DADEC"/>
<path d="M50 80.5554C54.6024 80.5554 58.3334 78.0681 58.3334 74.9999C58.3334 71.9316 54.6024 69.4443 50 69.4443C45.3976 69.4443 41.6667 71.9316 41.6667 74.9999C41.6667 78.0681 45.3976 80.5554 50 80.5554Z" fill="#E75A70"/>
</g>
<defs>
<clipPath id="clip0_3422_2930">
<rect width="100" height="100" fill="white"/>
</clipPath>
</defs>
</svg>
