<svg width="100" height="100" viewBox="0 0 100 100" fill="none" xmlns="http://www.w3.org/2000/svg">
<path d="M5.55556 27.7778C5.55556 27.7778 0 27.7778 0 33.3334V66.6667C0 72.2223 5.55556 72.2223 5.55556 72.2223H22.2222L44.4444 94.4445C44.4444 94.4445 47.2222 97.2223 50 97.2223H52.7778C52.7778 97.2223 55.5556 97.2223 55.5556 94.4445V5.55561C55.5556 5.55561 55.5556 2.77783 52.7778 2.77783H50C47.2222 2.77783 44.4444 5.55561 44.4444 5.55561L22.2222 27.7778H5.55556Z" fill="#8899A6"/>
<path d="M22.2222 72.2223L44.4445 94.4445C44.4445 94.4445 47.2222 97.2223 50 97.2223H52.7778C52.7778 97.2223 55.5556 97.2223 55.5556 94.4445V5.55561C55.5556 5.55561 55.5556 2.77783 52.7778 2.77783H50C47.2222 2.77783 44.4445 5.55561 44.4445 5.55561L22.2222 27.7778V72.2223Z" fill="#CCD6DD"/>
<path d="M80.5555 88.9416C79.8139 88.9416 79.075 88.6277 78.5555 88.0193C77.6139 86.9138 77.7444 85.2554 78.8472 84.3138C88.8555 75.7832 94.5917 63.3388 94.5917 50.1749C94.5917 37.011 88.8528 24.5666 78.8444 16.036C77.7417 15.0943 77.6111 13.4332 78.5528 12.3304C79.4944 11.2221 81.15 11.0971 82.2583 12.036C93.4361 21.5666 99.85 35.4693 99.85 50.1749C99.85 64.8804 93.4361 78.7832 82.2611 88.311C81.7639 88.7332 81.1611 88.9416 80.5555 88.9416Z" fill="#8899A6"/>
<path d="M72.9722 80.4416C72.225 80.4416 71.4917 80.1221 70.9806 79.5027C70.0722 78.4027 70.2278 76.7804 71.3278 75.8721C79.0833 69.4721 83.5333 60.0416 83.5333 49.9971C83.5333 40.0721 79.1695 30.711 71.5583 24.3166C70.4695 23.3999 70.3278 21.7721 71.2445 20.6832C72.1611 19.5888 73.7861 19.4527 74.8806 20.3666C83.6583 27.7443 88.6945 38.5416 88.6945 49.9971C88.6945 61.586 83.5611 72.4666 74.6139 79.8471C74.1306 80.2499 73.55 80.4416 72.9722 80.4416Z" fill="#8899A6"/>
<path d="M65.8583 72.1084C65.0555 72.1084 64.2583 71.7639 63.7083 71.0945C62.7333 69.9084 62.9055 68.1584 64.0916 67.1861C69.2611 62.9389 72.2222 56.675 72.2222 50C72.2222 43.2361 69.1972 36.9223 63.9222 32.6778C62.725 31.7167 62.5389 29.9667 63.5 28.7723C64.4666 27.5806 66.2111 27.3861 67.4055 28.35C73.9972 33.6556 77.7777 41.5473 77.7777 50C77.7777 58.3445 74.075 66.1723 67.6194 71.475C67.1028 71.9028 66.4777 72.1084 65.8583 72.1084Z" fill="#8899A6"/>
</svg>
