<svg width="100" height="100" viewBox="0 0 100 100" fill="none" xmlns="http://www.w3.org/2000/svg">
<g clip-path="url(#clip0_3289_2830)">
<path d="M32.2944 20.7998C31.9833 21.111 31.7472 21.486 31.55 21.8971L31.5278 21.8748L0.372205 92.0582L0.402761 92.0887C-0.175017 93.2082 0.79165 95.486 2.77221 97.4693C4.75276 99.4498 7.03054 100.417 8.14998 99.8387L8.17776 99.8665L78.3611 68.7082L78.3389 68.6832C78.7472 68.4887 79.1222 68.2526 79.4361 67.936C83.775 63.5971 76.7389 49.5276 63.725 36.511C50.7055 23.4943 36.6361 16.461 32.2944 20.7998V20.7998Z" fill="#DD2E44"/>
<path d="M36.1111 33.3335L1.15554 90.2946L0.372205 92.0585L0.402761 92.0891C-0.175017 93.2085 0.79165 95.4863 2.77221 97.4696C3.41665 98.1141 4.08609 98.6029 4.74165 99.0168L47.2222 47.2224L36.1111 33.3335Z" fill="#EA596E"/>
<path d="M63.9222 36.2943C76.8945 49.2721 84.0972 63.1054 80.0028 67.1943C75.9111 71.2888 62.0778 64.0888 49.0972 51.1165C36.1222 38.1388 28.9222 24.2999 33.0139 20.2082C37.1083 16.1166 50.9417 23.3166 63.9222 36.2943V36.2943Z" fill="#A0041E"/>
<path d="M51.6389 37.8027C51.0861 38.2499 50.3639 38.4832 49.6 38.3999C47.1889 38.1388 45.1611 37.2999 43.7417 35.9749C42.2389 34.5721 41.4972 32.6888 41.7 30.8027C42.0556 27.4915 45.3778 24.4527 51.0417 25.0638C53.2444 25.2999 54.2278 24.5915 54.2611 24.2527C54.3 23.9165 53.4917 23.0138 51.2889 22.7749C48.8778 22.5138 46.85 21.6749 45.4278 20.3499C43.925 18.9471 43.1806 17.0638 43.3861 15.1777C43.7472 11.8665 47.0667 8.82765 52.725 9.44154C54.3306 9.61376 55.1778 9.28321 55.5361 9.06932C55.8222 8.89432 55.9361 8.72765 55.9472 8.63043C55.9806 8.29432 55.1833 7.39154 52.975 7.15265C51.45 6.98598 50.3444 5.61932 50.5139 4.09154C50.6778 2.56654 52.0417 1.46376 53.5722 1.63043C59.2306 2.23876 61.8305 5.91376 61.4722 9.22765C61.1111 12.5443 57.7917 15.5777 52.1278 14.9693C50.5222 14.7943 49.6833 15.1277 49.3222 15.3415C49.0361 15.5138 48.9194 15.6832 48.9083 15.7777C48.8722 16.1165 49.675 17.0165 51.8833 17.2554C57.5417 17.8665 60.1417 21.5388 59.7833 24.8527C59.425 28.1638 56.1056 31.2027 50.4444 30.5888C48.8389 30.4165 47.9944 30.7499 47.6333 30.961C47.3444 31.1388 47.2333 31.3054 47.2222 31.3999C47.1861 31.736 47.9889 32.6388 50.1944 32.8777C51.7167 33.0443 52.825 34.4138 52.6556 35.9388C52.5778 36.6999 52.1917 37.3582 51.6389 37.8027V37.8027Z" fill="#AA8DD8"/>
<path d="M85.1695 63.4917C90.65 61.9445 94.4306 64.3889 95.3306 67.5973C96.2306 70.8028 94.2806 74.8612 88.8028 76.4028C86.6639 77.0028 86.0222 78.0251 86.1083 78.3501C86.2028 78.6778 87.2889 79.2167 89.4222 78.6139C94.9 77.0723 98.6806 79.5167 99.5806 82.7223C100.486 85.9306 98.5306 89.9834 93.05 91.5278C90.9139 92.1278 90.2695 93.1528 90.3639 93.4778C90.4556 93.8028 91.5389 94.3417 93.675 93.7417C95.1472 93.3278 96.6861 94.1862 97.1 95.6612C97.5111 97.1389 96.6528 98.6723 95.175 99.0889C89.7 100.631 85.9167 98.1917 85.0111 94.9806C84.1111 91.7751 86.0639 87.7223 91.5472 86.1778C93.6861 85.5751 94.3278 84.5556 94.2333 84.2278C94.1445 83.9028 93.0611 83.3612 90.9278 83.9612C85.4445 85.5056 81.6667 83.0667 80.7639 79.8528C79.8611 76.6473 81.8139 72.5945 87.2945 71.0473C89.4278 70.4501 90.0695 69.4223 89.9806 69.1001C89.8861 68.7723 88.8056 68.2334 86.6695 68.8334C85.1917 69.2501 83.6611 68.3889 83.2445 66.9139C82.8306 65.4417 83.6917 63.9084 85.1695 63.4917V63.4917Z" fill="#77B255"/>
<path d="M63.8917 56C63.075 56 62.2695 55.6417 61.7195 54.9583C60.7611 53.7583 60.9583 52.0111 62.1528 51.0528C62.7583 50.5667 77.2028 39.2222 97.6167 42.1417C99.1361 42.3583 100.192 43.7639 99.975 45.2833C99.7583 46.8 98.3639 47.8667 96.8306 47.6389C78.7945 45.0778 65.7556 55.2889 65.6278 55.3917C65.1111 55.8028 64.5 56 63.8917 56V56Z" fill="#AA8DD8"/>
<path d="M15.9833 44.4442C15.7195 44.4442 15.45 44.4053 15.1833 44.3275C13.7139 43.8859 12.8806 42.3387 13.3222 40.8692C16.4695 30.3887 19.3222 13.6637 15.8167 9.30254C15.425 8.8081 14.8333 8.32198 13.4778 8.42476C10.8722 8.62476 11.1195 14.122 11.1222 14.1775C11.2389 15.7081 10.0889 17.0414 8.56113 17.1553C7.00835 17.2498 5.69724 16.122 5.58335 14.5914C5.29724 10.7609 6.4889 3.3831 13.0611 2.88587C15.9945 2.66365 18.4306 3.6831 20.15 5.82198C26.7361 14.0192 20.05 37.7831 18.6445 42.4664C18.2833 43.6692 17.1778 44.4442 15.9833 44.4442Z" fill="#77B255"/>
<path d="M70.8334 30.5555C73.1345 30.5555 75 28.69 75 26.3888C75 24.0876 73.1345 22.2222 70.8334 22.2222C68.5322 22.2222 66.6667 24.0876 66.6667 26.3888C66.6667 28.69 68.5322 30.5555 70.8334 30.5555Z" fill="#5C913B"/>
<path d="M5.55556 55.5554C8.6238 55.5554 11.1111 53.0681 11.1111 49.9999C11.1111 46.9316 8.6238 44.4443 5.55556 44.4443C2.48731 44.4443 0 46.9316 0 49.9999C0 53.0681 2.48731 55.5554 5.55556 55.5554Z" fill="#9266CC"/>
<path d="M90.2778 58.3333C92.5789 58.3333 94.4444 56.4679 94.4444 54.1667C94.4444 51.8655 92.5789 50 90.2778 50C87.9766 50 86.1111 51.8655 86.1111 54.1667C86.1111 56.4679 87.9766 58.3333 90.2778 58.3333Z" fill="#5C913B"/>
<path d="M65.2778 91.6668C67.5789 91.6668 69.4444 89.8013 69.4444 87.5002C69.4444 85.199 67.5789 83.3335 65.2778 83.3335C62.9766 83.3335 61.1111 85.199 61.1111 87.5002C61.1111 89.8013 62.9766 91.6668 65.2778 91.6668Z" fill="#5C913B"/>
<path d="M77.7778 16.6668C80.846 16.6668 83.3333 14.1795 83.3333 11.1112C83.3333 8.04297 80.846 5.55566 77.7778 5.55566C74.7095 5.55566 72.2222 8.04297 72.2222 11.1112C72.2222 14.1795 74.7095 16.6668 77.7778 16.6668Z" fill="#FFCC4D"/>
<path d="M90.2778 27.7777C92.5789 27.7777 94.4444 25.9122 94.4444 23.611C94.4444 21.3098 92.5789 19.4443 90.2778 19.4443C87.9766 19.4443 86.1111 21.3098 86.1111 23.611C86.1111 25.9122 87.9766 27.7777 90.2778 27.7777Z" fill="#FFCC4D"/>
<path d="M81.9444 38.889C84.2456 38.889 86.1111 37.0235 86.1111 34.7223C86.1111 32.4211 84.2456 30.5557 81.9444 30.5557C79.6433 30.5557 77.7778 32.4211 77.7778 34.7223C77.7778 37.0235 79.6433 38.889 81.9444 38.889Z" fill="#FFCC4D"/>
<path d="M20.8334 69.4447C23.1345 69.4447 25 67.5792 25 65.278C25 62.9768 23.1345 61.1113 20.8334 61.1113C18.5322 61.1113 16.6667 62.9768 16.6667 65.278C16.6667 67.5792 18.5322 69.4447 20.8334 69.4447Z" fill="#FFCC4D"/>
</g>
<defs>
<clipPath id="clip0_3289_2830">
<rect width="100" height="100" fill="white"/>
</clipPath>
</defs>
</svg>
