<svg width="100" height="100" viewBox="0 0 100 100" fill="none" xmlns="http://www.w3.org/2000/svg">
<path d="M25.5845 50.533C26.5335 51.4764 27.7984 52 29.1684 52C30.539 52 31.6982 51.4764 32.7523 50.533C34.7554 48.5425 34.7554 45.399 32.7523 43.5123L20.1032 31.0428H90.9404C93.681 31.0428 96 28.8427 96 26.0132C96 23.1838 93.7861 20.9836 90.9404 20.9836H20.1032L32.6472 8.51417C34.6503 6.52297 34.6503 3.37936 32.6472 1.4932C30.6441 -0.497734 27.4818 -0.497734 25.5845 1.4932L4.50212 22.4506C2.49929 24.4411 2.49929 27.5853 4.50212 29.4714L25.5845 50.533Z" fill="white"/>
<path d="M73.4409 49.4934C71.4407 47.5022 68.2814 47.5022 66.3861 49.4934C64.386 51.4839 64.386 54.6274 66.3861 56.5135L78.9159 68.9837H8.05408C5.31643 68.9837 3 71.1838 3 74.0132C3 76.7376 5.21114 79.0428 8.05408 79.0428H78.8109L66.2812 91.5123C64.2804 93.5035 64.2804 96.647 66.2812 98.533C67.2285 99.4764 68.4919 100 69.861 100C71.2301 100 72.388 99.4764 73.4409 98.533L94.4994 77.4714C96.5002 75.4802 96.5002 72.3367 94.4994 70.4506L73.4409 49.4934Z" fill="white"/>
</svg>
