<svg width="32" height="32" viewBox="0 0 32 32" fill="none" xmlns="http://www.w3.org/2000/svg">
<path fill-rule="evenodd" clip-rule="evenodd" d="M16 32C24.8366 32 32 24.8366 32 16C32 7.16344 24.8366 0 16 0C7.16344 0 0 7.16344 0 16C0 24.8366 7.16344 32 16 32ZM22.55 9.775C23.4851 9.49342 24.3687 9.0629 25.1667 8.5C24.884 9.66059 24.2838 10.7196 23.4333 11.5583C23.4769 11.7863 23.4992 12.0179 23.5 12.25C23.5 21.8333 14.3333 26 6.83333 21.8333C8.90596 21.9158 10.9504 21.3316 12.6667 20.1667C5.16667 16.8333 8.5 9.33333 8.5 9.33333C9.34193 10.5322 10.4673 11.5042 11.7758 12.1629C13.0844 12.8215 14.5355 13.1463 16 13.1083V12.275C15.9897 11.5103 16.2146 10.7609 16.6442 10.1281C17.0737 9.49533 17.6872 9.00976 18.4017 8.73704C19.1162 8.46433 19.8973 8.41763 20.6392 8.60327C21.3811 8.78891 22.0481 9.19793 22.55 9.775Z" fill="white"/>
</svg>
