<svg width="100" height="100" viewBox="0 0 100 100" fill="none" xmlns="http://www.w3.org/2000/svg">
<path d="M100 18.9457C96.321 20.5693 92.3665 21.6662 88.217 22.1597C92.4525 19.6337 95.706 15.6338 97.2375 10.8673C93.273 13.2068 88.8825 14.905 84.209 15.8203C80.467 11.8532 75.135 9.375 69.2339 9.375C57.9039 9.375 48.7174 18.5134 48.7174 29.7854C48.7174 31.3851 48.8989 32.9431 49.2489 34.4369C32.1979 33.5858 17.0809 25.4596 6.96185 13.1108C5.19584 16.1252 4.18384 19.6312 4.18384 23.3719C4.18384 30.4534 7.80585 36.7007 13.3109 40.3609C9.94785 40.2549 6.78434 39.3367 4.01834 37.8081C4.016 37.8931 4.016 37.9787 4.016 38.0647C4.016 47.9538 11.088 56.2028 20.4735 58.0791C18.752 58.5457 16.9395 58.7949 15.0685 58.7949C13.7465 58.7949 12.4615 58.6666 11.2085 58.4288C13.8195 66.5376 21.396 72.4387 30.3741 72.6028C23.3525 78.0776 14.5065 81.3408 4.89401 81.3408C3.23801 81.3408 1.605 81.2438 0 81.0553C9.07952 86.847 19.8635 90.2261 31.4496 90.2261C69.1861 90.2261 89.8226 59.1248 89.8226 32.1517C89.8226 31.2667 89.8026 30.3868 89.7631 29.5108C93.7711 26.6336 97.2495 23.0391 100 18.9457Z" fill="#B5BDDB"/>
</svg>
