<svg width="100" height="100" viewBox="0 0 100 100" fill="none" xmlns="http://www.w3.org/2000/svg">
<path d="M100 50C100 77.6139 77.6139 100 50 100C22.3889 100 0 77.6139 0 50C0 22.3889 22.3889 0 50 0C77.6139 0 100 22.3889 100 50Z" fill="#FFCC4D"/>
<path d="M70.7916 77.4415C70.6666 76.9443 67.5472 65.2776 49.9999 65.2776C32.4499 65.2776 29.3333 76.9443 29.2083 77.4415C29.0555 78.0443 29.3277 78.6693 29.8666 78.9804C30.4083 79.2888 31.0861 79.1971 31.5333 78.7665C31.5861 78.7138 36.9611 73.611 49.9999 73.611C63.0388 73.611 68.4166 78.7137 68.4666 78.7637C68.7333 79.0276 69.0888 79.1665 69.4444 79.1665C69.6777 79.1665 69.9138 79.1082 70.1277 78.9888C70.6722 78.6776 70.9444 78.0471 70.7916 77.4415V77.4415ZM80.5583 38.8887C79.7111 38.8887 78.8805 38.5054 78.3333 37.7776C71.5777 28.7665 60.2388 35.4276 59.7611 35.7137C58.4416 36.5054 56.7361 36.0749 55.9499 34.761C55.1611 33.4443 55.5861 31.7387 56.9027 30.9499C62.4527 27.6193 74.9972 24.0693 82.7749 34.4415C83.6972 35.6693 83.4472 37.411 82.2194 38.3304C81.7222 38.7082 81.1388 38.8887 80.5583 38.8887V38.8887ZM19.4416 38.8887C18.8638 38.8887 18.2777 38.7082 17.7777 38.3332C16.5499 37.4137 16.3027 35.6721 17.2222 34.4443C25.0027 24.0721 37.5472 27.6221 43.0944 30.9526C44.4111 31.7415 44.8361 33.4471 44.0472 34.7637C43.2583 36.0776 41.5583 36.5082 40.2416 35.7193C39.7444 35.4249 28.3694 28.8443 21.6638 37.7804C21.1222 38.5054 20.2861 38.8887 19.4416 38.8887V38.8887ZM80.5555 44.4443C80.5555 42.911 79.3138 41.6665 77.7777 41.6665H58.3333C56.7972 41.6665 55.5555 42.911 55.5555 44.4443C55.5555 45.9776 56.7972 47.2221 58.3333 47.2221H72.4777C73.0527 48.836 74.5777 49.9999 76.3888 49.9999C78.6888 49.9999 80.5555 48.136 80.5555 45.8332C80.5555 45.5276 80.5166 45.2304 80.4555 44.9415C80.4888 44.7749 80.5555 44.6193 80.5555 44.4443V44.4443ZM44.4444 44.4443C44.4444 42.911 43.1999 41.6665 41.6666 41.6665H22.2222C20.6888 41.6665 19.4444 42.911 19.4444 44.4443C19.4444 45.9776 20.6888 47.2221 22.2222 47.2221H36.3666C36.9416 48.836 38.4666 49.9999 40.2777 49.9999C42.5777 49.9999 44.4444 48.136 44.4444 45.8332C44.4444 45.5276 44.4055 45.2304 44.3444 44.9415C44.3749 44.7749 44.4444 44.6193 44.4444 44.4443V44.4443Z" fill="#664500"/>
</svg>
