<svg width="100" height="100" viewBox="0 0 100 100" fill="none" xmlns="http://www.w3.org/2000/svg">
<path fill-rule="evenodd" clip-rule="evenodd" d="M71.5382 69.1257C72.817 72.1446 74.0981 75.1625 75.3739 78.1827C76.8242 81.6168 78.2544 85.0596 79.726 88.4848C80.2332 89.6654 80.3261 90.7976 79.4245 91.7829C78.5474 92.7416 77.4326 92.7819 76.2478 92.3637C73.4213 91.3657 70.5785 90.4138 67.7596 89.3945C67.0682 89.1446 66.7841 89.3256 66.4934 89.9606C65.1971 92.7913 63.8601 95.6035 62.5172 98.4126C61.9812 99.5337 61.0399 99.9532 59.8236 99.8633C58.7432 99.7837 58.0771 99.1768 57.6794 98.2305C55.5838 93.2431 53.4973 88.2519 51.4051 83.2632C51.3087 83.033 51.1873 82.8133 51.0153 82.461C50.2956 84.1583 49.6163 85.7419 48.9514 87.3318C47.4373 90.9517 45.9355 94.5767 44.417 98.1945C43.9629 99.2767 43.1734 99.8603 41.949 99.8723C40.7179 99.8844 39.97 99.2869 39.469 98.2212C38.1444 95.4031 36.787 92.6004 35.4682 89.7797C35.2246 89.2583 34.9758 89.1787 34.4295 89.3724C31.4464 90.4315 28.4484 91.4492 25.4499 92.464C24.4024 92.8187 23.3996 92.633 22.667 91.8173C21.9337 91.0004 21.7214 90.0149 22.1814 88.9232C24.6302 83.1117 27.058 77.2913 29.4977 71.476C29.6165 71.1929 29.7798 70.9283 29.9222 70.6552C30.2966 70.8116 30.6473 71.0016 30.8871 71.3465C29.6805 74.2726 28.4821 77.2021 27.2649 80.1237C26.0142 83.1254 24.7418 86.118 23.4867 89.1176C23.213 89.7718 23.1198 90.4412 23.6761 91.0011C24.1887 91.5168 24.7809 91.362 25.3921 91.148C28.5119 90.0546 31.6464 89.0025 34.7578 87.8859C35.5526 87.6008 35.9404 87.7497 36.2992 88.5369C37.6833 91.5745 39.1387 94.5794 40.5639 97.5984C40.8456 98.1949 41.2446 98.6593 41.9507 98.649C42.6143 98.6396 43.0253 98.2127 43.269 97.6308C45.4986 92.3045 47.7034 86.9676 49.97 81.6571C50.3232 80.8291 50.2641 80.1912 49.7703 79.5053C49.5415 79.6423 49.5039 79.8401 49.4296 80.0168C47.2239 85.2623 45.0186 90.5082 42.8089 95.7522C42.662 96.1008 42.6172 96.5949 42.1207 96.605C41.5941 96.6159 41.4998 96.1041 41.3174 95.7416C39.8034 92.7315 38.282 89.7249 36.8017 86.6982C36.5368 86.1566 36.2852 86.0296 35.7139 86.2294C34.0751 86.8025 32.417 87.3207 30.7642 87.8532C29.0847 88.3944 27.4014 88.9239 25.7223 89.4667C25.4421 89.5573 25.1715 89.6379 24.946 89.3851C24.7517 89.1672 24.8098 88.9183 24.9116 88.6735C24.9977 88.4664 25.069 88.2532 25.1556 88.0463C27.4206 82.6433 29.6867 77.2406 31.9526 71.8377C33.8455 72.336 35.7849 72.2856 37.6997 72.1665C40.2312 72.0092 42.3924 72.8158 44.4501 74.193C46.1188 75.3099 47.8365 76.3878 49.9559 76.432C52.8748 83.4131 55.798 90.3923 58.7063 97.378C58.9812 98.0382 59.3019 98.6261 60.0934 98.6473C60.8839 98.6687 61.2613 98.1016 61.563 97.4593C62.9099 94.5901 64.248 91.717 65.6261 88.863C66.2693 87.5308 65.9524 87.4456 67.673 88.0387C70.6919 89.0797 73.713 90.1144 76.7253 91.1741C77.3877 91.4072 77.9806 91.4551 78.4917 90.8984C79.0095 90.3345 78.8617 89.7429 78.5941 89.1075C75.9399 82.8053 73.3005 76.4969 70.6569 70.1901C70.9273 69.816 71.1467 69.3994 71.5382 69.1257Z" fill="#B5BDDB"/>
<mask id="mask0_3361_2489" style="mask-type:alpha" maskUnits="userSpaceOnUse" x="12" y="0" width="77" height="77">
<path d="M12 0.168701H88.1905V76.4575H12V0.168701Z" fill="white"/>
</mask>
<g mask="url(#mask0_3361_2489)">
<path fill-rule="evenodd" clip-rule="evenodd" d="M37.552 5.92511C36.1888 5.92511 35.2604 5.8875 34.3363 5.9332C32.6546 6.01651 31.2527 6.64383 30.2502 8.07823C29.4747 9.18784 28.8334 10.3706 28.225 11.5706C27.1328 13.7258 25.5258 15.3352 23.3682 16.42C22.4168 16.8985 21.5011 17.448 20.5739 17.9738C18.6347 19.0733 17.7244 20.758 17.7436 22.9722C17.7559 24.4052 17.7438 25.8384 17.766 27.2711C17.7908 28.8583 17.3854 30.3241 16.5817 31.6831C15.939 32.77 15.2978 33.8583 14.6315 34.9308C13.2545 37.1475 13.1849 39.3565 14.6113 41.5796C14.9446 42.0988 15.2137 42.662 15.5732 43.1612C17.2659 45.5126 18.021 48.111 17.7729 51.0109C17.6964 51.904 17.7394 52.8084 17.7472 53.7072C17.7633 55.6239 18.4251 57.2207 20.0923 58.2885C20.7293 58.6966 21.3604 59.1352 22.0469 59.4413C25.1231 60.8121 27.428 62.943 28.8002 66.0541C29.0819 66.6931 29.4697 67.2862 29.82 67.8939C30.9179 69.7981 32.5976 70.676 34.7652 70.6752C36.2533 70.6747 37.7416 70.6712 39.2297 70.6565C40.8174 70.641 42.2712 71.0954 43.6262 71.8934C44.7141 72.534 45.8007 73.1779 46.8722 73.8452C49.0125 75.1781 51.1445 75.1949 53.2892 73.8627C54.0995 73.3595 54.9352 72.8961 55.7334 72.3747C57.5714 71.1745 59.548 70.5241 61.7705 70.647C62.9746 70.7135 64.1846 70.6722 65.392 70.6759C67.5935 70.6823 69.2963 69.7985 70.3975 67.8528C70.9228 66.9248 71.4738 66.0093 71.9515 65.057C73.0344 62.8988 74.6214 61.271 76.7892 60.1921C77.7675 59.705 78.7153 59.1524 79.6545 58.5922C81.1791 57.6836 82.2019 56.4285 82.3763 54.5814C82.5381 52.8691 82.4261 51.157 82.4212 49.4455C82.4163 47.7096 82.8493 46.1199 83.7458 44.6435C84.4013 43.5641 85.042 42.4757 85.6935 41.3939C86.9 39.3904 86.9605 37.3688 85.7779 35.3364C85.2557 34.4389 84.7299 33.5423 84.1666 32.6706C82.9597 30.8044 82.2899 28.8047 82.4203 26.5491C82.4918 25.3167 82.4633 24.0769 82.4461 22.841C82.4198 20.9624 81.7692 19.3988 80.1434 18.3185C79.0422 17.5865 77.8847 16.9577 76.7113 16.358C74.6425 15.3003 73.0903 13.745 72.0265 11.6784C71.5001 10.6561 70.928 9.65614 70.3461 8.66389C69.4407 7.11988 68.1357 6.13691 66.3146 5.9703C65.6178 5.90656 64.9133 5.93017 64.2119 5.91769C62.6975 5.89037 61.1757 6.04298 59.6694 5.83742C57.8082 5.58346 56.2123 4.64281 54.7495 3.56254C51.6249 1.25496 48.6071 1.22258 45.4822 3.55175C43.0152 5.39054 40.2598 6.39104 37.552 5.92511ZM30.887 71.3464C30.6472 71.0015 30.2966 70.8115 29.9221 70.6553C28.3105 68.7588 27.3291 66.4715 26.0312 64.3804C25.2168 63.0683 23.9656 62.271 22.6471 61.5519C21.3675 60.854 20.0492 60.2204 18.8782 59.3352C17.1769 58.0492 16.301 56.3325 16.2353 54.2104C16.2041 53.2 16.1551 52.1801 16.2504 51.1776C16.505 48.5025 15.7693 46.1405 14.246 43.962C13.6695 43.1376 13.1781 42.2437 12.7339 41.3389C11.7291 39.2929 11.7744 37.2285 12.7568 35.1745C13.3158 34.0054 14.0271 32.9261 14.7173 31.8366C15.7673 30.1794 16.3694 28.4214 16.2553 26.428C16.1864 25.2233 16.2388 24.0121 16.224 22.804C16.1903 20.0818 17.4012 18.0659 19.7049 16.6841C20.5945 16.1506 21.4937 15.6256 22.4244 15.1703C24.4684 14.1705 25.9715 12.6705 26.9814 10.6238C27.6749 9.21786 28.3949 7.81836 29.4353 6.61381C30.7119 5.13573 32.3447 4.4644 34.2563 4.40942C35.238 4.38126 36.2299 4.31954 37.202 4.42022C39.9452 4.70386 42.3408 3.88767 44.5592 2.33556C45.2918 1.82325 46.0929 1.40234 46.8876 0.98767C49.0353 -0.13324 51.188 -0.0769165 53.3461 0.993741C54.4559 1.54433 55.495 2.21195 56.531 2.87974C58.2107 3.96221 60.0128 4.51752 62.0216 4.43C63.2268 4.37738 64.4356 4.41229 65.6426 4.40167C68.3685 4.37755 70.3606 5.6241 71.7235 7.93641C72.2789 8.87873 72.8335 9.82528 73.3187 10.8047C74.2647 12.7147 75.6859 14.1148 77.5864 15.0651C78.7648 15.6543 79.926 16.2809 81.0148 17.0307C82.9628 18.3723 83.9427 20.2302 83.9676 22.5914C83.9772 23.5185 84.0379 24.4529 83.9486 25.3717C83.6853 28.0755 84.4258 30.4695 85.9779 32.6637C86.4622 33.3484 86.8628 34.0963 87.2628 34.8362C88.5943 37.2996 88.4611 39.7344 87.0652 42.1263C86.3719 43.314 85.6662 44.4941 84.9633 45.6759C84.2568 46.8641 83.9334 48.1497 83.9492 49.53C83.9656 50.9347 83.9491 52.3401 83.973 53.7447C84.0193 56.4693 82.8136 58.4894 80.523 59.8836C79.5411 60.4814 78.5307 61.0356 77.5107 61.5661C75.8504 62.4297 74.4863 63.5838 73.6088 65.2723C72.9366 66.5659 72.2306 67.842 71.539 69.1256C71.1467 69.3993 70.9273 69.8158 70.6568 70.19C70.3008 70.3911 70.0293 70.6858 69.7685 70.9927C68.2652 72.0018 66.5876 72.2659 64.8155 72.2047C63.5559 72.1612 62.2938 72.1953 61.0326 72.1921C60.1554 72.1895 59.3103 72.3518 58.5078 72.7044C56.0133 73.8008 53.9191 75.672 51.2633 76.4575C50.8296 76.3337 50.3919 76.4302 49.9558 76.4319C47.8365 76.3878 46.1188 75.3098 44.4502 74.1929C42.3923 72.8157 40.2312 72.0091 37.6996 72.1664C35.7848 72.2857 33.8454 72.3359 31.9524 71.8378C31.6317 71.5988 31.2918 71.4024 30.887 71.3464Z" fill="#464B6F"/>
</g>
<path fill-rule="evenodd" clip-rule="evenodd" d="M60.8655 46.2364C61.5478 46.2568 62.0072 45.6917 61.8078 44.9925C60.5937 40.7389 59.3622 36.4903 58.1342 32.2406C57.945 31.5859 57.446 31.4536 56.8736 31.5896C56.4058 31.7006 56.2825 32.1423 56.161 32.5526C55.3735 35.2099 54.5852 37.8671 53.7959 40.5239C53.3652 41.973 52.9146 43.4163 52.5081 44.8719C52.3406 45.4719 52.4682 46.0296 53.1626 46.203C53.7678 46.3541 54.1843 46.1107 54.3473 45.4585C54.5032 44.8345 54.7381 44.2303 54.8949 43.6065C55.0033 43.1763 55.2266 43.0224 55.6655 43.0338C56.6461 43.0593 57.6284 43.0588 58.6089 43.0342C59.0713 43.0227 59.3256 43.1455 59.4235 43.6451C59.5417 44.247 59.7504 44.8321 59.9366 45.4192C60.0801 45.8706 60.3079 46.2465 60.8655 46.2364ZM38.815 38.9323C38.7486 39.6296 38.9504 40.2886 39.2763 40.9274C39.9009 42.1515 40.5234 43.3775 41.1164 44.6173C41.5936 45.6155 42.3155 46.2077 43.4552 46.2466C44.6546 46.2878 45.3894 45.6595 45.8817 44.6396C46.5278 43.3011 47.2002 41.975 47.8297 40.6289C48.3715 39.4708 48.3678 38.2929 47.8048 37.1362C47.1051 35.6986 46.4142 34.2563 45.6802 32.8364C44.8006 31.1352 42.3563 31.0128 41.4017 32.6799C40.5118 34.2342 39.7863 35.8834 39.0124 37.5025C38.8054 37.9355 38.77 38.4225 38.815 38.9323ZM66.105 38.6441C66.105 40.7785 66.1133 42.9131 66.1001 45.0475C66.0961 45.7428 66.3423 46.2197 67.0864 46.2286C67.9357 46.2386 68.0647 45.5934 68.0786 44.9468C68.1046 43.7396 68.1075 42.531 68.0775 41.3242C68.0647 40.8084 68.2379 40.6411 68.7513 40.6524C70.0698 40.6816 71.3897 40.6837 72.7082 40.6551C74.2777 40.6212 75.4697 39.4429 75.5178 37.8701C75.5536 36.6917 75.556 35.5102 75.5169 34.3318C75.464 32.7274 74.2256 31.559 72.6249 31.5546C70.7165 31.5492 68.8076 31.5772 66.8999 31.5394C66.2862 31.5271 66.0762 31.6745 66.0892 32.3252C66.1315 34.4308 66.105 36.5377 66.105 38.6441ZM25.1566 38.6703C25.1566 40.7485 25.1555 42.8267 25.1582 44.9052C25.1585 45.1288 25.128 45.3714 25.2021 45.5719C25.375 46.0389 25.7279 46.2819 26.2481 46.234C26.8974 46.1743 27.0974 45.695 27.1154 45.1728C27.1582 43.9386 27.1663 42.701 27.1254 41.4667C27.105 40.8541 27.259 40.6219 27.9137 40.6472C29.2026 40.6974 30.4956 40.6853 31.7859 40.6537C33.3121 40.6165 34.5075 39.4544 34.5663 37.9281C34.6127 36.7222 34.6113 35.5119 34.5672 34.3058C34.5085 32.7055 33.2649 31.5579 31.6504 31.5542C29.742 31.55 27.8329 31.5822 25.9256 31.5372C25.2711 31.5219 25.1327 31.7411 25.143 32.3512C25.1784 34.4569 25.1566 36.5639 25.1566 38.6703ZM37.552 5.92523C40.2599 6.39116 43.0152 5.39066 45.4822 3.5517C48.6069 1.22253 51.625 1.25508 54.7495 3.56266C56.2124 4.64277 57.808 5.58341 59.6694 5.83754C61.1757 6.04293 62.6975 5.89049 64.212 5.91764C64.9133 5.93029 65.6179 5.90668 66.3147 5.97042C68.1358 6.13703 69.4407 7.12 70.3461 8.66401C70.928 9.65626 71.5001 10.6561 72.0264 11.6785C73.0903 13.7451 74.6425 15.3004 76.7113 16.3579C77.8847 16.9578 79.0422 17.5866 80.1434 18.3185C81.7692 19.3989 82.4198 20.9625 82.446 22.8409C82.4633 24.077 82.4918 25.3166 82.4203 26.5492C82.2899 28.8047 82.9598 30.8043 84.1665 32.6708C84.73 33.5423 85.2557 34.4391 85.7779 35.3365C86.9604 37.3689 86.9001 39.3903 85.6935 41.3939C85.0421 42.4757 84.4014 43.564 83.7459 44.6434C82.8494 46.12 82.4163 47.7097 82.4212 49.4456C82.4261 51.1569 82.5381 52.8692 82.3764 54.5816C82.202 56.4286 81.1791 57.6836 79.6546 58.5924C78.7153 59.1524 77.7676 59.7052 76.7892 60.192C74.6214 61.2711 73.0344 62.8989 71.9515 65.0571C71.4738 66.0092 70.9228 66.9249 70.3974 67.8529C69.2963 69.7984 67.5935 70.6822 65.392 70.6758C64.1847 70.6723 62.9746 70.7136 61.7706 70.647C59.5481 70.5242 57.5714 71.1745 55.7335 72.3746C54.9352 72.8961 54.0996 73.3595 53.2892 73.8628C51.1444 75.1949 49.0125 75.1782 46.8723 73.8451C45.8007 73.1778 44.7141 72.5342 43.6262 71.8935C42.2712 71.0956 40.8175 70.6409 39.2296 70.6566C37.7416 70.6713 36.2533 70.6746 34.7652 70.6751C32.5976 70.676 30.9179 69.7981 29.82 67.8939C29.4697 67.2863 29.082 66.6932 28.8002 66.0542C27.428 62.9431 25.1231 60.8122 22.0469 59.4413C21.3602 59.1354 20.7293 58.6966 20.0924 58.2885C18.4251 57.2207 17.7634 55.6239 17.7472 53.7072C17.7394 52.8084 17.6965 51.9042 17.773 51.0111C18.021 48.1111 17.2659 45.5127 15.5732 43.1613C15.2138 42.662 14.9447 42.0989 14.6113 41.5795C13.1849 39.3566 13.2543 37.1477 14.6316 34.9308C15.2979 33.8585 15.939 32.7701 16.5817 31.6832C17.3854 30.324 17.7908 28.8583 17.766 27.2713C17.7438 25.8386 17.7559 24.4053 17.7436 22.9723C17.7244 20.7581 18.6347 19.0735 20.574 17.9738C21.5011 17.4482 22.4168 16.8984 23.3681 16.4202C25.5259 15.3353 27.1328 13.7257 28.2251 11.5708C28.8334 10.3706 29.4748 9.18796 30.2502 8.07818C31.2527 6.64378 32.6544 6.01646 34.3362 5.93332C35.2604 5.88762 36.1888 5.92523 37.552 5.92523Z" fill="#DEE2F1"/>
<path fill-rule="evenodd" clip-rule="evenodd" d="M69.7685 70.9927C71.8425 75.9557 73.9164 80.9186 75.9904 85.8817C76.347 86.7348 76.7139 87.5837 77.0558 88.4426C77.1756 88.7434 77.385 89.0748 77.1009 89.3888C76.8109 89.7094 76.4801 89.5111 76.1657 89.4099C72.9143 88.3638 69.6566 87.3358 66.4166 86.2551C65.7717 86.0397 65.5073 86.178 65.2156 86.7768C63.7413 89.8041 62.2168 92.807 60.7066 95.8171C60.5467 96.1357 60.4429 96.5102 59.9631 96.5073C59.464 96.5041 59.4005 96.0915 59.2682 95.777C56.652 89.553 54.0451 83.3249 51.441 77.0957C51.3564 76.8933 51.3215 76.6702 51.2635 76.4571C53.9191 75.6719 56.0134 73.8008 58.5078 72.7043C59.3101 72.3519 60.1554 72.1896 61.0327 72.192C62.2938 72.1954 63.556 72.1613 64.8154 72.2046C66.5876 72.266 68.2652 72.0018 69.7685 70.9927Z" fill="#B5BDDB"/>
<path fill-rule="evenodd" clip-rule="evenodd" d="M27.0565 36.078C27.0565 36.7788 27.0696 37.4798 27.0514 38.1801C27.041 38.5849 27.1374 38.8017 27.6074 38.7933C28.9234 38.77 30.2402 38.7887 31.5566 38.783C32.275 38.7798 32.6558 38.3714 32.6799 37.6894C32.7165 36.6535 32.7224 35.6144 32.6819 34.579C32.6546 33.872 32.2857 33.441 31.5064 33.4503C30.2461 33.4653 28.9851 33.471 27.7251 33.4466C27.2048 33.4363 27.0294 33.6449 27.0503 34.1442C27.077 34.7877 27.0567 35.4333 27.0565 36.078ZM25.1567 38.6702C25.1567 36.5636 25.1783 34.4569 25.143 32.3511C25.1326 31.741 25.2711 31.5216 25.9256 31.5371C27.8328 31.5822 29.7421 31.5498 31.6505 31.5542C33.265 31.5577 34.5086 32.7054 34.5671 34.3058C34.6114 35.5118 34.6127 36.7221 34.5664 37.928C34.5076 39.4543 33.3122 40.6164 31.7858 40.6537C30.4956 40.6852 29.2027 40.6973 27.9135 40.6471C27.259 40.6216 27.105 40.854 27.1254 41.4667C27.1664 42.7007 27.1583 43.9385 27.1155 45.1727C27.0974 45.695 26.8974 46.1742 26.2481 46.2339C25.7279 46.2817 25.3751 46.0387 25.2022 45.5717C25.128 45.3714 25.1584 45.1285 25.158 44.9051C25.1555 42.8267 25.1567 40.7484 25.1567 38.6702Z" fill="#464B6F"/>
<path fill-rule="evenodd" clip-rule="evenodd" d="M68.005 36.1123C68.005 36.8131 68.0234 37.5145 67.9985 38.2143C67.9825 38.6588 68.1602 38.7988 68.5901 38.7924C69.8782 38.7731 71.1668 38.7833 72.4553 38.7856C73.2137 38.787 73.6094 38.3801 73.6317 37.6551C73.6632 36.619 73.6741 35.5797 73.6269 34.5448C73.5946 33.8301 73.1903 33.4355 72.4204 33.4487C71.1884 33.4696 69.9551 33.4743 68.7234 33.4452C68.1722 33.432 67.9686 33.6318 67.997 34.1785C68.0301 34.8215 68.0047 35.4676 68.005 36.1123ZM66.1051 38.644C66.1051 36.5376 66.1315 34.4307 66.0892 32.3251C66.0763 31.6745 66.2862 31.5271 66.8998 31.5392C68.8077 31.577 70.7166 31.549 72.625 31.5544C74.2257 31.5588 75.4641 32.7273 75.517 34.3317C75.5561 35.5101 75.5537 36.6915 75.5178 37.8699C75.4698 39.4428 74.2777 40.621 72.7082 40.6549C71.3898 40.6836 70.0698 40.6814 68.7514 40.6522C68.2379 40.6409 68.0647 40.8082 68.0775 41.3241C68.1073 42.531 68.1046 43.7394 68.0787 44.9467C68.0647 45.5932 67.9358 46.2384 67.0865 46.2285C66.3423 46.2197 66.0961 45.7426 66.1002 45.0473C66.1132 42.9129 66.1051 40.7784 66.1051 38.644Z" fill="#464B6F"/>
<path fill-rule="evenodd" clip-rule="evenodd" d="M46.2705 38.9099C46.2159 38.6374 46.214 38.3395 46.0977 38.0965C45.42 36.6804 44.7357 35.2664 44.0104 33.8741C43.6946 33.2679 43.1966 33.2738 42.8782 33.8927C42.1854 35.2384 41.5361 36.6068 40.8916 37.9766C40.5588 38.6839 40.6474 39.4004 40.9854 40.0859C41.5931 41.3185 42.2127 42.5451 42.8254 43.7753C42.9658 44.0569 43.1078 44.3569 43.4784 44.3404C43.7969 44.3264 43.9399 44.0662 44.0697 43.8065C44.7097 42.5274 45.3568 41.2519 45.9966 39.9728C46.1619 39.6424 46.2585 39.292 46.2705 38.9099ZM38.815 38.9321C38.7702 38.4223 38.8056 37.9353 39.0125 37.5023C39.7863 35.8834 40.5119 34.234 41.4017 32.6798C42.3563 31.0126 44.8005 31.135 45.6802 32.8362C46.4142 34.2561 47.1051 35.6986 47.8048 37.136C48.3678 38.2927 48.3716 39.4706 47.8297 40.6288C47.2001 41.9748 46.5278 43.3009 45.8817 44.6394C45.3893 45.6593 44.6548 46.2876 43.4551 46.2465C42.3155 46.2075 41.5938 45.6153 41.1164 44.6173C40.5235 43.3773 39.9011 42.1514 39.2762 40.9272C38.9503 40.2885 38.7488 39.6296 38.815 38.9321Z" fill="#464B6F"/>
<path fill-rule="evenodd" clip-rule="evenodd" d="M57.2927 36.3203C57.2204 36.322 57.1481 36.3235 57.0756 36.3252C56.8177 37.2003 56.5383 38.0697 56.3079 38.9519C56.1198 39.6724 55.4134 40.6387 55.9035 41.0512C56.3817 41.4536 57.4491 41.1492 58.2576 41.1667C58.6091 41.1745 58.6763 41.0571 58.5732 40.7161C58.1315 39.2554 57.7172 37.7863 57.2927 36.3203ZM60.866 46.2358C60.308 46.2465 60.08 45.8706 59.9366 45.4193C59.7504 44.8321 59.5417 44.247 59.4237 43.6451C59.3256 43.1455 59.0713 43.0227 58.6091 43.0342C57.6284 43.0588 56.6461 43.0593 55.6655 43.034C55.2266 43.0225 55.0033 43.1765 54.8949 43.6065C54.7381 44.2303 54.5031 44.8345 54.3473 45.4584C54.1843 46.1109 53.7678 46.3541 53.1626 46.203C52.4682 46.0298 52.3406 45.4721 52.5081 44.8719C52.9148 43.4163 53.3652 41.9729 53.7959 40.5239C54.5854 37.867 55.3735 35.21 56.161 32.5525C56.2825 32.1424 56.4058 31.7006 56.8736 31.5896C57.446 31.4537 57.945 31.5859 58.1342 32.2406C59.3622 36.4903 60.5937 40.7389 61.8078 44.9925C62.0073 45.6917 61.5478 46.2568 60.866 46.2358Z" fill="#464B6F"/>
<path fill-rule="evenodd" clip-rule="evenodd" d="M27.0566 36.078C27.0567 35.4333 27.077 34.7878 27.0502 34.1443C27.0294 33.645 27.2049 33.4364 27.7252 33.4467C28.9852 33.4711 30.246 33.4654 31.5063 33.4504C32.2858 33.4411 32.6545 33.8721 32.682 34.579C32.7223 35.6144 32.7164 36.6536 32.6798 37.6895C32.6559 38.3714 32.275 38.7799 31.5567 38.7831C30.2403 38.7888 28.9233 38.7701 27.6074 38.7934C27.1373 38.8018 27.0409 38.5849 27.0513 38.1802C27.0697 37.4799 27.0566 36.7789 27.0566 36.078Z" fill="#DEE2F1"/>
<path fill-rule="evenodd" clip-rule="evenodd" d="M68.0049 36.1123C68.0047 35.4676 68.0301 34.8216 67.997 34.1786C67.9686 33.6319 68.1722 33.432 68.7234 33.4452C69.9551 33.4744 71.1884 33.4696 72.4204 33.4487C73.1901 33.4356 73.5946 33.8302 73.6269 34.5448C73.6741 35.5798 73.6632 36.619 73.6317 37.6551C73.6094 38.3801 73.2137 38.787 72.4553 38.7857C71.1668 38.7833 69.8782 38.7732 68.5901 38.7924C68.1602 38.7988 67.9825 38.6588 67.9985 38.2143C68.0234 37.5145 68.005 36.8131 68.0049 36.1123Z" fill="#DEE2F1"/>
<path fill-rule="evenodd" clip-rule="evenodd" d="M46.2705 38.91C46.2585 39.2921 46.1619 39.6426 45.9966 39.9729C45.3568 41.252 44.7097 42.5276 44.0697 43.8066C43.9399 44.0663 43.7969 44.3265 43.4784 44.3405C43.1078 44.3571 42.9658 44.0571 42.8254 43.7754C42.2127 42.5453 41.5931 41.3186 40.9854 40.0861C40.6474 39.4006 40.5588 38.684 40.8916 37.9768C41.5361 36.607 42.1854 35.2385 42.8782 33.8928C43.1966 33.2739 43.6946 33.268 44.0104 33.8743C44.7357 35.2665 45.42 36.6805 46.0977 38.0967C46.214 38.3397 46.2159 38.6375 46.2705 38.91Z" fill="#DEE2F1"/>
<path fill-rule="evenodd" clip-rule="evenodd" d="M57.2927 36.3203C57.7172 37.7862 58.1315 39.2554 58.5732 40.7161C58.6763 41.0571 58.6091 41.1744 58.2576 41.1667C57.4491 41.1491 56.3817 41.4535 55.9035 41.0512C55.4134 40.6387 56.1198 39.6724 56.3079 38.9518C56.5383 38.0697 56.8177 37.2002 57.0756 36.3252C57.1481 36.3235 57.2204 36.322 57.2927 36.3203Z" fill="#DEE2F1"/>
</svg>
