<svg width="100" height="100" viewBox="0 0 100 100" fill="none" xmlns="http://www.w3.org/2000/svg">
<g clip-path="url(#clip0_3427_2940)">
<path d="M76.0778 68.4502L68.2222 76.3057L54.4722 62.5558L62.3278 54.7002L76.0778 68.4502Z" fill="#9AAAB4"/>
<path d="M96.3417 80.861L80.0111 64.5304C77.8417 62.361 74.325 62.361 72.1556 64.5304L64.3 72.386C62.1306 74.5554 62.1306 78.0721 64.3 80.2415L80.6306 96.5721C84.9694 100.914 92.0083 100.914 96.3472 96.5721C100.681 92.236 100.678 85.1998 96.3417 80.861Z" fill="#66757F"/>
<path d="M37.7389 75.4692C58.4496 75.4692 75.2389 58.6799 75.2389 37.9692C75.2389 17.2586 58.4496 0.469238 37.7389 0.469238C17.0282 0.469238 0.238892 17.2586 0.238892 37.9692C0.238892 58.6799 17.0282 75.4692 37.7389 75.4692Z" fill="#8899A6"/>
<path d="M37.7389 64.3583C52.313 64.3583 64.1278 52.5436 64.1278 37.9695C64.1278 23.3953 52.313 11.5806 37.7389 11.5806C23.1647 11.5806 11.35 23.3953 11.35 37.9695C11.35 52.5436 23.1647 64.3583 37.7389 64.3583Z" fill="#BBDDF5"/>
</g>
<defs>
<clipPath id="clip0_3427_2940">
<rect width="100" height="100" fill="white"/>
</clipPath>
</defs>
</svg>
