<svg width="21" height="21" viewBox="0 0 21 21" fill="none" xmlns="http://www.w3.org/2000/svg">
<path d="M4.15252 12.9322C5.30073 12.6395 5.88739 11.0521 5.46286 9.38659C5.03833 7.72108 3.76337 6.60819 2.61516 6.90087C1.46694 7.19354 0.880283 8.78096 1.30481 10.4465C1.72935 12.112 3.00431 13.2249 4.15252 12.9322Z" fill="#D79E84"/>
<path d="M19.6958 10.4472C20.1203 8.78167 19.5336 7.19425 18.3854 6.90157C17.2372 6.6089 15.9623 7.7218 15.5377 9.3873C15.1132 11.0528 15.6999 12.6402 16.8481 12.9329C17.9963 13.2256 19.2712 12.1127 19.6958 10.4472Z" fill="#D79E84"/>
<path d="M11.0746 20.4167H9.92545C6.13378 20.4167 2.45703 17.5105 2.45703 13.4423C2.45703 11.1178 3.31861 9.95517 3.31861 9.95517C3.31861 9.95517 3.03161 8.79258 3.03161 7.63058C3.03161 4.14342 6.70836 1.23725 10.5 1.23725C14.2917 1.23725 17.9684 4.72442 17.9684 7.63058C17.9684 8.79317 17.6814 9.95517 17.6814 9.95517C17.6814 9.95517 18.543 11.1178 18.543 13.4423C18.543 17.5105 14.8663 20.4167 11.0746 20.4167Z" fill="#BF6952"/>
<path d="M12.9743 0.0991632C12.9743 0.0991632 9.88086 -0.519753 8.64361 1.33641C7.40636 3.19258 11.1181 1.95533 11.1181 1.95533C11.1181 1.95533 11.737 0.0991632 12.9743 0.0991632Z" fill="#BF6952"/>
<path d="M17.3058 8.97109C17.3058 6.75033 15.5051 4.94958 13.2843 4.94958C12.2028 4.94958 11.2228 5.37892 10.5001 6.07309C9.77734 5.37834 8.79734 4.94958 7.71584 4.94958C5.49509 4.94958 3.69434 6.75033 3.69434 8.97109C3.69434 10.318 4.35934 11.5074 5.3755 12.2372C5.09025 12.9442 4.93159 13.7223 4.93159 14.539C4.93159 17.7853 7.42475 19.7978 10.4995 19.7978C13.5743 19.7978 16.0674 17.7853 16.0674 14.539C16.0674 13.7218 15.9088 12.9442 15.6235 12.2372C16.6408 11.5074 17.3058 10.318 17.3058 8.97109Z" fill="#D79E84"/>
<path d="M7.58317 11.6667C8.2275 11.6667 8.74984 10.8832 8.74984 9.91666C8.74984 8.95017 8.2275 8.16666 7.58317 8.16666C6.93884 8.16666 6.4165 8.95017 6.4165 9.91666C6.4165 10.8832 6.93884 11.6667 7.58317 11.6667Z" fill="#292F33"/>
<path d="M13.4167 11.6667C14.061 11.6667 14.5833 10.8832 14.5833 9.91666C14.5833 8.95017 14.061 8.16666 13.4167 8.16666C12.7723 8.16666 12.25 8.95017 12.25 9.91666C12.25 10.8832 12.7723 11.6667 13.4167 11.6667Z" fill="#292F33"/>
<path d="M10.4998 18.375C12.0835 18.375 13.4322 17.57 13.9385 16.4448C14.1479 15.9793 13.7927 15.4583 13.2636 15.4583H7.73593C7.20685 15.4583 6.8516 15.9793 7.06102 16.4448C7.56735 17.57 8.91602 18.375 10.4998 18.375Z" fill="#642116"/>
<path d="M9.62484 13.4523C9.947 13.4523 10.2082 13.1752 10.2082 12.8333C10.2082 12.4915 9.947 12.2144 9.62484 12.2144C9.30267 12.2144 9.0415 12.4915 9.0415 12.8333C9.0415 13.1752 9.30267 13.4523 9.62484 13.4523Z" fill="#642116"/>
<path d="M11.3748 13.4167C11.697 13.4167 11.9582 13.1555 11.9582 12.8333C11.9582 12.5112 11.697 12.25 11.3748 12.25C11.0527 12.25 10.7915 12.5112 10.7915 12.8333C10.7915 13.1555 11.0527 13.4167 11.3748 13.4167Z" fill="#642116"/>
<path d="M4.00967 13.5596C4.3585 12.8053 4.52067 12.2045 4.52067 11.6667C4.52067 10.9037 4.16834 10.1733 3.88484 9.5865C3.725 9.25517 3.55992 8.91217 3.55992 8.75C3.55992 8.63742 3.64275 8.28742 3.71567 7.97825C3.94142 7.02392 4.222 5.83567 3.86909 5.26634C3.78159 5.12575 3.61592 4.95834 3.31959 4.95834C2.1815 4.95834 0.437337 7.441 0.437337 10.5C0.437337 12.0027 0.538837 12.9366 0.761087 13.482L0.291504 21H4.37484L3.88659 13.7428C3.93617 13.6885 3.97817 13.6278 4.00967 13.5596Z" fill="#BF6952"/>
<path d="M4.00967 13.5596C4.3585 12.8053 4.52067 12.2045 4.52067 11.6667C4.52067 10.9037 4.16834 10.1733 3.88484 9.5865C3.725 9.25517 3.55992 8.91217 3.55992 8.75C3.55992 8.63742 3.64275 8.28742 3.71567 7.97825C3.94142 7.02392 4.222 5.83567 3.86909 5.26633C3.83175 5.20683 3.77692 5.14442 3.7075 5.08958C3.27934 5.87183 3.03142 6.73108 3.03142 7.63058C3.03142 8.79258 2.9165 11.1178 2.9165 13.4423C2.9165 13.6261 4.08317 21 4.08317 21H4.37484L3.88542 13.7264C3.9315 13.6745 3.97992 13.6243 4.00967 13.5596Z" fill="#9B3C07"/>
<path d="M3.31965 5.54166C2.51873 5.54166 0.91748 7.68541 0.91748 10.5C0.91748 11.9828 1.0254 12.9348 1.23831 13.3297C1.38706 13.6068 1.8129 13.6039 2.22298 13.5998L2.35831 13.5992C3.03498 13.5992 3.51623 13.4342 3.59031 13.2737C3.89306 12.6198 4.04006 12.0937 4.04006 11.6667C4.04006 11.0623 3.73731 10.4347 3.47015 9.88108C3.25198 9.42841 3.07931 9.07083 3.07931 8.75C3.07931 8.5645 3.14231 8.28858 3.25373 7.81725C3.40773 7.16625 3.69415 5.95408 3.48473 5.6175C3.47131 5.59475 3.43806 5.54166 3.31965 5.54166Z" fill="#D79E84"/>
<path d="M20.7082 21L20.2386 13.482C20.4608 12.9366 20.5623 12.0033 20.5623 10.5C20.5623 7.441 18.8182 4.95834 17.6801 4.95834C17.3838 4.95834 17.2181 5.12575 17.1306 5.26634C16.7771 5.83567 17.0583 7.02392 17.284 7.97825C17.3569 8.28742 17.4398 8.63742 17.4398 8.75C17.4398 8.91217 17.2747 9.25517 17.1148 9.5865C16.8313 10.1733 16.479 10.9043 16.479 11.6667C16.479 12.2045 16.6412 12.8053 16.9906 13.5596C17.0221 13.6278 17.0641 13.6885 17.1137 13.7428L16.6248 21H20.7082Z" fill="#BF6952"/>
<path d="M18.0832 13.4423C18.0832 11.1178 17.9683 8.79258 17.9683 7.63058C17.9683 6.82908 17.6807 5.98442 17.1959 5.18C17.1714 5.20917 17.1481 5.23833 17.1306 5.26633C16.7771 5.83567 17.0583 7.02392 17.284 7.97825C17.3569 8.28742 17.4398 8.63742 17.4398 8.75C17.4398 8.91217 17.2747 9.25517 17.1148 9.5865C16.8313 10.1733 16.479 10.9043 16.479 11.6667C16.479 12.2045 16.6412 12.8053 16.9906 13.5596C17.0203 13.6238 17.0688 13.6745 17.1148 13.7264L16.6248 21H16.9165C16.9165 21 18.0832 13.6261 18.0832 13.4423Z" fill="#9B3C07"/>
<path d="M17.6805 5.54166C17.5621 5.54166 17.5288 5.59475 17.5148 5.6175C17.306 5.95408 17.5924 7.16625 17.7458 7.81725C17.8572 8.28858 17.9202 8.5645 17.9202 8.75C17.9202 9.07083 17.7476 9.42841 17.5294 9.88108C17.2622 10.4347 16.9595 11.0623 16.9595 11.6667C16.9595 12.0937 17.1065 12.6198 17.4086 13.2737C17.4827 13.4336 17.9634 13.5992 18.6406 13.5992L18.776 13.5998C19.1855 13.6039 19.6113 13.6068 19.7612 13.3297C19.9741 12.9354 20.0821 11.9834 20.0821 10.5C20.0821 7.68541 18.4814 5.54166 17.6805 5.54166Z" fill="#D79E84"/>
</svg>
