<svg width="21" height="21" viewBox="0 0 21 21" fill="none" xmlns="http://www.w3.org/2000/svg">
<path d="M11.0746 20.4167H9.92545C6.13378 20.4167 2.45703 17.5105 2.45703 13.4423C2.45703 11.1178 3.31861 9.95517 3.31861 9.95517C3.31861 9.95517 3.03161 8.79258 3.03161 7.63058C3.03161 4.14342 6.70836 1.23725 10.5 1.23725C14.2917 1.23725 17.9684 4.72442 17.9684 7.63058C17.9684 8.79317 17.6814 9.95517 17.6814 9.95517C17.6814 9.95517 18.543 11.1178 18.543 13.4423C18.543 17.5105 14.8663 20.4167 11.0746 20.4167Z" fill="#BF6952"/>
<path d="M17.3058 8.97108C17.3058 6.75033 15.5051 4.94958 13.2843 4.94958C12.2028 4.94958 11.2228 5.37892 10.5001 6.07308C9.77734 5.37833 8.79734 4.94958 7.71584 4.94958C5.49509 4.94958 3.69434 6.75033 3.69434 8.97108C3.69434 10.318 4.35934 11.5074 5.3755 12.2372C5.09025 12.9442 4.93159 13.7223 4.93159 14.539C4.93159 17.7852 7.42475 19.7977 10.4995 19.7977C13.5743 19.7977 16.0674 17.7852 16.0674 14.539C16.0674 13.7217 15.9088 12.9442 15.6235 12.2372C16.6408 11.5074 17.3058 10.318 17.3058 8.97108Z" fill="#D79E84"/>
<path d="M7.58317 11.6667C8.2275 11.6667 8.74984 10.8832 8.74984 9.91667C8.74984 8.95017 8.2275 8.16667 7.58317 8.16667C6.93884 8.16667 6.4165 8.95017 6.4165 9.91667C6.4165 10.8832 6.93884 11.6667 7.58317 11.6667Z" fill="#292F33"/>
<path d="M13.4167 11.6667C14.061 11.6667 14.5833 10.8832 14.5833 9.91667C14.5833 8.95017 14.061 8.16667 13.4167 8.16667C12.7723 8.16667 12.25 8.95017 12.25 9.91667C12.25 10.8832 12.7723 11.6667 13.4167 11.6667Z" fill="#292F33"/>
<path d="M10.4998 18.375C12.0835 18.375 13.4322 17.57 13.9385 16.4447C14.1479 15.9792 13.7927 15.4583 13.2636 15.4583H7.73593C7.20685 15.4583 6.8516 15.9792 7.06102 16.4447C7.56735 17.57 8.91602 18.375 10.4998 18.375Z" fill="#642116"/>
<path d="M9.62484 13.4523C9.947 13.4523 10.2082 13.1752 10.2082 12.8333C10.2082 12.4915 9.947 12.2144 9.62484 12.2144C9.30267 12.2144 9.0415 12.4915 9.0415 12.8333C9.0415 13.1752 9.30267 13.4523 9.62484 13.4523Z" fill="#642116"/>
<path d="M11.3748 13.4167C11.697 13.4167 11.9582 13.1555 11.9582 12.8333C11.9582 12.5112 11.697 12.25 11.3748 12.25C11.0527 12.25 10.7915 12.5112 10.7915 12.8333C10.7915 13.1555 11.0527 13.4167 11.3748 13.4167Z" fill="#642116"/>
<path d="M12.9743 0.0991665C12.9743 0.0991665 9.88086 -0.51975 8.64361 1.33642C7.40636 3.19258 11.1181 1.95533 11.1181 1.95533C11.1181 1.95533 11.737 0.0991665 12.9743 0.0991665Z" fill="#BF6952"/>
<path d="M5.24984 18.6649C5.32275 19.0493 6.28875 19.4868 6.28875 19.4868L5.83317 11.081L4.6665 14C4.6665 14 5.17692 18.2799 5.24984 18.6649ZM15.7498 18.6649C15.6402 19.0861 14.729 19.4688 14.729 19.4688L15.1671 11.081L16.3332 14C16.3332 14 15.8595 18.2438 15.7498 18.6649Z" fill="#9B3C07"/>
<path d="M1.1665 21H5.83317L5.24284 11.7641L2.91125 9.33275L1.1665 21ZM19.8332 21H15.1665L15.751 11.7641L18.0826 9.33275L19.8332 21Z" fill="#BF6952"/>
<path d="M17.8549 8.78092C17.8549 8.78092 17.9715 7.33658 18.5531 6.71475C19.3126 5.90217 20.2273 6.53158 20.1567 7.67142C19.9 11.8049 18.9924 12.9407 17.8129 13.6191C16.6339 14.2981 15.0193 14.1709 13.3107 12.5271C11.6021 10.8833 10.8852 9.87058 10.681 9.1455C10.4769 8.41983 11.2387 7.83067 11.8885 8.19992C12.473 8.53183 13.3527 9.54625 13.3527 9.54625C13.3527 9.54625 12.2169 7.97358 12.0559 7.36575C11.8331 6.52517 12.8271 6.0235 13.3667 6.48667C13.8987 6.94342 14.9954 8.32767 14.9954 8.32767C14.9954 8.32767 14.0585 6.89033 13.9722 6.19792C13.887 5.51425 14.6949 4.90992 15.4089 5.50608C16.1224 6.10283 17.2692 7.8225 17.8549 8.78092ZM3.14552 8.78092C3.14552 8.78092 3.02886 7.33658 2.44727 6.71475C1.68777 5.90217 0.773107 6.53158 0.84369 7.67142C1.10036 11.8049 2.00802 12.9407 3.18752 13.6191C4.36644 14.2981 5.98111 14.1709 7.68969 12.5271C9.39827 10.8833 10.1152 9.87058 10.3194 9.1455C10.5235 8.41983 9.76169 7.83067 9.11186 8.19992C8.52736 8.53183 7.64769 9.54625 7.64769 9.54625C7.64769 9.54625 8.78344 7.97358 8.94444 7.36575C9.16727 6.52517 8.17327 6.0235 7.63369 6.48667C7.10169 6.94342 6.00502 8.32767 6.00502 8.32767C6.00502 8.32767 6.94186 6.89033 7.02819 6.19792C7.11336 5.51425 6.30544 4.90992 5.59144 5.50608C4.87744 6.10225 3.73119 7.8225 3.14552 8.78092Z" fill="#D79E84"/>
<path d="M16.3811 14.2987C15.3136 14.2987 14.1796 13.7684 13.1081 12.7377C11.4776 11.1697 10.6423 10.0858 10.4002 9.22483C10.2736 8.77508 10.4201 8.31833 10.7829 8.03425C11.1282 7.76358 11.5774 7.71925 11.9706 7.9135C11.879 7.73383 11.8084 7.5705 11.774 7.441C11.6421 6.94458 11.8265 6.46917 12.2541 6.20083C12.6776 5.93483 13.2008 5.9605 13.5566 6.26617C13.6056 6.30875 13.6593 6.35775 13.7153 6.41258C13.7001 6.35017 13.6885 6.29067 13.6815 6.23467C13.6249 5.782 13.8606 5.32875 14.2671 5.1065C14.6912 4.8755 15.1871 4.94258 15.5942 5.28267C16.2476 5.82867 17.1587 7.15575 17.6884 7.97242C17.7975 7.48592 17.9935 6.88508 18.3388 6.51525C18.7361 6.09 19.2348 5.94825 19.6758 6.13783C20.1886 6.35892 20.4913 6.96792 20.4464 7.68892C20.1921 11.7903 19.3054 13.0958 17.9567 13.8723C17.4626 14.1581 16.9301 14.2987 16.3811 14.2987ZM11.4683 8.37783C11.3534 8.37783 11.2402 8.41633 11.1422 8.49333C10.9666 8.631 10.899 8.84508 10.9608 9.06675C11.1679 9.80175 12.0021 10.8652 13.5117 12.3171C14.9549 13.7043 16.4296 14.077 17.6668 13.3665C18.634 12.8094 19.6006 11.9093 19.8648 7.65333C19.8981 7.11608 19.6781 6.77425 19.4448 6.67392C19.2377 6.58292 18.9951 6.66925 18.7652 6.91425C18.347 7.36225 18.1755 8.43092 18.1451 8.80483C18.1346 8.93083 18.0448 9.03583 17.9217 9.065C17.7992 9.09475 17.6715 9.0405 17.6056 8.93317C17.0438 8.01442 15.9098 6.30583 15.2209 5.73067C14.9176 5.4775 14.6685 5.55158 14.5471 5.61867C14.3482 5.72717 14.2333 5.94533 14.2607 6.16233C14.3249 6.67567 14.9887 7.78458 15.2396 8.169C15.3247 8.29967 15.2921 8.4735 15.1655 8.56508C15.0401 8.65608 14.8633 8.63217 14.7665 8.50967C14.7554 8.49625 13.6809 7.14175 13.1757 6.70892C12.9931 6.55142 12.7295 6.59108 12.5632 6.69492C12.4641 6.75733 12.2436 6.93992 12.3369 7.29167C12.4576 7.74725 13.2807 8.95125 13.5881 9.3765C13.6791 9.50308 13.6552 9.67925 13.5327 9.77608C13.4108 9.87175 13.2335 9.85658 13.1314 9.73875C12.8963 9.46692 12.1876 8.70625 11.7442 8.45483C11.655 8.40292 11.5611 8.37783 11.4683 8.37783Z" fill="#BF6952"/>
<path d="M4.61866 14.2987C4.06916 14.2987 3.53716 14.1581 3.04132 13.8728C1.69324 13.0964 0.806575 11.7915 0.552241 7.6895C0.507325 6.9685 0.810075 6.3595 1.32341 6.13842C1.76091 5.94942 2.26199 6.09 2.65982 6.51583C3.00516 6.88508 3.20174 7.48592 3.31082 7.973C3.84049 7.15692 4.75049 5.82983 5.40499 5.28325C5.81274 4.942 6.30857 4.8755 6.73149 5.10708C7.13866 5.32875 7.37432 5.78258 7.31716 6.23525C7.31016 6.29125 7.29849 6.35075 7.28332 6.41317C7.33991 6.35833 7.39299 6.30875 7.44257 6.26675C7.79724 5.96225 8.32166 5.936 8.74457 6.20142C9.17274 6.46975 9.35707 6.94517 9.22582 7.44158C9.19141 7.57108 9.12082 7.73442 9.02982 7.91467C9.42182 7.721 9.87157 7.76475 10.2163 8.03542C10.5797 8.3195 10.7262 8.77625 10.5996 9.226C10.3569 10.0882 9.52157 11.1714 7.89116 12.7388C6.82016 13.7684 5.68616 14.2987 4.61866 14.2987ZM1.72299 6.63892C1.66466 6.63892 1.60866 6.65058 1.55382 6.67392C1.32107 6.77425 1.10116 7.11608 1.13441 7.65333C1.39866 11.9093 2.36524 12.8094 3.33241 13.3665C4.56966 14.0787 6.04374 13.7054 7.48691 12.3171C8.99657 10.8657 9.83074 9.80233 10.0378 9.06675C10.1002 8.84508 10.0326 8.63042 9.85699 8.49333C9.68024 8.3545 9.45508 8.33933 9.25499 8.45367C8.81108 8.70625 8.10291 9.46575 7.86724 9.73758C7.76458 9.85542 7.58724 9.87117 7.46591 9.77492C7.34399 9.67808 7.31949 9.50192 7.41049 9.37533C7.71733 8.95008 8.54099 7.74608 8.66232 7.2905C8.75566 6.93875 8.53457 6.75617 8.43541 6.69375C8.26974 6.58933 8.00724 6.54908 7.82349 6.70775C7.31891 7.14117 6.24441 8.49508 6.23391 8.5085C6.13707 8.62983 5.96149 8.65492 5.83491 8.56392C5.70832 8.47292 5.67566 8.2985 5.76083 8.16783C6.01108 7.78342 6.67549 6.67392 6.73908 6.16117C6.76591 5.94417 6.65099 5.726 6.45266 5.6175C6.33133 5.55158 6.08166 5.47692 5.77949 5.7295C5.17866 6.23117 4.12224 7.74142 3.39424 8.932C3.32832 9.03992 3.20232 9.09417 3.07807 9.06383C2.95557 9.03467 2.86516 8.92967 2.85466 8.80367C2.82432 8.42975 2.65282 7.36108 2.23457 6.91308C2.06424 6.73283 1.88807 6.63892 1.72299 6.63892Z" fill="#BF6952"/>
<path d="M15.1599 5.69217C15.1809 5.70733 15.2001 5.71258 15.2217 5.73067C15.9106 6.30583 17.0446 8.01442 17.6064 8.93317C17.6589 9.01833 17.7516 9.05567 17.8479 9.05858C17.9739 8.44492 18.0071 7.72683 18.003 7.04317C17.8589 7.34533 17.7551 7.67725 17.6892 7.97242C17.1595 7.15575 16.2484 5.82867 15.595 5.28267C15.2065 4.95775 14.7387 4.89067 14.3286 5.08433C14.7206 5.21617 14.9819 5.44308 15.1599 5.69217ZM3.39402 8.93317C4.12202 7.742 5.17844 6.23233 5.77927 5.73067C5.81952 5.69683 5.85569 5.68283 5.89361 5.66008C6.06802 5.42675 6.32002 5.21733 6.68636 5.09075C6.27336 4.88717 5.79852 4.95367 5.40477 5.28325C4.75027 5.82983 3.83969 7.15692 3.31061 7.973C3.24877 7.69767 3.15486 7.38908 3.02594 7.10383C3.02419 7.76942 3.05919 8.46183 3.18052 9.05742C3.26686 9.04575 3.34736 9.00958 3.39402 8.93317Z" fill="#9B3C07"/>
</svg>
