<svg width="21" height="21" viewBox="0 0 21 21" fill="none" xmlns="http://www.w3.org/2000/svg">
<g clip-path="url(#clip0_2709_1949)">
<path d="M4.15252 12.9322C5.30073 12.6395 5.88739 11.0521 5.46286 9.38659C5.03833 7.72108 3.76337 6.60819 2.61516 6.90087C1.46694 7.19354 0.880283 8.78096 1.30481 10.4465C1.72935 12.112 3.00431 13.2249 4.15252 12.9322Z" fill="#D79E84"/>
<path d="M19.6958 10.4472C20.1203 8.78167 19.5336 7.19425 18.3854 6.90157C17.2372 6.6089 15.9623 7.7218 15.5377 9.3873C15.1132 11.0528 15.6999 12.6402 16.8481 12.9329C17.9963 13.2256 19.2712 12.1127 19.6958 10.4472Z" fill="#D79E84"/>
<path d="M11.0746 20.4167H9.92545C6.13378 20.4167 2.45703 17.5105 2.45703 13.4423C2.45703 11.1178 3.31861 9.95517 3.31861 9.95517C3.31861 9.95517 3.03161 8.79258 3.03161 7.63058C3.03161 4.14342 6.70836 1.23725 10.5 1.23725C14.2917 1.23725 17.9684 4.72442 17.9684 7.63058C17.9684 8.79317 17.6814 9.95517 17.6814 9.95517C17.6814 9.95517 18.543 11.1178 18.543 13.4423C18.543 17.5105 14.8663 20.4167 11.0746 20.4167Z" fill="#BF6952"/>
<path d="M17.3058 8.97109C17.3058 6.75033 15.5051 4.94958 13.2843 4.94958C12.2028 4.94958 11.2228 5.37892 10.5001 6.07309C9.77734 5.37834 8.79734 4.94958 7.71584 4.94958C5.49509 4.94958 3.69434 6.75033 3.69434 8.97109C3.69434 10.318 4.35934 11.5074 5.3755 12.2372C5.09025 12.9442 4.93159 13.7223 4.93159 14.539C4.93159 17.7853 7.42475 19.7978 10.4995 19.7978C13.5743 19.7978 16.0674 17.7853 16.0674 14.539C16.0674 13.7218 15.9088 12.9442 15.6235 12.2372C16.6408 11.5074 17.3058 10.318 17.3058 8.97109Z" fill="#D79E84"/>
<path d="M7.58317 11.6667C8.2275 11.6667 8.74984 10.8832 8.74984 9.91667C8.74984 8.95017 8.2275 8.16667 7.58317 8.16667C6.93884 8.16667 6.4165 8.95017 6.4165 9.91667C6.4165 10.8832 6.93884 11.6667 7.58317 11.6667Z" fill="#292F33"/>
<path d="M13.4167 11.6667C14.061 11.6667 14.5833 10.8832 14.5833 9.91667C14.5833 8.95017 14.061 8.16667 13.4167 8.16667C12.7723 8.16667 12.25 8.95017 12.25 9.91667C12.25 10.8832 12.7723 11.6667 13.4167 11.6667Z" fill="#292F33"/>
<path d="M10.4998 18.375C12.0835 18.375 13.4322 17.57 13.9385 16.4447C14.1479 15.9792 13.7927 15.4583 13.2636 15.4583H7.73593C7.20685 15.4583 6.8516 15.9792 7.06102 16.4447C7.56735 17.57 8.91602 18.375 10.4998 18.375Z" fill="#642116"/>
<path d="M9.62484 13.4523C9.947 13.4523 10.2082 13.1752 10.2082 12.8333C10.2082 12.4915 9.947 12.2144 9.62484 12.2144C9.30267 12.2144 9.0415 12.4915 9.0415 12.8333C9.0415 13.1752 9.30267 13.4523 9.62484 13.4523Z" fill="#642116"/>
<path d="M11.3748 13.4167C11.697 13.4167 11.9582 13.1555 11.9582 12.8333C11.9582 12.5112 11.697 12.25 11.3748 12.25C11.0527 12.25 10.7915 12.5112 10.7915 12.8333C10.7915 13.1555 11.0527 13.4167 11.3748 13.4167Z" fill="#642116"/>
<path d="M12.9745 0.0992395C12.9745 0.0992395 9.88108 -0.519677 8.64383 1.33649C7.40658 3.19266 11.1183 1.95541 11.1183 1.95541C11.1183 1.95541 11.7373 0.0992395 12.9745 0.0992395ZM21 21.0001L12.8333 18.6667L14.5833 15.1667L21 16.3334V21.0001ZM0 21.0001L8.16667 18.6667L6.41667 15.1667L0 16.3334V21.0001Z" fill="#BF6952"/>
<path d="M7.21519 14.5839C7.21519 14.5839 7.28403 13.8489 7.27003 12.9978C7.25194 11.886 5.76386 11.3342 5.30128 12.3783C4.73603 13.6547 4.02494 16.7172 4.44436 18.011C4.86378 19.3048 5.92078 20.3262 8.29086 20.2533C10.6609 20.1804 12.7207 19.7248 13.3589 19.3235C13.997 18.9222 13.8518 17.9363 13.122 17.7742C12.4658 17.6283 10.6609 17.92 10.6609 17.92C10.6609 17.92 12.5585 17.5152 13.0853 17.1727C13.8144 16.6991 13.4131 15.6596 12.7026 15.6415C12.0014 15.6234 10.2596 15.9151 10.2596 15.9151C10.2596 15.9151 11.9186 15.4776 12.4471 15.022C12.9692 14.5722 12.7749 13.5817 11.8457 13.5456C10.9164 13.5094 8.09019 14.1097 7.21519 14.5839Z" fill="#D79E84"/>
<path d="M8.05329 20.5491C5.99995 20.5491 4.69329 19.726 4.16712 18.1014C3.69696 16.6507 4.49379 13.482 5.03454 12.2605C5.27837 11.7087 5.79287 11.4374 6.37446 11.5576C6.95487 11.6748 7.54871 12.2057 7.56154 12.9937C7.56854 13.4277 7.55512 13.8291 7.53937 14.1237C8.73871 13.6722 11.0195 13.2142 11.8566 13.2539C12.388 13.2749 12.8005 13.5584 12.9591 14.0134C13.1125 14.4509 12.983 14.9456 12.6371 15.2431C12.5945 15.2792 12.5461 15.316 12.493 15.3522C12.5718 15.3498 12.6453 15.3492 12.7095 15.3504C13.1779 15.3627 13.5833 15.694 13.7192 16.1752C13.8563 16.6617 13.6743 17.1377 13.2438 17.4177C13.2117 17.4387 13.1761 17.4592 13.1359 17.4802L13.1843 17.4901C13.6317 17.5898 13.9578 17.9352 14.0371 18.3919C14.1176 18.858 13.9117 19.3212 13.5133 19.5708C12.8535 19.9862 10.802 20.4686 8.29945 20.5456C8.21604 20.5473 8.13379 20.5491 8.05329 20.5491ZM6.11779 12.1147C5.94629 12.1147 5.7077 12.1794 5.5677 12.4962C4.9762 13.832 4.34679 16.7627 4.72187 17.9212C5.18621 19.3538 6.35171 20.0305 8.28195 19.9617C10.564 19.8917 12.6126 19.4477 13.2035 19.0767C13.4427 18.9257 13.4946 18.6748 13.4625 18.4899C13.424 18.2677 13.273 18.1067 13.0583 18.0588C12.5636 17.9492 11.194 18.1294 10.7069 18.2076C10.5517 18.2367 10.403 18.1294 10.3738 17.9737C10.3446 17.8179 10.445 17.668 10.5995 17.6347C11.1129 17.5251 12.5315 17.185 12.9259 16.9283C13.231 16.73 13.1895 16.4459 13.1575 16.3327C13.1044 16.1449 12.937 15.939 12.6943 15.9326C12.0095 15.904 10.3242 16.1992 10.3073 16.2021C10.1521 16.2289 10.0069 16.128 9.97421 15.9757C9.94154 15.8229 10.0343 15.6718 10.1848 15.6322C10.6281 15.5149 11.8648 15.1369 12.2562 14.7997C12.4213 14.6574 12.4831 14.4177 12.4085 14.2042C12.3624 14.0729 12.2265 13.8512 11.8339 13.8355C10.9869 13.8005 8.19096 14.3862 7.35387 14.8394C7.25821 14.8902 7.14329 14.8861 7.05404 14.8266C6.96421 14.7671 6.91404 14.6638 6.92395 14.5559C6.92454 14.5489 6.99104 13.8262 6.97762 13.0019C6.97004 12.523 6.60954 12.1992 6.25779 12.1281C6.2222 12.1211 6.17379 12.1147 6.11779 12.1147Z" fill="#BF6952"/>
<path d="M13.785 14.5839C13.785 14.5839 13.7161 13.8489 13.7301 12.9978C13.7482 11.886 15.2363 11.3342 15.6989 12.3783C16.2641 13.6547 16.9752 16.7172 16.5558 18.011C16.1364 19.3048 15.0794 20.3262 12.7093 20.2533C10.3392 20.1804 8.27947 19.7248 7.64131 19.3235C7.00314 18.9222 7.14839 17.9363 7.87814 17.7742C8.53439 17.6283 10.3392 17.92 10.3392 17.92C10.3392 17.92 8.44164 17.5152 7.91489 17.1727C7.18572 16.6991 7.58706 15.6596 8.29756 15.6415C8.99872 15.6234 10.7406 15.9151 10.7406 15.9151C10.7406 15.9151 9.08156 15.4776 8.55306 15.022C8.03097 14.5722 8.22522 13.5817 9.15447 13.5456C10.0837 13.5094 12.91 14.1097 13.785 14.5839Z" fill="#D79E84"/>
<path d="M12.9466 20.5491C12.8655 20.5491 12.7839 20.5473 12.6999 20.545C10.1974 20.468 8.14577 19.9856 7.48602 19.5702C7.0876 19.32 6.88169 18.8568 6.96277 18.3913C7.04152 17.9346 7.36819 17.5892 7.81502 17.4895L7.86344 17.4796C7.82435 17.4586 7.78819 17.4382 7.7561 17.4172C7.32502 17.1377 7.14302 16.6612 7.28069 16.1747C7.4166 15.6934 7.8226 15.3615 8.29044 15.3498C8.35519 15.3487 8.4281 15.3492 8.50685 15.3516C8.45377 15.3154 8.40535 15.2792 8.36219 15.2425C8.01685 14.9444 7.88735 14.4503 8.04019 14.0128C8.19885 13.5584 8.61127 13.2743 9.14269 13.2533C9.9786 13.2247 12.2612 13.6722 13.4599 14.1231C13.4448 13.8285 13.4308 13.4277 13.4378 12.9932C13.4506 12.2057 14.0444 11.6742 14.6243 11.557C15.2099 11.4368 15.7204 11.7081 15.9648 12.2599C16.5061 13.4814 17.3024 16.6495 16.8322 18.1008C16.3066 19.7254 14.9999 20.5485 12.9466 20.5491ZM8.3826 18.0238C8.20527 18.0238 8.05185 18.0343 7.94219 18.0588C7.72752 18.1067 7.57644 18.2677 7.53794 18.4899C7.50585 18.6742 7.55719 18.9257 7.79694 19.0767C8.38727 19.4477 10.4365 19.8911 12.7185 19.9617C14.6435 20.0206 15.8149 19.3538 16.2786 17.9212C16.6543 16.7632 16.0237 13.832 15.4328 12.4962C15.2467 12.0762 14.8885 12.0989 14.7415 12.1287C14.3898 12.1998 14.0299 12.5236 14.0223 13.0025C14.0094 13.8267 14.0754 14.5495 14.0759 14.5571C14.0859 14.6644 14.0363 14.7677 13.9459 14.8272C13.856 14.8872 13.7399 14.8913 13.646 14.84C12.8089 14.3873 10.0369 13.7982 9.16602 13.8361C8.77285 13.8512 8.63694 14.0735 8.59144 14.2047C8.51735 14.4177 8.57802 14.6574 8.74369 14.8003C9.1351 15.1381 10.3718 15.5161 10.8151 15.6327C10.9656 15.6724 11.0584 15.8235 11.0257 15.9763C10.9924 16.1286 10.8437 16.2272 10.692 16.2027C10.6745 16.1997 8.96419 15.9151 8.30502 15.9332C8.06235 15.9396 7.89435 16.1449 7.84127 16.3333C7.80919 16.4459 7.76835 16.7306 8.07344 16.9289C8.46835 17.185 9.88644 17.5257 10.3998 17.6353C10.5544 17.6686 10.6547 17.8185 10.6255 17.9742C10.5964 18.13 10.447 18.235 10.2924 18.2082C9.91444 18.1463 9.00152 18.0238 8.3826 18.0238Z" fill="#BF6952"/>
<path d="M5.62518 12.4046C5.45602 12.2885 5.29793 12.1695 5.15327 12.047C5.10893 12.1129 5.06868 12.1829 5.03427 12.2605C4.72393 12.9611 4.33252 14.3004 4.14118 15.5902L2.88818 15.8527L4.63702 16.3654L4.72743 15.6258C4.9001 14.4748 5.23785 13.2393 5.56685 12.4962C5.58435 12.4583 5.60652 12.4355 5.62518 12.4046ZM16.8678 15.6468C16.6799 14.3401 16.2803 12.971 15.9653 12.2605C15.9298 12.1794 15.8866 12.1065 15.8393 12.0382C15.6912 12.1642 15.5384 12.2856 15.3791 12.4023C15.3972 12.432 15.4158 12.4606 15.4322 12.4962C15.8335 13.4027 16.2518 15.043 16.362 16.366L18.1243 15.8527L16.8678 15.6468Z" fill="#9B3C07"/>
</g>
<defs>
<clipPath id="clip0_2709_1949">
<rect width="21" height="21" fill="white"/>
</clipPath>
</defs>
</svg>
