<svg width="21" height="21" viewBox="0 0 21 21" fill="none" xmlns="http://www.w3.org/2000/svg">
<path d="M21 18.6667C21 19.9552 19.9552 21 18.6667 21H2.33333C1.04475 21 0 19.9552 0 18.6667V2.33333C0 1.04475 1.04475 0 2.33333 0H18.6667C19.9552 0 21 1.04475 21 2.33333V18.6667Z" fill="#77B255"/>
<path d="M17.0798 3.71117C16.4054 3.27308 15.5024 3.465 15.0626 4.1405L8.71244 13.9283L5.77885 11.2158C5.18735 10.6686 4.26452 10.7053 3.71794 11.2963C3.17135 11.8878 3.20752 12.8106 3.79902 13.3572L8.00427 17.2457C8.28427 17.5052 8.6401 17.6336 8.9936 17.6336C9.38619 17.6336 9.88844 17.4691 10.218 16.9692C10.4117 16.674 17.5097 5.72833 17.5097 5.72833C17.9478 5.05225 17.7553 4.14925 17.0798 3.71117Z" fill="white"/>
</svg>
